<?xml version="1.0" standalone="no"?>
<!DOCTYPE svg PUBLIC "-//W3C//DTD SVG 1.1//EN" "http://www.w3.org/Graphics/SVG/1.1/DTD/svg11.dtd" >
<svg xmlns="http://www.w3.org/2000/svg" xmlns:xlink="http://www.w3.org/1999/xlink" version="1.1">
<metadata>
Created by FontForge 20190801 at Fri Jul 19 20:40:39 2013
 By Jimmy Wärting
Webtype Web Use Only
</metadata>
<defs>
<font id="WebtypeWebUseOnly" horiz-adv-x="1024" >
  <font-face 
    font-family="Webtype Web Use Only"
    font-weight="600"
    font-style="italic"
    font-stretch="normal"
    units-per-em="2048"
    panose-1="2 0 5 3 8 0 0 2 0 3"
    ascent="1565"
    descent="-483"
    x-height="948"
    cap-height="1399"
    bbox="-481 -492 2415.04 1913"
    underline-thickness="20"
    underline-position="-133"
    slope="-12"
    unicode-range="U+0020-FB04"
  />
<missing-glyph horiz-adv-x="436" 
 />
    <glyph glyph-name="f_f" unicode="ff" horiz-adv-x="1249" 
d="M1014 1210q-23 1 -46.5 7t-43.5 18.5t-32.5 32.5t-12.5 49q0 16 3 35.5t6.5 39t7 37.5t5.5 31q-8 23 -24 32t-33 9q-88 0 -158.5 -111.5t-130.5 -334.5l-35 -131h387l21 69q17 60 37.5 114t48.5 103zM1479 1522q60 0 106.5 -15t77.5 -40.5t47 -58.5t16 -69q0 -20 -8 -42
t-24 -40.5t-38.5 -30.5t-51.5 -12q-23 0 -47.5 5.5t-44 18t-32 32.5t-12.5 49q0 21 10.5 42.5t23.5 41.5t24.5 37.5t13.5 29.5q-2 9 -11 15.5t-20.5 10.5t-23.5 5.5t-21 1.5q-91 0 -161.5 -109.5t-133.5 -338.5l-36 -131h239l-12 -33h-236q-16 -63 -34.5 -134.5
t-37.5 -146.5t-38.5 -151t-39.5 -148.5t-39 -139t-36 -122.5q-18 -59 -41.5 -116.5t-54 -111t-68 -100.5t-84.5 -86q-40 -34 -75 -56.5t-69 -36t-68.5 -19.5t-71.5 -6q-50 0 -87 14t-61.5 38t-36.5 56t-12 68q0 20 8 42.5t23.5 41t39 31t54.5 12.5q19 0 41.5 -6t42 -20
t32.5 -36.5t13 -54.5q0 -18 -8.5 -35.5t-21 -34t-26 -31.5t-22.5 -28q-1 -9 2 -15.5t7.5 -11.5t9.5 -7.5t8 -2.5q43 0 79.5 29t70.5 86t66.5 142t67.5 198q38 124 72.5 249.5t65 243t56 221.5t46.5 185h-385q-16 -63 -34.5 -134t-38 -145.5t-39 -150.5t-39 -148t-38.5 -138
t-36 -122q-19 -60 -43 -117.5t-54 -110.5t-66 -100t-79 -85q-71 -63 -150.5 -93t-156.5 -30q-54 0 -93.5 14t-65 38t-38 55.5t-12.5 66.5q0 21 8.5 43t24 40t39 30t53.5 12q19 0 41.5 -6t42 -20t32.5 -36t13 -53q0 -21 -10.5 -39.5t-24.5 -35t-28.5 -31.5t-22.5 -27
q2 -16 13.5 -25.5t21.5 -9.5q57 0 98.5 24t76 77.5t66 139.5t68.5 210q37 123 72 250t65.5 246t57 224.5t47.5 186.5h-193l12 33h191l20 69q34 125 92 227t152 187q36 33 74.5 55t77 35.5t76.5 19t73 5.5q57 0 101.5 -14.5t76 -39.5t49.5 -57t21 -68q14 17 29 31.5t32 30.5
q36 31 76 53.5t80.5 36.5t80 20.5t75.5 6.5z" />
    <glyph glyph-name="f_f_i" unicode="ffi" horiz-adv-x="1778" 
d="M1124 891q-16 -63 -34.5 -134.5t-37.5 -146.5t-38.5 -151t-39.5 -148.5t-39 -139t-36 -122.5q-18 -59 -41.5 -116.5t-54 -111t-68 -100.5t-84.5 -86q-40 -34 -75 -56.5t-69 -36t-68.5 -19.5t-71.5 -6q-50 0 -87 14t-61.5 38t-36.5 56t-12 68q0 20 8 42.5t23.5 41t39 31
t54.5 12.5q19 0 41.5 -6t42 -20t32.5 -36.5t13 -54.5q0 -18 -8.5 -35.5t-21 -34t-26 -31.5t-22.5 -28q-1 -9 2 -15.5t7.5 -11.5t9.5 -7.5t8 -2.5q43 0 79.5 29t70.5 86t66.5 142t67.5 198q38 124 72.5 249.5t65 243t56 221.5t46.5 185h-385q-16 -63 -34.5 -134t-38 -145.5
t-39 -150.5t-39 -148t-38.5 -138t-36 -122q-19 -60 -43 -117.5t-54 -110.5t-66 -100t-79 -85q-71 -63 -150.5 -93t-156.5 -30q-54 0 -93.5 14t-65 38t-38 55.5t-12.5 66.5q0 21 8.5 43t24 40t39 30t53.5 12q19 0 41.5 -6t42 -20t32.5 -36t13 -53q0 -21 -10.5 -39.5
t-24.5 -35t-28.5 -31.5t-22.5 -27q2 -16 13.5 -25.5t21.5 -9.5q57 0 98.5 24t76 77.5t66 139.5t68.5 210q37 123 72 250t65.5 246t57 224.5t47.5 186.5h-193l12 33h191l20 69q34 125 92 227t152 187q72 66 149 90.5t148 24.5q61 0 107.5 -15.5t78 -41t48 -57.5t18.5 -65
q9 10 16 18t14 15l14.5 14.5t18.5 16.5q39 33 81.5 55t85 35.5t84 19t77.5 5.5q64 0 115.5 -17t86.5 -44.5t54 -63.5t19 -74q0 -19 -8 -42t-24.5 -43.5t-42 -34t-59.5 -13.5q-24 0 -49.5 6t-45.5 19.5t-33 36t-13 55.5q0 18 9.5 40.5t21.5 45t22.5 43t12.5 34.5
q-4 9 -13.5 15.5t-22 10.5t-26 5.5t-26.5 1.5q-92 0 -168.5 -110.5t-139.5 -337.5l-37 -131h562q-3 -45 -27.5 -137t-71.5 -214l-118 -311q-26 -68 -43 -115.5t-17 -70.5q0 -37 17.5 -48.5t42.5 -11.5q69 0 132.5 73t114.5 204l19 -6q-27 -69 -57 -126t-66 -98t-79 -63.5
t-97 -22.5q-39 0 -79.5 9t-73.5 29.5t-54 52.5t-21 79q0 37 9.5 72t29.5 88l136 359q21 58 37.5 117.5t19.5 107.5h-322zM1014 1210q-23 1 -46.5 7t-43.5 18.5t-32.5 32.5t-12.5 49q0 16 3 35.5t6.5 39t7 37.5t5.5 31q-8 23 -24 32t-33 9q-88 0 -158.5 -111.5t-130.5 -334.5
l-35 -131h387l21 69q17 60 37.5 114t48.5 103z" />
    <glyph glyph-name="f_f_l" unicode="ffl" horiz-adv-x="1802" 
d="M1014 1210q-23 1 -46.5 7t-43.5 18.5t-32.5 32.5t-12.5 49q0 16 3 35.5t6.5 39t7 37.5t5.5 31q-8 23 -24 32t-33 9q-88 0 -157.5 -110.5t-129.5 -331.5l-37 -135h387l19 65q17 60 38.5 116t49.5 105zM1350 924l-13 -33h-213q-16 -63 -34.5 -134.5t-37.5 -146.5
t-38.5 -151t-39.5 -148.5t-39 -139t-36 -122.5q-18 -59 -41.5 -116.5t-54 -111t-68 -100.5t-84.5 -86q-40 -34 -75 -56.5t-69 -36t-68.5 -19.5t-71.5 -6q-50 0 -87 14t-61.5 38t-36.5 56t-12 68q0 20 8 42.5t23.5 41t39 31t54.5 12.5q19 0 41.5 -6t42 -20t32.5 -36.5
t13 -54.5q0 -18 -8.5 -35.5t-21 -34t-26 -31.5t-22.5 -28q-1 -9 2 -15.5t7.5 -11.5t9.5 -7.5t8 -2.5q43 0 79.5 29t70.5 86t66.5 142t67.5 198q38 124 72.5 249.5t65 243t56 221.5t46.5 185h-385q-16 -63 -34.5 -134t-38 -145.5t-39 -150.5t-39 -148t-38.5 -138t-36 -122
q-19 -60 -43 -117.5t-54 -110.5t-66 -100t-79 -85q-71 -63 -150.5 -93t-156.5 -30q-54 0 -93.5 14t-65 38t-38 55.5t-12.5 66.5q0 21 8.5 43t24 40t39 30t53.5 12q19 0 41.5 -6t42 -20t32.5 -36t13 -53q0 -21 -10.5 -39.5t-24.5 -35t-28.5 -31.5t-22.5 -27q2 -16 13.5 -25.5
t21.5 -9.5q57 0 97.5 22t74.5 74t66 138.5t71 216.5q37 123 72 250t65.5 246t57 224.5t47.5 186.5h-193l12 33h191l20 69q34 125 92 227t152 187q36 33 74.5 55t77 35.5t76.5 19t73 5.5q57 0 101.5 -14.5t76 -39.5t49.5 -57t21 -68q12 13 30 32t38 36q34 30 73.5 51t80 34.5
t80.5 19.5t75 6q57 0 105 -15.5t77 -40.5l244 50l-402 -1258q-24 -75 -38.5 -123t-14.5 -76q0 -24 14.5 -35.5t40.5 -11.5q71 0 132.5 75t113.5 206l21 -6q-29 -69 -59 -126.5t-66 -98t-80 -63t-101 -22.5q-40 0 -78.5 9t-69 29.5t-49 52.5t-18.5 79q0 38 11.5 76t25.5 84
l305 963q-66 44 -45 196q-4 11 -15 18t-25 10.5t-28.5 5t-23.5 1.5q-90 0 -160.5 -111.5t-132.5 -334.5l-37 -131h220z" />
    <glyph glyph-name="f_j" unicode="fj" horiz-adv-x="1120" 
d="M518 924h569q-3 -20 -13 -61t-21.5 -87t-22.5 -87t-16 -60q-20 -78 -39.5 -147t-40 -137.5t-43 -141.5t-47.5 -158q-37 -121 -96 -227.5t-152 -184.5q-40 -34 -79.5 -56t-78.5 -35.5t-78 -19t-77 -5.5q-47 0 -83 12t-62 32.5t-41.5 48t-20.5 58.5q-8 -6 -17.5 -16
t-17.5 -17q-40 -34 -80 -56.5t-78.5 -36t-75 -19.5t-69.5 -6q-54 0 -93.5 14t-65 38t-38 55.5t-12.5 66.5q0 21 8.5 43t24 40t39 30t53.5 12q19 0 41.5 -6t42 -20t32.5 -36t13 -53q0 -21 -10.5 -39.5t-24.5 -35t-28.5 -31.5t-22.5 -27q2 -16 13.5 -25.5t21.5 -9.5
q57 0 98.5 24t76 77t66 139t68.5 211q37 123 71.5 249.5t65.5 246t57.5 225t47.5 186.5h-191l10 33h191l20 69q35 124 96 226.5t160 187.5q78 66 159.5 90.5t156.5 24.5q64 0 115 -17t86.5 -44.5t54 -63.5t18.5 -74q0 -19 -8 -42t-24.5 -43.5t-41.5 -34t-59 -13.5
q-24 0 -49.5 6t-45.5 19.5t-33 36t-13 55.5q0 18 9.5 40.5t21.5 45t22 43t12 34.5q-4 9 -13 15.5t-21.5 10.5t-26.5 5.5t-27 1.5q-92 0 -168 -110.5t-139 -337.5zM188 -180q28 0 53.5 -7t45 -21.5t31.5 -36.5t12 -52q0 -16 -8.5 -33t-20.5 -33.5t-25 -32t-22 -28.5
q0 -25 12.5 -33t22.5 -8q54 0 96.5 28.5t78 85t67.5 141.5t67 198q34 114 63.5 210.5t55.5 186.5t51 179.5t51 189.5q4 14 8 34.5t8 41.5t6.5 38t2.5 23h-332q-16 -63 -34.5 -134.5t-38 -146.5t-39.5 -151t-40 -148.5t-39 -139t-36 -122.5q-19 -60 -43.5 -117.5
t-55.5 -111.5h2z" />
    <glyph glyph-name="f_i" unicode="fi" horiz-adv-x="1165" 
d="M-262 -483q-54 0 -93.5 14t-65 38t-38 55.5t-12.5 66.5q0 21 8.5 43t24 40t39 30t53.5 12q19 0 41.5 -6t42 -20t32.5 -36t13 -53q0 -21 -10.5 -39.5t-24.5 -35t-28.5 -31.5t-22.5 -27q2 -16 13.5 -25.5t21.5 -9.5q57 0 98.5 24t76 77t66 139t68.5 211q37 123 71.5 249.5
t65.5 246t57.5 225t47.5 186.5h-191l10 33h191l20 69q35 124 96 226.5t160 187.5q78 66 159.5 90.5t156.5 24.5q64 0 115 -17t86.5 -44.5t54 -63.5t18.5 -74q0 -19 -8 -42t-24.5 -43.5t-41.5 -34t-59 -13.5q-24 0 -49.5 6t-45.5 19.5t-33 36t-13 55.5q0 18 9.5 40.5t21.5 45
t22 43t12 34.5q-4 9 -13 15.5t-21.5 10.5t-26.5 5.5t-27 1.5q-92 0 -168 -110.5t-139 -337.5l-37 -131h561q-3 -45 -27.5 -137t-70.5 -214l-119 -311q-26 -68 -42.5 -115.5t-16.5 -70.5q0 -37 17 -48.5t42 -11.5q69 0 133 73t115 204l18 -6q-27 -69 -56.5 -126t-65.5 -98
t-79.5 -63.5t-97.5 -22.5q-38 0 -78.5 9t-73.5 29.5t-54 52.5t-21 79q0 37 9.5 72t29.5 88l135 359q22 58 38 117.5t20 107.5h-322q-16 -63 -34.5 -134t-38 -145.5t-39 -150.5t-39 -148t-38.5 -138t-36 -122q-19 -60 -43 -117.5t-54 -110.5t-66 -100t-79 -85
q-71 -63 -150.5 -93t-156.5 -30z" />
    <glyph glyph-name="f_l" unicode="fl" horiz-adv-x="1190" 
d="M-262 -483q-54 0 -93.5 14t-65 38t-38 55.5t-12.5 66.5q0 21 8.5 43t24 40t39 30t53.5 12q19 0 41.5 -6t42 -20t32.5 -36t13 -53q0 -21 -10.5 -39.5t-24.5 -35t-28.5 -31.5t-22.5 -27q2 -16 13.5 -25.5t21.5 -9.5q57 0 98.5 24t76 77t66 139t68.5 211q37 123 72 250
t65.5 246t57 224.5t47.5 186.5h-191l10 33h191l20 71q19 64 42.5 120.5t53.5 107t68 96.5t86 88q37 33 76 55t78.5 35.5t78 19t74.5 5.5q57 0 105.5 -15.5t77.5 -40.5l243 50l-401 -1258q-25 -75 -39 -123t-14 -76q0 -47 55 -47q71 0 132 75t114 206l20 -6
q-29 -69 -58.5 -126.5t-65.5 -98t-80 -63t-101 -22.5q-40 0 -78.5 9t-69 29.5t-49 52.5t-18.5 79q0 38 11.5 76t25.5 84l305 963q-66 44 -45 196q-4 11 -15.5 18t-25.5 10.5t-28 5t-23 1.5q-90 0 -160.5 -111.5t-132.5 -334.5l-37 -131h219l-12 -33h-213q-16 -63 -34.5 -134
t-38 -145.5t-39 -150.5t-39 -148t-38.5 -138t-36 -122q-19 -60 -43 -117.5t-54 -110.5t-66 -100t-79 -85q-71 -63 -150.5 -93t-156.5 -30z" />
    <glyph glyph-name="f_t" unicode="ft" horiz-adv-x="1255" 
d="M512 891q-16 -63 -34.5 -134t-38 -145.5t-39 -150.5t-39 -148t-38.5 -138t-36 -122q-19 -60 -43 -117.5t-54 -110.5t-66 -100t-79 -85q-71 -63 -150.5 -93t-156.5 -30q-54 0 -93.5 14t-65 38t-38 55.5t-12.5 66.5q0 21 8.5 43t24 40t39 30t53.5 12q19 0 41.5 -6t42 -20
t32.5 -36t13 -53q0 -21 -10.5 -39.5t-24.5 -35t-28.5 -31.5t-22.5 -27q2 -16 13.5 -25.5t21.5 -9.5q57 0 98.5 24t76 77.5t66 139.5t68.5 210q37 123 72 250t65.5 246t57 224.5t47.5 186.5h-191l10 33h191l20 69q32 119 86 218t138 178q69 68 153 100.5t174 32.5
q61 0 107 -15t77.5 -40.5t47.5 -58.5t16 -69q0 -24 -12 -51.5t-37 -46.5h135l-96 -317h231l-10 -33h-229q-14 -47 -33 -109.5t-39 -131.5t-40.5 -138t-38 -128t-30 -103t-16.5 -62q-15 -51 -24 -91.5t-9 -55.5q0 -32 14.5 -45t39.5 -13q68 0 134.5 73.5t118.5 209.5l21 -6
q-29 -72 -59.5 -130t-67 -99t-81 -63t-101.5 -22q-40 0 -80.5 9.5t-72.5 30t-52.5 52.5t-20.5 78q0 29 7 60.5t12 48.5q6 23 21.5 75.5t35.5 119.5t42 139.5t41 135.5t32.5 108t17.5 57h-354zM879 924l84 290q-20 3 -39.5 10t-35 19.5t-25 31t-9.5 44.5q0 21 10.5 42.5
t23.5 41.5t24.5 37.5t13.5 29.5q-2 9 -11 15.5t-21 10.5t-24 5.5t-20 1.5q-91 0 -161.5 -109.5t-133.5 -338.5l-37 -131h361z" />
    <glyph glyph-name=".notdef" horiz-adv-x="436" 
 />
    <glyph glyph-name="NUL" horiz-adv-x="0" 
 />
    <glyph glyph-name="nonmarkingreturn" horiz-adv-x="436" 
 />
    <glyph glyph-name="space" unicode=" " horiz-adv-x="436" 
 />
    <glyph glyph-name="quotesingle" unicode="'" horiz-adv-x="377" 
d="M256 963q2 140 -5 237t-7 148q2 81 36 121t93 40q60 0 89 -34.5t27 -90.5q-1 -26 -18.5 -64t-46.5 -90t-66 -118.5t-77 -148.5h-25v0z" />
    <glyph glyph-name="parenleft" unicode="(" horiz-adv-x="723" 
d="M414 -313q-80 70 -145 146t-110 163.5t-68 188t-19 218.5q4 167 52 317.5t140 287.5t228.5 262.5t316.5 242.5l31 -36q-167 -113 -292.5 -238t-209.5 -258.5t-127.5 -275t-46.5 -287.5q-4 -114 15.5 -212.5t58.5 -184.5t94.5 -161t124.5 -141l-43 -32v0z" />
    <glyph glyph-name="parenright" unicode=")" horiz-adv-x="723" 
d="M-104 -272q166 113 290.5 237.5t209 258.5t128 275t47.5 287q4 114 -15.5 212.5t-58 185t-94.5 161t-124 140.5l40 33q81 -70 146 -147t110 -164.5t68 -188.5t19 -219q-3 -166 -51 -316.5t-140.5 -287.5t-228.5 -263t-316 -243z" />
    <glyph glyph-name="comma" unicode="," horiz-adv-x="496" 
d="M8 -301q43 23 85 57.5t76 75t57.5 85t29.5 87.5h-59q-79 0 -113.5 33.5t-32.5 89.5q0 31 11.5 58t32 47t49 32t63.5 12q39 0 67 -13.5t45.5 -37.5t25.5 -57.5t7 -73.5q-2 -74 -33.5 -137t-80 -115t-108 -92t-116.5 -67z" />
    <glyph glyph-name="hyphen" unicode="-" horiz-adv-x="770" 
d="M139 606h584l-49 -174h-584z" />
    <glyph glyph-name="hyphen" unicode="&#xad;" horiz-adv-x="770" 
d="M139 606h584l-49 -174h-584z" />
    <glyph glyph-name="period" unicode="." horiz-adv-x="496" 
d="M203 -20q-32 0 -59.5 11.5t-48 31.5t-32.5 46.5t-12 57.5t12 58t32.5 47t48 32t59.5 12q31 0 58.5 -12t47.5 -32t31.5 -47t11.5 -58t-11.5 -57.5t-31.5 -46.5t-47.5 -31.5t-58.5 -11.5z" />
    <glyph glyph-name="zero" unicode="0" horiz-adv-x="1241" 
d="M530 -29q-108 0 -192.5 35.5t-142.5 98t-88.5 148.5t-30.5 187q0 109 27 213t75 196.5t113.5 169.5t143 133t164 87t175.5 31q97 0 178 -30t139.5 -89.5t91.5 -147.5t34 -204q1 -108 -25 -212t-72.5 -196t-110.5 -169t-140.5 -133t-162.5 -87t-176 -31zM514 -8
q57 0 112 46t103.5 123t89.5 177.5t71 209.5t46.5 219t17.5 206q0 54 -8 103.5t-27 88t-50.5 61.5t-77.5 23q-57 0 -112.5 -43.5t-106 -117.5t-93 -172.5t-74 -209t-49.5 -226.5t-18 -224q-2 -128 43.5 -196t132.5 -68z" />
    <glyph glyph-name="one" unicode="1" horiz-adv-x="864" 
d="M-18 12q13 1 33 2.5t41.5 4t41.5 6t35 8.5q31 8 57 33t35 59l273 985q-29 -6 -68 -6q-26 0 -52 5t-53.5 18t-55.5 35t-56 55l8 8q38 -23 93 -35t114 -12q58 0 113.5 8.5t104 22t87.5 29t64 30.5h18q-18 -33 -33 -70.5t-28.5 -76.5t-25 -78t-21.5 -76l-230 -832
q-12 -42 -2 -64t35 -34q10 -5 29 -9.5t40.5 -7.5t42 -5t33.5 -3l-4 -12h-674z" />
    <glyph glyph-name="two" unicode="2" horiz-adv-x="1147" 
d="M2 90q96 60 176 112.5t148.5 101t128.5 94.5t116 94q85 72 145.5 143t99 141t56 138.5t17.5 134.5q0 90 -43 144t-127 54q-50 0 -96.5 -18t-87 -48t-74 -69.5t-57.5 -82t-37.5 -86t-14.5 -81.5q-3 -72 25 -109.5t84 -37.5q27 0 50.5 7.5t46 21t44.5 31t45 38.5l10 -12
q-71 -78 -142 -118t-155 -40q-103 0 -160 51t-57 137q0 52 22 105t62.5 101.5t96.5 91t123.5 74t144.5 49.5t160 18q90 0 160.5 -19t119.5 -54.5t75 -87.5t26 -118q0 -121 -55.5 -217t-160 -180t-255 -163t-340.5 -165l-95 -61h551q45 0 80 13t66 39t61 64.5t64 88.5l16 -9
l-205 -401h-880z" />
    <glyph glyph-name="three" unicode="3" horiz-adv-x="1114" 
d="M379 -53q-71 0 -142 15t-128 46.5t-92.5 81t-34.5 119.5q1 44 17 84.5t43 71t63 49t79 18.5q53 0 81 -26.5t26 -63.5q0 -37 -13 -59t-32 -35.5t-41.5 -22t-41.5 -19.5t-32.5 -27.5t-13.5 -45.5q-1 -39 16 -69t46 -51t68.5 -31.5t84.5 -10.5q56 0 111 20.5t104.5 56.5
t92 85t74.5 105t50.5 117.5t21.5 123.5q4 75 -24.5 119.5t-91.5 44.5q-30 0 -59.5 -10t-59 -26t-59 -36.5t-58.5 -40.5l-18 33q133 68 226 126.5t151.5 115.5t86 116t29.5 128q3 90 -37 144t-124 54q-54 0 -108 -25.5t-97.5 -68t-71.5 -96.5t-29 -111q-1 -25 5.5 -44
t18 -31.5t26.5 -18.5t32 -6q31 0 69.5 14t72.5 43l10 -12q-60 -56 -124 -92.5t-142 -36.5q-84 0 -130 40t-44 111q1 47 22.5 92t60 84.5t91 73t115 57t131.5 37t141 13.5q84 0 149.5 -18.5t111 -52.5t69 -80.5t22.5 -102.5q-1 -66 -32 -120.5t-89.5 -95.5t-142.5 -69
t-191 -41l-45 -26q5 1 17 1.5t25.5 0.5h25h16.5q64 0 118.5 -13t94.5 -41.5t63 -73t23 -106.5q0 -74 -24.5 -138.5t-68 -118.5t-103.5 -96.5t-132.5 -71.5t-155 -44.5t-169.5 -15.5z" />
    <glyph glyph-name="four" unicode="4" horiz-adv-x="1118" 
d="M539 12q-38 6 -75.5 22t-80 32.5t-92.5 29.5t-111 13q-15 0 -29.5 -1.5t-31.5 -3.5q-22 -19 -45 -39.5t-45.5 -37t-43 -27t-36.5 -10.5q-35 0 -58.5 14.5t-23.5 48.5q0 18 9 31t25 21.5t36 13t43 6.5q32 2 65.5 2h65.5q72 64 138.5 178t129 263t121.5 328t116 374h273
q-57 -175 -138 -346t-179 -322.5t-209 -275t-228 -203.5q48 8 96 15t111 7q65 0 120 -8t113 -16l173 483h233l-180 -491q34 2 70 10t70 22t64.5 35t53.5 49l12 -10q-28 -40 -60 -76t-70 -64.5t-82 -48t-95 -26.5l-129 -366h-227z" />
    <glyph glyph-name="five" unicode="5" horiz-adv-x="1087" 
d="M346 -29q-65 0 -130.5 16t-118 46.5t-85.5 75.5t-32 104q1 45 17.5 78t42 54.5t56 32.5t58.5 11q54 0 80 -25.5t26 -68.5q-1 -33 -12 -56t-26 -42.5t-30 -38.5t-22 -45q-2 -29 10 -52t35 -39t54.5 -24t68.5 -8q54 0 103 20t90.5 55.5t75.5 84t58.5 105.5t38.5 120.5
t17 128.5q3 54 -8.5 97t-37 74t-64 47.5t-89.5 16.5t-99 -10.5t-90 -31.5t-76.5 -52.5t-57.5 -73.5l-23 7l305 686h17q8 -13 34 -27t65.5 -26t91.5 -19.5t112 -7.5q52 0 105.5 6.5t104 19.5t96 32t81.5 44l10 -10q-63 -86 -135 -143.5t-153 -92t-171 -49t-190 -14.5
q-20 0 -46 1t-50.5 2.5t-43.5 2.5t-24 2l-139 -305q62 42 140 65t177 23q97 0 174.5 -22.5t131.5 -65t82.5 -103.5t27.5 -137q-2 -106 -52 -192.5t-135.5 -148t-200.5 -95t-245 -33.5z" />
    <glyph glyph-name="six" unicode="6" horiz-adv-x="1153" 
d="M483 -29q-91 0 -167 29t-130.5 86t-84 141t-27.5 195q3 126 41.5 250t103 236.5t150 208.5t183.5 166.5t203 110.5t208 40q71 0 123 -18.5t85.5 -48t49.5 -67.5t16 -77q0 -32 -8 -61t-23.5 -50.5t-39.5 -34t-56 -12.5q-63 0 -91 48t-28 128q-1 40 -5.5 70.5t-16.5 51.5
t-31.5 31.5t-50.5 10.5q-66 0 -137 -57t-139.5 -154.5t-130 -227t-109.5 -274.5l10 -6q35 41 72 75t78.5 58t88 37.5t101.5 13.5q80 0 143.5 -25.5t107 -72.5t65.5 -112.5t20 -145.5q-2 -64 -21 -129t-54 -125.5t-84.5 -113t-113 -91.5t-139.5 -61.5t-162 -22.5zM465 -10
q51 0 94.5 24.5t80 66.5t65 98t49 118.5t32.5 128t15 127.5q6 122 -37 192t-133 70q-59 0 -117.5 -37t-106.5 -104t-80 -160t-36 -205q-4 -71 5.5 -130t31 -101t56 -65t81.5 -23z" />
    <glyph glyph-name="seven" unicode="7" horiz-adv-x="1036" 
d="M283 -244q-62 0 -94 33t-29 90q2 76 83.5 211.5t231.5 325.5q120 147 252.5 293.5t280.5 306.5h-539q-54 0 -100 -16.5t-87 -49t-79 -80.5t-76 -110l-16 6l282 567h15l-9 -114h807l-6 -21q-63 -68 -115.5 -129t-100.5 -121t-93.5 -123.5t-93.5 -136.5
q-63 -92 -112.5 -180t-89.5 -175.5t-72 -176.5t-60 -183q-14 -51 -29 -91t-35.5 -68t-48.5 -43t-67 -15z" />
    <glyph glyph-name="eight" unicode="8" horiz-adv-x="1141" 
d="M483 -33q-99 0 -179.5 22.5t-137.5 63t-87.5 96.5t-29.5 123q1 64 31 119.5t81 100t117.5 77t139.5 52.5q-43 24 -77.5 52.5t-58.5 62.5t-37 75t-12 90q1 76 39.5 145.5t106 122t160 84t202.5 31.5q80 0 147 -20.5t115.5 -56.5t75.5 -86t27 -109t-24 -107.5t-65.5 -87.5
t-95.5 -68.5t-114 -48.5q51 -23 93.5 -52.5t73.5 -67t48 -83t16 -100.5q-2 -107 -48 -187.5t-122.5 -134.5t-176.5 -81t-208 -27zM494 -10q57 0 113 22t100.5 61.5t72 93t29.5 116.5q1 37 -6 70t-27 63t-54.5 57t-86.5 53q-40 22 -92 42t-105 40q-51 -22 -93 -59t-72 -84
t-47.5 -101t-18.5 -110q-2 -52 14 -100t51 -84.5t90 -58t132 -21.5zM782 713q42 16 76 49.5t59 76.5t38.5 91.5t13.5 95.5q1 48 -14 91t-45 75.5t-74.5 51t-102.5 18.5q-62 0 -112 -23.5t-85.5 -61t-55.5 -85.5t-21 -97q-1 -35 5.5 -63t23 -52t44.5 -45.5t70 -43.5
q35 -19 81.5 -38.5t98.5 -39.5z" />
    <glyph glyph-name="nine" unicode="9" horiz-adv-x="1153" 
d="M225 -211q-70 0 -125 18t-93 48.5t-58 71.5t-19 87q2 66 35.5 109t93.5 43q65 0 93 -42.5t30 -135.5q1 -38 3 -69.5t12 -54.5t30 -35.5t56 -12.5q59 0 114 29t105.5 80t96 121t87 152.5t77.5 174.5t68 186l-6 4q-33 -38 -70 -73t-80 -61.5t-92.5 -42t-107.5 -15.5
q-80 0 -143.5 25t-107.5 71t-66.5 112t-20.5 148q1 67 20 133.5t54.5 127t86 112t114 89.5t139.5 59.5t162 21.5q87 0 163 -28.5t131 -85t85.5 -140t27.5 -193.5q-3 -134 -38 -262.5t-95.5 -243.5t-143 -212t-181 -167t-209.5 -109.5t-228 -39.5zM563 426q67 0 128.5 45
t108.5 118.5t75 168t30 194.5q1 60 -8 114t-30.5 94.5t-56.5 64.5t-85 24q-49 0 -92 -24.5t-79.5 -66.5t-66 -98t-50 -120.5t-32 -133.5t-12.5 -136q-2 -51 7.5 -95.5t30 -77.5t53.5 -52t79 -19z" />
    <glyph glyph-name="colon" unicode=":" horiz-adv-x="641" 
d="M233 -20q-30 0 -57.5 11t-47.5 31t-32 46.5t-12 58.5q0 31 12 58t32 47t47.5 32t57.5 12q31 0 59 -12t48.5 -32t32.5 -47t12 -58q0 -32 -12 -58.5t-32.5 -46.5t-48.5 -31t-59 -11zM418 637q-31 0 -58 11t-47.5 31t-32.5 46.5t-12 58.5q0 31 12 58t32.5 47.5t47.5 32.5
t58 12t58.5 -12t47.5 -32.5t31.5 -47.5t11.5 -58q0 -32 -11.5 -58.5t-31.5 -46.5t-47.5 -31t-58.5 -11z" />
    <glyph glyph-name="semicolon" unicode=";" horiz-adv-x="641" 
d="M43 -301q44 23 86 57.5t76 75t57 85t29 87.5h-58q-80 0 -114.5 33.5t-32.5 89.5q0 31 11.5 58t32.5 47t49.5 32t62.5 12q39 0 67 -13.5t46 -37.5t25.5 -57.5t6.5 -73.5q-2 -74 -34 -137t-80.5 -115t-107.5 -92t-116 -67zM418 637q-31 0 -58 11t-47.5 31t-32.5 46.5
t-12 58.5q0 31 12 58t32.5 47.5t47.5 32.5t58 12t59 -12t48 -32.5t32 -47.5t12 -58q0 -32 -12 -58.5t-32 -46.5t-48 -31t-59 -11z" />
    <glyph glyph-name="question" unicode="?" horiz-adv-x="911" 
d="M438 342q-43 0 -80.5 14.5t-65 40.5t-43.5 63.5t-16 82.5q0 57 19.5 104.5t57 88.5t92 76.5t124.5 68.5q69 32 119 62.5t82.5 65.5t47 76.5t13.5 96.5q-2 43 -16.5 82.5t-42.5 70t-69.5 48.5t-96.5 18q-56 0 -103 -18t-81 -47.5t-53 -68.5t-19 -81q0 -36 12.5 -66
t33.5 -52t49.5 -34t60.5 -12q14 0 32 2.5t27 7.5v8q-21 0 -41.5 6.5t-36 18.5t-25 29.5t-9.5 40.5q0 45 28 75.5t76 30.5q54 0 86.5 -28.5t32.5 -82.5q0 -30 -12.5 -55t-35 -42t-52.5 -26.5t-64 -9.5q-39 0 -73 13t-59 37.5t-39.5 59t-14.5 77.5q0 52 22.5 97.5t64 79
t100.5 52.5t132 19q91 0 162 -26.5t120 -70t75 -101t26 -118.5q0 -63 -19.5 -115.5t-57 -96t-91.5 -79t-123 -65.5q-79 -35 -141 -68.5t-104.5 -69.5t-64.5 -76t-22 -87q0 -23 8 -39.5t21 -27t29.5 -16t32.5 -5.5q29 0 54.5 13.5t46 37t34.5 55t20 66.5l17 -6
q-16 -90 -66 -142.5t-121 -52.5zM309 -20q-30 0 -56 11t-45.5 29.5t-30.5 44.5t-11 56q0 31 11 57t30.5 45t45.5 30t56 11q31 0 57 -11t45.5 -30t30.5 -45t11 -57q0 -30 -11 -56t-30.5 -44.5t-45.5 -29.5t-57 -11z" />
    <glyph glyph-name="A" unicode="A" horiz-adv-x="1354" 
d="M-221 10q21 2 58 12t71 25q46 23 94 69.5t96 106.5q68 82 145 177t158.5 197.5t166.5 209.5t167.5 213t161.5 207.5t150 193.5h49q1 -4 1.5 -41.5t1.5 -99.5t2 -143t2 -171.5t2.5 -185.5t2 -185t1.5 -170t1.5 -140.5t1 -96t0.5 -36.5q1 -22 2 -40t5.5 -32t13.5 -25
t24 -18q23 -13 56.5 -19t62.5 -8l-4 -10h-654l5 10q24 1 49.5 4t49 7t43.5 9t32 11q37 15 50 45t11 59l-2 383h-473q-31 -38 -64.5 -81.5t-63.5 -83.5t-53.5 -72t-35.5 -47q-15 -20 -29 -40.5t-25.5 -39.5t-18.5 -35.5t-7 -28.5q0 -24 23.5 -40.5t56.5 -27t68.5 -16
t60.5 -6.5l-2 -10h-518zM856 559l-2 561q-12 -14 -40 -48.5t-65.5 -81.5t-82 -103t-90 -113.5t-89.5 -113t-81 -101.5h450z" />
    <glyph glyph-name="B" unicode="B" horiz-adv-x="1335" 
d="M-96 12q14 1 34.5 3t42.5 4.5t41.5 5.5t30.5 6q40 14 59.5 41t28.5 59l314 1124q4 15 5.5 30t-1.5 28.5t-11.5 24.5t-25.5 20q-11 4 -29.5 9t-39 9t-39.5 6.5t-31 3.5l4 13h659q88 0 159.5 -16.5t121 -49.5t75.5 -83t25 -117q-2 -83 -38.5 -146.5t-100 -109t-149 -75.5
t-185.5 -46v-13q91 -6 162.5 -27t120.5 -57.5t74 -89t24 -120.5q-2 -103 -51 -186t-137.5 -141.5t-213 -90t-278.5 -31.5h-655zM561 20q91 0 163.5 36.5t124 95t81 132t33.5 148.5q4 145 -62.5 221t-187.5 76q-13 0 -32.5 -0.5t-40.5 -1t-41 -1t-34 -1.5l-162 -584
q-17 -62 24 -91.5t134 -29.5zM662 750q96 0 168.5 29.5t121.5 80t74 116.5t27 140q3 122 -44 192t-143 70q-29 0 -62 -1t-59 -3l-174 -624h91z" />
    <glyph glyph-name="C" unicode="C" horiz-adv-x="1280" 
d="M635 -31q-127 0 -229.5 38.5t-175 107.5t-111.5 165t-39 212q0 132 31 252.5t87.5 224.5t135 188.5t173.5 144.5t203 92.5t224 32.5q52 0 100.5 -10t91.5 -26.5t78.5 -37.5t61.5 -42l100 108h16l-100 -508h-18q-7 102 -29 191.5t-63.5 157t-105.5 106.5t-155 39
q-71 0 -138.5 -33.5t-128 -93.5t-111.5 -142.5t-89 -180t-60 -206t-24 -221.5q-2 -105 18 -196t63.5 -158.5t111 -106t162.5 -38.5q76 0 142.5 24.5t126 68.5t113 106.5t103.5 138.5l19 -11q-45 -74 -99 -143.5t-123.5 -123.5t-158.5 -87t-203 -33z" />
    <glyph glyph-name="D" unicode="D" horiz-adv-x="1522" 
d="M-96 12q14 1 34.5 3t42.5 4.5t41.5 5.5t30.5 6q40 14 59.5 39.5t28.5 60.5l314 1124q4 15 5.5 30t-1.5 28.5t-11.5 24.5t-25.5 20q-11 4 -29.5 9t-39 9t-39.5 6.5t-31 3.5l4 13h626q70 0 140.5 -11t136 -36t122.5 -66t99 -101t65.5 -141t22.5 -186q-2 -138 -39 -255.5
t-102.5 -213t-156.5 -168t-199 -122t-230 -74.5t-250 -25h-622zM535 18q101 0 190 31.5t164 87.5t134.5 133t102.5 169t67 194.5t28 210.5q10 267 -80 401.5t-283 134.5q-4 0 -17.5 -0.5t-30.5 -1t-34.5 -1t-27.5 -1.5l-336 -1202q-23 -86 7 -121t116 -35z" />
    <glyph glyph-name="E" unicode="E" horiz-adv-x="1292" 
d="M-104 12q11 0 32.5 1.5t45 4t46 6.5t35.5 9q38 14 58.5 41.5t29.5 62.5l310 1112q4 16 6 32t0 30t-10.5 26t-26.5 21q-12 4 -31.5 9t-40 9t-40.5 6.5t-34 3.5l5 13h1097l-94 -338h-16q-6 56 -20 109.5t-35 96.5t-49 70.5t-62 32.5q-32 4 -81.5 6t-98.5 2h-174l-179 -639
h162q36 0 66 7t54.5 17.5t43.5 24t33 25.5q15 13 31.5 34t33 47t31.5 54.5t27 57.5h16l-160 -574h-12q3 22 4 51t-0.5 59t-6.5 58t-15 49q-7 14 -18.5 26.5t-29.5 22.5t-44 15.5t-62 5.5h-160l-141 -512q-11 -34 -17 -62t-4 -47q1 -26 12 -41.5t36.5 -23.5t66 -10.5
t100.5 -2.5q51 0 98 2t87.5 8t73 17t55.5 29q35 28 74.5 70.5t76.5 88t68.5 88.5t52.5 74h17l-134 -397h-1194z" />
    <glyph glyph-name="F" unicode="F" horiz-adv-x="1227" 
d="M-113 10q12 0 35.5 2t49 6t49 8t36.5 9q39 14 58 39.5t28 60.5l310 1118q4 16 6 31t-0.5 28.5t-11.5 25t-27 20.5q-12 4 -32 9t-42 9t-42.5 6.5t-35.5 3.5l6 13h1158l-93 -336h-14q-2 49 -12.5 101t-30 96t-48.5 74.5t-69 35.5q-35 5 -76.5 6.5t-91.5 1.5h-249l-179 -643
h189q39 0 69.5 6.5t53.5 16t40 21t29 20.5q15 10 34 32.5t38 51t35.5 59.5t27.5 59h19l-164 -579h-16q4 22 4.5 54t-2 64t-7.5 60t-12 43q-6 12 -17.5 24.5t-30.5 22.5t-45.5 16.5t-63.5 6.5h-187l-157 -568q-11 -31 -6.5 -60t38.5 -44q12 -5 32 -9.5t41.5 -8.5t42.5 -7
t36 -4l-4 -12h-703z" />
    <glyph glyph-name="G" unicode="G" horiz-adv-x="1456" 
d="M1018 88q-54 -26 -101.5 -48t-92.5 -38t-90.5 -24.5t-96.5 -8.5q-110 0 -210.5 30t-177.5 94.5t-123 165t-46 241.5q0 122 30.5 238t87 219t136.5 189t179 148.5t214 97.5t242 35q106 0 194 -32.5t154 -87.5l108 112h17l-115 -495h-14q-7 100 -31.5 188t-69.5 153.5
t-112 103.5t-160 38q-73 0 -144.5 -33.5t-135.5 -94t-119 -144.5t-95 -185.5t-63 -216.5t-23 -237q-1 -114 16 -207t53.5 -159t94 -102t138.5 -36q59 0 105 21.5t81.5 61.5t62 98t47.5 132l20 74q8 28 14.5 51.5t6.5 24.5q10 38 4.5 70.5t-40.5 47.5q-17 8 -43 14t-53.5 10
t-52 6t-38.5 3l4 12h707l-2 -12q-15 -2 -32.5 -4.5t-36.5 -5.5t-37 -7.5t-33 -10.5q-44 -17 -62.5 -44.5t-28.5 -62.5l-135 -508l-12 -4z" />
    <glyph glyph-name="H" unicode="H" horiz-adv-x="1640" 
d="M-96 12q14 1 34.5 3t42.5 4.5t41.5 5.5t30.5 6q40 14 59.5 41t28.5 59l314 1124q4 15 5.5 30t-1.5 28.5t-11.5 24.5t-25.5 20q-11 4 -29.5 9t-39 9t-39.5 6.5t-31 3.5l4 13h671l-2 -13q-14 -1 -34 -3t-41 -5t-41 -6.5t-35 -7.5q-40 -12 -60.5 -41t-29.5 -61l-142 -512
h601l141 505q4 15 6.5 30t0 28.5t-12 24.5t-27.5 20q-12 5 -29 10t-35.5 8.5t-36.5 6t-32 3.5l2 13h672l-2 -13q-15 -1 -36 -3t-43 -5t-42.5 -6.5t-34.5 -7.5q-41 -12 -60 -40t-28 -62l-315 -1125q-10 -34 -5 -58t39 -42q9 -4 27 -8t38.5 -7.5t41 -6t35.5 -3.5l-4 -12h-672
l2 12q14 1 35 3t43 4.5t41 5.5t30 6q42 14 60.5 40t27.5 60l166 590h-602l-164 -586q-9 -31 -3 -57t40 -41q8 -3 24 -7t35.5 -8t40 -6.5t35.5 -3.5l-4 -12h-669z" />
    <glyph glyph-name="I" unicode="I" horiz-adv-x="793" 
d="M-88 12q14 1 35 3t43 4.5t42 5.5t31 6q41 14 60 41t29 59l313 1124q8 31 4 58.5t-39 44.5q-11 4 -29 9t-38 9t-39 6.5t-31 3.5l4 13h676l-4 -13q-15 -1 -35 -3t-42 -5t-42 -6.5t-35 -7.5q-40 -12 -60.5 -41t-29.5 -61l-313 -1127q-10 -32 -4 -57.5t41 -40.5q7 -3 24.5 -7
t38 -8t42 -6.5t36.5 -3.5l-2 -12h-678z" />
    <glyph glyph-name="J" unicode="J" horiz-adv-x="1133" 
d="M1268 1317q0 -45 -28 -72t-71.5 -44.5t-95 -27.5t-98.5 -20q-20 -48 -32.5 -103.5t-21 -112.5t-15.5 -112.5t-15 -103.5l264 6l-16 -53l-256 2q-12 -45 -25.5 -103t-30 -125.5t-37 -144.5t-45.5 -160q-39 -131 -104.5 -225t-144 -154.5t-164.5 -89t-166 -28.5
q-62 0 -111.5 15.5t-84 43t-53.5 65.5t-19 83q0 27 11 51.5t29.5 42.5t43.5 28.5t53 10.5q72 0 106.5 -36t34.5 -91q0 -16 -7 -35t-16.5 -38t-21 -36.5t-20.5 -30.5q0 -13 7 -23t16 -17t18 -11t14 -4q57 0 102 21t83.5 72.5t73.5 137.5t71 216q18 67 37 146.5t36.5 157
t32 144.5t23.5 109l-269 6l6 26l271 11q19 58 44 110.5t60.5 104t84 105.5t114.5 116q-21 -5 -57.5 -12.5t-75 -14.5t-72.5 -11.5t-49 -4.5q-56 0 -98 18t-76 45.5t-62 59t-55.5 59t-56.5 46.5t-64 20q-24 1 -43.5 -6.5t-33.5 -20t-21.5 -28.5t-7.5 -31q0 -5 2 -17t5.5 -26
t7.5 -27t9 -20q86 1 131.5 -34t45.5 -91q0 -21 -7.5 -41.5t-22.5 -36t-37.5 -25.5t-51.5 -10q-60 0 -98.5 56.5t-38.5 156.5q0 54 22 109t61.5 99t94.5 71.5t121 27.5q67 0 112 -18.5t78.5 -47.5t60.5 -64t58 -67.5t70.5 -58.5t97.5 -37h69q38 50 71 91t61.5 70.5t53 46
t46.5 16.5q37 0 59.5 -17.5t22.5 -54.5z" />
    <glyph glyph-name="K" unicode="K" horiz-adv-x="1487" 
d="M-96 12q14 1 34.5 3t42.5 4.5t41.5 5.5t30.5 6q40 14 59.5 41t28.5 59l314 1124q4 15 5.5 30t-1.5 28.5t-11.5 24.5t-25.5 20q-11 4 -32.5 9t-45 9t-46 6.5t-34.5 3.5l4 13h690l-2 -13q-14 -1 -34 -3t-41 -5t-41 -6.5t-35 -7.5q-40 -12 -60.5 -41t-29.5 -61l-150 -545h29
q81 54 162.5 112.5t157 117t142 114t117.5 104t82.5 87t38.5 63.5q4 15 -4.5 25.5t-24.5 18.5t-37.5 13t-43 8t-40.5 4t-30 2l2 13h555l-2 -13q-21 -1 -54.5 -3t-75.5 -12.5t-88.5 -31.5t-92.5 -59q-164 -137 -301.5 -250t-257.5 -196q46 -70 98 -158t102 -178t94 -174
t76 -146q23 -41 52 -78t73 -59q26 -14 59.5 -20.5t59.5 -8.5l-4 -12h-696l4 12q46 4 82 9t60.5 14t37.5 23t14 36q0 16 -12.5 52t-35 85.5t-53 109t-64.5 121t-70.5 122t-71.5 112.5h-45l-158 -561q-9 -31 -3 -57t40 -41q8 -3 24 -7t35.5 -8t40 -6.5t35.5 -3.5l-4 -12h-669z
" />
    <glyph glyph-name="L" unicode="L" horiz-adv-x="1262" 
d="M-104 12q11 0 32.5 1.5t45 4t46 6.5t35.5 9q38 14 58.5 42.5t29.5 63.5l312 1114q4 16 5.5 31t-2 28.5t-13 25t-27.5 20.5q-12 5 -30.5 10t-39 8.5t-39.5 6t-33 3.5l5 13h686l-4 -13q-15 -1 -36 -3t-43 -5t-43 -6.5t-36 -7.5q-40 -12 -60.5 -41t-29.5 -61l-293 -1053
q-9 -32 -15 -61t-6 -48q0 -26 11 -41.5t37 -24t69 -11.5t107 -3q48 0 92.5 2.5t82.5 8.5t69 16t51 25q30 24 69 65t78 87t75 92.5t60 82.5h19l-138 -399h-1192z" />
    <glyph glyph-name="M" unicode="M" horiz-adv-x="1870" 
d="M-141 10q17 1 44.5 5t57 10.5t56.5 14.5t42 17q42 26 76 97t68 194l221 813q17 63 11.5 103t-29.5 65q-15 15 -35 25.5t-42.5 17t-45.5 10t-43 4.5l4 13h446l201 -1061l573 885q41 63 64.5 111t30.5 65h481l-2 -13q-15 -1 -36 -3t-44 -5t-44 -6.5t-36 -7.5
q-40 -12 -59.5 -38.5t-30.5 -63.5l-291 -1123q-11 -32 -3 -57.5t40 -42.5q8 -4 26.5 -8.5t40.5 -8t43.5 -6.5t36.5 -4l-2 -12h-678l3 12q13 1 33 2.5t41.5 3.5t40.5 5.5t30 7.5q40 14 61 41t29 59l291 1137l-813 -1245h-33q-2 31 -6 66.5t-10 72t-12.5 73.5t-12.5 72
l-170 930l-235 -883q-9 -27 -19 -68t-15 -83.5t-1 -79.5t24 -57q12 -12 41 -22t61 -17.5t61.5 -11.5t43.5 -5l-2 -10h-575z" />
    <glyph glyph-name="N" unicode="N" horiz-adv-x="1446" 
d="M467 1221l-231 -879q-8 -26 -17 -66t-13.5 -81.5t-0.5 -78t22 -55.5q12 -12 39.5 -21t57.5 -15t58 -9t42 -4l-4 -12h-555l4 12q18 1 44 4.5t54 10t52.5 14.5t39.5 18q42 26 77 92.5t67 188.5l213 795q6 22 10 47.5t3 51.5t-9.5 50t-26.5 43q-29 29 -78.5 43t-111.5 16
l4 13h450l471 -1037l185 697q7 24 16.5 63.5t14 81t0 77.5t-26.5 54q-12 11 -37 20t-53 15.5t-55 10.5t-44 5l2 13h551l-2 -13q-14 -1 -39.5 -4t-54.5 -8.5t-56 -13.5t-44 -17q-26 -14 -46 -40.5t-37 -62.5t-31.5 -80t-27.5 -93l-288 -1079h-37z" />
    <glyph glyph-name="O" unicode="O" horiz-adv-x="1458" 
d="M618 -33q-105 0 -198.5 36t-167.5 106q-77 72 -120.5 178.5t-43.5 240.5q0 95 19.5 186.5t56 176t88.5 160t117 139.5q56 54 120.5 98.5t133.5 76t141.5 48.5t144.5 17q104 0 194 -31.5t171 -100.5q37 -32 69 -76.5t55.5 -98t36.5 -115.5t13 -129q0 -180 -64 -342.5
t-186 -296.5q-52 -59 -117 -108.5t-139.5 -86.5t-156.5 -57.5t-167 -20.5zM618 -12q61 0 116 22.5t104.5 63.5t93.5 99.5t82 129.5q36 69 66 151.5t52.5 171t35 179.5t14.5 176q1 91 -11 169.5t-42.5 136t-81 90t-125.5 32.5q-102 0 -182.5 -56t-149.5 -153
q-50 -71 -92.5 -163.5t-74 -196t-50.5 -212.5t-21 -212q-2 -94 12 -172.5t46 -135.5t83 -88.5t125 -31.5z" />
    <glyph glyph-name="P" unicode="P" horiz-adv-x="1241" 
d="M-96 12q14 1 34.5 3t42.5 4.5t41.5 5.5t30.5 6q40 14 59.5 41t28.5 59l312 1124q9 31 5.5 58.5t-38.5 44.5q-14 5 -32.5 10t-38 8.5t-37 6t-29.5 3.5l4 13h624q204 0 310 -79t104 -228q-2 -108 -54 -191.5t-142.5 -140.5t-214.5 -87t-271 -30h-100l-140 -506
q-9 -31 -2.5 -56t37.5 -40q9 -4 27 -8.5t40 -9t43 -7.5t36 -4l-2 -12h-682zM645 666q94 0 169 29.5t127.5 84t81 131t30.5 170.5q5 146 -53 220.5t-171 74.5h-81l-197 -710h94z" />
    <glyph glyph-name="Q" unicode="Q" horiz-adv-x="1368" 
d="M211 238q74 0 168.5 -31t198.5 -84q44 22 98 62.5t110 98t109 132.5t96 167t70.5 200.5t32.5 234.5q3 82 -14 153t-51.5 123.5t-86 82.5t-117.5 30q-79 0 -145.5 -27t-120.5 -73.5t-95.5 -109t-70.5 -133t-45 -146t-18 -148.5q-2 -52 8.5 -104.5t34 -94.5t60.5 -68
t89 -26q54 0 103 20.5t86.5 61.5t60.5 103t25 145q3 100 -28.5 169t-94.5 91q18 -45 26.5 -82.5t8.5 -58.5q0 -30 -9.5 -52.5t-25.5 -37t-37 -22t-45 -7.5q-47 0 -74.5 29.5t-23.5 89.5q1 28 15 55t39 48.5t60 34.5t78 13q58 0 100.5 -21t70 -55t40.5 -77.5t12 -89.5
q-2 -59 -20.5 -110t-48.5 -93.5t-69.5 -75.5t-83 -55.5t-89.5 -34.5t-88 -12q-84 0 -153 27.5t-118.5 77.5t-76.5 120t-27 156q0 78 24 152.5t68 140.5t106 121.5t137 96t161.5 63t179.5 22.5q129 0 230.5 -36.5t172 -101t107.5 -153t37 -191.5q0 -113 -33 -210.5
t-88.5 -180.5t-130 -152.5t-157 -127t-169.5 -103.5t-168 -82q17 -9 33 -19.5t33 -23.5q54 -37 110.5 -84t114.5 -96t116.5 -96t116 -84t114.5 -59.5t112 -22.5q26 0 63 3.5t68 12.5v17q-37 -2 -66.5 9t-50.5 29.5t-32 43.5t-11 51q0 28 10.5 54t29.5 45.5t45.5 31.5
t58.5 12q58 0 91.5 -38.5t33.5 -100.5q0 -44 -31.5 -91t-84 -86t-121 -64t-142.5 -25q-90 0 -160.5 17.5t-126.5 47t-101 69.5t-83.5 84t-73 90t-70.5 89q-25 31 -52 65.5t-58 65.5q-32 -14 -67.5 -26.5t-72 -22.5t-72.5 -15.5t-69 -5.5q-55 0 -103 8t-84 24t-56.5 40.5
t-20.5 58.5q0 25 19 50t53.5 44.5t82 31.5t103.5 12zM477 68q-25 25 -54 52t-61 49t-67 36t-72 14q-19 0 -37 -12.5t-33 -30t-25 -37t-13 -33.5q15 -52 51 -81t78 -29q24 0 53.5 6.5t61 16.5t62.5 23t56 26z" />
    <glyph glyph-name="R" unicode="R" horiz-adv-x="1460" 
d="M1104 -23q-121 0 -182 61t-58 195q2 56 2 102.5v94.5q0 72 -5.5 123t-29.5 83.5t-72.5 47t-135.5 14.5h-64q-7 -25 -20.5 -73.5t-30 -107.5t-34 -121.5t-33 -116.5t-26.5 -92t-14 -48q-8 -32 -2.5 -57.5t39.5 -40.5q9 -4 27 -8.5t40 -9t43 -7.5t36 -4l-2 -12h-682l4 12
q14 1 34.5 3t42.5 4.5t41.5 5.5t30.5 6q40 14 59.5 41t28.5 59l312 1124q9 31 5.5 58.5t-38.5 44.5q-11 4 -29 9t-38 9t-39 6.5t-31 3.5l4 13h614q224 0 340 -73t115 -206q-2 -81 -36 -147t-97 -116t-153 -84t-202 -52l-2 -14q134 -16 196.5 -81.5t65.5 -181.5q1 -41 1 -74
v-62.5v-56.5t1 -54q2 -70 21 -105t59 -35q56 0 103.5 68.5t81.5 193.5l20 -4q-22 -80 -47 -142.5t-60 -106t-84.5 -66.5t-119.5 -23zM659 721q89 0 165 24t132 70.5t88.5 115.5t34.5 159q3 142 -58 214t-173 72h-100l-185 -655h96z" />
    <glyph glyph-name="S" unicode="S" horiz-adv-x="1110" 
d="M457 -27q-60 0 -121.5 10t-115.5 26t-96.5 34.5t-64.5 36.5l-106 -100h-19l113 483h16q16 -105 47.5 -191t81 -148t118 -96t159.5 -34q80 0 141.5 25.5t103.5 68.5t64 99t23 118q1 60 -18 104t-54 79.5t-86 67t-115 67.5q-71 39 -128 78t-97 84.5t-61 102t-19 130.5
q2 84 41.5 158t108.5 130t163.5 88.5t206.5 32.5q48 0 99 -9t97 -24t83.5 -34t58.5 -39l103 98h18l-112 -467h-15q-11 95 -35.5 178t-66 144t-101.5 96t-141 35q-59 0 -110.5 -21t-90.5 -58.5t-62 -88.5t-24 -111q-2 -55 11.5 -96t42.5 -74.5t73.5 -63.5t106.5 -63
q84 -47 150.5 -89t112 -88.5t69 -101.5t22.5 -128q-2 -99 -46.5 -181.5t-121.5 -142t-181 -92.5t-226 -33z" />
    <glyph glyph-name="T" unicode="T" horiz-adv-x="1311" 
d="M145 12q15 1 41 3t53.5 5.5t51.5 7t35 7.5q38 14 58 41t30 61l344 1241h-80q-17 0 -39.5 -0.5t-46 -1.5t-46 -2.5t-40.5 -3.5q-23 -3 -53 -22.5t-63 -49t-66 -66t-62.5 -72t-52.5 -68t-35 -54.5h-18l102 361h1270l-103 -361h-16q-1 54 -11 111t-28.5 104.5t-45 79.5
t-60.5 37q-35 5 -80.5 6.5t-85.5 1.5h-82l-338 -1235q-9 -31 -3 -59t38 -43q8 -4 32 -8.5t52 -9t54.5 -7.5t41.5 -4l-4 -12h-746z" />
    <glyph glyph-name="U" unicode="U" horiz-adv-x="1556" 
d="M678 -33q-116 0 -205.5 22.5t-151 65t-93 103.5t-31.5 139q0 42 6.5 88t21.5 98l211 768q10 32 5.5 60t-38.5 45q-11 4 -29 9t-38 9.5t-39 7.5t-31 4l4 13h680l-4 -13q-15 -1 -36 -3t-43 -5t-43 -6.5t-36 -7.5q-40 -12 -60 -42t-30 -62l-204 -738q-17 -65 -27 -123.5
t-10 -107.5q0 -54 18.5 -100t55 -79t91 -52t126.5 -19q192 0 315.5 109.5t185.5 330.5l164 580q8 24 18 63.5t14.5 81t0 77t-26.5 52.5q-13 11 -38.5 20t-54.5 15.5t-56.5 10.5t-44.5 5l4 13h561l-4 -13q-14 -1 -40.5 -3.5t-56 -7.5t-57.5 -12t-45 -17q-25 -15 -45 -41
t-36.5 -62t-31 -79.5t-28.5 -92.5l-170 -600q-36 -125 -86 -219t-121.5 -157.5t-167.5 -95.5t-223 -32z" />
    <glyph glyph-name="V" unicode="V" horiz-adv-x="1305" 
d="M344 -20q0 5 -1 43t-2.5 99.5t-3 142t-3.5 170t-3.5 183.5t-3.5 183t-3.5 169t-3 140t-2.5 97t-1 40q-1 22 -2.5 40t-6.5 32t-14 24.5t-24 18.5q-23 11 -54 16.5t-62 7.5l4 13h649l-4 -13q-56 -3 -101.5 -10t-70.5 -18q-35 -16 -48.5 -44t-13.5 -57q0 -4 1 -47.5
t2.5 -112.5t3 -156t3 -177.5t3 -177t3 -155.5t2.5 -113t1 -48q64 82 134 173t139 181t133.5 175t118 156t92 122.5t55.5 75.5q30 42 54.5 81t26.5 62q1 23 -21 39.5t-55.5 27t-72 16t-70.5 7.5l4 13h516l-2 -13q-23 -2 -60 -10.5t-71 -23.5q-46 -23 -88.5 -67t-95.5 -109
q-64 -81 -138 -175.5t-152.5 -196t-160.5 -208.5t-163 -212.5t-159 -208t-149 -195.5h-59v0z" />
    <glyph glyph-name="W" unicode="W" horiz-adv-x="1978" 
d="M340 -16q0 4 -0.5 41.5t-1.5 99t-2.5 142.5t-3.5 171t-3.5 184.5t-3.5 184.5t-3.5 169.5t-2.5 139.5t-1.5 95.5t-0.5 37.5q0 41 -7 68t-38 43q-23 14 -54 19t-60 7l2 13h639l-4 -13q-50 -2 -94.5 -10t-69.5 -20q-35 -14 -48.5 -43t-13.5 -58q0 -1 0.5 -41t2 -105t3 -148
t3 -170t3.5 -171t3.5 -150.5t2.5 -109.5t1 -47l530 781q1 15 2 35.5t1 43v44.5t-1 38q-2 36 -10.5 63.5t-36.5 41.5q-23 14 -54.5 19t-60.5 7l5 13h641l-2 -13q-25 -2 -49.5 -4.5t-47 -6t-41 -8.5t-30.5 -11q-36 -14 -49 -43t-13 -58q0 -1 0.5 -41t2 -105t3 -148t3 -170
t3.5 -171t3.5 -150.5t2.5 -109.5t1 -47l24 36t57.5 85.5t80 118t90.5 133.5t90 133.5t78.5 116.5t56 83t22.5 34q51 77 83 138.5t34 106.5q1 23 -19.5 39t-53 26t-72 15.5t-76.5 7.5l4 13h514l-4 -13q-29 -2 -59 -8.5t-64 -21.5q-23 -12 -44.5 -31t-42 -42t-40 -49.5
t-37.5 -53.5l-813 -1196h-57q0 4 -1 51t-2 122t-3 169.5t-4 193t-3.5 192.5t-3 168.5t-3 121t-1.5 49.5l-727 -1067h-55v0z" />
    <glyph glyph-name="X" unicode="X" horiz-adv-x="1485" 
d="M-141 12q31 3 62 10t63 19q34 13 63.5 30.5t55.5 36.5t48 38t42 36q39 35 96 89t122 117t134.5 131t134.5 132q-21 61 -47.5 133.5t-54.5 147.5t-55.5 148.5t-51.5 136.5q-22 56 -47 90.5t-68 54.5q-24 11 -56.5 16.5t-70.5 7.5l4 13h760l-4 -13q-46 -2 -92 -7.5
t-82.5 -17t-59.5 -29.5t-24 -46q0 -18 9 -57t28 -94q10 -29 23.5 -66.5t28.5 -79t31.5 -85.5t33.5 -87q30 29 71.5 70.5t87 88t91 94.5t84.5 91q46 54 76 93.5t32 56.5q0 37 -52 53.5t-149 21.5l4 13h537l-2 -13q-29 -2 -63 -8t-66 -18q-66 -26 -115.5 -65t-91.5 -76
q-54 -50 -114 -108.5t-118 -117t-110.5 -112.5t-91.5 -93q23 -67 51.5 -146.5t58.5 -160.5t58.5 -158.5t52.5 -140.5q17 -45 36.5 -76.5t45.5 -48.5q15 -13 29.5 -20.5t32.5 -12.5t39.5 -7.5t50.5 -4.5l-7 -12h-757l4 12q53 3 100.5 9.5t83.5 18.5t57 30.5t21 46.5
q2 15 -7 50t-26 89q-21 71 -56 167t-73 202q-54 -53 -107 -105.5t-102 -101.5t-91.5 -92.5t-76.5 -79.5q-54 -59 -85 -98.5t-31 -53.5q-1 -21 12.5 -35.5t39 -24t62.5 -14.5t84 -8l-4 -12h-536z" />
    <glyph glyph-name="Y" unicode="Y" horiz-adv-x="1366" 
d="M233 12q13 1 33 2.5t41.5 3.5t40.5 5.5t31 7.5q20 7 34.5 18.5t24.5 25t16 28.5t9 28l131 535q7 27 11 61t6 70t2.5 69.5t0.5 59.5q0 75 -13.5 139.5t-42 112.5t-73 75t-106.5 27q-39 0 -76.5 -11.5t-71 -36.5t-61 -63.5t-47.5 -93.5l-17 6q27 79 66.5 142.5t89.5 107.5
t109.5 68t126.5 24q86 0 150.5 -31.5t108 -85.5t66.5 -126.5t25 -155.5q1 -27 0 -59.5t-3 -67.5t-6 -71.5t-10 -71.5h19q83 223 186 379q89 138 189 215t200 77q38 0 67.5 -12t49.5 -31.5t30.5 -45t10.5 -52.5q0 -40 -11.5 -69.5t-31 -49t-44.5 -29.5t-52 -10
q-32 0 -55.5 12.5t-38.5 31t-22 40.5t-7 41q0 34 14 64.5t39 52.5l-8 10q-35 -7 -71.5 -25t-75 -50t-79.5 -80t-85 -115q-23 -34 -51 -83t-55 -107.5t-51 -123t-40 -128.5l-133 -527q-8 -32 -0.5 -58.5t41.5 -41.5q7 -4 28.5 -8.5t47 -8t50.5 -6.5t40 -4l-4 -12h-697z" />
    <glyph glyph-name="Z" unicode="Z" horiz-adv-x="1221" 
d="M-143 16l1224 1362h-290q-56 0 -102.5 -2t-78.5 -10q-32 -7 -67.5 -27.5t-72 -50t-72 -65t-68 -71.5t-59.5 -71t-46 -63h-16l139 381h1059l-4 -17l-1225 -1362h322q50 0 100 3t94 9.5t79 16.5t56 25q42 30 89 75.5t91.5 95t82.5 97t61 82.5h16l-151 -424h-1165z" />
    <glyph glyph-name="grave" unicode="`" 
d="M834 1077q-36 28 -71.5 56t-68.5 54.5t-62 49t-52 39.5q-44 31 -69.5 64t-25.5 71q0 19 7 36t19.5 29.5t29.5 19.5t37 7q25 0 44.5 -7.5t35.5 -23.5t29.5 -40t27.5 -58l129 -287l-10 -10v0z" />
    <glyph glyph-name="a" unicode="a" horiz-adv-x="1106" 
d="M297 -27q-48 0 -94.5 16.5t-84 54t-60.5 99t-23 150.5q0 73 21.5 151t60 152t91.5 139.5t116.5 115t135 78.5t146.5 29q37 0 67 -14.5t52 -37.5t35.5 -51.5t17.5 -57.5h6l50 149h229l-236 -682q-26 -74 -38.5 -122t-14.5 -74q0 -31 13 -44.5t36 -13.5q34 0 67.5 19.5
t66 56.5t62 89.5t54.5 117.5l21 -6q-28 -69 -58 -126t-66 -98.5t-80.5 -64.5t-101.5 -23q-43 0 -80 12t-62.5 38.5t-37.5 67.5t-4 100l-8 2q-28 -51 -62 -92t-72 -70t-80 -44.5t-85 -15.5zM360 33q59 -2 119 48.5t119 156.5l168 514q-12 81 -50 124.5t-93 43.5
q-42 0 -85 -35.5t-82.5 -94.5t-73.5 -136t-59 -160t-39 -166.5t-12 -155.5q0 -72 23 -104.5t65 -34.5z" />
    <glyph glyph-name="b" unicode="b" 
d="M406 -29q-73 0 -134.5 25t-105.5 65.5t-69 91.5t-25 103q0 50 7.5 89t22.5 85l267 842q17 51 23.5 84t6.5 53q0 34 -24 47.5t-58 18.5q-19 2 -34.5 3.5t-29.5 2t-29 1t-34 1.5v16l494 21l-246 -752l4 -2q28 36 59 70.5t66.5 61.5t74.5 43.5t83 16.5q49 0 97.5 -15.5
t86.5 -52.5t62 -98.5t24 -152.5q0 -56 -15.5 -127t-47 -145.5t-79.5 -145.5t-113.5 -126.5t-148.5 -89.5t-185 -34zM397 -10q46 0 90.5 37.5t85 99.5t74.5 142t59.5 165t39.5 169t14 153q0 65 -25.5 101t-68.5 36q-36 0 -71.5 -18.5t-68 -47.5t-61 -64t-49.5 -69l-158 -497
q0 -103 36.5 -155t102.5 -52z" />
    <glyph glyph-name="c" unicode="c" horiz-adv-x="842" 
d="M371 -29q-61 0 -121 17t-108 55.5t-77.5 101t-29.5 154.5q0 67 19.5 142t55.5 148t87.5 140t116 118t140.5 81t162 30q46 0 87 -13.5t72 -38.5t49 -60.5t18 -79.5q0 -66 -33 -105.5t-86 -39.5q-51 0 -85 26.5t-34 79.5q0 45 41.5 80t106.5 49q-3 15 -14.5 30t-29 27
t-39.5 19.5t-46 7.5q-47 0 -90 -36t-81 -95t-69 -135.5t-53.5 -157.5t-34.5 -160t-12 -143q0 -90 32.5 -142.5t98.5 -52.5q56 0 107.5 22.5t97 61.5t84.5 90.5t71 110.5l19 -8q-48 -91 -101 -153t-107 -100t-108.5 -54.5t-105.5 -16.5z" />
    <glyph glyph-name="d" unicode="d" horiz-adv-x="1137" 
d="M297 -27q-44 0 -90.5 15t-84.5 52t-62.5 98.5t-24.5 154.5q0 75 21.5 153t60 152t92 139.5t116.5 114.5t133.5 77.5t143.5 28.5q40 0 69.5 -13.5t50.5 -35.5t33.5 -51.5t18.5 -60.5h6l142 475q30 94 30 137q0 34 -24.5 47.5t-59.5 18.5q-38 5 -75 5.5t-74 2.5v16l512 21
l-395 -1256q-22 -69 -33.5 -112.5t-11.5 -77.5q0 -32 13 -46t36 -14q71 0 131.5 74t111.5 205l21 -6q-28 -69 -57 -126t-64 -98.5t-78 -64.5t-100 -23q-45 0 -83 12.5t-64.5 39.5t-38.5 68t-5 98l-6 2q-31 -47 -66.5 -87.5t-74.5 -70.5t-82 -47t-88 -17zM365 33
q30 0 61.5 14.5t63 40.5t61 62.5t55.5 80.5l158 521q-11 75 -47.5 120.5t-91.5 45.5q-44 0 -87 -35.5t-82.5 -95t-73 -136.5t-58.5 -159.5t-39 -164.5t-13 -151q0 -77 24 -110t69 -33z" />
    <glyph glyph-name="e" unicode="e" horiz-adv-x="831" 
d="M371 -29q-63 0 -123.5 17.5t-107.5 57t-76 102.5t-29 155q0 61 19 133t54.5 145t88 141t119 120.5t147 84t172.5 31.5q43 0 81 -10.5t66 -30.5t44 -48.5t16 -65.5q0 -74 -37 -133.5t-106 -104t-168.5 -74t-223.5 -42.5q-12 -57 -19 -120t-7 -116q0 -85 31.5 -136.5
t99.5 -51.5q57 0 109 23t97.5 61.5t84 89.5t69.5 108l19 -8q-47 -89 -98 -151.5t-104 -101.5t-108 -57t-110 -18zM309 465q93 12 157 49t104.5 86t59.5 104.5t21 104.5q5 68 -14 98.5t-51 30.5q-39 0 -79 -41t-77 -107.5t-68.5 -151.5t-52.5 -173z" />
    <glyph glyph-name="f" unicode="f" horiz-adv-x="635" 
d="M-262 -483q-54 0 -93.5 14t-65 38t-38 55.5t-12.5 66.5q0 21 8.5 43t24 40t39 30t53.5 12q19 0 41.5 -6t42 -20t32.5 -36t13 -53q0 -21 -10.5 -39.5t-24.5 -35t-28.5 -31.5t-22.5 -27q2 -16 13.5 -25.5t21.5 -9.5q57 0 98.5 24t76 77.5t66 139.5t68.5 210q37 123 72 250
t65.5 246t57 224.5t47.5 186.5h-191l10 33h191l20 69q32 119 86 218t138 178q69 68 153 100.5t174 32.5q61 0 107 -15t77.5 -40.5t47.5 -58.5t16 -69q0 -20 -8.5 -42t-24 -40.5t-38.5 -30.5t-52 -12q-23 0 -47 5.5t-43.5 18t-32 32.5t-12.5 49q0 21 10.5 42.5t23.5 41.5
t24.5 37.5t13.5 29.5q-2 9 -11 15.5t-21 10.5t-24 5.5t-20 1.5q-91 0 -161.5 -109.5t-133.5 -338.5l-37 -131h238l-13 -33h-231q-16 -63 -34.5 -134t-38 -145.5t-39 -150.5t-39 -148t-38.5 -138t-36 -122q-19 -60 -43 -117.5t-54 -110.5t-66 -100t-79 -85
q-71 -63 -150.5 -93t-156.5 -30z" />
    <glyph glyph-name="g" unicode="g" horiz-adv-x="983" 
d="M270 -479q-95 0 -169 16.5t-124 46t-76 69.5t-26 87q0 51 24.5 94.5t71 77.5t114.5 57.5t155 32.5v10q-44 8 -80.5 21.5t-63 33t-41 45.5t-14.5 60q0 45 25.5 78t61.5 55.5t75.5 36.5t66.5 23v8q-38 16 -69.5 39.5t-54 52t-34.5 62t-12 69.5q0 75 31.5 141t88.5 115
t136 77.5t174 28.5q81 0 141.5 -18t94.5 -37q22 18 47 37t51 34.5t52 25t51 8.5q24 0 44.5 -10t35 -26.5t22.5 -37.5t8 -43q0 -23 -8.5 -43.5t-22.5 -36t-32.5 -24.5t-38.5 -9q-43 0 -71.5 43.5t-41.5 112.5q-23 -3 -46 -17t-42 -28v-15q29 -29 49.5 -75t20.5 -99
q0 -78 -31.5 -142.5t-86.5 -110.5t-128.5 -71.5t-157.5 -25.5h-161q-15 -5 -30.5 -13.5t-28 -20t-20 -25.5t-7.5 -29q-1 -21 9 -36t36.5 -25.5t72.5 -17.5t117 -13q23 -2 51.5 -4.5t56.5 -5.5t53 -5.5t40 -4.5q108 -17 168.5 -83.5t60.5 -175.5q-1 -67 -34 -133t-104 -118.5
t-182 -85.5t-268 -33zM322 -461q86 0 148 26.5t102.5 69t59.5 96.5t19 109q0 42 -18 74t-60 41q-38 7 -79 13t-83 10.5t-82.5 7t-76.5 4.5q-33 -9 -62.5 -29t-51.5 -51t-35 -71.5t-13 -90.5q0 -45 14.5 -83.5t43.5 -66.5t72.5 -43.5t101.5 -15.5zM436 365q31 0 57 21t47 55
t37 77.5t26.5 88t16 86.5t5.5 73q0 36 -5.5 68t-18 56t-33 38t-50.5 14q-31 0 -57.5 -20t-48 -53t-37.5 -74t-27 -82.5t-16.5 -80t-5.5 -65.5q0 -44 6 -81t19 -64t34 -42t51 -15z" />
    <glyph glyph-name="h" unicode="h" horiz-adv-x="1137" 
d="M815 -23q-41 0 -80 9.5t-70 30t-50 53.5t-19 80q0 37 11 72t30 85l129 342q9 24 18.5 48.5t17 47.5t12.5 43t5 35q0 19 -7 33t-19 23t-27 13.5t-31 4.5q-41 0 -79.5 -19.5t-73.5 -52.5t-68 -77.5t-63 -94.5l-203 -653h-230l402 1272q17 51 23 84t6 53q0 34 -23 47.5
t-57 18.5q-20 2 -36 3.5t-31 2t-30.5 1t-33.5 1.5v16l493 21l-256 -779l6 -2q31 45 66 84.5t73 69.5t80 47.5t88 17.5q53 0 96 -19t73 -50.5t46.5 -72t16.5 -83.5q0 -25 -12 -68.5t-29 -86.5l-117 -312q-59 -154 -59 -200q0 -28 17 -39t42 -11q66 0 127.5 73t114.5 204
l20 -6q-27 -69 -56.5 -126t-66 -98t-82 -63.5t-104.5 -22.5z" />
    <glyph glyph-name="i" unicode="i" horiz-adv-x="676" 
d="M334 -23q-42 0 -81 9.5t-69 30t-48.5 53.5t-18.5 80q0 18 2 35t6.5 35t11.5 39t17 48l143 363q28 74 41.5 122.5t13.5 77.5q0 50 -45 50q-69 0 -129.5 -74t-111.5 -205l-21 6q28 67 57 124.5t64.5 98.5t78.5 64.5t99 23.5q43 0 81 -12t66.5 -35.5t45 -58.5t16.5 -80
q0 -17 -5.5 -41t-14 -50.5t-18 -53.5t-17.5 -49l-121 -312q-31 -78 -46.5 -127t-15.5 -73q0 -26 15.5 -38t40.5 -12q69 0 131.5 73t113.5 204l19 -6q-27 -69 -56.5 -126t-65 -98t-79.5 -63.5t-100 -22.5zM537 1167q-31 0 -54 11t-38.5 29.5t-23 43t-7.5 52.5q0 34 11.5 65
t33 54.5t52 37t69.5 13.5q25 0 45.5 -11.5t34.5 -31t22 -44t8 -49.5q0 -34 -10 -64.5t-29.5 -54t-48 -37.5t-65.5 -14z" />
    <glyph glyph-name="j" unicode="j" horiz-adv-x="614" 
d="M-186 -483q-44 0 -80 13t-62 35.5t-40.5 52.5t-14.5 65q0 23 7.5 46t23 41.5t38.5 30t54 11.5q25 0 47.5 -7.5t40 -22t27.5 -35.5t10 -48q0 -21 -9 -38.5t-21.5 -33t-26.5 -29.5t-23 -26q2 -20 15.5 -29.5t25.5 -9.5q52 0 91.5 26.5t73 81.5t64.5 140t66 201
q34 114 60.5 207.5t50 179.5t46 172t48.5 186q12 46 18 81t6 58q0 25 -10.5 39.5t-32.5 14.5q-69 0 -127.5 -75t-109.5 -206l-21 8q27 67 56 124.5t64 98.5t78 64.5t99 23.5q44 0 82.5 -11.5t67.5 -35t46 -58t17 -79.5q0 -7 -2.5 -22.5t-6.5 -35t-9 -41t-11 -40.5
q-20 -78 -38 -148t-37.5 -139.5t-40.5 -143.5t-47 -159q-32 -105 -79.5 -192t-115.5 -156q-78 -90 -171 -135t-187 -45zM526 1169q-30 0 -52.5 11t-37.5 29t-22.5 42.5t-7.5 51.5q0 35 11 66.5t32 55t51.5 37t68.5 13.5q25 0 46 -11.5t36 -31t23 -44t8 -49.5
q0 -35 -10.5 -65.5t-30.5 -54t-49 -37t-66 -13.5z" />
    <glyph glyph-name="k" unicode="k" horiz-adv-x="1102" 
d="M754 -23q-49 0 -90 10t-71 31t-46.5 54t-16.5 78q0 31 8.5 70.5t18.5 79.5t18.5 75t8.5 57q0 53 -22.5 79t-78.5 26q-12 0 -31 -1.5t-34 -3.5l-172 -532h-230l404 1272q17 52 23 84.5t6 52.5q0 34 -23 47.5t-57 18.5q-20 2 -36 3.5t-31 2t-30.5 1t-33.5 1.5v16l493 21
l-309 -963q14 -2 34 -2h40q41 0 71 17.5t53 45.5t41.5 64.5t37.5 74t40 74t48.5 64.5t64.5 45.5t88 17.5q45 0 76 -11t50.5 -30t28.5 -44.5t9 -53.5q0 -29 -10 -56t-28 -48t-43 -34t-56 -13q-20 0 -39.5 6.5t-34.5 17.5t-24 26t-9 32q0 32 9.5 51.5t23.5 31.5t31 19t32 13
t25.5 13.5t13.5 20.5q-14 41 -69 41q-38 0 -63.5 -25t-47 -63.5t-42.5 -85t-50.5 -90.5t-71 -79t-102.5 -50q46 -7 89 -20t76.5 -35.5t53.5 -55.5t20 -80q0 -38 -7.5 -77t-16 -76t-16 -70t-7.5 -57q0 -32 12.5 -46t41.5 -14q37 0 71 19.5t64.5 55.5t57 87t50.5 115l23 -6
q-28 -69 -57 -126t-65 -98t-81 -63.5t-104 -22.5z" />
    <glyph glyph-name="l" unicode="l" horiz-adv-x="594" 
d="M264 -23q-41 0 -79.5 9t-69.5 29.5t-49.5 52.5t-18.5 79q0 38 11.5 76t25.5 84l305 965q17 52 23 84.5t6 52.5q0 34 -24 47.5t-58 18.5q-19 2 -35 3.5t-31 2t-31 1t-34 1.5v16l495 21l-401 -1262q-25 -75 -39 -122t-14 -75q0 -24 15.5 -35.5t41.5 -11.5q68 0 130.5 74
t113.5 205l20 -6q-27 -69 -57 -126.5t-66 -98t-80 -63t-100 -22.5z" />
    <glyph glyph-name="m" unicode="m" horiz-adv-x="1735" 
d="M1417 -23q-41 0 -81 9.5t-71 30t-50 53.5t-19 80q0 37 9.5 71t29.5 86l121 322q25 66 41 111t16 79q0 21 -7 35t-19 22.5t-27 12.5t-31 4q-65 0 -127.5 -54t-118.5 -145l-227 -694h-235l223 670q5 15 12 34.5t13.5 39.5t11 39t4.5 34q0 35 -24.5 54.5t-59.5 19.5
q-43 0 -81 -18.5t-70.5 -48.5t-60.5 -69t-52 -79l-226 -676h-235l227 666q25 74 41 127.5t16 80.5q0 25 -12.5 35.5t-32.5 10.5q-71 0 -130.5 -74t-110.5 -205l-21 6q28 67 57.5 124.5t64.5 98.5t79 64.5t102 23.5q36 0 72.5 -12.5t64 -39t41.5 -69t7 -102.5l6 -2
q30 45 64.5 86t73.5 72t81.5 49t87.5 18q55 0 98 -17.5t72 -47.5t43 -70.5t10 -87.5h6q27 42 61 82.5t73.5 71.5t84.5 50t93 19q45 0 85.5 -16.5t71 -46.5t48.5 -71t18 -89q0 -15 -3.5 -34.5t-9.5 -40.5t-13.5 -42.5t-14.5 -39.5l-117 -312q-59 -154 -59 -200q0 -28 17 -39
t42 -11q65 0 127 73t115 204l20 -6q-27 -69 -57 -126t-66 -98t-80.5 -63.5t-101.5 -22.5z" />
    <glyph glyph-name="n" unicode="n" horiz-adv-x="1210" 
d="M887 -23q-44 0 -83.5 10.5t-69 31.5t-47 53.5t-17.5 77.5q0 37 10 72t29 85l127 334q24 68 37.5 109.5t13.5 66.5q0 21 -7 35t-19 22.5t-27 12.5t-31 4q-40 0 -76 -15.5t-68 -44t-61.5 -67.5t-56.5 -86l-224 -678h-237l225 666q25 74 41 127.5t16 80.5q0 25 -12.5 35.5
t-32.5 10.5q-69 0 -128.5 -74t-110.5 -205l-21 6q28 69 57 126t64.5 98.5t79 64t100.5 22.5q38 0 74.5 -12.5t64 -39t41.5 -69t7 -102.5l6 -2q71 109 150 167t159 58q50 0 92.5 -17.5t73.5 -47.5t48.5 -70.5t17.5 -85.5q0 -28 -11.5 -71t-29.5 -88l-117 -312
q-29 -77 -43 -127t-14 -73q0 -28 16 -39t41 -11q66 0 127.5 73t114.5 204l20 -6q-29 -69 -58.5 -126.5t-65.5 -98t-81 -63t-104 -22.5z" />
    <glyph glyph-name="o" unicode="o" horiz-adv-x="995" 
d="M367 -29q-62 0 -120 22.5t-103.5 68.5t-73 115t-27.5 161q0 65 19 136.5t55.5 140.5t88 131t117 109.5t142.5 75t164 27.5q66 0 124.5 -23t103 -69t70 -115.5t25.5 -162.5q0 -65 -18.5 -136t-54.5 -139.5t-87 -130.5t-116 -109t-143 -74.5t-166 -27.5zM379 -10
q47 0 90.5 35.5t81.5 95t70 137t54.5 161.5t35.5 167.5t14 156.5q0 59 -9.5 97.5t-24.5 60.5t-33.5 30.5t-36.5 8.5q-46 0 -90 -33.5t-82.5 -91t-71 -133t-56 -158.5t-37 -169.5t-14.5 -164.5q-1 -57 8 -95t24.5 -61.5t35.5 -33.5t41 -10z" />
    <glyph glyph-name="p" unicode="p" horiz-adv-x="1163" 
d="M-209 -465q35 1 59 4t40 8.5t27 13.5t20 19q14 16 25.5 38t21 45.5t17 47t13.5 41.5l287 914q25 77 40 132t15 81q-3 43 -45 43q-68 0 -128 -75t-111 -206l-21 6q28 67 57.5 124.5t64.5 98.5t78 64.5t97 23.5q44 0 80 -15t61 -44.5t35.5 -72.5t3.5 -99l7 -2q31 46 66 88
t74.5 74.5t84 51.5t94.5 19q46 0 92 -15t83 -51.5t60 -99t23 -157.5q0 -74 -20 -151.5t-57 -151t-88.5 -139t-114.5 -114.5t-135.5 -77.5t-151.5 -28.5q-40 0 -71 14t-53 36.5t-36 50t-20 53.5h-7l-114 -379q-16 -48 -22.5 -82.5t-6.5 -54.5q0 -34 24.5 -48t59.5 -18
q19 -2 33.5 -3.5t28 -2t27.5 -1t32 -1.5l-4 -16h-629zM524 16q45 0 89 36.5t83 96.5t72.5 137.5t57.5 160t37.5 163.5t13.5 148q0 73 -25.5 103t-65.5 30q-35 0 -67.5 -15.5t-63 -42t-60 -62.5t-56.5 -77l-166 -528q15 -68 54.5 -109t96.5 -41z" />
    <glyph glyph-name="q" unicode="q" horiz-adv-x="1053" 
d="M215 -465q69 2 107 12.5t57 32.5q15 16 26.5 37t21 44.5t17 46.5t13.5 44q30 94 56 176q11 34 22 69.5t21 66.5t17.5 55.5t12.5 38.5l-6 2q-25 -36 -55.5 -70t-66 -60t-75.5 -41.5t-82 -15.5q-47 0 -94.5 15t-85.5 51.5t-62 98.5t-24 157q0 61 18 134t52.5 146.5
t84.5 142.5t114 122.5t140 85.5t164 32q36 0 66.5 -13.5t53.5 -35.5t38 -49t20 -55h9l100 141h170l-381 -1198q-15 -49 -22 -83t-7 -54q0 -34 24.5 -48t59.5 -18q19 -2 30.5 -3.5t21 -2t20.5 -1t29 -1.5l-4 -16h-627zM360 35q31 0 63.5 14.5t64 40.5t61.5 63.5t55 82.5
l174 528q-14 72 -56 113t-99 41q-44 0 -87.5 -35.5t-82.5 -95t-72 -136t-57.5 -159t-38 -164.5t-13.5 -152q0 -75 22.5 -108t65.5 -33z" />
    <glyph glyph-name="r" unicode="r" horiz-adv-x="909" 
d="M303 670q22 68 37.5 121t15.5 79t-12 38t-31 12q-35 0 -67.5 -20.5t-62.5 -57t-57.5 -88.5t-51.5 -115l-21 6q28 68 57.5 125.5t64 99t77.5 65t100 23.5q38 0 74 -13.5t63 -42t41 -72t7 -103.5l6 -2q21 37 48.5 78.5t60.5 75.5t70.5 56.5t78.5 22.5q33 0 60 -11.5
t45.5 -31.5t29 -46.5t10.5 -55.5q0 -28 -8 -55.5t-23.5 -49.5t-39.5 -35.5t-56 -13.5q-63 0 -91 31.5t-26 75.5q1 20 10.5 37.5t21 33t22.5 28.5t16 24q3 16 -8 22q-27 0 -58.5 -23t-63 -58.5t-60 -79t-50.5 -84.5l-208 -666h-236z" />
    <glyph glyph-name="s" unicode="s" horiz-adv-x="825" 
d="M326 -29q-81 0 -140.5 20.5t-98.5 53.5t-58 74.5t-19 83.5q0 33 11 62.5t30.5 51.5t45.5 35t55 13q34 0 56.5 -11t36 -27t18.5 -34t5 -33q0 -16 -5 -34t-17.5 -33t-33.5 -25t-52 -10q-15 0 -30.5 1.5t-28 0.5t-20 -5t-7.5 -16q0 -22 17 -47.5t48 -47t74.5 -36t97.5 -14.5
q46 0 84.5 13t66 37t43 57.5t15.5 74.5q0 39 -15.5 71t-40.5 60t-57 52.5t-65 50.5q-32 25 -63 52.5t-55 59.5t-39 70.5t-15 85.5q0 56 25.5 106.5t73 89t114 61.5t147.5 23q70 0 119 -20.5t80 -50.5t45 -65.5t14 -65.5q0 -71 -30.5 -111.5t-85.5 -40.5q-22 0 -42 5.5
t-35.5 17.5t-24.5 30.5t-9 44.5q0 24 11.5 41.5t28.5 30.5t37 21.5t37.5 14.5t29.5 11t14 10q-1 10 -11.5 27.5t-32.5 35t-56.5 30t-83.5 12.5q-29 0 -58.5 -11t-53 -33.5t-38 -55.5t-14.5 -78q0 -34 13.5 -62.5t36 -54.5t52.5 -50.5t62 -49.5q35 -29 68 -58t58.5 -62
t40.5 -72t15 -87q0 -57 -26 -109.5t-76 -93t-123 -64.5t-166 -24z" />
    <glyph glyph-name="t" unicode="t" horiz-adv-x="662" 
d="M289 -23q-40 0 -80.5 9.5t-72.5 30t-52.5 52.5t-20.5 78q0 29 7 60.5t12 48.5q6 23 21.5 75.5t35.5 119.5t42 139.5t41 135.5t32.5 108t17.5 57h-192l12 33h193l92 317h227l-96 -317h231l-10 -33h-229q-14 -47 -32.5 -109.5t-39 -131.5l-41 -138t-37.5 -128t-29.5 -103
t-17.5 -62q-15 -51 -24 -91.5t-9 -55.5q0 -32 14.5 -45t39.5 -13q68 0 134.5 73.5t119.5 209.5l20 -6q-29 -72 -59.5 -130t-67 -99t-81 -63t-101.5 -22z" />
    <glyph glyph-name="u" unicode="u" horiz-adv-x="1190" 
d="M362 -27q-51 0 -94 18t-74 49t-48 73t-17 90q0 10 3 27t8.5 37.5t13 43t16.5 43.5l119 312q59 145 59 200q0 54 -45 54q-68 0 -128.5 -75t-111.5 -206l-18 8q27 67 55.5 124t63.5 98t78.5 64t101.5 23q42 0 79.5 -11t65.5 -33t44 -54.5t16 -75.5q0 -37 -9 -72.5
t-26 -84.5l-135 -342q-23 -63 -35 -105.5t-12 -71.5q0 -32 20 -54.5t64 -22.5q37 0 73 16t69 44t62.5 66t55.5 81l219 692h238l-222 -668q-18 -57 -32.5 -107t-14.5 -81q0 -25 15 -39.5t36 -14.5q70 0 130.5 72t111.5 203l21 -6q-28 -69 -57.5 -126t-64.5 -98t-78.5 -63.5
t-98.5 -22.5q-42 0 -81 11.5t-67.5 37t-44 65t-10.5 95.5l-6 2q-29 -46 -63.5 -85t-73.5 -68t-82 -45.5t-89 -16.5z" />
    <glyph glyph-name="v" unicode="v" horiz-adv-x="1030" 
d="M428 -29q-59 0 -111.5 17.5t-92 52.5t-62.5 86t-23 119q0 76 27.5 150.5t79.5 148.5t127 149t170 152l-8 10q-87 -57 -153.5 -88t-123.5 -31q-45 0 -79.5 10t-53.5 21l-68 -184l-16 6l125 364h10q14 -27 37 -47t50 -32.5t55 -18.5t53 -6q37 0 72.5 4.5t69.5 16.5t67.5 32
t68.5 51l15 -14q-34 -32 -68 -77.5t-66 -101.5t-60 -119t-48.5 -129t-32.5 -133.5t-12 -131.5q0 -59 12.5 -99t34 -64.5t50.5 -35t61 -10.5q37 0 75 12.5t74 36t69 56t62 73.5q53 72 86 160t33 182q0 35 -13 59.5t-32.5 43.5t-42.5 35.5t-42.5 35t-32.5 41.5t-13 55
q0 50 34.5 82.5t94.5 32.5q35 0 57.5 -18t35 -46t17 -62.5t4.5 -67.5q0 -103 -20 -201t-56.5 -184.5t-88.5 -158.5t-115.5 -124.5t-137.5 -81.5t-155 -29z" />
    <glyph glyph-name="w" unicode="w" horiz-adv-x="1458" 
d="M881 -33q-82 0 -140.5 38.5t-93.5 96.5q-29 -27 -58 -51t-59 -41t-62 -27t-67 -10q-55 0 -103 17.5t-84 53t-56.5 87.5t-20.5 121q0 76 31 152t84.5 151t125.5 148.5t154 144.5l-8 10q-78 -57 -146 -88t-124 -31q-45 0 -77.5 10t-51.5 21l-66 -178l-16 6l121 356h12
q14 -27 37.5 -47t51 -32.5t56 -18.5t52.5 -6q36 0 67 6t61 19t60.5 34t65.5 52l12 -13q-34 -41 -66.5 -94t-62.5 -114t-55 -127.5t-43 -135t-28.5 -136t-10.5 -130.5q0 -46 8.5 -79.5t22.5 -55t32 -31.5t37 -10q37 0 75.5 20.5t86.5 67.5q-20 42 -31.5 89t-11.5 89
q0 60 18.5 131.5t48.5 144t69 140t80 120t81.5 84t73.5 31.5q35 0 58 -40t23 -105q0 -52 -18.5 -122t-50.5 -146.5t-76.5 -155t-95.5 -147.5q12 -53 30.5 -91t42 -62t49.5 -35t52 -11q39 0 77.5 14.5t74.5 41t68.5 63.5t59.5 82q45 71 71 146t26 169q0 39 -13.5 65.5
t-33.5 46t-43 35.5t-43 34.5t-33.5 41.5t-13.5 58q0 23 8.5 43.5t24 35.5t37 24t48.5 9q42 0 67 -19t39 -48t18.5 -64t4.5 -67q0 -104 -19.5 -202.5t-54.5 -185t-84.5 -159t-109.5 -124.5t-129 -81t-143 -29zM799 264q38 57 74.5 124t65 134.5t45.5 130.5t17 113
q0 42 -17.5 63t-43.5 21q-31 0 -55 -20t-39 -54q-12 -23 -23 -64.5t-18.5 -95.5t-12 -116.5t-4.5 -126.5q0 -28 2.5 -56t8.5 -53z" />
    <glyph glyph-name="x" unicode="x" horiz-adv-x="1061" 
d="M131 -25q-45 0 -77 11t-52.5 30t-29.5 44.5t-9 54.5q0 48 19 91t46.5 80t59 66.5t55.5 50.5l11 -10q-29 -65 -42.5 -133.5t-13.5 -128.5q0 -62 15.5 -91.5t40.5 -29.5q35 0 65.5 22.5t57.5 59.5t50 86t43 101t37 104.5t31 97.5q32 103 52 186t20 136q0 60 -22 83t-56 23
q-38 0 -75.5 -19.5t-72 -56t-65.5 -88.5t-55 -116l-21 8q28 67 60 124.5t71.5 98.5t87.5 64.5t107 23.5q43 0 85 -10t74.5 -38t51.5 -79t18 -133h9q15 41 39.5 86.5t56 84t69.5 64t82 25.5q28 0 55 -7.5t48 -25t34 -46t13 -70.5t-15 -79t-37.5 -69t-49.5 -58.5t-50 -47.5
l-10 10q10 21 20 54.5t18.5 71.5t13.5 77t5 73q0 39 -13 65t-44 26t-60 -20t-55 -53.5t-49.5 -78.5t-43.5 -95t-36.5 -102t-29.5 -100q-22 -90 -39 -168.5t-17 -144.5q0 -40 8 -67.5t22 -44t33 -23.5t42 -7q75 0 135.5 71t114.5 208l20 -6q-27 -69 -55.5 -127t-64 -100
t-81 -65.5t-106.5 -23.5q-56 0 -107 12t-89.5 43.5t-59.5 87t-18 142.5h-11q-18 -44 -42 -94t-56 -92.5t-73 -70.5t-93 -28z" />
    <glyph glyph-name="y" unicode="y" horiz-adv-x="1112" 
d="M160 -489q-72 0 -119 17.5t-74.5 44.5t-39 59t-11.5 61q0 44 14.5 76t37 53t51 31t57.5 10q28 0 49 -9.5t35 -24.5t21 -33t7 -36q0 -53 -22.5 -78t-50.5 -34q-15 -6 -33 -8t-34 -4t-28.5 -6.5t-17.5 -16.5q1 -20 14 -35t33.5 -25.5t47 -16t55.5 -5.5q98 0 174.5 42.5
t138.5 126t113.5 206t99.5 282.5l-6 2q-29 -44 -63 -83t-73.5 -69t-83 -47.5t-90.5 -17.5q-53 0 -96 18.5t-73.5 50t-47 73.5t-16.5 88q0 11 3 28.5t8.5 38t13 43t16.5 43.5l119 310q28 69 43.5 121.5t15.5 78.5q0 54 -45 54q-68 0 -128.5 -75t-111.5 -206l-18 8
q27 67 55.5 124t63.5 98t78.5 64t101.5 23q43 0 80.5 -11t65 -33t43.5 -54.5t16 -75.5q0 -35 -9.5 -73.5t-25.5 -83.5l-131 -332q-9 -24 -18.5 -49.5t-16.5 -50t-11.5 -46t-4.5 -36.5q0 -36 20 -59t68 -23q35 0 70 16t68.5 45t65.5 70t62 92l213 676h231l-221 -709
q-63 -201 -144.5 -337t-177 -218.5t-203.5 -117.5t-224 -35z" />
    <glyph glyph-name="z" unicode="z" horiz-adv-x="883" 
d="M33 -27q-13 0 -26.5 4.5t-24.5 14.5t-18 25.5t-7 37.5q0 34 26.5 65.5t77.5 72.5q52 42 126.5 99t160 119.5t174.5 126t170 119.5l-4 9q-41 -2 -92 8t-102.5 22t-100 22.5t-82.5 10.5q-45 0 -69.5 -15.5t-24.5 -49.5q0 -17 10 -34t26.5 -32t38.5 -27.5t46 -19.5l-6 -12
q-43 13 -81 31t-66 41t-44 51t-16 63q0 47 15.5 88.5t42 73t61.5 49.5t75 18q48 0 88.5 -20t75 -49.5t64 -64.5t56 -64.5t50.5 -49.5t49 -20q28 0 43 15t22 38t8 51t1 54q0 52 23 82t63 30q32 0 56 -16t24 -57q0 -22 -6 -40.5t-18.5 -36.5t-31.5 -37t-46 -40
q-25 -20 -67 -51t-94.5 -69.5t-112 -82t-120.5 -87.5t-119 -87t-108 -80l2 -10q44 -1 88.5 -11.5t89.5 -23t92 -23t95 -11.5q69 -2 103.5 20.5t37.5 54.5q1 37 -27.5 64t-68.5 35l6 14q46 -10 78 -28t51.5 -41.5t28 -51t8.5 -55.5q0 -44 -14.5 -85.5t-41 -73.5t-63 -51.5
t-80.5 -19.5q-50 0 -92 20t-78 50t-66.5 65t-58.5 65t-54.5 50t-53.5 21q-24 -6 -38.5 -24.5t-22 -43.5t-9.5 -53t-2 -55q0 -47 -22.5 -72t-73.5 -25z" />
    <glyph glyph-name="bullet" unicode="&#x2022;" horiz-adv-x="829" 
d="M459 391q-53 0 -102.5 21.5t-87.5 59t-60.5 87.5t-22.5 107t22.5 107.5t60.5 88.5t87.5 60t102.5 22t101.5 -22t86 -60t60 -88.5t22.5 -107.5t-22.5 -107t-60 -87.5t-86 -59t-101.5 -21.5z" />
    <glyph glyph-name="registered" unicode="&#xae;" horiz-adv-x="983" 
d="M793 860q-38 0 -61 26t-30 79q-2 18 -6 37.5t-13.5 35.5t-26 26.5t-44.5 10.5h-32v-162q0 -11 3.5 -18t14.5 -12q6 -3 18 -4.5t21 -1.5v-11h-193v11q8 0 23 2t18 4q19 9 19 30v330q0 11 -4 19.5t-15 11.5q-9 3 -21 5.5t-20 2.5v8h218q23 0 47 -5t43.5 -16t32 -29
t12.5 -44t-12 -44t-30.5 -30t-40 -20t-40.5 -12v-7q13 -2 28.5 -7t29.5 -13t24.5 -20t15.5 -29q6 -25 11 -49.5t12 -44.5q5 -17 12.5 -22t15.5 -5q14 0 23.5 11t9.5 42h12q0 -45 -16.5 -65.5t-58.5 -20.5zM635 686q-78 0 -146.5 29t-118.5 79.5t-79 119.5t-29 149t29 149
t79 119.5t118.5 79.5t146.5 29t146.5 -29t119.5 -79.5t80 -119.5t29 -149t-29 -149t-80 -119.5t-119.5 -79.5t-146.5 -29zM635 717q72 0 134 26.5t107 73t71 110t26 136.5q0 74 -26 137.5t-71 110.5t-107 73.5t-134 26.5t-133.5 -26.5t-107 -73.5t-71.5 -110.5t-26 -137.5
q0 -73 26 -136.5t71.5 -110t107 -73t133.5 -26.5zM612 1087q42 0 71.5 22t29.5 75q0 51 -25.5 73.5t-60.5 22.5h-47v-193h32z" />
    <glyph glyph-name="copyright" unicode="&#xa9;" horiz-adv-x="1935" 
d="M975 27q-110 0 -199.5 33.5t-153.5 95.5t-98.5 150.5t-34.5 199.5q0 107 37.5 198t106 158t163 104.5t208.5 37.5q33 0 70.5 -5.5t73.5 -15t66 -21.5t48 -24l47 80h12l8 -371h-12q-19 57 -45.5 116.5t-66 108.5t-93.5 80t-129 31q-56 0 -108.5 -30.5t-93 -89.5t-65 -146
t-24.5 -201q0 -93 23 -171t65.5 -135t103.5 -88.5t136 -31.5q61 0 111 20t90 53.5t70 76.5t52 88l19 -11q-24 -54 -58.5 -106t-81.5 -93t-108 -66t-139 -25zM961 -371q-121 0 -234.5 31.5t-212 89.5t-180 139t-140 179t-90.5 211t-32 235q0 121 32 233t90 210t139.5 178.5
t180 138.5t212 89.5t235.5 31.5q120 0 232.5 -31.5t210.5 -89.5t179.5 -138.5t139.5 -178.5t90 -210t32 -233q0 -122 -32 -235t-90 -211t-139.5 -179t-179.5 -139t-210.5 -89.5t-232.5 -31.5zM961 -315q112 0 216 29.5t195 83.5t166.5 129.5t129 167.5t83 198t29.5 221
q0 114 -29.5 219t-83 197t-129 167t-166.5 129t-195 83.5t-216 29.5q-113 0 -218 -29.5t-197 -83.5t-167 -129t-129 -167t-83.5 -197t-29.5 -219q0 -115 29.5 -221t83.5 -198t129.5 -167.5t167 -129.5t196.5 -83.5t218 -29.5z" />
    <glyph glyph-name="trademark" unicode="&#x2122;" horiz-adv-x="1399" 
d="M807 893q4 1 14 2t21.5 3t22.5 5t18 8q24 19 24 101v293q0 47 -22 61q-14 9 -36 16t-36 7v10h207l154 -385l122 317q7 17 11 35.5t6 32.5h211v-10q-5 0 -13.5 -1.5t-18 -3.5t-18 -4.5t-14.5 -3.5q-20 -9 -20 -35v-399q0 -26 20 -35q4 -2 12.5 -4.5t18.5 -4t19.5 -3
t15.5 -2.5v-8h-293v8q4 1 15 2t23 2.5t23 3.5t15 4q20 11 20 37v391h-12l-172 -442h-33l-39 106l-133 330h-12v-309q0 -43 6.5 -67t17.5 -33q6 -5 17.5 -9t24 -7.5t23 -5.5t15.5 -3v-8h-225v8zM367 893q5 1 14.5 1.5t19.5 2t19 3t14 3.5q25 9 25 33v446h-31h-34t-36 -2
q-12 -2 -25 -18.5t-24.5 -38.5t-20.5 -44t-12 -34h-10v154h494v-154h-10q-4 12 -12.5 34t-19.5 44t-23.5 38.5t-24.5 18.5q-14 2 -31 2h-33h-35v-442q0 -12 6 -22t17 -13q4 -2 12.5 -3.5t18.5 -3t19.5 -3t14.5 -2.5v-8h-292v8z" />
    <glyph glyph-name="acute" unicode="&#xb4;" 
d="M477 1092q31 37 66 81t68 86.5t61 78.5t45 59q40 52 79 78t87 26q38 0 60 -22.5t22 -51.5q0 -47 -30.5 -79.5t-88.5 -67.5q-28 -17 -72 -40.5t-94 -50t-101.5 -54.5t-93.5 -54z" />
    <glyph glyph-name="dieresis" unicode="&#xa8;" 
d="M494 1165q-27 0 -47.5 9.5t-35 25.5t-21.5 37t-7 43q0 27 10 52t28.5 44.5t45 31t59.5 11.5q22 0 41.5 -9.5t33.5 -25.5t22 -35.5t8 -39.5q0 -28 -9.5 -54t-27.5 -46t-43.5 -32t-56.5 -12zM891 1165q-26 0 -46.5 9.5t-34.5 25.5t-21 37t-7 43q0 27 10 52t29 44.5t45.5 31
t59.5 11.5q23 0 41.5 -9.5t31.5 -25.5t20 -35.5t7 -39.5q0 -28 -9.5 -54t-26.5 -46t-42.5 -32t-56.5 -12z" />
    <glyph glyph-name="endash" unicode="&#x2013;" horiz-adv-x="1114" 
d="M129 588h907l-39 -139l-905 2z" />
    <glyph glyph-name="emdash" unicode="&#x2014;" horiz-adv-x="1810" 
d="M131 588h1606l-39 -139l-1606 2z" />
    <glyph glyph-name="quotedblleft" unicode="&#x201c;" horiz-adv-x="799" 
d="M360 936q-65 0 -104.5 47.5t-36.5 132.5q1 54 25.5 106.5t68.5 101t107 92.5t141 81l6 -18q-44 -23 -84 -53t-73.5 -64.5t-58 -74t-36.5 -81.5h70q39 0 66 -10t43.5 -27t23.5 -38.5t6 -43.5q0 -27 -11 -54t-32 -48.5t-51.5 -35t-69.5 -13.5zM748 936q-65 0 -105 47.5
t-37 132.5q1 54 25.5 106.5t68.5 101t106 92.5t140 81l8 -18q-44 -23 -85 -53t-74.5 -64.5t-57.5 -74t-35 -81.5h68q40 0 67.5 -10t44 -27t23.5 -38.5t6 -43.5q0 -27 -11 -54t-32 -48.5t-51.5 -35t-68.5 -13.5z" />
    <glyph glyph-name="quotedblright" unicode="&#x201d;" horiz-adv-x="799" 
d="M256 977q45 22 85.5 51.5t74 64t57.5 74t35 82.5h-68q-40 0 -67 10t-44 26.5t-24 38t-6 44.5q0 27 11 54t32 48t51.5 34.5t69.5 13.5q65 0 104.5 -47t36.5 -132q-2 -54 -26 -107t-68 -101.5t-106 -92.5t-140 -80zM643 977q44 22 84.5 51.5t74 64t57.5 74t36 82.5h-70
q-39 0 -66 10t-43.5 26.5t-23.5 38t-6 44.5q0 27 11.5 54t32.5 48t51.5 34.5t68.5 13.5q65 0 104.5 -47t36.5 -132q-2 -54 -26 -107t-68 -101.5t-107 -92.5t-141 -80z" />
    <glyph glyph-name="quoteleft" unicode="&#x2018;" horiz-adv-x="412" 
d="M360 936q-65 0 -104.5 47.5t-36.5 132.5q1 54 25.5 106.5t68.5 101t107 92.5t141 81l6 -18q-44 -23 -84 -53t-73.5 -64.5t-58 -74t-36.5 -81.5h70q39 0 66 -10t43.5 -27t23.5 -38.5t6 -43.5q0 -27 -11 -54t-32 -48.5t-51.5 -35t-69.5 -13.5z" />
    <glyph glyph-name="quoteright" unicode="&#x2019;" horiz-adv-x="412" 
d="M256 977q45 22 85.5 51.5t74 64t57.5 74t35 82.5h-68q-40 0 -67 10t-44 26.5t-24 38t-6 44.5q0 27 11 54t32 48t51.5 34.5t69.5 13.5q65 0 104.5 -47t36.5 -132q-2 -54 -26 -107t-68 -101.5t-106 -92.5t-140 -80z" />
    <glyph glyph-name="periodcentered" unicode="&#xb7;" horiz-adv-x="563" 
d="M307 399q-33 0 -61.5 12t-50 33t-33.5 50t-12 63q0 32 12 60.5t33.5 49.5t50 33.5t61.5 12.5t62 -12.5t50 -33.5t33.5 -49.5t12.5 -60.5q0 -34 -12.5 -63t-33.5 -50t-50 -33t-62 -12z" />
    <glyph glyph-name="periodcentered" unicode="&#x2219;" horiz-adv-x="563" 
d="M307 399q-33 0 -61.5 12t-50 33t-33.5 50t-12 63q0 32 12 60.5t33.5 49.5t50 33.5t61.5 12.5t62 -12.5t50 -33.5t33.5 -49.5t12.5 -60.5q0 -34 -12.5 -63t-33.5 -50t-50 -33t-62 -12z" />
    <glyph glyph-name="circumflex" unicode="&#x2c6;" 
d="M350 1096q40 44 83 93t84 97t78 91t64 75q13 16 23.5 25.5t22.5 14t28.5 6t40.5 1.5q21 0 34 -1.5t21.5 -6t14 -13t10.5 -22.5q11 -29 27.5 -74.5t34.5 -96.5l36 -102t33 -91l-12 -7l-236 248l-375 -248z" />
    <glyph glyph-name="tilde" unicode="&#x2dc;" 
d="M287 1137q12 20 29.5 49.5t40 61t48.5 62.5t54.5 55.5t59 40t61.5 15.5q33 0 60.5 -10t51 -24.5t45 -32t42.5 -32t43 -24.5t48 -10q28 0 57.5 12.5t56.5 33.5t51 47t42 53l15 -7q-14 -25 -32 -56t-39.5 -63.5t-47 -63t-53 -54.5t-57 -38.5t-60.5 -14.5q-48 0 -86.5 21
t-72 45.5t-66.5 45.5t-70 21q-28 0 -56 -12t-54.5 -32t-50.5 -45.5t-42 -52.5z" />
    <glyph glyph-name="macron" unicode="&#xaf;" 
d="M403 1346h676l-39 -154h-675z" />
    <glyph glyph-name="macron" unicode="&#x304;" 
d="M403 1346h676l-39 -154h-675z" />
    <glyph glyph-name="breve" unicode="&#x2d8;" 
 />
    <glyph glyph-name="dotaccent" unicode="&#x2d9;" 
 />
    <glyph glyph-name="ring" unicode="&#x2da;" 
d="M702 1083q-48 0 -90.5 13.5t-74.5 38.5t-50.5 60.5t-17.5 80.5q1 48 24.5 89t60.5 70t84 45.5t97 16.5q46 0 88.5 -14t74.5 -39.5t50 -61.5t17 -79q-2 -48 -24 -88.5t-58 -70t-83 -45.5t-98 -16zM696 1104q36 0 62 21t43 53.5t26 70.5t11 72q1 30 -4 58t-16.5 49t-31 34
t-47.5 13q-34 0 -60 -20.5t-43.5 -52t-27 -70.5t-10.5 -75q-2 -29 3 -56.5t16.5 -49t31 -34.5t47.5 -13z" />
    <glyph glyph-name="cedilla" unicode="&#xb8;" 
d="M88 -446q64 1 119.5 11t96.5 28.5t65 45.5t24 62q2 38 -30 53t-109 15l80 245h26l-36 -114q118 0 182.5 -38t62.5 -110q-1 -68 -43.5 -111t-111.5 -67.5t-156 -33.5t-176 -7z" />
    <glyph glyph-name="hungarumlaut" unicode="&#x2dd;" 
 />
    <glyph glyph-name="ogonek" unicode="&#x2db;" 
 />
    <glyph glyph-name="caron" unicode="&#x2c7;" 
d="M668 1104q-23 0 -36.5 1.5t-22 6t-13.5 13t-10 22.5q-12 29 -28.5 75t-34.5 97l-36 102t-32 90l12 7l233 -246l377 246l10 -9q-38 -44 -80.5 -93t-83.5 -97t-78 -91.5t-65 -76.5q-14 -15 -24.5 -24.5t-22 -14.5t-26.5 -6.5t-39 -1.5z" />
    <glyph glyph-name="ellipsis" unicode="&#x2026;" horiz-adv-x="1552" 
d="M209 -20q-32 0 -59.5 11.5t-48 31.5t-32.5 46.5t-12 57.5t12 58t32.5 47t48 32t59.5 12q31 0 58.5 -12t47.5 -32t31.5 -47t11.5 -58t-11.5 -57.5t-31.5 -46.5t-47.5 -31.5t-58.5 -11.5zM733 -20q-32 0 -59.5 11.5t-47.5 31.5t-32 46.5t-12 57.5t12 58t32 47t47.5 32
t59.5 12q31 0 58 -12t47.5 -32t32.5 -47t12 -58t-12 -57.5t-32.5 -46.5t-47.5 -31.5t-58 -11.5zM1255 -20q-30 0 -57.5 11.5t-47.5 31.5t-32 46.5t-12 57.5t12 58t32 47t47.5 32t57.5 12q31 0 58.5 -12t48 -32t32 -47t11.5 -58t-11.5 -57.5t-32 -46.5t-48 -31.5t-58.5 -11.5
z" />
    <glyph glyph-name="Eth" unicode="&#xd0;" horiz-adv-x="1522" 
d="M-96 12q14 1 34.5 3t42.5 4.5t41.5 5.5t30.5 6q40 14 59.5 39.5t28.5 60.5l162 582h-186l12 41h186l140 501q4 15 5.5 30t-1.5 28.5t-11.5 24.5t-25.5 20q-13 5 -32 10t-38.5 8.5t-38 6t-30.5 3.5l4 13h626q70 0 140.5 -11t136 -36t122.5 -66t99 -101t65.5 -141
t22.5 -186q-2 -138 -39 -255.5t-102.5 -213t-156.5 -168t-199 -122t-230 -74.5t-250 -25h-622zM535 18q101 0 189.5 31.5t163.5 87.5t135 133t102.5 169t67 194.5t28.5 210.5q9 267 -80.5 401.5t-282.5 134.5q-4 0 -17.5 -0.5t-30.5 -1t-34.5 -1t-27.5 -1.5l-175 -622h289
l-14 -41h-287l-149 -539q-23 -86 7 -121t116 -35z" />
    <glyph glyph-name="eth" unicode="&#xf0;" horiz-adv-x="995" 
d="M362 -29q-58 0 -115 22t-102.5 67t-73.5 114t-28 164q0 67 19 139t54.5 141.5t86.5 131.5t114.5 109t138 74.5t158.5 27.5q53 0 95.5 -24.5t62.5 -68.5h4q9 104 -7.5 212.5t-61.5 213.5l-232 -161l-20 32l235 162q-26 50 -60 100t-71 89l10 12q24 -15 50.5 -33
t52.5 -37.5t50 -40t44 -39.5l197 135l20 -32l-192 -131q102 -118 150.5 -255t43.5 -286q-2 -115 -24.5 -221.5t-62.5 -199.5t-96.5 -170t-125 -132t-148 -85t-166.5 -30zM379 -10q47 0 90.5 36t81.5 95.5t70 137.5t54.5 161.5t35.5 167t14 155.5q1 55 -8 92.5t-23.5 60.5
t-33.5 33.5t-39 10.5q-47 0 -91 -34.5t-83 -92.5t-71 -134t-55 -159.5t-36.5 -168.5t-14.5 -161q-1 -57 8 -95t24.5 -61.5t35.5 -33.5t41 -10z" />
    <glyph glyph-name="Lslash" unicode="&#x141;" horiz-adv-x="1262" 
 />
    <glyph glyph-name="lslash" unicode="&#x142;" horiz-adv-x="594" 
 />
    <glyph glyph-name="Scaron" unicode="&#x160;" horiz-adv-x="1110" 
d="M0 0zM772 1499q-23 0 -36.5 1.5t-22 6t-13.5 13t-10 22.5q-12 29 -28.5 75t-34.5 97l-36 102t-32 90l12 7l233 -246l377 246l10 -9q-38 -44 -80.5 -93t-83.5 -97t-78 -91.5t-65 -76.5q-14 -15 -24.5 -24.5t-22 -14.5t-26.5 -6.5t-39 -1.5zM457 -27q-60 0 -121.5 10
t-115.5 26t-96.5 34.5t-64.5 36.5l-106 -100h-19l113 483h16q16 -105 47.5 -191t81 -148t118 -96t159.5 -34q80 0 141.5 25.5t103.5 68.5t64 99t23 118q1 60 -18 104t-54 79.5t-86 67t-115 67.5q-71 39 -128 78t-97 84.5t-61 102t-19 130.5q2 84 41.5 158t108.5 130
t163.5 88.5t206.5 32.5q48 0 99 -9t97 -24t83.5 -34t58.5 -39l103 98h18l-112 -467h-15q-11 95 -35.5 178t-66 144t-101.5 96t-141 35q-59 0 -110.5 -21t-90.5 -58.5t-62 -88.5t-24 -111q-2 -55 11.5 -96t42.5 -74.5t73.5 -63.5t106.5 -63q84 -47 150.5 -89t112 -88.5
t69 -101.5t22.5 -128q-2 -99 -46.5 -181.5t-121.5 -142t-181 -92.5t-226 -33z" />
    <glyph glyph-name="scaron" unicode="&#x161;" horiz-adv-x="825" 
d="M10 0zM550 1104q-23 0 -36.5 1.5t-22 6t-13.5 13t-10 22.5q-12 29 -28.5 75t-34.5 97l-36 102t-32 90l12 7l233 -246l377 246l10 -9q-38 -44 -80.5 -93t-83.5 -97t-78 -91.5t-65 -76.5q-14 -15 -24.5 -24.5t-22 -14.5t-26.5 -6.5t-39 -1.5zM326 -29q-81 0 -140.5 20.5
t-98.5 53.5t-58 74.5t-19 83.5q0 33 11 62.5t30.5 51.5t45.5 35t55 13q34 0 56.5 -11t36 -27t18.5 -34t5 -33q0 -16 -5 -34t-17.5 -33t-33.5 -25t-52 -10q-15 0 -30.5 1.5t-28 0.5t-20 -5t-7.5 -16q0 -22 17 -47.5t48 -47t74.5 -36t97.5 -14.5q46 0 84.5 13t66 37t43 57.5
t15.5 74.5q0 39 -15.5 71t-40.5 60t-57 52.5t-65 50.5q-32 25 -63 52.5t-55 59.5t-39 70.5t-15 85.5q0 56 25.5 106.5t73 89t114 61.5t147.5 23q70 0 119 -20.5t80 -50.5t45 -65.5t14 -65.5q0 -71 -30.5 -111.5t-85.5 -40.5q-22 0 -42 5.5t-35.5 17.5t-24.5 30.5t-9 44.5
q0 24 11.5 41.5t28.5 30.5t37 21.5t37.5 14.5t29.5 11t14 10q-1 10 -11.5 27.5t-32.5 35t-56.5 30t-83.5 12.5q-29 0 -58.5 -11t-53 -33.5t-38 -55.5t-14.5 -78q0 -34 13.5 -62.5t36 -54.5t52.5 -50.5t62 -49.5q35 -29 68 -58t58.5 -62t40.5 -72t15 -87q0 -57 -26 -109.5
t-76 -93t-123 -64.5t-166 -24z" />
    <glyph glyph-name="Yacute" unicode="&#xdd;" horiz-adv-x="1370" 
d="M106 0zM233 12q13 1 33 2.5t41.5 3.5t40.5 5.5t31 7.5q20 7 34.5 18.5t24.5 25t16 28.5t9 28l131 535q7 27 11 61t6 70t2.5 69.5t0.5 59.5q0 75 -13.5 139.5t-42 112.5t-73 75t-106.5 27q-39 0 -76.5 -11.5t-71 -36.5t-61 -63.5t-47.5 -93.5l-17 6q27 79 66.5 142.5
t89.5 107.5t109.5 68t126.5 24q86 0 150.5 -31.5t108 -85.5t66.5 -126.5t25 -155.5q1 -27 0 -59.5t-3 -67.5t-6 -71.5t-10 -71.5h19q83 223 186 379q89 138 189 215t200 77q38 0 67.5 -12t49.5 -31.5t30.5 -45t10.5 -52.5q0 -40 -11.5 -69.5t-31 -49t-44.5 -29.5t-52 -10
q-32 0 -55.5 12.5t-38.5 31t-22 40.5t-7 41q0 34 14 64.5t39 52.5l-8 10q-35 -7 -71.5 -25t-75 -50t-79.5 -80t-85 -115q-23 -34 -51 -83t-55 -107.5t-51 -123t-40 -128.5l-133 -527q-8 -32 -0.5 -58.5t41.5 -41.5q7 -4 28.5 -8.5t47 -8t50.5 -6.5t40 -4l-4 -12h-697z
M794 1487q31 37 66 81t68 86.5t61 78.5t45 59q40 52 79 78t87 26q38 0 60 -22.5t22 -51.5q0 -47 -30.5 -79.5t-88.5 -67.5q-28 -17 -72 -40.5t-94 -50t-101.5 -54.5t-93.5 -54z" />
    <glyph glyph-name="yacute" unicode="&#xfd;" horiz-adv-x="1112" 
d="M0 0zM160 -489q-72 0 -119 17.5t-74.5 44.5t-39 59t-11.5 61q0 44 14.5 76t37 53t51 31t57.5 10q28 0 49 -9.5t35 -24.5t21 -33t7 -36q0 -53 -22.5 -78t-50.5 -34q-15 -6 -33 -8t-34 -4t-28.5 -6.5t-17.5 -16.5q1 -20 14 -35t33.5 -25.5t47 -16t55.5 -5.5
q98 0 174.5 42.5t138.5 126t113.5 206t99.5 282.5l-6 2q-29 -44 -63 -83t-73.5 -69t-83 -47.5t-90.5 -17.5q-53 0 -96 18.5t-73.5 50t-47 73.5t-16.5 88q0 11 3 28.5t8.5 38t13 43t16.5 43.5l119 310q28 69 43.5 121.5t15.5 78.5q0 54 -45 54q-68 0 -128.5 -75t-111.5 -206
l-18 8q27 67 55.5 124t63.5 98t78.5 64t101.5 23q43 0 80.5 -11t65 -33t43.5 -54.5t16 -75.5q0 -35 -9.5 -73.5t-25.5 -83.5l-131 -332q-9 -24 -18.5 -49.5t-16.5 -50t-11.5 -46t-4.5 -36.5q0 -36 20 -59t68 -23q35 0 70 16t68.5 45t65.5 70t62 92l213 676h231l-221 -709
q-63 -201 -144.5 -337t-177 -218.5t-203.5 -117.5t-224 -35zM581 1092q31 37 66 81t68 86.5t61 78.5t45 59q40 52 79 78t87 26q38 0 60 -22.5t22 -51.5q0 -47 -30.5 -79.5t-88.5 -67.5q-28 -17 -72 -40.5t-94 -50t-101.5 -54.5t-93.5 -54z" />
    <glyph glyph-name="Thorn" unicode="&#xde;" horiz-adv-x="1241" 
d="M-98 12q14 1 35 3t43 4.5t42 5.5t31 6q40 14 59.5 41t28.5 59l312 1124q9 31 5.5 58.5t-38.5 44.5q-11 4 -29 9t-38 9t-39 6.5t-31 3.5l4 13h667l-2 -10q-15 -2 -34 -4.5t-38.5 -5.5t-38.5 -7t-34 -8q-40 -12 -60.5 -38t-29.5 -60l-45 -158h157q204 0 310 -79t104 -228
q-2 -108 -54 -191t-143 -140t-214.5 -86.5t-268.5 -29.5h-102l-58 -215q-9 -31 -3 -57t38 -41q9 -4 27 -8.5t40 -9t43 -7.5t36 -4l-2 -12h-682zM563 375q93 0 168 29.5t128 84t82.5 131t31.5 171.5q3 146 -55 220t-170 74h-82l-197 -710h94z" />
    <glyph glyph-name="thorn" unicode="&#xfe;" horiz-adv-x="1049" 
d="M-307 -465q35 1 59 4t40 8.5t26.5 13.5t19.5 19q15 16 26.5 38t21 45.5t17 47t13.5 41.5l481 1522q17 52 24 84.5t7 52.5q0 34 -24 47.5t-58 18.5q-19 2 -35 3.5t-31 2t-31 1t-34 1.5v14l492 21l-197 -605q-14 -45 -28.5 -86t-35.5 -79l7 -5q31 43 63.5 81.5t69 68
t78.5 46.5t92 17q46 0 92 -15t83 -51.5t60 -99t23 -157.5q0 -74 -20 -151.5t-56.5 -151t-88 -139t-115 -114.5t-136.5 -77.5t-152 -28.5q-39 0 -69.5 14t-52.5 36.5t-36.5 50t-21.5 53.5h-6l-115 -379q-15 -48 -21.5 -82.5t-6.5 -54.5q0 -34 24.5 -48t59.5 -18
q19 -2 33.5 -3.5t27.5 -2t27 -1t33 -1.5l-5 -16h-628zM428 16q44 0 87.5 36.5t82.5 96.5t72 137.5t57 160t37.5 163.5t13.5 148q0 73 -25 103t-65 30q-35 0 -67.5 -15.5t-63 -42t-59.5 -62.5t-56 -77l-168 -528q16 -68 55.5 -109t98.5 -41z" />
    <glyph glyph-name="Zcaron" unicode="&#x17d;" horiz-adv-x="1221" 
d="M0 0zM854 1499q-23 0 -36.5 1.5t-22 6t-13.5 13t-10 22.5q-12 29 -28.5 75t-34.5 97l-36 102t-32 90l12 7l233 -246l377 246l10 -9q-38 -44 -80.5 -93t-83.5 -97t-78 -91.5t-65 -76.5q-14 -15 -24.5 -24.5t-22 -14.5t-26.5 -6.5t-39 -1.5zM-143 16l1224 1362h-290
q-56 0 -102.5 -2t-78.5 -10q-32 -7 -67.5 -27.5t-72 -50t-72 -65t-68 -71.5t-59.5 -71t-46 -63h-16l139 381h1059l-4 -17l-1225 -1362h322q50 0 100 3t94 9.5t79 16.5t56 25q42 30 89 75.5t91.5 95t82.5 97t61 82.5h16l-151 -424h-1165z" />
    <glyph glyph-name="zcaron" unicode="&#x17e;" horiz-adv-x="883" 
d="M0 0zM581 1104q-23 0 -36.5 1.5t-22 6t-13.5 13t-10 22.5q-12 29 -28.5 75t-34.5 97l-36 102t-32 90l12 7l233 -246l377 246l10 -9q-38 -44 -80.5 -93t-83.5 -97t-78 -91.5t-65 -76.5q-14 -15 -24.5 -24.5t-22 -14.5t-26.5 -6.5t-39 -1.5zM33 -27q-13 0 -26.5 4.5
t-24.5 14.5t-18 25.5t-7 37.5q0 34 26.5 65.5t77.5 72.5q52 42 126.5 99t160 119.5t174.5 126t170 119.5l-4 9q-41 -2 -92 8t-102.5 22t-100 22.5t-82.5 10.5q-45 0 -69.5 -15.5t-24.5 -49.5q0 -17 10 -34t26.5 -32t38.5 -27.5t46 -19.5l-6 -12q-43 13 -81 31t-66 41t-44 51
t-16 63q0 47 15.5 88.5t42 73t61.5 49.5t75 18q48 0 88.5 -20t75 -49.5t64 -64.5t56 -64.5t50.5 -49.5t49 -20q28 0 43 15t22 38t8 51t1 54q0 52 23 82t63 30q32 0 56 -16t24 -57q0 -22 -6 -40.5t-18.5 -36.5t-31.5 -37t-46 -40q-25 -20 -67 -51t-94.5 -69.5t-112 -82
t-120.5 -87.5t-119 -87t-108 -80l2 -10q44 -1 88.5 -11.5t89.5 -23t92 -23t95 -11.5q69 -2 103.5 20.5t37.5 54.5q1 37 -27.5 64t-68.5 35l6 14q46 -10 78 -28t51.5 -41.5t28 -51t8.5 -55.5q0 -44 -14.5 -85.5t-41 -73.5t-63 -51.5t-80.5 -19.5q-50 0 -92 20t-78 50
t-66.5 65t-58.5 65t-54.5 50t-53.5 21q-24 -6 -38.5 -24.5t-22 -43.5t-9.5 -53t-2 -55q0 -47 -22.5 -72t-73.5 -25z" />
    <glyph glyph-name="onehalf" unicode="&#xbd;" horiz-adv-x="1120" 
d="M37 -391q64 36 117.5 66.5t101.5 59.5t93 60t93 68q125 94 180.5 186t55.5 189q0 52 -28.5 85t-88.5 33q-51 0 -100.5 -25t-89 -63.5t-64 -85t-24.5 -88.5q0 -17 4.5 -32t14.5 -26.5t26 -18.5t39 -7q27 0 51 9.5t44.5 24t37 31.5t30.5 31l9 -8q-23 -29 -51.5 -58t-62 -52
t-71.5 -37t-80 -14q-61 0 -97 33t-34 87q0 44 20 84t53.5 75.5t77.5 64.5t93 50t100 32.5t97 11.5q61 0 111.5 -14.5t86 -41t55 -63t19.5 -80.5q0 -76 -42.5 -138.5t-117 -115t-175.5 -96.5t-218 -84l-108 -64h409q27 0 53 14t51 36t49.5 49t47.5 53l12 -6l-184 -289h-619z
M369 705q10 1 27.5 2t36.5 2.5t36.5 3.5t26.5 4q21 6 40 24t25 41l176 654q-11 -3 -24 -4.5t-35 -1.5q-37 0 -78.5 16t-73.5 53l4 8q14 -8 32 -13.5t37.5 -10t39 -6.5t37.5 -2q49 0 91 5.5t77 14.5t62.5 19.5t47.5 19.5h15q-12 -21 -23 -46.5t-20.5 -52.5t-17 -54.5
t-13.5 -51.5l-145 -541q-8 -24 -1 -40.5t27 -24.5q7 -3 22.5 -6t33.5 -5.5t35 -4t26 -2.5l-4 -11h-522zM102 559h961l-16 -59h-961z" />
    <glyph glyph-name="onequarter" unicode="&#xbc;" horiz-adv-x="1120" 
d="M498 -281q-28 5 -59 17t-64.5 24t-69 21.5t-72.5 9.5q-20 0 -29.5 -1t-19.5 -3q-32 -31 -66 -52.5t-59 -21.5q-26 0 -40.5 10.5t-14.5 34.5q0 29 26 42.5t60 13.5q17 0 41 -1.5t47 -5.5q44 39 79 90t65.5 120.5t60 159t61.5 204.5h197q-40 -103 -87 -187.5t-102 -154.5
t-118 -128t-135 -108q24 5 60 13t71 8q24 0 50.5 -1.5t52 -4t49 -5.5t42.5 -6l105 285h166l-107 -287q18 2 40 7t45 13.5t44.5 21t36.5 30.5l8 -8q-40 -56 -90 -96.5t-108 -51.5l-76 -213h-162zM369 705q10 1 27.5 2t36.5 2.5t36.5 3.5t26.5 4q21 6 40 24t25 41l176 654
q-11 -3 -24 -4.5t-35 -1.5q-37 0 -78.5 16t-73.5 53l4 8q14 -8 32 -13.5t37.5 -10t39 -6.5t37.5 -2q49 0 91 5.5t77 14.5t62.5 19.5t47.5 19.5h15q-12 -21 -23 -46.5t-20.5 -52.5t-17 -54.5t-13.5 -51.5l-145 -541q-8 -24 -1 -40.5t27 -24.5q7 -3 22.5 -6t33.5 -5.5t35 -4
t26 -2.5l-4 -11h-522zM106 559h961l-16 -59h-961z" />
    <glyph glyph-name="onesuperior" unicode="&#xb9;" horiz-adv-x="700" 
d="M106 705q10 1 28 2t37 2.5t36 3.5t26 4q22 6 41 24t25 41l176 654q-11 -3 -24.5 -4.5t-34.5 -1.5q-37 0 -78.5 16t-73.5 53l4 8q14 -8 32 -13.5t37.5 -10t39 -6.5t37.5 -2q49 0 91 5.5t77 14.5t62.5 19.5t47.5 19.5h15q-12 -21 -22.5 -46.5t-19.5 -52.5t-16.5 -54.5
t-13.5 -51.5l-148 -541q-13 -50 27 -65q7 -3 22.5 -6t33.5 -5.5t35 -4t26 -2.5l-2 -11h-525z" />
    <glyph glyph-name="threequarters" unicode="&#xbe;" horiz-adv-x="1120" 
d="M524 672q-56 0 -104.5 11.5t-83.5 33t-54.5 53.5t-17.5 74q1 34 16 61t36 46t46 28.5t48 9.5q45 0 66.5 -22t19.5 -49q-2 -32 -18.5 -49.5t-36.5 -29.5t-38.5 -23t-23.5 -30q-5 -15 1 -32.5t23 -32t44.5 -24t66.5 -9.5q57 0 111 24.5t96.5 67.5t71 99.5t34.5 121.5
q4 26 3 49.5t-8.5 41t-23 28t-40.5 10.5q-17 0 -36.5 -8.5t-40.5 -21.5t-43.5 -29t-45.5 -31l-14 35q80 39 141 69t103.5 61.5t66 71t29.5 97.5q4 33 -2 58t-20.5 42.5t-35.5 26t-47 8.5q-40 0 -78.5 -15t-69.5 -40.5t-51 -58t-22 -66.5q-6 -31 9.5 -55.5t55.5 -24.5
q32 0 59.5 15.5t47.5 33.5l6 -10q-17 -18 -37 -35.5t-43.5 -31.5t-49.5 -22.5t-54 -8.5q-73 0 -104.5 30t-26.5 76q4 51 41.5 93.5t94 73.5t125.5 48t136 17q64 0 112 -13.5t79.5 -36t46.5 -53.5t14 -65q-1 -45 -26 -79.5t-68 -58.5t-100 -38.5t-122 -20.5l-43 -20
q11 2 25.5 3t28.5 1q40 0 80.5 -9.5t73 -30.5t51.5 -54t18 -80q-1 -48 -24 -89t-60.5 -74.5t-87.5 -59t-105 -43t-112 -26.5t-109 -9zM477 -281q-28 5 -59 17t-64.5 24t-69.5 21.5t-73 9.5q-20 0 -29 -1t-20 -3q-31 -31 -64.5 -52.5t-58.5 -21.5t-41 10.5t-16 34.5
q0 29 27 42.5t61 13.5q17 0 40.5 -1.5t45.5 -5.5q44 39 79.5 90t66.5 120.5t59.5 159t60.5 204.5h196q-38 -103 -84.5 -187.5t-101.5 -154.5t-118.5 -128t-135.5 -108q23 5 59.5 13t71.5 8q24 0 50 -1.5t51.5 -4t49 -5.5t42.5 -6l104 285h168l-106 -287q18 2 40 7t45 13.5
t44.5 21t36.5 30.5l8 -8q-41 -56 -91 -96.5t-110 -51.5l-74 -213h-164zM92 559h959l-15 -59h-960z" />
    <glyph glyph-name="threesuperior" unicode="&#xb3;" horiz-adv-x="877" 
d="M373 672q-56 0 -105 11.5t-84.5 33t-54.5 53.5t-16 74q1 34 16 61t36 46t46 28.5t47 9.5q43 0 64.5 -20t19.5 -49q-2 -36 -18 -54t-36.5 -29.5t-38.5 -21.5t-24 -29q-4 -15 2.5 -32.5t23.5 -32t44.5 -24t66.5 -9.5q56 0 109.5 24.5t96.5 67.5t72 99.5t36 121.5
q4 26 3 49.5t-9 41t-24 28t-42 10.5q-17 0 -36 -8.5t-39.5 -21.5t-43 -29t-45.5 -31l-16 35q81 39 142 69t103.5 61.5t66.5 71t30 97.5q7 66 -22.5 100.5t-81.5 34.5q-41 0 -80 -15t-70 -40.5t-51 -58t-23 -66.5q-5 -31 11.5 -55.5t56.5 -24.5q32 0 58.5 15.5t47.5 33.5
l9 -10q-19 -18 -40 -35.5t-44 -31.5t-49.5 -22.5t-55.5 -8.5q-72 0 -103 30t-26 76q3 51 40 93.5t94 73.5t126 48t137 17q64 0 112 -13.5t79.5 -36t46.5 -53.5t14 -65q-2 -45 -27 -79.5t-67.5 -58.5t-99.5 -38.5t-121 -20.5l-45 -20q11 2 26.5 3t30.5 1q40 0 80 -9.5
t71.5 -30.5t51 -54t18.5 -80q-1 -48 -23.5 -89t-60.5 -74.5t-87.5 -59t-104.5 -43t-112 -26.5t-109 -9z" />
    <glyph glyph-name="twosuperior" unicode="&#xb2;" horiz-adv-x="889" 
d="M133 760q64 37 118 68t102.5 60.5t94 60t93.5 65.5q125 94 180 186t55 191q0 52 -28.5 85t-88.5 33q-51 0 -101 -25.5t-89.5 -64t-64.5 -84.5t-25 -88q0 -35 18.5 -58.5t65.5 -23.5q28 0 52.5 9.5t44.5 23t37 29.5t32 30l8 -8q-23 -28 -51.5 -56.5t-61.5 -51t-71 -37
t-80 -14.5q-62 0 -97.5 33t-35.5 87q0 43 20 83.5t53.5 75.5t78 64.5t93.5 50.5t99.5 32.5t97.5 11.5q61 0 111 -15t85.5 -41.5t55 -63t20.5 -79.5q0 -76 -42.5 -138.5t-117 -115t-175.5 -97.5t-218 -85l-108 -62h409q27 0 53 14t51 36t49 49t46 53l12 -6l-182 -291h-618z
" />
    <glyph glyph-name="brokenbar" unicode="&#xa6;" horiz-adv-x="563" 
d="M272 379h68v-803h-68v803zM272 1528h68v-785h-68v785z" />
    <glyph glyph-name="minus" unicode="&#x2212;" horiz-adv-x="1151" 
 />
    <glyph glyph-name="multiply" unicode="&#xd7;" horiz-adv-x="1151" 
d="M145 135l396 393l-391 392l59 59l391 -389l387 389l55 -55l-391 -389l393 -392l-57 -61l-395 393l-391 -395z" />
    <glyph glyph-name="numbersign" unicode="#" horiz-adv-x="1036" 
d="M270 307l-243 -57l47 182l243 55l70 256l-244 -57l47 178l244 58l98 362h33l-96 -352l262 61l78 291h33l-76 -280l246 57l-47 -178l-246 -58l-70 -258l246 58l-47 -179l-244 -57l-108 -403h-33l102 391l-260 -62l-88 -329h-33zM612 559l72 256l-262 -63l-70 -256z" />
    <glyph glyph-name="dollar" unicode="$" horiz-adv-x="1130" 
d="M330 4q-76 12 -131.5 37.5t-91.5 59.5t-53 73t-17 78q0 38 12.5 75t35 66.5t53.5 47.5t69 18q42 0 65 -23t23 -61q0 -35 -14 -57t-35 -39t-45 -33t-43 -39q-6 -26 1 -54t28 -53t57.5 -45t91.5 -30q37 149 67 265q13 49 25 96.5t21.5 84.5t15.5 59.5l6 22.5
q-59 14 -108 37t-84 57.5t-54.5 80.5t-19.5 106q0 83 32 154.5t90.5 127t141.5 91.5t184 48l52 205h24l-53 -200q40 3 89 2t91 -9l53 207h25l-53 -209q67 -11 114 -34t76.5 -52.5t43 -63.5t13.5 -67q0 -36 -12 -69.5t-32 -59.5t-46.5 -41.5t-54.5 -15.5q-38 0 -64 19t-26 57
q0 36 14.5 59.5t34.5 42t41.5 36.5t36.5 44q-1 12 -8 29.5t-24 35.5t-44.5 33.5t-69.5 24.5l-126 -498q65 -15 116.5 -39t87.5 -59t55 -80t19 -102q0 -93 -33.5 -170t-94.5 -134.5t-147.5 -95t-191.5 -51.5l-74 -291h-24l74 287q-44 -3 -90 -1t-91 7l-75 -293h-25zM528 778
q32 127 58 227q11 42 21.5 83t19 73t13.5 51l5 19q-57 -11 -103 -37.5t-78.5 -63t-50.5 -80t-18 -89.5q0 -79 35 -121t98 -62zM358 20q22 -2 46.5 -3.5t49 -2t47 0.5t40.5 3l125 496q-39 11 -86.5 18t-85.5 15zM565 23q63 10 112.5 38t84.5 67.5t55 87t23 95.5
q6 82 -30.5 128.5t-121.5 68.5zM852 1233q-42 6 -91 7.5t-89 -3.5l-119 -467q19 -5 41.5 -9.5t45 -8.5t44 -8t39.5 -9z" />
    <glyph glyph-name="percent" unicode="%" horiz-adv-x="1694" 
d="M416 590q-62 0 -113 18t-88 52t-57.5 82t-20.5 108q1 83 36.5 158.5t94 133.5t135 92t160.5 34q63 0 117 -18t94 -51.5t62.5 -82.5t21.5 -112q-2 -90 -41 -166t-101.5 -131t-141 -86t-158.5 -31zM422 610q37 0 70.5 22.5t62.5 60t52.5 86.5t40 102.5t25 108t7.5 102.5
q0 33 -7 62t-21.5 50.5t-36 34t-50.5 12.5q-41 0 -75.5 -23.5t-62.5 -62t-49 -88t-35.5 -101t-22 -101.5t-7.5 -89q-2 -35 2.5 -66.5t17 -56t34 -39t55.5 -14.5zM1153 -27q-62 0 -113.5 18t-88.5 51.5t-57.5 82t-19.5 108.5q1 83 36 159t93.5 133.5t134.5 91.5t160 34
q63 0 117.5 -18t94.5 -52t63 -83t22 -111q-2 -90 -41 -166t-101.5 -131t-141 -86t-158.5 -31zM1157 -8q37 0 71 22.5t63 59.5t53 86t40.5 102.5t25 107t7.5 101.5q-1 34 -8.5 63.5t-22 51.5t-35.5 34.5t-48 12.5q-42 0 -76.5 -23.5t-62.5 -61.5t-49.5 -87t-36 -100.5
t-22 -101.5t-7.5 -89q0 -35 4.5 -67t16.5 -56.5t33 -39.5t54 -15zM178 -176l1319 1585l27 -23l-1317 -1585z" />
    <glyph glyph-name="asterisk" unicode="*" horiz-adv-x="768" 
d="M457 825q-28 7 -38 27t-5 45q4 15 18.5 40.5t32 56t34.5 63t27 61.5q-27 -10 -56 -25.5t-56 -32t-51.5 -31.5t-43.5 -23q-27 -13 -48.5 -6t-32.5 36q-11 31 5.5 51t45.5 23q21 4 47.5 4.5t56.5 1t63 2.5t68 8q-57 44 -112.5 75.5t-94.5 60.5q-26 18 -28.5 41t20.5 45
q22 21 47 17t39 -26q13 -18 28 -43.5t32 -53.5t35.5 -56t39.5 -51q3 31 3.5 68t0.5 72t0.5 64t4.5 45q6 26 25 37t44 4q34 -8 43 -28t2 -41q-5 -15 -18.5 -40.5t-30.5 -56t-34.5 -63.5t-28.5 -63q29 11 58 27t56.5 32.5t51.5 31.5t43 23q27 13 47.5 3.5t29.5 -38.5
q8 -32 -7.5 -49t-47.5 -22q-20 -3 -46 -4t-55.5 -2.5t-61.5 -4.5t-64 -10q52 -40 105.5 -69t90.5 -60q25 -15 28 -40t-21 -48q-22 -17 -44 -13.5t-40 28.5q-12 16 -25.5 40.5t-29.5 51.5t-34 54.5t-38 49.5q-4 -29 -4.5 -66t0 -72t0.5 -65t-3 -45q-6 -21 -25.5 -34t-47.5 -7
z" />
    <glyph glyph-name="plus" unicode="+" horiz-adv-x="1151" 
d="M539 489h-451v84h451v453h88v-453h448v-84h-448v-450h-88v450z" />
    <glyph glyph-name="slash" unicode="/" horiz-adv-x="827" 
d="M-219 -410l1163 1950l47 -27l-1163 -1949z" />
    <glyph glyph-name="less" unicode="&#x3c;" horiz-adv-x="1151" 
d="M129 500v65l905 432v-88l-794 -377l794 -376v-88z" />
    <glyph glyph-name="equal" unicode="=" horiz-adv-x="1151" 
d="M145 401h906v-84h-906v84zM145 748h906v-84h-906v84z" />
    <glyph glyph-name="greater" unicode="&#x3e;" horiz-adv-x="1151" 
d="M147 156l797 376l-797 377v88l906 -432v-65l-906 -432v88z" />
    <glyph glyph-name="at" unicode="@" horiz-adv-x="2015" 
d="M995 -440q-111 0 -218.5 23.5t-203 70t-176 115t-139 158t-91 200t-32.5 240.5q0 139 37 265t103 234.5t158.5 196.5t202.5 150t235 96t257 34q153 0 276.5 -49t210.5 -136.5t134 -208.5t47 -265q0 -125 -38.5 -237t-104 -196t-152 -133.5t-182.5 -49.5q-42 0 -79.5 11.5
t-65.5 33.5t-44.5 55t-17.5 76l-6 2q-21 -35 -47 -66.5t-56.5 -55.5t-64 -38t-68.5 -14t-73 13t-70 44.5t-53 84t-21 130.5q0 48 14.5 105.5t42.5 116t68 114t91 98t111.5 68.5t129.5 26q56 0 97.5 -34.5t49.5 -96.5h7l45 119h155l-192 -551q-9 -25 -16 -57.5t-7 -58.5
q0 -22 4.5 -41t15 -33.5t27.5 -22.5t41 -8q48 0 98 20t97 57t88.5 90.5t72 121t48.5 148t18 171.5q0 133 -46.5 243t-130 189t-198.5 122.5t-251 43.5q-94 0 -189 -27.5t-182.5 -81.5t-163.5 -132.5t-132 -180.5t-88 -226t-32 -269q0 -186 54.5 -327t148 -236t219 -143
t266.5 -48q144 0 275 38t241.5 115.5t196 194t139.5 273.5l15 -6q-50 -171 -142.5 -298t-213 -211.5t-261.5 -126.5t-289 -42zM901 113q35 0 65.5 15.5t57.5 42t51 61.5t45 73l129 393q-6 42 -18.5 70.5t-30.5 46t-41 24.5t-49 7q-41 0 -79.5 -27.5t-72 -73t-60.5 -104.5
t-46.5 -122t-30 -125.5t-10.5 -114.5q-1 -53 7.5 -85.5t22 -50.5t29.5 -24t31 -6z" />
    <glyph glyph-name="bracketleft" unicode="[" horiz-adv-x="1149" 
d="M723 -399q23 20 43 49t20 63q0 14 -7 27t-26.5 23.5t-53 17t-85.5 6.5q-75 0 -145 -6.5t-144.5 -19t-159 -30.5t-188.5 -40l-51 -17l484 1815l43 -16q92 -23 168 -40.5t144.5 -30.5t134 -19.5t136.5 -6.5q35 0 76 3t76 16t58.5 38t23.5 70q0 20 -4 34.5t-11 27.5l11 4
q8 -10 17 -35.5t9 -54.5q0 -63 -25.5 -114t-70 -87.5t-105 -56t-130.5 -19.5q-78 0 -141 20.5t-121 54t-116.5 77.5t-125.5 92l-463 -1729q93 48 174.5 92.5t157.5 79t149.5 55.5t151.5 21q111 0 162 -43t53 -119q0 -63 -30 -118t-81 -93z" />
    <glyph glyph-name="backslash" unicode="\" horiz-adv-x="827" 
d="M348 1524l53 4l119 -1950l-53 -4z" />
    <glyph glyph-name="bracketright" unicode="]" horiz-adv-x="1149" 
d="M-129 -408q-8 10 -17.5 35t-9.5 54q0 63 26 114t71 87t105.5 55.5t129.5 19.5q78 0 141 -20t121 -53.5t116 -78t126 -92.5l463 1733q-92 -48 -173.5 -93.5t-157.5 -80t-150 -55.5t-152 -21q-113 0 -163 43t-50 119q0 31 7.5 61t21 57.5t33.5 51t44 41.5l11 -6
q-22 -22 -43 -52t-21 -65q0 -13 7.5 -26.5t26.5 -24t52 -17t84 -6.5q77 0 147.5 6.5t145.5 19t158.5 30.5t187.5 40l51 17l-483 -1815l-43 17q-92 22 -166.5 40.5t-141.5 31.5t-133 20.5t-141 7.5q-36 0 -77.5 -3t-77 -16t-59 -39t-23.5 -71q0 -22 5 -35.5t11 -25.5l-10 -5
v0z" />
    <glyph glyph-name="asciicircum" unicode="^" horiz-adv-x="893" 
d="M158 811l-11 8q58 78 101 136.5t77.5 105.5t64.5 86.5t63 81.5q7 10 15.5 18t20.5 13t29.5 7.5t44.5 2.5q30 0 48.5 -2t30 -7.5t18.5 -14t14 -21.5q22 -45 39.5 -81t38.5 -79t49 -101.5t71 -146.5l-16 -6l-303 293z" />
    <glyph glyph-name="underscore" unicode="_" horiz-adv-x="1225" 
d="M-217 -221h1249v-84h-1249v84z" />
    <glyph glyph-name="braceleft" unicode="{" horiz-adv-x="852" 
d="M545 -346q-98 0 -169 11.5t-116.5 38t-66.5 71t-19 110.5q2 65 23.5 126t46 119.5t45 117t20.5 119.5q0 47 -15.5 79t-47 52.5t-80 31.5t-113.5 17l21 84q104 9 176.5 31.5t119.5 67.5t71.5 118t33.5 184q10 136 43.5 230t98 152.5t165 84.5t244.5 25l-2 -13
q-85 -3 -141.5 -30.5t-91.5 -77.5t-53.5 -121t-28.5 -160q-15 -134 -55 -221t-104 -141.5t-152 -84.5t-199 -48l-21 -76q70 -11 128 -27t100 -43t65 -69t23 -105q0 -67 -18.5 -129.5t-41 -121.5t-41.5 -115.5t-20 -110.5q-1 -35 8 -64.5t30 -50.5t55 -34t83 -15l-4 -12v0z
" />
    <glyph glyph-name="bar" unicode="|" horiz-adv-x="563" 
d="M272 1528h68v-1952h-68v1952z" />
    <glyph glyph-name="braceright" unicode="}" horiz-adv-x="852" 
d="M-141 -334q86 3 142.5 31t92 78t53.5 120.5t27 159.5q15 134 55.5 221.5t104.5 142t151.5 84.5t198.5 48l23 76q-71 10 -129.5 26t-100.5 43t-65 69t-23 105q0 67 19 129.5t41.5 122t41.5 115.5t19 111q1 35 -8 64t-30 50.5t-54.5 34t-81.5 14.5l2 13q99 0 170 -11.5
t116 -38.5t65.5 -71.5t19.5 -110.5q-2 -65 -23 -125.5t-45.5 -119.5t-45 -117t-20.5 -119q0 -47 15 -79t46.5 -52.5t79.5 -32t113 -16.5l-20 -84q-104 -9 -176 -31.5t-119 -68t-71.5 -118.5t-32.5 -184q-11 -136 -44.5 -230t-98.5 -152t-165.5 -84t-244.5 -25z" />
    <glyph glyph-name="asciitilde" unicode="~" horiz-adv-x="1083" 
d="M98 401q21 52 53.5 102t73.5 88t89.5 61.5t101.5 23.5q57 0 104.5 -14.5t89 -32.5t79.5 -32.5t77 -14.5q78 0 131.5 31.5t97.5 97.5l11 -6q-22 -53 -53 -103.5t-70 -89.5t-85 -62.5t-98 -23.5q-61 0 -109 14.5t-89 32.5t-78 32.5t-76 14.5q-78 0 -136 -28.5t-103 -94.5z
" />
    <glyph glyph-name="Adieresis" unicode="&#xc4;" horiz-adv-x="1354" 
d="M0 0zM-221 10q21 2 58 12t71 25q46 23 94 69.5t96 106.5q68 82 145 177t158.5 197.5t166.5 209.5t167.5 213t161.5 207.5t150 193.5h49q1 -4 1.5 -41.5t1.5 -99.5t2 -143t2 -171.5t2.5 -185.5t2 -185t1.5 -170t1.5 -140.5t1 -96t0.5 -36.5q1 -22 2 -40t5.5 -32t13.5 -25
t24 -18q23 -13 56.5 -19t62.5 -8l-4 -10h-654l5 10q24 1 49.5 4t49 7t43.5 9t32 11q37 15 50 45t11 59l-2 383h-473q-31 -38 -64.5 -81.5t-63.5 -83.5t-53.5 -72t-35.5 -47q-15 -20 -29 -40.5t-25.5 -39.5t-18.5 -35.5t-7 -28.5q0 -24 23.5 -40.5t56.5 -27t68.5 -16
t60.5 -6.5l-2 -10h-518zM856 559l-2 561q-12 -14 -40 -48.5t-65.5 -81.5t-82 -103t-90 -113.5t-89.5 -113t-81 -101.5h450zM877 1550q-27 0 -47.5 9.5t-35 25.5t-21.5 37t-7 43q0 27 10 52t28.5 44.5t45 31t59.5 11.5q22 0 41.5 -9.5t33.5 -25.5t22 -35.5t8 -39.5
q0 -28 -9.5 -54t-27.5 -46t-43.5 -32t-56.5 -12zM1274 1550q-26 0 -46.5 9.5t-34.5 25.5t-21 37t-7 43q0 27 10 52t29 44.5t45.5 31t59.5 11.5q23 0 41.5 -9.5t31.5 -25.5t20 -35.5t7 -39.5q0 -28 -9.5 -54t-26.5 -46t-42.5 -32t-56.5 -12z" />
    <glyph glyph-name="Aring" unicode="&#xc5;" horiz-adv-x="1354" 
d="M0 0zM-221 10q21 2 58 12t71 25q46 23 94 69.5t96 106.5q68 82 145 177t158.5 197.5t166.5 209.5t167.5 213t161.5 207.5t150 193.5h49q1 -4 1.5 -41.5t1.5 -99.5t2 -143t2 -171.5t2.5 -185.5t2 -185t1.5 -170t1.5 -140.5t1 -96t0.5 -36.5q1 -22 2 -40t5.5 -32t13.5 -25
t24 -18q23 -13 56.5 -19t62.5 -8l-4 -10h-654l5 10q24 1 49.5 4t49 7t43.5 9t32 11q37 15 50 45t11 59l-2 383h-473q-31 -38 -64.5 -81.5t-63.5 -83.5t-53.5 -72t-35.5 -47q-15 -20 -29 -40.5t-25.5 -39.5t-18.5 -35.5t-7 -28.5q0 -24 23.5 -40.5t56.5 -27t68.5 -16
t60.5 -6.5l-2 -10h-518zM856 559l-2 561q-12 -14 -40 -48.5t-65.5 -81.5t-82 -103t-90 -113.5t-89.5 -113t-81 -101.5h450zM1099 1478q-48 0 -90.5 13.5t-74.5 38.5t-50.5 60.5t-17.5 80.5q1 48 24.5 89t60.5 70t84 45.5t97 16.5q46 0 88.5 -14t74.5 -39.5t50 -61.5t17 -79
q-2 -48 -24 -88.5t-58 -70t-83 -45.5t-98 -16zM1093 1499q36 0 62 21t43 53.5t26 70.5t11 72q1 30 -4 58t-16.5 49t-31 34t-47.5 13q-34 0 -60 -20.5t-43.5 -52t-27 -70.5t-10.5 -75q-2 -29 3 -56.5t16.5 -49t31 -34.5t47.5 -13z" />
    <glyph glyph-name="Ccedilla" unicode="&#xc7;" horiz-adv-x="1280" 
d="M326 -446q64 1 119.5 11t96.5 28.5t65 45.5t24 62q2 38 -30 53t-109 15l65 204q-110 11 -198 53.5t-150 110t-95.5 158t-33.5 197.5q0 132 31 252.5t87.5 224.5t135 188.5t173.5 144.5t203 92.5t224 32.5q52 0 100.5 -10t91.5 -26.5t78.5 -37.5t61.5 -42l100 108h16
l-100 -508h-18q-7 102 -29 191.5t-63.5 157t-105.5 106.5t-155 39q-71 0 -138.5 -33.5t-128 -93.5t-111.5 -142.5t-89 -180t-60 -206t-24 -221.5q-2 -105 18 -196t63.5 -158.5t111 -106t162.5 -38.5q76 0 142.5 24.5t126 68.5t113 106.5t103.5 138.5l19 -11
q-45 -74 -99 -143.5t-123.5 -123.5t-158.5 -87t-203 -33q-14 0 -26.5 1t-24.5 1l-23 -71q119 0 183.5 -38t62.5 -110q-1 -45 -20.5 -79t-54 -58.5t-81 -41t-100.5 -25.5t-113.5 -12.5t-118.5 -2.5z" />
    <glyph glyph-name="Eacute" unicode="&#xc9;" horiz-adv-x="1292" 
d="M0 0zM741 1487q31 37 66 81t68 86.5t61 78.5t45 59q40 52 79 78t87 26q38 0 60 -22.5t22 -51.5q0 -47 -30.5 -79.5t-88.5 -67.5q-28 -17 -72 -40.5t-94 -50t-101.5 -54.5t-93.5 -54zM-104 12q11 0 32.5 1.5t45 4t46 6.5t35.5 9q38 14 58.5 41.5t29.5 62.5l310 1112
q4 16 6 32t0 30t-10.5 26t-26.5 21q-12 4 -31.5 9t-40 9t-40.5 6.5t-34 3.5l5 13h1097l-94 -338h-16q-6 56 -20 109.5t-35 96.5t-49 70.5t-62 32.5q-32 4 -81.5 6t-98.5 2h-174l-179 -639h162q36 0 66 7t54.5 17.5t43.5 24t33 25.5q15 13 31.5 34t33 47t31.5 54.5t27 57.5
h16l-160 -574h-12q3 22 4 51t-0.5 59t-6.5 58t-15 49q-7 14 -18.5 26.5t-29.5 22.5t-44 15.5t-62 5.5h-160l-141 -512q-11 -34 -17 -62t-4 -47q1 -26 12 -41.5t36.5 -23.5t66 -10.5t100.5 -2.5q51 0 98 2t87.5 8t73 17t55.5 29q35 28 74.5 70.5t76.5 88t68.5 88.5t52.5 74
h17l-134 -397h-1194z" />
    <glyph glyph-name="Ntilde" unicode="&#xd1;" horiz-adv-x="1446" 
d="M0 0zM467 1221l-231 -879q-8 -26 -17 -66t-13.5 -81.5t-0.5 -78t22 -55.5q12 -12 39.5 -21t57.5 -15t58 -9t42 -4l-4 -12h-555l4 12q18 1 44 4.5t54 10t52.5 14.5t39.5 18q42 26 77 92.5t67 188.5l213 795q6 22 10 47.5t3 51.5t-9.5 50t-26.5 43q-29 29 -78.5 43
t-111.5 16l4 13h450l471 -1037l185 697q7 24 16.5 63.5t14 81t0 77.5t-26.5 54q-12 11 -37 20t-53 15.5t-55 10.5t-44 5l2 13h551l-2 -13q-14 -1 -39.5 -4t-54.5 -8.5t-56 -13.5t-44 -17q-26 -14 -46 -40.5t-37 -62.5t-31.5 -80t-27.5 -93l-288 -1079h-37zM625 1532
q12 20 29.5 49.5t40 61t48.5 62.5t54.5 55.5t59 40t61.5 15.5q33 0 60.5 -10t51 -24.5t45 -32t42.5 -32t43 -24.5t48 -10q28 0 57.5 12.5t56.5 33.5t51 47t42 53l15 -7q-14 -25 -32 -56t-39.5 -63.5t-47 -63t-53 -54.5t-57 -38.5t-60.5 -14.5q-48 0 -86.5 21t-72 45.5
t-66.5 45.5t-70 21q-28 0 -56 -12t-54.5 -32t-50.5 -45.5t-42 -52.5z" />
    <glyph glyph-name="Odieresis" unicode="&#xd6;" horiz-adv-x="1458" 
d="M88 0zM768 1550q-27 0 -47.5 9.5t-35 25.5t-21.5 37t-7 43q0 27 10 52t28.5 44.5t45 31t59.5 11.5q22 0 41.5 -9.5t33.5 -25.5t22 -35.5t8 -39.5q0 -28 -9.5 -54t-27.5 -46t-43.5 -32t-56.5 -12zM1165 1550q-26 0 -46.5 9.5t-34.5 25.5t-21 37t-7 43q0 27 10 52t29 44.5
t45.5 31t59.5 11.5q23 0 41.5 -9.5t31.5 -25.5t20 -35.5t7 -39.5q0 -28 -9.5 -54t-26.5 -46t-42.5 -32t-56.5 -12zM618 -33q-105 0 -198.5 36t-167.5 106q-77 72 -120.5 178.5t-43.5 240.5q0 95 19.5 186.5t56 176t88.5 160t117 139.5q56 54 120.5 98.5t133.5 76t141.5 48.5
t144.5 17q104 0 194 -31.5t171 -100.5q37 -32 69 -76.5t55.5 -98t36.5 -115.5t13 -129q0 -180 -64 -342.5t-186 -296.5q-52 -59 -117 -108.5t-139.5 -86.5t-156.5 -57.5t-167 -20.5zM618 -12q61 0 116 22.5t104.5 63.5t93.5 99.5t82 129.5q36 69 66 151.5t52.5 171t35 179.5
t14.5 176q1 91 -11 169.5t-42.5 136t-81 90t-125.5 32.5q-102 0 -182.5 -56t-149.5 -153q-50 -71 -92.5 -163.5t-74 -196t-50.5 -212.5t-21 -212q-2 -94 12 -172.5t46 -135.5t83 -88.5t125 -31.5z" />
    <glyph glyph-name="Udieresis" unicode="&#xdc;" horiz-adv-x="1556" 
d="M197 0zM904 1560q-27 0 -47.5 9.5t-35 25.5t-21.5 37t-7 43q0 27 10 52t28.5 44.5t45 31t59.5 11.5q22 0 41.5 -9.5t33.5 -25.5t22 -35.5t8 -39.5q0 -28 -9.5 -54t-27.5 -46t-43.5 -32t-56.5 -12zM1301 1560q-26 0 -46.5 9.5t-34.5 25.5t-21 37t-7 43q0 27 10 52t29 44.5
t45.5 31t59.5 11.5q23 0 41.5 -9.5t31.5 -25.5t20 -35.5t7 -39.5q0 -28 -9.5 -54t-26.5 -46t-42.5 -32t-56.5 -12zM678 -33q-116 0 -205.5 22.5t-151 65t-93 103.5t-31.5 139q0 42 6.5 88t21.5 98l211 768q10 32 5.5 60t-38.5 45q-11 4 -29 9t-38 9.5t-39 7.5t-31 4l4 13
h680l-4 -13q-15 -1 -36 -3t-43 -5t-43 -6.5t-36 -7.5q-40 -12 -60 -42t-30 -62l-204 -738q-17 -65 -27 -123.5t-10 -107.5q0 -54 18.5 -100t55 -79t91 -52t126.5 -19q192 0 315.5 109.5t185.5 330.5l164 580q8 24 18 63.5t14.5 81t0 77t-26.5 52.5q-13 11 -38.5 20
t-54.5 15.5t-56.5 10.5t-44.5 5l4 13h561l-4 -13q-14 -1 -40.5 -3.5t-56 -7.5t-57.5 -12t-45 -17q-25 -15 -45 -41t-36.5 -62t-31 -79.5t-28.5 -92.5l-170 -600q-36 -125 -86 -219t-121.5 -157.5t-167.5 -95.5t-223 -32z" />
    <glyph glyph-name="aacute" unicode="&#xe1;" horiz-adv-x="1106" 
d="M35 0zM297 -27q-48 0 -94.5 16.5t-84 54t-60.5 99t-23 150.5q0 73 21.5 151t60 152t91.5 139.5t116.5 115t135 78.5t146.5 29q37 0 67 -14.5t52 -37.5t35.5 -51.5t17.5 -57.5h6l50 149h229l-236 -682q-26 -74 -38.5 -122t-14.5 -74q0 -31 13 -44.5t36 -13.5
q34 0 67.5 19.5t66 56.5t62 89.5t54.5 117.5l21 -6q-28 -69 -58 -126t-66 -98.5t-80.5 -64.5t-101.5 -23q-43 0 -80 12t-62.5 38.5t-37.5 67.5t-4 100l-8 2q-28 -51 -62 -92t-72 -70t-80 -44.5t-85 -15.5zM360 33q59 -2 119 48.5t119 156.5l168 514q-12 81 -50 124.5
t-93 43.5q-42 0 -85 -35.5t-82.5 -94.5t-73.5 -136t-59 -160t-39 -166.5t-12 -155.5q0 -72 23 -104.5t65 -34.5zM540 1092q31 37 66 81t68 86.5t61 78.5t45 59q40 52 79 78t87 26q38 0 60 -22.5t22 -51.5q0 -47 -30.5 -79.5t-88.5 -67.5q-28 -17 -72 -40.5t-94 -50
t-101.5 -54.5t-93.5 -54z" />
    <glyph glyph-name="agrave" unicode="&#xe0;" horiz-adv-x="1106" 
d="M35 0zM297 -27q-48 0 -94.5 16.5t-84 54t-60.5 99t-23 150.5q0 73 21.5 151t60 152t91.5 139.5t116.5 115t135 78.5t146.5 29q37 0 67 -14.5t52 -37.5t35.5 -51.5t17.5 -57.5h6l50 149h229l-236 -682q-26 -74 -38.5 -122t-14.5 -74q0 -31 13 -44.5t36 -13.5
q34 0 67.5 19.5t66 56.5t62 89.5t54.5 117.5l21 -6q-28 -69 -58 -126t-66 -98.5t-80.5 -64.5t-101.5 -23q-43 0 -80 12t-62.5 38.5t-37.5 67.5t-4 100l-8 2q-28 -51 -62 -92t-72 -70t-80 -44.5t-85 -15.5zM360 33q59 -2 119 48.5t119 156.5l168 514q-12 81 -50 124.5
t-93 43.5q-42 0 -85 -35.5t-82.5 -94.5t-73.5 -136t-59 -160t-39 -166.5t-12 -155.5q0 -72 23 -104.5t65 -34.5zM834 1077q-36 28 -71.5 56t-68.5 54.5t-62 49t-52 39.5q-44 31 -69.5 64t-25.5 71q0 19 7 36t19.5 29.5t29.5 19.5t37 7q25 0 44.5 -7.5t35.5 -23.5t29.5 -40
t27.5 -58l129 -287l-10 -10v0z" />
    <glyph glyph-name="acircumflex" unicode="&#xe2;" horiz-adv-x="1106" 
d="M35 0zM297 -27q-48 0 -94.5 16.5t-84 54t-60.5 99t-23 150.5q0 73 21.5 151t60 152t91.5 139.5t116.5 115t135 78.5t146.5 29q37 0 67 -14.5t52 -37.5t35.5 -51.5t17.5 -57.5h6l50 149h229l-236 -682q-26 -74 -38.5 -122t-14.5 -74q0 -31 13 -44.5t36 -13.5
q34 0 67.5 19.5t66 56.5t62 89.5t54.5 117.5l21 -6q-28 -69 -58 -126t-66 -98.5t-80.5 -64.5t-101.5 -23q-43 0 -80 12t-62.5 38.5t-37.5 67.5t-4 100l-8 2q-28 -51 -62 -92t-72 -70t-80 -44.5t-85 -15.5zM360 33q59 -2 119 48.5t119 156.5l168 514q-12 81 -50 124.5
t-93 43.5q-42 0 -85 -35.5t-82.5 -94.5t-73.5 -136t-59 -160t-39 -166.5t-12 -155.5q0 -72 23 -104.5t65 -34.5zM383 1096q40 44 83 93t84 97t78 91t64 75q13 16 23.5 25.5t22.5 14t28.5 6t40.5 1.5q21 0 34 -1.5t21.5 -6t14 -13t10.5 -22.5q11 -29 27.5 -74.5t34.5 -96.5
l36 -102t33 -91l-12 -7l-236 248l-375 -248z" />
    <glyph glyph-name="adieresis" unicode="&#xe4;" horiz-adv-x="1106" 
d="M35 0zM297 -27q-48 0 -94.5 16.5t-84 54t-60.5 99t-23 150.5q0 73 21.5 151t60 152t91.5 139.5t116.5 115t135 78.5t146.5 29q37 0 67 -14.5t52 -37.5t35.5 -51.5t17.5 -57.5h6l50 149h229l-236 -682q-26 -74 -38.5 -122t-14.5 -74q0 -31 13 -44.5t36 -13.5
q34 0 67.5 19.5t66 56.5t62 89.5t54.5 117.5l21 -6q-28 -69 -58 -126t-66 -98.5t-80.5 -64.5t-101.5 -23q-43 0 -80 12t-62.5 38.5t-37.5 67.5t-4 100l-8 2q-28 -51 -62 -92t-72 -70t-80 -44.5t-85 -15.5zM360 33q59 -2 119 48.5t119 156.5l168 514q-12 81 -50 124.5
t-93 43.5q-42 0 -85 -35.5t-82.5 -94.5t-73.5 -136t-59 -160t-39 -166.5t-12 -155.5q0 -72 23 -104.5t65 -34.5zM514 1143q-27 0 -47.5 9.5t-35 25.5t-21.5 37t-7 43q0 27 10 52t28.5 44.5t45 31t59.5 11.5q22 0 41.5 -9.5t33.5 -25.5t22 -35.5t8 -39.5q0 -28 -9.5 -54
t-27.5 -46t-43.5 -32t-56.5 -12zM911 1143q-26 0 -46.5 9.5t-34.5 25.5t-21 37t-7 43q0 27 10 52t29 44.5t45.5 31t59.5 11.5q23 0 41.5 -9.5t31.5 -25.5t20 -35.5t7 -39.5q0 -28 -9.5 -54t-26.5 -46t-42.5 -32t-56.5 -12z" />
    <glyph glyph-name="atilde" unicode="&#xe3;" horiz-adv-x="1106" 
d="M35 0zM297 -27q-48 0 -94.5 16.5t-84 54t-60.5 99t-23 150.5q0 73 21.5 151t60 152t91.5 139.5t116.5 115t135 78.5t146.5 29q37 0 67 -14.5t52 -37.5t35.5 -51.5t17.5 -57.5h6l50 149h229l-236 -682q-26 -74 -38.5 -122t-14.5 -74q0 -31 13 -44.5t36 -13.5
q34 0 67.5 19.5t66 56.5t62 89.5t54.5 117.5l21 -6q-28 -69 -58 -126t-66 -98.5t-80.5 -64.5t-101.5 -23q-43 0 -80 12t-62.5 38.5t-37.5 67.5t-4 100l-8 2q-28 -51 -62 -92t-72 -70t-80 -44.5t-85 -15.5zM360 33q59 -2 119 48.5t119 156.5l168 514q-12 81 -50 124.5
t-93 43.5q-42 0 -85 -35.5t-82.5 -94.5t-73.5 -136t-59 -160t-39 -166.5t-12 -155.5q0 -72 23 -104.5t65 -34.5zM320 1143q12 20 29.5 49.5t40 61t48.5 62.5t54.5 55.5t59 40t61.5 15.5q33 0 60.5 -10t51 -24.5t45 -32t42.5 -32t43 -24.5t48 -10q28 0 57.5 12.5t56.5 33.5
t51 47t42 53l15 -7q-14 -25 -32 -56t-39.5 -63.5t-47 -63t-53 -54.5t-57 -38.5t-60.5 -14.5q-48 0 -86.5 21t-72 45.5t-66.5 45.5t-70 21q-28 0 -56 -12t-54.5 -32t-50.5 -45.5t-42 -52.5z" />
    <glyph glyph-name="aring" unicode="&#xe5;" horiz-adv-x="1106" 
d="M35 0zM297 -27q-48 0 -94.5 16.5t-84 54t-60.5 99t-23 150.5q0 73 21.5 151t60 152t91.5 139.5t116.5 115t135 78.5t146.5 29q37 0 67 -14.5t52 -37.5t35.5 -51.5t17.5 -57.5h6l50 149h229l-236 -682q-26 -74 -38.5 -122t-14.5 -74q0 -31 13 -44.5t36 -13.5
q34 0 67.5 19.5t66 56.5t62 89.5t54.5 117.5l21 -6q-28 -69 -58 -126t-66 -98.5t-80.5 -64.5t-101.5 -23q-43 0 -80 12t-62.5 38.5t-37.5 67.5t-4 100l-8 2q-28 -51 -62 -92t-72 -70t-80 -44.5t-85 -15.5zM360 33q59 -2 119 48.5t119 156.5l168 514q-12 81 -50 124.5
t-93 43.5q-42 0 -85 -35.5t-82.5 -94.5t-73.5 -136t-59 -160t-39 -166.5t-12 -155.5q0 -72 23 -104.5t65 -34.5zM731 1083q-48 0 -90.5 13.5t-74.5 38.5t-50.5 60.5t-17.5 80.5q1 48 24.5 89t60.5 70t84 45.5t97 16.5q46 0 88.5 -14t74.5 -39.5t50 -61.5t17 -79
q-2 -48 -24 -88.5t-58 -70t-83 -45.5t-98 -16zM725 1104q36 0 62 21t43 53.5t26 70.5t11 72q1 30 -4 58t-16.5 49t-31 34t-47.5 13q-34 0 -60 -20.5t-43.5 -52t-27 -70.5t-10.5 -75q-2 -29 3 -56.5t16.5 -49t31 -34.5t47.5 -13z" />
    <glyph glyph-name="ccedilla" unicode="&#xe7;" horiz-adv-x="842" 
d="M68 -446q64 1 119.5 11t96.5 28.5t65 45.5t24 62q1 38 -31 53t-109 15l68 208q-52 8 -100 30t-85 60.5t-59 96t-22 135.5q0 67 19.5 142t55.5 148t87.5 140t116 118t140.5 81t162 30q46 0 87 -13.5t72 -38.5t49 -60.5t18 -79.5q0 -66 -33 -105.5t-86 -39.5
q-51 0 -85 26.5t-34 79.5q0 45 41.5 80t106.5 49q-3 15 -14.5 30t-29 27t-39.5 19.5t-46 7.5q-47 0 -90 -36t-81 -95t-69 -135.5t-53.5 -157.5t-34.5 -160t-12 -143q0 -90 32.5 -142.5t98.5 -52.5q56 0 107.5 22.5t97 61.5t84.5 90.5t71 110.5l19 -8q-48 -91 -101 -153
t-107 -100t-108.5 -54.5t-105.5 -16.5q-11 0 -22.5 1t-22.5 1l-23 -73q119 0 183.5 -38t62.5 -110q-1 -45 -20.5 -79t-54 -58.5t-81 -41t-100.5 -25.5t-113.5 -12.5t-118.5 -2.5z" />
    <glyph glyph-name="eacute" unicode="&#xe9;" horiz-adv-x="831" 
d="M35 0zM429 1092q31 37 66 81t68 86.5t61 78.5t45 59q40 52 79 78t87 26q38 0 60 -22.5t22 -51.5q0 -47 -30.5 -79.5t-88.5 -67.5q-28 -17 -72 -40.5t-94 -50t-101.5 -54.5t-93.5 -54zM371 -29q-63 0 -123.5 17.5t-107.5 57t-76 102.5t-29 155q0 61 19 133t54.5 145
t88 141t119 120.5t147 84t172.5 31.5q43 0 81 -10.5t66 -30.5t44 -48.5t16 -65.5q0 -74 -37 -133.5t-106 -104t-168.5 -74t-223.5 -42.5q-12 -57 -19 -120t-7 -116q0 -85 31.5 -136.5t99.5 -51.5q57 0 109 23t97.5 61.5t84 89.5t69.5 108l19 -8q-47 -89 -98 -151.5
t-104 -101.5t-108 -57t-110 -18zM309 465q93 12 157 49t104.5 86t59.5 104.5t21 104.5q5 68 -14 98.5t-51 30.5q-39 0 -79 -41t-77 -107.5t-68.5 -151.5t-52.5 -173z" />
    <glyph glyph-name="egrave" unicode="&#xe8;" horiz-adv-x="831" 
d="M35 0zM371 -29q-63 0 -123.5 17.5t-107.5 57t-76 102.5t-29 155q0 61 19 133t54.5 145t88 141t119 120.5t147 84t172.5 31.5q43 0 81 -10.5t66 -30.5t44 -48.5t16 -65.5q0 -74 -37 -133.5t-106 -104t-168.5 -74t-223.5 -42.5q-12 -57 -19 -120t-7 -116q0 -85 31.5 -136.5
t99.5 -51.5q57 0 109 23t97.5 61.5t84 89.5t69.5 108l19 -8q-47 -89 -98 -151.5t-104 -101.5t-108 -57t-110 -18zM309 465q93 12 157 49t104.5 86t59.5 104.5t21 104.5q5 68 -14 98.5t-51 30.5q-39 0 -79 -41t-77 -107.5t-68.5 -151.5t-52.5 -173zM741 1077q-36 28 -71.5 56
t-68.5 54.5t-62 49t-52 39.5q-44 31 -69.5 64t-25.5 71q0 19 7 36t19.5 29.5t29.5 19.5t37 7q25 0 44.5 -7.5t35.5 -23.5t29.5 -40t27.5 -58l129 -287l-10 -10v0z" />
    <glyph glyph-name="ecircumflex" unicode="&#xea;" horiz-adv-x="831" 
d="M35 0zM279 1074q40 44 83 93t84 97t78 91t64 75q13 16 23.5 25.5t22.5 14t28.5 6t40.5 1.5q21 0 34 -1.5t21.5 -6t14 -13t10.5 -22.5q11 -29 27.5 -74.5t34.5 -96.5l36 -102t33 -91l-12 -7l-236 248l-375 -248zM371 -29q-63 0 -123.5 17.5t-107.5 57t-76 102.5t-29 155
q0 61 19 133t54.5 145t88 141t119 120.5t147 84t172.5 31.5q43 0 81 -10.5t66 -30.5t44 -48.5t16 -65.5q0 -74 -37 -133.5t-106 -104t-168.5 -74t-223.5 -42.5q-12 -57 -19 -120t-7 -116q0 -85 31.5 -136.5t99.5 -51.5q57 0 109 23t97.5 61.5t84 89.5t69.5 108l19 -8
q-47 -89 -98 -151.5t-104 -101.5t-108 -57t-110 -18zM309 465q93 12 157 49t104.5 86t59.5 104.5t21 104.5q5 68 -14 98.5t-51 30.5q-39 0 -79 -41t-77 -107.5t-68.5 -151.5t-52.5 -173z" />
    <glyph glyph-name="edieresis" unicode="&#xeb;" horiz-adv-x="831" 
d="M35 0zM403 1143q-27 0 -47.5 9.5t-35 25.5t-21.5 37t-7 43q0 27 10 52t28.5 44.5t45 31t59.5 11.5q22 0 41.5 -9.5t33.5 -25.5t22 -35.5t8 -39.5q0 -28 -9.5 -54t-27.5 -46t-43.5 -32t-56.5 -12zM800 1143q-26 0 -46.5 9.5t-34.5 25.5t-21 37t-7 43q0 27 10 52t29 44.5
t45.5 31t59.5 11.5q23 0 41.5 -9.5t31.5 -25.5t20 -35.5t7 -39.5q0 -28 -9.5 -54t-26.5 -46t-42.5 -32t-56.5 -12zM371 -29q-63 0 -123.5 17.5t-107.5 57t-76 102.5t-29 155q0 61 19 133t54.5 145t88 141t119 120.5t147 84t172.5 31.5q43 0 81 -10.5t66 -30.5t44 -48.5
t16 -65.5q0 -74 -37 -133.5t-106 -104t-168.5 -74t-223.5 -42.5q-12 -57 -19 -120t-7 -116q0 -85 31.5 -136.5t99.5 -51.5q57 0 109 23t97.5 61.5t84 89.5t69.5 108l19 -8q-47 -89 -98 -151.5t-104 -101.5t-108 -57t-110 -18zM309 465q93 12 157 49t104.5 86t59.5 104.5
t21 104.5q5 68 -14 98.5t-51 30.5q-39 0 -79 -41t-77 -107.5t-68.5 -151.5t-52.5 -173z" />
    <glyph glyph-name="iacute" unicode="&#xed;" horiz-adv-x="676" 
d="M45 0zM247 1092q31 37 66 81t68 86.5t61 78.5t45 59q40 52 79 78t87 26q38 0 60 -22.5t22 -51.5q0 -47 -30.5 -79.5t-88.5 -67.5q-28 -17 -72 -40.5t-94 -50t-101.5 -54.5t-93.5 -54zM334 -23q-42 0 -81 9.5t-69 30t-48.5 53.5t-18.5 80q0 18 2 35t6.5 35t11.5 39t17 48
l143 363q28 74 41.5 122.5t13.5 77.5q0 50 -45 50q-69 0 -129.5 -74t-111.5 -205l-21 6q28 67 57 124.5t64.5 98.5t78.5 64.5t99 23.5q43 0 81 -12t66.5 -35.5t45 -58.5t16.5 -80q0 -17 -5.5 -41t-14 -50.5t-18 -53.5t-17.5 -49l-121 -312q-31 -78 -46.5 -127t-15.5 -73
q0 -26 15.5 -38t40.5 -12q69 0 131.5 73t113.5 204l19 -6q-27 -69 -56.5 -126t-65 -98t-79.5 -63.5t-100 -22.5z" />
    <glyph glyph-name="igrave" unicode="&#xec;" horiz-adv-x="676" 
d="M45 0zM334 -23q-42 0 -81 9.5t-69 30t-48.5 53.5t-18.5 80q0 18 2 35t6.5 35t11.5 39t17 48l143 363q28 74 41.5 122.5t13.5 77.5q0 50 -45 50q-69 0 -129.5 -74t-111.5 -205l-21 6q28 67 57 124.5t64.5 98.5t78.5 64.5t99 23.5q43 0 81 -12t66.5 -35.5t45 -58.5
t16.5 -80q0 -17 -5.5 -41t-14 -50.5t-18 -53.5t-17.5 -49l-121 -312q-31 -78 -46.5 -127t-15.5 -73q0 -26 15.5 -38t40.5 -12q69 0 131.5 73t113.5 204l19 -6q-27 -69 -56.5 -126t-65 -98t-79.5 -63.5t-100 -22.5zM577 1077q-36 28 -71.5 56t-68.5 54.5t-62 49t-52 39.5
q-44 31 -69.5 64t-25.5 71q0 19 7 36t19.5 29.5t29.5 19.5t37 7q25 0 44.5 -7.5t35.5 -23.5t29.5 -40t27.5 -58l129 -287l-10 -10v0z" />
    <glyph glyph-name="icircumflex" unicode="&#xee;" horiz-adv-x="676" 
d="M45 0zM97 1096q40 44 83 93t84 97t78 91t64 75q13 16 23.5 25.5t22.5 14t28.5 6t40.5 1.5q21 0 34 -1.5t21.5 -6t14 -13t10.5 -22.5q11 -29 27.5 -74.5t34.5 -96.5l36 -102t33 -91l-12 -7l-236 248l-375 -248zM334 -23q-42 0 -81 9.5t-69 30t-48.5 53.5t-18.5 80
q0 18 2 35t6.5 35t11.5 39t17 48l143 363q28 74 41.5 122.5t13.5 77.5q0 50 -45 50q-69 0 -129.5 -74t-111.5 -205l-21 6q28 67 57 124.5t64.5 98.5t78.5 64.5t99 23.5q43 0 81 -12t66.5 -35.5t45 -58.5t16.5 -80q0 -17 -5.5 -41t-14 -50.5t-18 -53.5t-17.5 -49l-121 -312
q-31 -78 -46.5 -127t-15.5 -73q0 -26 15.5 -38t40.5 -12q69 0 131.5 73t113.5 204l19 -6q-27 -69 -56.5 -126t-65 -98t-79.5 -63.5t-100 -22.5z" />
    <glyph glyph-name="idieresis" unicode="&#xef;" horiz-adv-x="676" 
d="M45 0zM247 1143q-27 0 -47.5 9.5t-35 25.5t-21.5 37t-7 43q0 27 10 52t28.5 44.5t45 31t59.5 11.5q22 0 41.5 -9.5t33.5 -25.5t22 -35.5t8 -39.5q0 -28 -9.5 -54t-27.5 -46t-43.5 -32t-56.5 -12zM644 1143q-26 0 -46.5 9.5t-34.5 25.5t-21 37t-7 43q0 27 10 52t29 44.5
t45.5 31t59.5 11.5q23 0 41.5 -9.5t31.5 -25.5t20 -35.5t7 -39.5q0 -28 -9.5 -54t-26.5 -46t-42.5 -32t-56.5 -12zM334 -23q-42 0 -81 9.5t-69 30t-48.5 53.5t-18.5 80q0 18 2 35t6.5 35t11.5 39t17 48l143 363q28 74 41.5 122.5t13.5 77.5q0 50 -45 50q-69 0 -129.5 -74
t-111.5 -205l-21 6q28 67 57 124.5t64.5 98.5t78.5 64.5t99 23.5q43 0 81 -12t66.5 -35.5t45 -58.5t16.5 -80q0 -17 -5.5 -41t-14 -50.5t-18 -53.5t-17.5 -49l-121 -312q-31 -78 -46.5 -127t-15.5 -73q0 -26 15.5 -38t40.5 -12q69 0 131.5 73t113.5 204l19 -6
q-27 -69 -56.5 -126t-65 -98t-79.5 -63.5t-100 -22.5z" />
    <glyph glyph-name="ntilde" unicode="&#xf1;" horiz-adv-x="1210" 
d="M56 0zM886 -23q-44 0 -83.5 10.5t-69 31.5t-47 53.5t-17.5 77.5q0 37 10 72t29 85l127 334q24 68 37.5 109.5t13.5 66.5q0 21 -7 35t-19 22.5t-27 12.5t-31 4q-40 0 -76 -15.5t-68 -44t-61.5 -67.5t-56.5 -86l-224 -678h-237l225 666q25 74 41 127.5t16 80.5
q0 25 -12.5 35.5t-32.5 10.5q-69 0 -128.5 -74t-110.5 -205l-21 6q28 69 57 126t64.5 98.5t79 64t100.5 22.5q38 0 74.5 -12.5t64 -39t41.5 -69t7 -102.5l6 -2q71 109 150 167t159 58q50 0 92.5 -17.5t73.5 -47.5t48.5 -70.5t17.5 -85.5q0 -28 -11.5 -71t-29.5 -88
l-117 -312q-29 -77 -43 -127t-14 -73q0 -28 16 -39t41 -11q66 0 127.5 73t114.5 204l20 -6q-29 -69 -58.5 -126.5t-65.5 -98t-81 -63t-104 -22.5zM391 1143q12 20 29.5 49.5t40 61t48.5 62.5t54.5 55.5t59 40t61.5 15.5q33 0 60.5 -10t51 -24.5t45 -32t42.5 -32t43 -24.5
t48 -10q28 0 57.5 12.5t56.5 33.5t51 47t42 53l15 -7q-14 -25 -32 -56t-39.5 -63.5t-47 -63t-53 -54.5t-57 -38.5t-60.5 -14.5q-48 0 -86.5 21t-72 45.5t-66.5 45.5t-70 21q-28 0 -56 -12t-54.5 -32t-50.5 -45.5t-42 -52.5z" />
    <glyph glyph-name="oacute" unicode="&#xf3;" horiz-adv-x="995" 
d="M42 0zM468 1092q31 37 66 81t68 86.5t61 78.5t45 59q40 52 79 78t87 26q38 0 60 -22.5t22 -51.5q0 -47 -30.5 -79.5t-88.5 -67.5q-28 -17 -72 -40.5t-94 -50t-101.5 -54.5t-93.5 -54zM366 -29q-62 0 -120 22.5t-103.5 68.5t-73 115t-27.5 161q0 65 19 136.5t55.5 140.5
t88 131t117 109.5t142.5 75t164 27.5q66 0 124.5 -23t103 -69t70 -115.5t25.5 -162.5q0 -65 -18.5 -136t-54.5 -139.5t-87 -130.5t-116 -109t-143 -74.5t-166 -27.5zM378 -10q47 0 90.5 35.5t81.5 95t70 137t54.5 161.5t35.5 167.5t14 156.5q0 59 -9.5 97.5t-24.5 60.5
t-33.5 30.5t-36.5 8.5q-46 0 -90 -33.5t-82.5 -91t-71 -133t-56 -158.5t-37 -169.5t-14.5 -164.5q-1 -57 8 -95t24.5 -61.5t35.5 -33.5t41 -10z" />
    <glyph glyph-name="ograve" unicode="&#xf2;" horiz-adv-x="995" 
d="M42 0zM366 -29q-62 0 -120 22.5t-103.5 68.5t-73 115t-27.5 161q0 65 19 136.5t55.5 140.5t88 131t117 109.5t142.5 75t164 27.5q66 0 124.5 -23t103 -69t70 -115.5t25.5 -162.5q0 -65 -18.5 -136t-54.5 -139.5t-87 -130.5t-116 -109t-143 -74.5t-166 -27.5zM378 -10
q47 0 90.5 35.5t81.5 95t70 137t54.5 161.5t35.5 167.5t14 156.5q0 59 -9.5 97.5t-24.5 60.5t-33.5 30.5t-36.5 8.5q-46 0 -90 -33.5t-82.5 -91t-71 -133t-56 -158.5t-37 -169.5t-14.5 -164.5q-1 -57 8 -95t24.5 -61.5t35.5 -33.5t41 -10zM802 1077q-36 28 -71.5 56
t-68.5 54.5t-62 49t-52 39.5q-44 31 -69.5 64t-25.5 71q0 19 7 36t19.5 29.5t29.5 19.5t37 7q25 0 44.5 -7.5t35.5 -23.5t29.5 -40t27.5 -58l129 -287l-10 -10v0z" />
    <glyph glyph-name="ocircumflex" unicode="&#xf4;" horiz-adv-x="995" 
d="M42 0zM310 1074q40 44 83 93t84 97t78 91t64 75q13 16 23.5 25.5t22.5 14t28.5 6t40.5 1.5q21 0 34 -1.5t21.5 -6t14 -13t10.5 -22.5q11 -29 27.5 -74.5t34.5 -96.5l36 -102t33 -91l-12 -7l-236 248l-375 -248zM366 -29q-62 0 -120 22.5t-103.5 68.5t-73 115t-27.5 161
q0 65 19 136.5t55.5 140.5t88 131t117 109.5t142.5 75t164 27.5q66 0 124.5 -23t103 -69t70 -115.5t25.5 -162.5q0 -65 -18.5 -136t-54.5 -139.5t-87 -130.5t-116 -109t-143 -74.5t-166 -27.5zM378 -10q47 0 90.5 35.5t81.5 95t70 137t54.5 161.5t35.5 167.5t14 156.5
q0 59 -9.5 97.5t-24.5 60.5t-33.5 30.5t-36.5 8.5q-46 0 -90 -33.5t-82.5 -91t-71 -133t-56 -158.5t-37 -169.5t-14.5 -164.5q-1 -57 8 -95t24.5 -61.5t35.5 -33.5t41 -10z" />
    <glyph glyph-name="odieresis" unicode="&#xf6;" horiz-adv-x="995" 
d="M42 0zM460 1143q-27 0 -47.5 9.5t-35 25.5t-21.5 37t-7 43q0 27 10 52t28.5 44.5t45 31t59.5 11.5q22 0 41.5 -9.5t33.5 -25.5t22 -35.5t8 -39.5q0 -28 -9.5 -54t-27.5 -46t-43.5 -32t-56.5 -12zM857 1143q-26 0 -46.5 9.5t-34.5 25.5t-21 37t-7 43q0 27 10 52t29 44.5
t45.5 31t59.5 11.5q23 0 41.5 -9.5t31.5 -25.5t20 -35.5t7 -39.5q0 -28 -9.5 -54t-26.5 -46t-42.5 -32t-56.5 -12zM366 -29q-62 0 -120 22.5t-103.5 68.5t-73 115t-27.5 161q0 65 19 136.5t55.5 140.5t88 131t117 109.5t142.5 75t164 27.5q66 0 124.5 -23t103 -69t70 -115.5
t25.5 -162.5q0 -65 -18.5 -136t-54.5 -139.5t-87 -130.5t-116 -109t-143 -74.5t-166 -27.5zM378 -10q47 0 90.5 35.5t81.5 95t70 137t54.5 161.5t35.5 167.5t14 156.5q0 59 -9.5 97.5t-24.5 60.5t-33.5 30.5t-36.5 8.5q-46 0 -90 -33.5t-82.5 -91t-71 -133t-56 -158.5
t-37 -169.5t-14.5 -164.5q-1 -57 8 -95t24.5 -61.5t35.5 -33.5t41 -10z" />
    <glyph glyph-name="otilde" unicode="&#xf5;" horiz-adv-x="995" 
d="M42 0zM366 -29q-62 0 -120 22.5t-103.5 68.5t-73 115t-27.5 161q0 65 19 136.5t55.5 140.5t88 131t117 109.5t142.5 75t164 27.5q66 0 124.5 -23t103 -69t70 -115.5t25.5 -162.5q0 -65 -18.5 -136t-54.5 -139.5t-87 -130.5t-116 -109t-143 -74.5t-166 -27.5zM378 -10
q47 0 90.5 35.5t81.5 95t70 137t54.5 161.5t35.5 167.5t14 156.5q0 59 -9.5 97.5t-24.5 60.5t-33.5 30.5t-36.5 8.5q-46 0 -90 -33.5t-82.5 -91t-71 -133t-56 -158.5t-37 -169.5t-14.5 -164.5q-1 -57 8 -95t24.5 -61.5t35.5 -33.5t41 -10zM276 1132q12 20 29.5 49.5t40 61
t48.5 62.5t54.5 55.5t59 40t61.5 15.5q33 0 60.5 -10t51 -24.5t45 -32t42.5 -32t43 -24.5t48 -10q28 0 57.5 12.5t56.5 33.5t51 47t42 53l15 -7q-14 -25 -32 -56t-39.5 -63.5t-47 -63t-53 -54.5t-57 -38.5t-60.5 -14.5q-48 0 -86.5 21t-72 45.5t-66.5 45.5t-70 21
q-28 0 -56 -12t-54.5 -32t-50.5 -45.5t-42 -52.5z" />
    <glyph glyph-name="uacute" unicode="&#xfa;" horiz-adv-x="1202" 
d="M45 0zM579 1092q31 37 66 81t68 86.5t61 78.5t45 59q40 52 79 78t87 26q38 0 60 -22.5t22 -51.5q0 -47 -30.5 -79.5t-88.5 -67.5q-28 -17 -72 -40.5t-94 -50t-101.5 -54.5t-93.5 -54zM362 -27q-51 0 -94 18t-74 49t-48 73t-17 90q0 10 3 27t8.5 37.5t13 43t16.5 43.5
l119 312q59 145 59 200q0 54 -45 54q-68 0 -128.5 -75t-111.5 -206l-18 8q27 67 55.5 124t63.5 98t78.5 64t101.5 23q42 0 79.5 -11t65.5 -33t44 -54.5t16 -75.5q0 -37 -9 -72.5t-26 -84.5l-135 -342q-23 -63 -35 -105.5t-12 -71.5q0 -32 20 -54.5t64 -22.5q37 0 73 16
t69 44t62.5 66t55.5 81l219 692h238l-222 -668q-18 -57 -32.5 -107t-14.5 -81q0 -25 15 -39.5t36 -14.5q70 0 130.5 72t111.5 203l21 -6q-28 -69 -57.5 -126t-64.5 -98t-78.5 -63.5t-98.5 -22.5q-42 0 -81 11.5t-67.5 37t-44 65t-10.5 95.5l-6 2q-29 -46 -63.5 -85
t-73.5 -68t-82 -45.5t-89 -16.5z" />
    <glyph glyph-name="ugrave" unicode="&#xf9;" horiz-adv-x="1202" 
d="M45 0zM362 -27q-51 0 -94 18t-74 49t-48 73t-17 90q0 10 3 27t8.5 37.5t13 43t16.5 43.5l119 312q59 145 59 200q0 54 -45 54q-68 0 -128.5 -75t-111.5 -206l-18 8q27 67 55.5 124t63.5 98t78.5 64t101.5 23q42 0 79.5 -11t65.5 -33t44 -54.5t16 -75.5q0 -37 -9 -72.5
t-26 -84.5l-135 -342q-23 -63 -35 -105.5t-12 -71.5q0 -32 20 -54.5t64 -22.5q37 0 73 16t69 44t62.5 66t55.5 81l219 692h238l-222 -668q-18 -57 -32.5 -107t-14.5 -81q0 -25 15 -39.5t36 -14.5q70 0 130.5 72t111.5 203l21 -6q-28 -69 -57.5 -126t-64.5 -98t-78.5 -63.5
t-98.5 -22.5q-42 0 -81 11.5t-67.5 37t-44 65t-10.5 95.5l-6 2q-29 -46 -63.5 -85t-73.5 -68t-82 -45.5t-89 -16.5zM877 1077q-36 28 -71.5 56t-68.5 54.5t-62 49t-52 39.5q-44 31 -69.5 64t-25.5 71q0 19 7 36t19.5 29.5t29.5 19.5t37 7q25 0 44.5 -7.5t35.5 -23.5
t29.5 -40t27.5 -58l129 -287l-10 -10v0z" />
    <glyph glyph-name="ucircumflex" unicode="&#xfb;" horiz-adv-x="1202" 
d="M45 0zM420 1096q40 44 83 93t84 97t78 91t64 75q13 16 23.5 25.5t22.5 14t28.5 6t40.5 1.5q21 0 34 -1.5t21.5 -6t14 -13t10.5 -22.5q11 -29 27.5 -74.5t34.5 -96.5l36 -102t33 -91l-12 -7l-236 248l-375 -248zM362 -27q-51 0 -94 18t-74 49t-48 73t-17 90q0 10 3 27
t8.5 37.5t13 43t16.5 43.5l119 312q59 145 59 200q0 54 -45 54q-68 0 -128.5 -75t-111.5 -206l-18 8q27 67 55.5 124t63.5 98t78.5 64t101.5 23q42 0 79.5 -11t65.5 -33t44 -54.5t16 -75.5q0 -37 -9 -72.5t-26 -84.5l-135 -342q-23 -63 -35 -105.5t-12 -71.5q0 -32 20 -54.5
t64 -22.5q37 0 73 16t69 44t62.5 66t55.5 81l219 692h238l-222 -668q-18 -57 -32.5 -107t-14.5 -81q0 -25 15 -39.5t36 -14.5q70 0 130.5 72t111.5 203l21 -6q-28 -69 -57.5 -126t-64.5 -98t-78.5 -63.5t-98.5 -22.5q-42 0 -81 11.5t-67.5 37t-44 65t-10.5 95.5l-6 2
q-29 -46 -63.5 -85t-73.5 -68t-82 -45.5t-89 -16.5z" />
    <glyph glyph-name="udieresis" unicode="&#xfc;" horiz-adv-x="1202" 
d="M45 0zM547 1143q-27 0 -47.5 9.5t-35 25.5t-21.5 37t-7 43q0 27 10 52t28.5 44.5t45 31t59.5 11.5q22 0 41.5 -9.5t33.5 -25.5t22 -35.5t8 -39.5q0 -28 -9.5 -54t-27.5 -46t-43.5 -32t-56.5 -12zM944 1143q-26 0 -46.5 9.5t-34.5 25.5t-21 37t-7 43q0 27 10 52t29 44.5
t45.5 31t59.5 11.5q23 0 41.5 -9.5t31.5 -25.5t20 -35.5t7 -39.5q0 -28 -9.5 -54t-26.5 -46t-42.5 -32t-56.5 -12zM362 -27q-51 0 -94 18t-74 49t-48 73t-17 90q0 10 3 27t8.5 37.5t13 43t16.5 43.5l119 312q59 145 59 200q0 54 -45 54q-68 0 -128.5 -75t-111.5 -206l-18 8
q27 67 55.5 124t63.5 98t78.5 64t101.5 23q42 0 79.5 -11t65.5 -33t44 -54.5t16 -75.5q0 -37 -9 -72.5t-26 -84.5l-135 -342q-23 -63 -35 -105.5t-12 -71.5q0 -32 20 -54.5t64 -22.5q37 0 73 16t69 44t62.5 66t55.5 81l219 692h238l-222 -668q-18 -57 -32.5 -107t-14.5 -81
q0 -25 15 -39.5t36 -14.5q70 0 130.5 72t111.5 203l21 -6q-28 -69 -57.5 -126t-64.5 -98t-78.5 -63.5t-98.5 -22.5q-42 0 -81 11.5t-67.5 37t-44 65t-10.5 95.5l-6 2q-29 -46 -63.5 -85t-73.5 -68t-82 -45.5t-89 -16.5z" />
    <glyph glyph-name="dagger" unicode="&#x2020;" horiz-adv-x="856" 
d="M336 225q19 87 38.5 190t38 209t36.5 208.5t34 187.5q7 23 4 41.5t-18 23.5q-12 5 -27.5 -4.5t-33.5 -21.5q-12 -10 -27 -20.5t-31 -18.5t-33 -11.5t-34 -0.5q-45 8 -62.5 41t-5.5 79q7 28 30 44.5t52 9.5q25 -6 38 -31t11 -64q12 1 29 5.5t35.5 9t37 6.5t33.5 -2
q20 -5 40.5 -19t31.5 -34q4 34 3 74t-3 79.5t-2.5 75t6.5 61.5q4 18 13.5 34t22.5 26.5t29.5 15t36.5 -1.5q22 -5 35 -17.5t19 -28t6 -33.5t-4 -35q-7 -26 -25.5 -57t-40 -64t-43 -67t-35.5 -68q46 22 88 10q15 -5 30.5 -15.5t29.5 -22.5t26.5 -23.5t22.5 -18.5
q17 31 43.5 45t52.5 6t38.5 -30.5t2.5 -53.5q-14 -45 -45.5 -62.5t-75.5 -4.5q-16 4 -29 15.5t-23 25.5t-18 30t-14 31q-9 19 -17.5 36.5t-20.5 20.5q-16 5 -25.5 -8t-22.5 -45q-19 -54 -41.5 -117t-46.5 -130t-48.5 -136.5t-47.5 -136t-43.5 -128t-36.5 -112.5z" />
    <glyph glyph-name="degree" unicode="&#xb0;" horiz-adv-x="817" 
d="M512 848q-64 1 -120 20.5t-97 57.5t-65 94t-23 129q1 67 28 123.5t70.5 97t99.5 63t115 21.5q63 -1 120 -20t100 -57t68 -96.5t23 -137.5q-1 -63 -27 -117.5t-70 -94t-101.5 -62t-120.5 -21.5zM518 864q35 -1 64.5 21.5t51 61t34 89.5t14.5 107q1 59 -8 112t-28.5 93.5
t-50 64t-73.5 23.5q-43 1 -74 -23t-51.5 -64.5t-31 -92t-11.5 -103.5q0 -54 9 -106t28.5 -92.5t50.5 -65t76 -25.5z" />
    <glyph glyph-name="cent" unicode="&#xa2;" horiz-adv-x="946" 
d="M176 -231l148 366q-45 13 -87 38.5t-74 65t-50.5 93.5t-16.5 123q0 71 21 147.5t59.5 149t92.5 137.5t119.5 113.5t140.5 77t157 28.5h15t20 -2l106 266l23 -6l-105 -264q45 -7 80 -25t60 -44t38 -59t13 -71q0 -65 -29.5 -98t-83.5 -31q-20 0 -39.5 6.5t-34.5 19
t-24.5 30.5t-9.5 40q2 42 35 77t79 57q-6 27 -32 50.5t-60 28.5l-342 -843q17 -16 48 -26.5t65 -10.5q49 0 97 17.5t92 49t82.5 75t70.5 95.5l14 -8q-45 -78 -97.5 -136t-109 -96.5t-114.5 -57.5t-115 -19q-23 0 -42 1.5t-42 4.5l-147 -367zM715 1092q-47 0 -94.5 -29
t-91.5 -79t-81.5 -116t-65.5 -140t-44 -150.5t-16 -147.5q0 -57 15.5 -102t41.5 -70z" />
    <glyph glyph-name="sterling" unicode="&#xa3;" horiz-adv-x="1511" 
d="M88 -190q-55 0 -93.5 11.5t-62.5 32t-35 48.5t-10 61q1 49 33 92.5t85 76.5t122.5 52t146.5 19q66 0 124.5 -8.5t109.5 -22.5q12 35 12 85t2 110h-321l2 24h319q1 21 1.5 46.5t1 51.5t2 50t3.5 41h-297l3 26h296q9 93 36 187t69.5 181t100.5 162t130.5 130.5t158 87.5
t183.5 32q99 0 168 -27t112.5 -71.5t62.5 -100t18 -112.5q-4 -74 -31 -137t-74.5 -109t-114.5 -72t-151 -26q-51 0 -91 15.5t-67.5 43.5t-42 67t-12.5 85q3 48 17 95.5t43 97.5l12 -5q-23 -42 -33.5 -84t-13.5 -79q-2 -45 11 -81t36.5 -61.5t57 -39t73.5 -13.5q48 0 88 22.5
t69 62t46 95t20 121.5q2 53 -8 105.5t-34.5 94.5t-64 68.5t-96.5 26.5q-84 0 -150.5 -34t-116.5 -106t-84 -183t-54 -265q-6 -42 -13 -88t-18 -86h365l-2 -26h-369q-9 -47 -27.5 -98t-38.5 -91h400l-2 -24h-410q-26 -57 -60.5 -108t-80.5 -99q75 -23 139 -52t124 -55.5
t119 -44.5t124 -18q78 0 128.5 23t84 63t54 93t38.5 112l18 -5q-12 -51 -30.5 -104t-45 -103t-63.5 -93.5t-87 -76.5t-114 -52t-145 -19q-57 0 -114.5 15t-115 38t-114 51.5t-111.5 55.5q-69 -79 -158 -128.5t-192 -49.5zM88 -168q45 0 90 12t88 34.5t81 54t69 69.5
q-66 32 -146 55t-161 23q-42 0 -76.5 -9t-60 -26t-40.5 -41t-16 -53q-1 -26 10.5 -47.5t34 -37.5t54.5 -25t73 -9z" />
    <glyph glyph-name="section" unicode="&#xa7;" horiz-adv-x="1032" 
d="M262 -463q-57 0 -97.5 15.5t-65.5 41t-36.5 57.5t-11.5 64q0 34 12.5 64t34 52.5t49.5 35t60 12.5q23 0 41 -8.5t30 -22t17.5 -31.5t3.5 -36q-3 -32 -20.5 -52t-38 -35t-38.5 -29t-22 -34q-6 -34 19 -54.5t67 -20.5q51 0 94 21t73.5 56t47.5 80.5t17 93.5q1 42 -10 82
t-32 84.5t-52.5 96.5t-71.5 118q-42 67 -76.5 124.5t-60 110.5t-39.5 104t-15 106q0 64 23 116t65 92t101.5 66.5t132.5 38.5q-20 44 -31.5 92t-11.5 95q0 84 29.5 153.5t82 119.5t124.5 77.5t157 27.5q58 0 97 -16.5t63 -42t34.5 -58t10.5 -63.5q0 -34 -12.5 -63.5
t-33.5 -51.5t-49 -34.5t-59 -12.5q-24 0 -42.5 8t-30.5 21t-17 30.5t-2 37.5q1 32 17.5 52t36.5 35t37.5 28.5t21.5 33.5q5 34 -16.5 55t-63.5 21q-54 0 -97.5 -20.5t-74 -55.5t-47.5 -81t-17 -97q1 -43 13.5 -85t36 -88.5t56.5 -101t75 -122.5q40 -65 72.5 -120
t56.5 -105.5t37 -99t14 -99.5q0 -64 -24 -116t-67 -91.5t-103 -65.5t-132 -37q22 -46 33.5 -93.5t11.5 -98.5q0 -81 -28 -150t-79 -119.5t-122.5 -79t-157.5 -28.5zM596 121q90 18 134 71t44 134q0 40 -11.5 78.5t-34.5 83.5t-56.5 100.5t-77.5 128.5q-38 59 -69 112.5
t-56 100.5q-87 -20 -131.5 -71t-44.5 -132q0 -41 12.5 -81t36.5 -86.5t58 -102.5t77 -129q35 -57 65.5 -109.5t53.5 -97.5z" />
    <glyph glyph-name="paragraph" unicode="&#xb6;" horiz-adv-x="1227" 
d="M631 670h-39q-103 0 -177.5 25t-122 68t-70 99.5t-21.5 118.5q1 85 38 161t103.5 133t159 90.5t205.5 33.5h667l-8 -25h-272l-426 -1630h-35l424 1630h-207l-424 -1630h-37z" />
    <glyph glyph-name="germandbls" unicode="&#xdf;" horiz-adv-x="1178" 
d="M-270 -483q-55 0 -94.5 14t-65.5 38t-38.5 55.5t-12.5 66.5q0 21 8.5 43t24 40t39 30t53.5 12q20 0 42.5 -6t42 -20t32 -36t12.5 -53q0 -21 -10.5 -39.5t-24.5 -35t-28.5 -31.5t-22.5 -27q2 -16 14 -25.5t23 -9.5q57 0 98 24t75.5 77.5t66 139.5t69.5 210
q37 123 72.5 253.5t69.5 259.5t65.5 252t60.5 232q34 125 94 231.5t154 188.5q68 60 161.5 92.5t204.5 32.5q67 0 119.5 -17t88.5 -47t54.5 -71.5t18.5 -90.5q0 -74 -25.5 -138.5t-62.5 -104.5q-72 -23 -124.5 -48t-86.5 -52.5t-50 -58.5t-16 -67q0 -33 10.5 -64t27.5 -60.5
t39 -58.5t46 -58q25 -31 51 -63t46.5 -66.5t33.5 -72.5t13 -81q0 -77 -27.5 -139t-76.5 -106t-115 -67.5t-144 -23.5q-65 0 -114 16t-82 42.5t-49.5 61t-16.5 71.5q0 31 10.5 58t28.5 47t41.5 32t48.5 12t45.5 -8t34.5 -21.5t21.5 -31t7.5 -35.5q0 -15 -5 -31t-14.5 -29
t-24.5 -22t-36 -10q-13 -3 -25.5 -3.5t-22 -2t-15 -5.5t-5.5 -14q0 -23 14 -43t38 -35t55.5 -23.5t66.5 -8.5q39 0 70 14.5t53.5 40.5t34.5 61.5t12 77.5q0 37 -10 69.5t-26.5 61.5t-38 56.5t-44.5 54.5q-24 30 -49 60t-45 61.5t-32.5 66.5t-12.5 76q0 84 58 152.5
t180 134.5q31 25 55.5 63t41.5 82.5t26 93t10 95.5q0 42 -9 78t-26.5 63t-44 42t-61.5 15q-98 0 -182 -106t-148 -336q-18 -65 -40 -146.5t-45 -171.5t-47.5 -184.5t-48.5 -185.5t-47.5 -174t-44.5 -150q-37 -120 -95 -228t-146 -185q-69 -63 -148.5 -93t-156.5 -30z" />
    <glyph glyph-name="AE" unicode="&#xc6;" horiz-adv-x="1974" 
d="M-219 8q29 2 71.5 12t77.5 27q25 12 52.5 34t57.5 50.5t60.5 62t61.5 68.5q13 14 54 61.5t100.5 116.5t133 154.5t151 176.5t155.5 181.5t145.5 170t121 142t83.5 97.5q-14 5 -40.5 9t-55.5 7t-54.5 5t-37.5 3l4 13h1138l-92 -338h-16q-6 56 -20 109.5t-35.5 96.5
t-50 70.5t-62.5 32.5q-32 5 -80.5 6.5t-97.5 1.5h-176l-179 -639h164q35 0 65 7t54 17.5t43 24t33 25.5q15 13 31.5 34t33 47t32.5 54.5t28 57.5h16l-160 -574h-14q4 22 5 51t-0.5 59t-7 58t-15.5 49q-14 28 -48 49t-104 21h-162l-141 -512q-9 -32 -15 -60t-6 -47
q0 -27 11 -42.5t36.5 -24t66.5 -11t101 -2.5q51 0 98 2t87.5 8t73 17t55.5 29q35 28 74.5 70.5t76.5 88t68.5 88.5t52.5 74h19l-136 -397h-1194l5 12q12 0 34 1.5t45.5 4t45.5 6.5t34 9q38 14 59.5 41.5t30.5 62.5l127 453h-469l-297 -357q-19 -23 -32 -40.5t-21 -31.5
t-13 -25.5t-9 -22.5q-6 -24 13 -42.5t50.5 -31.5t70 -20.5t70.5 -8.5l-4 -10h-534zM963 618l204 742h-28l-631 -742h455z" />
    <glyph glyph-name="Oslash" unicode="&#xd8;" horiz-adv-x="1458" 
d="M-20 -68l225 228q-57 72 -87 164.5t-30 203.5q0 94 19.5 185.5t55.5 176t87.5 160.5t116.5 140q56 54 120.5 98.5t134 76t142 48.5t145.5 17q115 0 215.5 -40t182.5 -126l209 211l20 -19l-211 -211q54 -69 88.5 -163t34.5 -203q0 -190 -72 -363t-209 -309
q-51 -51 -113.5 -95t-132.5 -76.5t-146.5 -50.5t-156.5 -18q-111 0 -213 41t-184 131l-223 -225zM618 -12q84 0 156 40.5t131 109.5t105.5 159t79.5 189.5t53 201t26 193.5q7 54 5 113.5t-7 103.5l-800 -824q17 -137 76.5 -211.5t174.5 -74.5zM1165 1135q-8 59 -25 109
t-46.5 87t-72 57.5t-99.5 20.5q-86 0 -158.5 -41t-132 -110t-106.5 -159.5t-80 -189.5t-53.5 -200.5t-26.5 -192.5q-5 -54 -5.5 -109.5t2.5 -97.5z" />
    <glyph glyph-name="lessequal" unicode="&#x2264;" horiz-adv-x="1151" 
 />
    <glyph glyph-name="greaterequal" unicode="&#x2265;" horiz-adv-x="1151" 
 />
    <glyph glyph-name="yen" unicode="&#xa5;" horiz-adv-x="1167" 
d="M106 10q14 1 35.5 2.5t44 4.5t42.5 6.5t32 7.5q37 12 59 39t31 59l51 184h-315l4 31h318l49 172h-318l6 27h314q-6 25 -16 67t-23 92.5t-27 105.5t-27.5 105.5t-25 92.5t-18.5 67q-14 48 -33 80.5t-47 50.5q-20 14 -43 20.5t-47 8.5l2 10h612l-2 -10q-28 -2 -61 -6.5
t-62 -11t-49.5 -17t-22.5 -24.5q-2 -9 8.5 -61.5t29 -133t44 -183t54.5 -212.5q52 61 105.5 125t103 125t93 115.5t76 98t52 73t20.5 38.5q2 18 -15 31t-44.5 22t-60.5 14t-62 7l4 10h434l-2 -10q-38 -8 -78.5 -26.5t-79.5 -49.5q-28 -23 -67.5 -62.5t-86.5 -90t-98.5 -109
t-102.5 -119.5t-99.5 -120.5t-89.5 -112.5h323l-4 -27h-328l-53 -172h328l-2 -31h-334l-49 -176q-8 -32 -1 -59t36 -39q9 -5 26.5 -10t38 -9t40.5 -6.5t34 -3.5l-2 -10h-658z" />
    <glyph glyph-name="mu" unicode="&#xb5;" horiz-adv-x="1182" 
d="M-78 -463q-15 0 -28.5 6.5t-22.5 19.5t-12.5 33t2.5 46q4 28 17.5 57t31 60t37 64.5t35.5 70.5q21 49 44.5 106.5t45.5 128.5l258 799h241l-213 -637q-21 -62 -33 -109t-12 -76q0 -32 20.5 -54.5t63.5 -22.5q38 0 74 16t68.5 44t62 66t53.5 81l222 692h237l-223 -668
q-17 -57 -31 -107t-14 -81q0 -25 14.5 -39.5t34.5 -14.5q71 0 132 72t112 203l20 -6q-28 -69 -57.5 -126t-64.5 -98t-78.5 -63.5t-98.5 -22.5q-42 0 -80.5 11.5t-67.5 37t-44.5 65t-10.5 95.5l-6 2q-29 -46 -63.5 -85t-73 -68t-81.5 -45.5t-89 -16.5q-49 0 -87.5 14
t-66.5 38t-46.5 57t-28.5 72h-4l-35 -111q-15 -53 -21 -105.5t-8.5 -102t-4.5 -94t-9 -81.5q-14 -63 -43.5 -93t-67.5 -30z" />
    <glyph glyph-name="mu" unicode="&#x3bc;" horiz-adv-x="1182" 
d="M-78 -463q-15 0 -28.5 6.5t-22.5 19.5t-12.5 33t2.5 46q4 28 17.5 57t31 60t37 64.5t35.5 70.5q21 49 44.5 106.5t45.5 128.5l258 799h241l-213 -637q-21 -62 -33 -109t-12 -76q0 -32 20.5 -54.5t63.5 -22.5q38 0 74 16t68.5 44t62 66t53.5 81l222 692h237l-223 -668
q-17 -57 -31 -107t-14 -81q0 -25 14.5 -39.5t34.5 -14.5q71 0 132 72t112 203l20 -6q-28 -69 -57.5 -126t-64.5 -98t-78.5 -63.5t-98.5 -22.5q-42 0 -80.5 11.5t-67.5 37t-44.5 65t-10.5 95.5l-6 2q-29 -46 -63.5 -85t-73 -68t-81.5 -45.5t-89 -16.5q-49 0 -87.5 14
t-66.5 38t-46.5 57t-28.5 72h-4l-35 -111q-15 -53 -21 -105.5t-8.5 -102t-4.5 -94t-9 -81.5q-14 -63 -43.5 -93t-67.5 -30z" />
    <glyph glyph-name="ordfeminine" unicode="&#xaa;" horiz-adv-x="762" 
d="M319 707q-31 0 -61 9t-53.5 30.5t-38 56.5t-14.5 86q0 66 28.5 134t76.5 122.5t110 89.5t129 35q82 0 100 -90h2l25 82h139l-127 -381q-13 -34 -21 -66t-8 -43q0 -17 7.5 -24t17.5 -9q21 -1 41 10t38 31t34 49t28 64l14 -6q-14 -38 -31 -70.5t-38 -56.5t-47 -37.5
t-60 -13.5q-24 0 -45.5 7.5t-38 22t-26 36.5t-8.5 52h-7q-11 -20 -27.5 -41t-37.5 -38.5t-46.5 -29t-54.5 -11.5zM362 750q33 0 65 28.5t58 71.5l99 309q-8 47 -26.5 62.5t-47.5 15.5q-24 0 -48.5 -19t-48 -50.5t-44.5 -72t-36.5 -84.5t-24.5 -88t-9 -81q0 -47 18 -69.5
t45 -22.5zM127 578h516l-12 -54h-518z" />
    <glyph glyph-name="ordmasculine" unicode="&#xba;" horiz-adv-x="705" 
d="M360 707q-35 0 -70 13t-63 39.5t-45.5 67t-17.5 95.5q0 38 11.5 78.5t33.5 79t53.5 73t70.5 60.5t85 41.5t98 15.5q37 0 72 -13.5t63 -40.5t45 -68t17 -95q0 -58 -26.5 -119t-73.5 -111.5t-111.5 -83t-141.5 -32.5zM369 719q28 0 53.5 20t47 53t39.5 76.5t30.5 89.5
t19 92t6.5 85q0 63 -15.5 92.5t-41.5 29.5q-27 0 -52 -19.5t-47.5 -51.5t-41 -74.5t-32 -88.5t-21 -92.5t-7.5 -86.5q-2 -60 15.5 -92.5t46.5 -32.5zM119 578h508l-15 -54h-506z" />
    <glyph glyph-name="ae" unicode="&#xe6;" horiz-adv-x="1430" 
d="M297 -27q-48 0 -94.5 16.5t-84 54t-60.5 99t-23 150.5q0 73 21.5 151t60 152t91.5 139.5t116.5 115t135 78.5t146.5 29q37 0 67 -14.5t52 -37.5t35.5 -51.5t17.5 -57.5h6l50 149h161l-30 -88q57 45 124 72.5t146 27.5q42 0 79.5 -10.5t65.5 -30.5t44 -48.5t16 -65.5
q0 -74 -37 -133.5t-106 -104t-168.5 -74t-223.5 -42.5q-12 -57 -19 -120t-7 -116q0 -85 32.5 -136.5t98.5 -51.5q58 0 110 23t97.5 61.5t83.5 89.5t69 108l19 -8q-47 -89 -98 -151.5t-104 -101.5t-108 -57t-110 -18q-60 0 -117 15t-102.5 49t-76.5 89t-38 134
q-34 -65 -71.5 -117.5t-79.5 -89.5t-88.5 -57.5t-98.5 -20.5zM360 33q59 -2 119 48.5t119 156.5l168 514q-12 81 -50 124.5t-93 43.5q-42 0 -85 -35.5t-82.5 -94.5t-73.5 -136t-59 -160t-39 -166.5t-12 -155.5q0 -72 23 -104.5t65 -34.5zM907 465q93 12 157 49t104.5 86
t59.5 104.5t21 104.5q5 68 -14 98.5t-51 30.5q-39 0 -80 -41t-78 -107.5t-68 -151.5t-51 -173z" />
    <glyph glyph-name="oslash" unicode="&#xf8;" horiz-adv-x="995" 
d="M12 -55l119 133q-42 45 -65 109t-23 151q0 65 19 136.5t55.5 140.5t88 131t117 109.5t142.5 75t164 27.5q62 0 117.5 -21t99.5 -63l112 125l17 -18l-111 -125q42 -46 65 -112t23 -156q0 -65 -18.5 -136t-54.5 -139.5t-87 -130.5t-116 -109t-143 -74.5t-166 -27.5
q-62 0 -119 22.5t-101 67.5l-118 -131zM379 -10q40 0 77.5 24t70 65.5t60.5 97t50 118.5t37.5 130t23.5 132q5 37 8 72t5 67l-432 -501q0 -28 1 -49t3 -44q5 -33 15 -54.5t23 -34.5t28 -18t30 -5zM713 735q2 28 2 47.5t-2 42.5q-5 36 -15 58.5t-23 35t-27 17t-27 4.5
q-40 0 -77.5 -24t-71.5 -66t-63.5 -98.5t-53 -121t-40 -134.5t-24.5 -138q-5 -34 -7.5 -65t-2.5 -62z" />
    <glyph glyph-name="questiondown" unicode="&#xbf;" horiz-adv-x="911" 
d="M29 0zM575.965 1062.94q42.9971 0 80.4951 -14.5q37.498 -14.499 64.9961 -40.4971t43.4971 -63.4961t15.999 -82.4951q0 -56.9961 -19.499 -104.493q-19.498 -47.4971 -56.9961 -88.4951q-37.498 -40.9971 -91.9941 -76.4951q-54.4971 -35.498 -124.492 -68.4961
q-68.9961 -31.998 -118.993 -62.4961t-82.4951 -65.4961t-46.9971 -76.4951t-13.499 -96.4941q2 -42.9971 16.499 -82.4951q14.499 -39.4971 42.4971 -69.9951t69.4961 -48.4971q41.4971 -17.999 96.4941 -17.999q55.9961 0 102.993 17.999t80.9951 47.4971t52.9971 68.4951
q18.999 38.998 18.999 80.9951q0 35.998 -12.499 65.9961q-12.5 29.998 -33.498 51.9971q-20.999 21.999 -49.4971 33.998t-60.4961 11.999q-14 0 -31.998 -2.5q-17.999 -2.5 -26.999 -7.49902v-8q20.999 0 41.498 -6.49902q20.498 -6.5 35.9971 -18.499t24.999 -29.498
q9.49902 -17.499 9.49902 -40.498q0 -44.9971 -27.998 -75.4951t-75.9951 -30.498q-53.9971 0 -86.4951 28.498t-32.498 82.4951q0 29.998 12.499 54.9961q12.5 24.999 34.998 41.998q22.499 16.999 52.4971 26.498t63.9961 9.49902q38.998 0 72.9951 -12.999
q33.998 -12.999 58.9971 -37.4971q24.998 -24.499 39.4971 -58.9971q14.499 -34.4971 14.499 -77.4951q0 -51.9971 -22.498 -97.4941q-22.499 -45.4971 -63.9961 -78.9951q-41.498 -33.498 -100.494 -52.4971q-58.9961 -18.998 -131.992 -18.998q-90.9941 0 -161.99 26.498
q-70.9951 26.498 -119.992 69.9961q-48.9971 43.4971 -74.9951 100.993q-25.999 57.4971 -25.999 118.493q0 62.9961 19.499 115.493q19.499 52.4961 56.9961 95.9941q37.498 43.4971 91.4951 78.9951q53.9961 35.498 122.992 65.4961q78.9951 34.998 140.991 68.4951
q61.9961 33.498 104.494 69.4961q42.4971 35.998 64.4961 75.9951q21.998 39.998 21.998 86.9951q0 22.998 -7.99902 39.4971q-8 16.499 -20.999 26.999q-12.999 10.499 -29.498 15.999q-16.499 5.49902 -32.498 5.49902q-28.998 0 -54.4971 -13.499
q-25.498 -13.499 -45.9971 -36.9971q-20.499 -23.499 -34.498 -54.9971t-19.998 -66.4961l-16.999 6q15.999 89.9941 65.9961 142.491q49.9961 52.4971 120.992 52.4971zM704.957 1424.91q29.998 0 55.9961 -10.999q25.999 -11 45.498 -29.499
q19.498 -18.498 30.498 -44.4971q10.999 -25.998 10.999 -55.9961q0 -30.998 -10.999 -56.9971q-11 -25.998 -30.498 -44.9971q-19.499 -18.999 -45.498 -29.998q-25.998 -10.999 -55.9961 -10.999q-30.998 0 -56.9961 10.999q-25.999 10.999 -45.498 29.998
q-19.498 18.999 -30.498 44.9971q-10.999 25.999 -10.999 56.9971q0 29.998 10.999 55.9961q11 25.999 30.498 44.4971q19.499 18.499 45.498 29.499q25.998 10.999 56.9961 10.999z" />
    <glyph glyph-name="exclamdown" unicode="&#xa1;" horiz-adv-x="690" 
d="M116 0zM568.965 1420.91q30.998 0 56.9971 -10.999q25.998 -10.999 45.4971 -29.498t30.498 -44.498q10.999 -25.998 10.999 -55.9961t-10.999 -55.9961q-10.999 -25.999 -30.498 -45.498q-19.499 -19.498 -45.4971 -30.498q-25.999 -10.999 -56.9971 -10.999
q-29.998 0 -55.9961 10.999q-25.998 11 -45.4971 30.498q-19.499 19.499 -30.498 45.498q-11 25.998 -11 55.9961t11 55.9961q10.999 25.999 30.498 44.498t45.4971 29.498t55.9961 10.999zM499.97 962.941q-14.999 -85.9951 -25.999 -173.489
q-10.999 -87.4951 -18.998 -170.99q-8 -83.4941 -14 -160.49q-5.99902 -76.9951 -11.499 -140.991q-5.49902 -63.9961 -10.499 -112.493t-11.999 -75.4951q-9 -32.998 -24.499 -61.4961t-36.998 -49.4971q-21.498 -20.999 -48.9971 -32.998
q-27.498 -11.999 -59.4961 -11.999q-59.9961 0 -90.4941 36.9971q-30.498 36.998 -27.498 98.9941q0.999023 30.998 18.498 79.9951t46.4971 112.493q28.999 63.4961 65.9961 139.491q36.998 75.9961 76.9961 160.99q39.9971 84.9951 80.4951 176.489
q40.4971 91.4951 75.4951 186.489z" />
    <glyph glyph-name="logicalnot" unicode="&#xac;" horiz-adv-x="1151" 
d="M930 516h-844v84h938v-520h-94v436z" />
    <glyph glyph-name="florin" unicode="&#x192;" horiz-adv-x="1028" 
d="M-203 -397q-39 0 -74 9t-62 27.5t-42.5 46.5t-15.5 66q0 24 8.5 47.5t24.5 42t38.5 30t51.5 11.5q52 0 80 -28t28 -80q0 -20 -8 -39.5t-20 -37t-27 -31t-29 -21.5q5 -13 21 -20t34 -7q53 0 99 28t87.5 85t80.5 143t78 203q30 89 54 165t44 144.5t38 133t38 130.5h-218
l11 33h215q24 79 50 146.5t57.5 125.5t70.5 106.5t88 90.5q74 60 156 92.5t184 32.5q49 0 90.5 -11t72 -31.5t47.5 -50t17 -67.5q0 -24 -7.5 -46.5t-22 -40.5t-36 -29t-48.5 -11q-51 0 -82 25t-31 76q0 32 21 68.5t55 70.5q-6 12 -31.5 21.5t-54.5 9.5q-105 0 -182 -114
t-140 -337l-37 -127h258l-10 -33h-254q-44 -149 -82 -275.5t-78 -240.5q-40 -119 -103.5 -215.5t-154.5 -171.5q-75 -66 -165 -105.5t-183 -39.5z" />
    <glyph glyph-name="guillemotleft" unicode="&#xab;" horiz-adv-x="1143" 
d="M899 33q-41 37 -89.5 84.5t-96.5 95.5l-90 90t-70 68q-12 10 -20 18.5t-11 18t-2 21.5t6 30q5 17 10.5 28.5t13 20.5t18.5 17t26 18l541 340l10 -9l-404 -419l168 -414zM459 33q-40 37 -88.5 84.5t-96.5 95.5t-90.5 90t-70.5 68q-11 10 -18 18.5t-10.5 18t-2.5 21.5t6 30
q4 17 9.5 28.5t13 20.5t18 17t25.5 18q26 16 65.5 40.5t87 54t99.5 62t103.5 65t99.5 63t87 55.5l9 -9l-402 -419l168 -414z" />
    <glyph glyph-name="guillemotright" unicode="&#xbb;" horiz-adv-x="1143" 
d="M430 43l406 420l-170 414l14 8q38 -36 87 -85t98 -97.5t92 -91.5t69 -68q11 -10 17.5 -18t9.5 -17t2.5 -20.5t-4.5 -28.5q-6 -18 -11.5 -30t-13.5 -21t-19 -16.5t-26 -16.5q-28 -17 -67.5 -42t-86.5 -54.5t-98.5 -61.5t-102.5 -64.5t-99.5 -62.5t-88.5 -55zM-6 43
l403 420l-170 414l13 8q39 -36 88.5 -85t98.5 -97.5t92 -91.5t69 -68q10 -10 16.5 -18t10 -17t3 -20.5t-5.5 -28.5q-5 -18 -10.5 -30t-13.5 -21t-19 -16.5t-28 -16.5l-539 -340z" />
    <glyph glyph-name="nonbreakingspace" unicode="&#xa0;" horiz-adv-x="219" 
 />
    <glyph glyph-name="Agrave" unicode="&#xc0;" horiz-adv-x="1354" 
d="M0 0zM-221 10q21 2 58 12t71 25q46 23 94 69.5t96 106.5q68 82 145 177t158.5 197.5t166.5 209.5t167.5 213t161.5 207.5t150 193.5h49q1 -4 1.5 -41.5t1.5 -99.5t2 -143t2 -171.5t2.5 -185.5t2 -185t1.5 -170t1.5 -140.5t1 -96t0.5 -36.5q1 -22 2 -40t5.5 -32t13.5 -25
t24 -18q23 -13 56.5 -19t62.5 -8l-4 -10h-654l5 10q24 1 49.5 4t49 7t43.5 9t32 11q37 15 50 45t11 59l-2 383h-473q-31 -38 -64.5 -81.5t-63.5 -83.5t-53.5 -72t-35.5 -47q-15 -20 -29 -40.5t-25.5 -39.5t-18.5 -35.5t-7 -28.5q0 -24 23.5 -40.5t56.5 -27t68.5 -16
t60.5 -6.5l-2 -10h-518zM856 559l-2 561q-12 -14 -40 -48.5t-65.5 -81.5t-82 -103t-90 -113.5t-89.5 -113t-81 -101.5h450zM1158 1472q-36 28 -71.5 56t-68.5 54.5t-62 49t-52 39.5q-44 31 -69.5 64t-25.5 71q0 19 7 36t19.5 29.5t29.5 19.5t37 7q25 0 44.5 -7.5t35.5 -23.5
t29.5 -40t27.5 -58l129 -287l-10 -10v0z" />
    <glyph glyph-name="Atilde" unicode="&#xc3;" horiz-adv-x="1354" 
d="M0 0zM-221 10q21 2 58 12t71 25q46 23 94 69.5t96 106.5q68 82 145 177t158.5 197.5t166.5 209.5t167.5 213t161.5 207.5t150 193.5h49q1 -4 1.5 -41.5t1.5 -99.5t2 -143t2 -171.5t2.5 -185.5t2 -185t1.5 -170t1.5 -140.5t1 -96t0.5 -36.5q1 -22 2 -40t5.5 -32t13.5 -25
t24 -18q23 -13 56.5 -19t62.5 -8l-4 -10h-654l5 10q24 1 49.5 4t49 7t43.5 9t32 11q37 15 50 45t11 59l-2 383h-473q-31 -38 -64.5 -81.5t-63.5 -83.5t-53.5 -72t-35.5 -47q-15 -20 -29 -40.5t-25.5 -39.5t-18.5 -35.5t-7 -28.5q0 -24 23.5 -40.5t56.5 -27t68.5 -16
t60.5 -6.5l-2 -10h-518zM856 559l-2 561q-12 -14 -40 -48.5t-65.5 -81.5t-82 -103t-90 -113.5t-89.5 -113t-81 -101.5h450zM686 1532q12 20 29.5 49.5t40 61t48.5 62.5t54.5 55.5t59 40t61.5 15.5q33 0 60.5 -10t51 -24.5t45 -32t42.5 -32t43 -24.5t48 -10q28 0 57.5 12.5
t56.5 33.5t51 47t42 53l15 -7q-14 -25 -32 -56t-39.5 -63.5t-47 -63t-53 -54.5t-57 -38.5t-60.5 -14.5q-48 0 -86.5 21t-72 45.5t-66.5 45.5t-70 21q-28 0 -56 -12t-54.5 -32t-50.5 -45.5t-42 -52.5z" />
    <glyph glyph-name="Otilde" unicode="&#xd5;" horiz-adv-x="1458" 
d="M88 0zM618 -33q-105 0 -198.5 36t-167.5 106q-77 72 -120.5 178.5t-43.5 240.5q0 95 19.5 186.5t56 176t88.5 160t117 139.5q56 54 120.5 98.5t133.5 76t141.5 48.5t144.5 17q104 0 194 -31.5t171 -100.5q37 -32 69 -76.5t55.5 -98t36.5 -115.5t13 -129
q0 -180 -64 -342.5t-186 -296.5q-52 -59 -117 -108.5t-139.5 -86.5t-156.5 -57.5t-167 -20.5zM618 -12q61 0 116 22.5t104.5 63.5t93.5 99.5t82 129.5q36 69 66 151.5t52.5 171t35 179.5t14.5 176q1 91 -11 169.5t-42.5 136t-81 90t-125.5 32.5q-102 0 -182.5 -56
t-149.5 -153q-50 -71 -92.5 -163.5t-74 -196t-50.5 -212.5t-21 -212q-2 -94 12 -172.5t46 -135.5t83 -88.5t125 -31.5zM594 1532q12 20 29.5 49.5t40 61t48.5 62.5t54.5 55.5t59 40t61.5 15.5q33 0 60.5 -10t51 -24.5t45 -32t42.5 -32t43 -24.5t48 -10q28 0 57.5 12.5
t56.5 33.5t51 47t42 53l15 -7q-14 -25 -32 -56t-39.5 -63.5t-47 -63t-53 -54.5t-57 -38.5t-60.5 -14.5q-48 0 -86.5 21t-72 45.5t-66.5 45.5t-70 21q-28 0 -56 -12t-54.5 -32t-50.5 -45.5t-42 -52.5z" />
    <glyph glyph-name="OE" unicode="&#x152;" horiz-adv-x="2077" 
d="M627 0q-111 0 -209.5 32t-172 97t-116.5 164t-43 233q2 208 85 379.5t228 292.5q113 96 253.5 148.5t301.5 52.5h1209l-95 -338h-16q-5 56 -19 109.5t-35.5 96.5t-50.5 70.5t-63 32.5q-32 5 -80 6.5t-98 1.5h-174l-180 -639h166q34 0 63.5 7t53.5 17.5t43 24t32 25.5
q15 13 32 34t33.5 47t32 54.5t27.5 57.5h16l-159 -574h-15q4 22 5.5 51t-0.5 59t-7.5 58t-15.5 49q-6 14 -17.5 26.5t-29.5 22.5t-43.5 15.5t-61.5 5.5h-159l-144 -512q-9 -31 -14.5 -58.5t-5.5 -44.5q0 -27 11 -43.5t36 -25.5t66.5 -12t103.5 -3q50 0 97 2t87.5 8t73.5 17
t55 29q35 28 74 70.5t75.5 88t68.5 88.5t53 74h18l-135 -397h-1241zM641 20q85 0 143.5 16.5t96.5 63.5q29 36 54 94t50 136t51 175.5t58 213.5q29 107 52 192t37 152t19 117.5t-2 87.5q-12 53 -72 81.5t-186 28.5q-111 0 -201 -52t-161 -146q-55 -74 -97 -167.5t-71 -195.5
t-45 -207.5t-17 -203.5q0 -83 19 -154t56 -122.5t91 -80.5t125 -29z" />
    <glyph glyph-name="oe" unicode="&#x153;" horiz-adv-x="1450" 
d="M367 -29q-62 0 -120 22.5t-103.5 68.5t-73 115t-27.5 161q0 65 19 136.5t55.5 140.5t88 131t117 109.5t142.5 75t164 27.5q83 0 150.5 -40t109.5 -130q72 78 164 124t200 46q43 0 81 -10.5t66 -30.5t44 -48.5t16 -65.5q0 -74 -37 -133.5t-106 -104t-168.5 -74
t-224.5 -42.5q-11 -57 -19 -120t-8 -116q0 -85 32.5 -136.5t100.5 -51.5q58 0 110 23t97.5 61.5t83.5 89.5t68 108l18 -8q-46 -89 -96.5 -151.5t-104 -101.5t-109 -57t-110.5 -18q-38 0 -77 7t-75 24.5t-67.5 46t-54.5 70.5q-72 -71 -158 -109.5t-188 -38.5zM379 -10
q47 0 90.5 35.5t81.5 95t70 137t54.5 161.5t35.5 167.5t14 156.5q0 59 -9.5 97.5t-24.5 60.5t-33.5 30.5t-36.5 8.5q-46 0 -90 -33.5t-82.5 -91t-71 -133t-56 -158.5t-37 -169.5t-14.5 -164.5q-1 -57 8 -95t24.5 -61.5t35.5 -33.5t41 -10zM926 465q94 12 158.5 49t105 86
t59.5 104.5t21 104.5q3 68 -15.5 98.5t-50.5 30.5q-39 0 -79.5 -41t-78 -107.5t-68.5 -151.5t-52 -173z" />
    <glyph glyph-name="divide" unicode="&#xf7;" horiz-adv-x="1151" 
d="M584 119q-24 0 -44.5 9t-36 24.5t-24 36t-8.5 44.5t8.5 44.5t24 36t36 24t44.5 8.5t44.5 -8.5t36 -24t24.5 -36t9 -44.5t-9 -44.5t-24.5 -36t-36 -24.5t-44.5 -9zM584 717q-24 0 -44.5 8.5t-36 23.5t-24 35t-8.5 43q0 25 8.5 46t24 36.5t36 24t44.5 8.5t44.5 -8.5t36 -24
t24.5 -36.5t9 -46q0 -23 -9 -43t-24.5 -35t-36 -23.5t-44.5 -8.5zM96 573h975v-84h-975v84z" />
    <glyph glyph-name="e.ordn" horiz-adv-x="795" 
 />
    <glyph glyph-name="ydieresis" unicode="&#xff;" horiz-adv-x="1112" 
d="M0 0zM160 -489q-72 0 -119 17.5t-74.5 44.5t-39 59t-11.5 61q0 44 14.5 76t37 53t51 31t57.5 10q28 0 49 -9.5t35 -24.5t21 -33t7 -36q0 -53 -22.5 -78t-50.5 -34q-15 -6 -33 -8t-34 -4t-28.5 -6.5t-17.5 -16.5q1 -20 14 -35t33.5 -25.5t47 -16t55.5 -5.5
q98 0 174.5 42.5t138.5 126t113.5 206t99.5 282.5l-6 2q-29 -44 -63 -83t-73.5 -69t-83 -47.5t-90.5 -17.5q-53 0 -96 18.5t-73.5 50t-47 73.5t-16.5 88q0 11 3 28.5t8.5 38t13 43t16.5 43.5l119 310q28 69 43.5 121.5t15.5 78.5q0 54 -45 54q-68 0 -128.5 -75t-111.5 -206
l-18 8q27 67 55.5 124t63.5 98t78.5 64t101.5 23q43 0 80.5 -11t65 -33t43.5 -54.5t16 -75.5q0 -35 -9.5 -73.5t-25.5 -83.5l-131 -332q-9 -24 -18.5 -49.5t-16.5 -50t-11.5 -46t-4.5 -36.5q0 -36 20 -59t68 -23q35 0 70 16t68.5 45t65.5 70t62 92l213 676h231l-221 -709
q-63 -201 -144.5 -337t-177 -218.5t-203.5 -117.5t-224 -35zM543 1143q-27 0 -47.5 9.5t-35 25.5t-21.5 37t-7 43q0 27 10 52t28.5 44.5t45 31t59.5 11.5q22 0 41.5 -9.5t33.5 -25.5t22 -35.5t8 -39.5q0 -28 -9.5 -54t-27.5 -46t-43.5 -32t-56.5 -12zM940 1143
q-26 0 -46.5 9.5t-34.5 25.5t-21 37t-7 43q0 27 10 52t29 44.5t45.5 31t59.5 11.5q23 0 41.5 -9.5t31.5 -25.5t20 -35.5t7 -39.5q0 -28 -9.5 -54t-26.5 -46t-42.5 -32t-56.5 -12z" />
    <glyph glyph-name="Ydieresis" unicode="&#x178;" horiz-adv-x="1370" 
d="M106 0zM233 12q13 1 33 2.5t41.5 3.5t40.5 5.5t31 7.5q20 7 34.5 18.5t24.5 25t16 28.5t9 28l131 535q7 27 11 61t6 70t2.5 69.5t0.5 59.5q0 75 -13.5 139.5t-42 112.5t-73 75t-106.5 27q-39 0 -76.5 -11.5t-71 -36.5t-61 -63.5t-47.5 -93.5l-17 6q27 79 66.5 142.5
t89.5 107.5t109.5 68t126.5 24q86 0 150.5 -31.5t108 -85.5t66.5 -126.5t25 -155.5q1 -27 0 -59.5t-3 -67.5t-6 -71.5t-10 -71.5h19q83 223 186 379q89 138 189 215t200 77q38 0 67.5 -12t49.5 -31.5t30.5 -45t10.5 -52.5q0 -40 -11.5 -69.5t-31 -49t-44.5 -29.5t-52 -10
q-32 0 -55.5 12.5t-38.5 31t-22 40.5t-7 41q0 34 14 64.5t39 52.5l-8 10q-35 -7 -71.5 -25t-75 -50t-79.5 -80t-85 -115q-23 -34 -51 -83t-55 -107.5t-51 -123t-40 -128.5l-133 -527q-8 -32 -0.5 -58.5t41.5 -41.5q7 -4 28.5 -8.5t47 -8t50.5 -6.5t40 -4l-4 -12h-697z
M758 1560q-27 0 -47.5 9.5t-35 25.5t-21.5 37t-7 43q0 27 10 52t28.5 44.5t45 31t59.5 11.5q22 0 41.5 -9.5t33.5 -25.5t22 -35.5t8 -39.5q0 -28 -9.5 -54t-27.5 -46t-43.5 -32t-56.5 -12zM1155 1560q-26 0 -46.5 9.5t-34.5 25.5t-21 37t-7 43q0 27 10 52t29 44.5t45.5 31
t59.5 11.5q23 0 41.5 -9.5t31.5 -25.5t20 -35.5t7 -39.5q0 -28 -9.5 -54t-26.5 -46t-42.5 -32t-56.5 -12z" />
    <glyph glyph-name="fraction" unicode="&#x2044;" horiz-adv-x="664" 
 />
    <glyph glyph-name="fraction" unicode="&#x2215;" horiz-adv-x="664" 
 />
    <glyph glyph-name="Euro" unicode="&#x20ac;" horiz-adv-x="1188" 
d="M602 -29q-112 0 -196 38.5t-138 107.5t-76 164.5t-10 210.5h-139l4 26h139q5 42 16 89t23 87h-127l4 27h134q43 115 115.5 215t166.5 174.5t205.5 117t232.5 42.5q78 0 137.5 -19t99.5 -50.5t60.5 -72.5t20.5 -86q0 -39 -11.5 -72.5t-32 -58.5t-49.5 -39t-63 -14
q-45 0 -68.5 24.5t-23.5 59.5q0 33 15.5 55t35.5 41.5t39 39.5t27 50q3 22 -9 44t-37 39.5t-63 28.5t-86 11q-71 0 -136.5 -40t-123.5 -110.5t-106.5 -168t-85.5 -211.5h471l-6 -27h-474q-6 -20 -12 -43t-11 -46t-10 -45.5t-8 -41.5h398l-2 -26h-400q-13 -90 -10.5 -171.5
t28 -144t78 -99t138.5 -36.5q124 0 227 70t195 190l14 -8q-44 -65 -97 -123t-116.5 -102.5t-137.5 -70.5t-159 -26z" />
    <glyph glyph-name="guilsinglleft" unicode="&#x2039;" horiz-adv-x="705" 
d="M459 33q-40 37 -88.5 84.5t-96.5 95.5t-90.5 90t-70.5 68q-11 10 -18 18.5t-10.5 18t-2.5 21.5t6 30q4 17 9.5 28.5t13 20.5t18 17t25.5 18q26 16 65.5 40.5t87 54t99.5 62t103.5 65t99.5 63t87 55.5l9 -9l-402 -419l168 -414l-12 -8v0z" />
    <glyph glyph-name="guilsinglright" unicode="&#x203a;" horiz-adv-x="705" 
d="M-6 43l403 420l-170 414l13 8q39 -36 88.5 -85t98.5 -97.5t92 -91.5t69 -68q10 -10 16.5 -18t10 -17t3 -20.5t-5.5 -28.5q-5 -18 -10.5 -30t-13.5 -21t-19 -16.5t-28 -16.5l-539 -340z" />
    <glyph glyph-name="daggerdbl" unicode="&#x2021;" horiz-adv-x="856" 
d="M285 37q-37 11 -48.5 42t-0.5 68q7 26 23 49.5t34 44.5t35 39.5t26 34.5q-17 -8 -44.5 -12.5t-61.5 4.5q-31 9 -48 22.5t-34 24.5q-17 -34 -45 -49.5t-55 -7.5q-29 9 -38 36.5t-1 55.5q9 32 36 49.5t64 7.5q28 -8 44 -25.5t27 -37t22.5 -36.5t31.5 -23q18 -5 34 16.5
t31 52.5q9 16 27.5 53.5t40 83t42.5 91.5t34 79l14 -6q-5 -35 -9.5 -85t-8.5 -100t-7.5 -91.5t-5.5 -57.5t-2 -32t2 -29t7.5 -22.5t15.5 -12.5q22 -5 41 3.5t38.5 19t41 18t47.5 0.5q40 -9 52 -38.5t3 -63.5q-5 -14 -14 -26t-21.5 -20t-26.5 -11t-28 1q-29 10 -40.5 35
t-8.5 62q-20 0 -41.5 -1.5t-52.5 7.5q-12 3 -25 10t-25 16t-21.5 18t-14.5 17q-2 -21 3.5 -45t11 -50t8 -53t-4.5 -54q-5 -20 -15 -35.5t-23.5 -25.5t-30 -13t-35.5 2zM477 760q4 23 7.5 53.5t7 64.5t6 68t5 63.5t3.5 52.5t2 34q5 32 2 60t-23 34q-22 6 -41 -2t-38 -18.5
t-39.5 -18.5t-46.5 -2q-39 9 -53 38.5t-5 63.5q9 28 34 46t54 12q29 -10 42.5 -35.5t11.5 -63.5q18 0 39.5 2t50.5 -8q29 -8 53 -27t35 -34q1 21 -4.5 45.5t-10.5 50.5t-7.5 53.5t3.5 53.5q6 19 15.5 34.5t23 25.5t29.5 13.5t35 -2.5q37 -11 49.5 -42t1.5 -66
q-9 -26 -25 -49.5t-33.5 -44.5t-33.5 -40t-25 -36q16 8 44 12t59 -4q30 -9 47 -22.5t34 -24.5q17 35 45 51t56 8q29 -9 39 -37.5t2 -56.5q-10 -31 -38 -48.5t-65 -6.5q-27 8 -42 25.5t-26.5 36.5t-23.5 35.5t-31 22.5q-10 3 -18.5 -1.5t-16.5 -14.5t-15.5 -24t-14.5 -29
q-9 -16 -28 -53.5t-40.5 -82.5t-42.5 -90.5t-34 -78.5z" />
    <glyph glyph-name="quotesinglbase" unicode="&#x201a;" horiz-adv-x="428" 
d="M-55 -270q43 22 83.5 51t74 64t58 74.5t36.5 82.5h-70q-39 0 -66 10t-43.5 26.5t-24 38t-7.5 44.5q1 28 12.5 55t32.5 48.5t51 34.5t68 13q32 0 59 -12t45.5 -35.5t29 -57t9.5 -75.5q-2 -54 -26.5 -106t-68.5 -101t-106.5 -93t-140.5 -81z" />
    <glyph glyph-name="quotedblbase" unicode="&#x201e;" horiz-adv-x="815" 
d="M-55 -270q43 22 83.5 51t74 64t58 74.5t36.5 82.5h-70q-39 0 -66 10t-43.5 26.5t-24 38t-7.5 44.5q1 28 12.5 55t32.5 48.5t51 34.5t68 13q32 0 59 -12t45.5 -35.5t29 -57t9.5 -75.5q-2 -54 -26.5 -106t-68.5 -101t-106.5 -93t-140.5 -81zM330 -270q45 22 85.5 51
t74.5 64t58 74.5t36 82.5h-70q-40 0 -67 10t-44 26.5t-24 38t-6 44.5q0 28 11.5 55t32.5 48.5t51.5 34.5t68.5 13q32 0 59 -12t45.5 -35.5t29 -57t9.5 -75.5q-2 -54 -26 -106t-68 -101t-107 -93t-141 -81z" />
    <glyph glyph-name="perthousand" unicode="&#x2030;" horiz-adv-x="2513" 
d="M416 590q-62 0 -113 18t-88 52t-57.5 82t-20.5 108q1 83 36.5 158.5t94 133.5t135 92t160.5 34q63 0 117 -18t94 -51.5t62.5 -82.5t21.5 -112q-2 -90 -41 -166t-101.5 -131t-141 -86t-158.5 -31zM422 610q37 0 70.5 22.5t62.5 60t52.5 86.5t40 102.5t25 108t7.5 102.5
q0 33 -7 62t-21.5 50.5t-36 34t-50.5 12.5q-41 0 -75.5 -23.5t-62.5 -62t-49 -88t-35.5 -101t-22 -101.5t-7.5 -89q-2 -35 2.5 -66.5t17 -56t34 -39t55.5 -14.5zM1153 -27q-62 0 -113.5 18t-88.5 51.5t-57.5 82t-19.5 108.5q1 83 36 159t93.5 133.5t134.5 91.5t160 34
q63 0 117.5 -18t94.5 -52t63 -83t22 -111q-2 -90 -41 -166t-101.5 -131t-141 -86t-158.5 -31zM1157 -8q37 0 71 22.5t63 59.5t53 86t40.5 102.5t25 107t7.5 101.5q-1 34 -8.5 63.5t-22 51.5t-35.5 34.5t-48 12.5q-42 0 -76.5 -23.5t-62.5 -61.5t-49.5 -87t-36 -100.5
t-22 -101.5t-7.5 -89q0 -35 4.5 -67t16.5 -56.5t33 -39.5t54 -15zM1970 -33q-62 0 -113 18.5t-88 53t-57.5 82.5t-19.5 108q1 56 17 108.5t44.5 99t68 85.5t86.5 67.5t100 44t110 15.5q62 0 116.5 -18t95 -52t63.5 -83.5t22 -112.5q-2 -91 -42 -167t-103 -131.5
t-141.5 -86.5t-158.5 -31zM1976 -10q37 0 71 22.5t63 59.5t52 86t39.5 102.5t25 107t7.5 101.5q0 34 -7.5 63t-21.5 50.5t-35.5 34t-49.5 12.5q-42 0 -76.5 -23.5t-62.5 -61.5t-49 -87t-35.5 -100.5t-21.5 -101.5t-7 -89q-1 -35 3 -66.5t16 -56t33.5 -39t55.5 -14.5z
M178 -176l1319 1585l27 -23l-1317 -1585z" />
    <glyph glyph-name="Acircumflex" unicode="&#xc2;" horiz-adv-x="1354" 
d="M0 0zM-221 10q21 2 58 12t71 25q46 23 94 69.5t96 106.5q68 82 145 177t158.5 197.5t166.5 209.5t167.5 213t161.5 207.5t150 193.5h49q1 -4 1.5 -41.5t1.5 -99.5t2 -143t2 -171.5t2.5 -185.5t2 -185t1.5 -170t1.5 -140.5t1 -96t0.5 -36.5q1 -22 2 -40t5.5 -32t13.5 -25
t24 -18q23 -13 56.5 -19t62.5 -8l-4 -10h-654l5 10q24 1 49.5 4t49 7t43.5 9t32 11q37 15 50 45t11 59l-2 383h-473q-31 -38 -64.5 -81.5t-63.5 -83.5t-53.5 -72t-35.5 -47q-15 -20 -29 -40.5t-25.5 -39.5t-18.5 -35.5t-7 -28.5q0 -24 23.5 -40.5t56.5 -27t68.5 -16
t60.5 -6.5l-2 -10h-518zM856 559l-2 561q-12 -14 -40 -48.5t-65.5 -81.5t-82 -103t-90 -113.5t-89.5 -113t-81 -101.5h450zM731 1469q40 44 83 93t84 97t78 91t64 75q13 16 23.5 25.5t22.5 14t28.5 6t40.5 1.5q21 0 34 -1.5t21.5 -6t14 -13t10.5 -22.5q11 -29 27.5 -74.5
t34.5 -96.5l36 -102t33 -91l-12 -7l-236 248l-375 -248z" />
    <glyph glyph-name="Ecircumflex" unicode="&#xca;" horiz-adv-x="1292" 
d="M0 0zM586 1491q40 44 83 93t84 97t78 91t64 75q13 16 23.5 25.5t22.5 14t28.5 6t40.5 1.5q21 0 34 -1.5t21.5 -6t14 -13t10.5 -22.5q11 -29 27.5 -74.5t34.5 -96.5l36 -102t33 -91l-12 -7l-236 248l-375 -248zM-104 12q11 0 32.5 1.5t45 4t46 6.5t35.5 9q38 14 58.5 41.5
t29.5 62.5l310 1112q4 16 6 32t0 30t-10.5 26t-26.5 21q-12 4 -31.5 9t-40 9t-40.5 6.5t-34 3.5l5 13h1097l-94 -338h-16q-6 56 -20 109.5t-35 96.5t-49 70.5t-62 32.5q-32 4 -81.5 6t-98.5 2h-174l-179 -639h162q36 0 66 7t54.5 17.5t43.5 24t33 25.5q15 13 31.5 34t33 47
t31.5 54.5t27 57.5h16l-160 -574h-12q3 22 4 51t-0.5 59t-6.5 58t-15 49q-7 14 -18.5 26.5t-29.5 22.5t-44 15.5t-62 5.5h-160l-141 -512q-11 -34 -17 -62t-4 -47q1 -26 12 -41.5t36.5 -23.5t66 -10.5t100.5 -2.5q51 0 98 2t87.5 8t73 17t55.5 29q35 28 74.5 70.5t76.5 88
t68.5 88.5t52.5 74h17l-134 -397h-1194z" />
    <glyph glyph-name="Aacute" unicode="&#xc1;" horiz-adv-x="1354" 
d="M0 0zM-221 10q21 2 58 12t71 25q46 23 94 69.5t96 106.5q68 82 145 177t158.5 197.5t166.5 209.5t167.5 213t161.5 207.5t150 193.5h49q1 -4 1.5 -41.5t1.5 -99.5t2 -143t2 -171.5t2.5 -185.5t2 -185t1.5 -170t1.5 -140.5t1 -96t0.5 -36.5q1 -22 2 -40t5.5 -32t13.5 -25
t24 -18q23 -13 56.5 -19t62.5 -8l-4 -10h-654l5 10q24 1 49.5 4t49 7t43.5 9t32 11q37 15 50 45t11 59l-2 383h-473q-31 -38 -64.5 -81.5t-63.5 -83.5t-53.5 -72t-35.5 -47q-15 -20 -29 -40.5t-25.5 -39.5t-18.5 -35.5t-7 -28.5q0 -24 23.5 -40.5t56.5 -27t68.5 -16
t60.5 -6.5l-2 -10h-518zM856 559l-2 561q-12 -14 -40 -48.5t-65.5 -81.5t-82 -103t-90 -113.5t-89.5 -113t-81 -101.5h450zM899 1487q31 37 66 81t68 86.5t61 78.5t45 59q40 52 79 78t87 26q38 0 60 -22.5t22 -51.5q0 -47 -30.5 -79.5t-88.5 -67.5q-28 -17 -72 -40.5
t-94 -50t-101.5 -54.5t-93.5 -54z" />
    <glyph glyph-name="Edieresis" unicode="&#xcb;" horiz-adv-x="1292" 
d="M0 0zM721 1560q-27 0 -47.5 9.5t-35 25.5t-21.5 37t-7 43q0 27 10 52t28.5 44.5t45 31t59.5 11.5q22 0 41.5 -9.5t33.5 -25.5t22 -35.5t8 -39.5q0 -28 -9.5 -54t-27.5 -46t-43.5 -32t-56.5 -12zM1118 1560q-26 0 -46.5 9.5t-34.5 25.5t-21 37t-7 43q0 27 10 52t29 44.5
t45.5 31t59.5 11.5q23 0 41.5 -9.5t31.5 -25.5t20 -35.5t7 -39.5q0 -28 -9.5 -54t-26.5 -46t-42.5 -32t-56.5 -12zM-104 12q11 0 32.5 1.5t45 4t46 6.5t35.5 9q38 14 58.5 41.5t29.5 62.5l310 1112q4 16 6 32t0 30t-10.5 26t-26.5 21q-12 4 -31.5 9t-40 9t-40.5 6.5t-34 3.5
l5 13h1097l-94 -338h-16q-6 56 -20 109.5t-35 96.5t-49 70.5t-62 32.5q-32 4 -81.5 6t-98.5 2h-174l-179 -639h162q36 0 66 7t54.5 17.5t43.5 24t33 25.5q15 13 31.5 34t33 47t31.5 54.5t27 57.5h16l-160 -574h-12q3 22 4 51t-0.5 59t-6.5 58t-15 49q-7 14 -18.5 26.5
t-29.5 22.5t-44 15.5t-62 5.5h-160l-141 -512q-11 -34 -17 -62t-4 -47q1 -26 12 -41.5t36.5 -23.5t66 -10.5t100.5 -2.5q51 0 98 2t87.5 8t73 17t55.5 29q35 28 74.5 70.5t76.5 88t68.5 88.5t52.5 74h17l-134 -397h-1194z" />
    <glyph glyph-name="Egrave" unicode="&#xc8;" horiz-adv-x="1292" 
d="M0 0zM-104 12q11 0 32.5 1.5t45 4t46 6.5t35.5 9q38 14 58.5 41.5t29.5 62.5l310 1112q4 16 6 32t0 30t-10.5 26t-26.5 21q-12 4 -31.5 9t-40 9t-40.5 6.5t-34 3.5l5 13h1097l-94 -338h-16q-6 56 -20 109.5t-35 96.5t-49 70.5t-62 32.5q-32 4 -81.5 6t-98.5 2h-174
l-179 -639h162q36 0 66 7t54.5 17.5t43.5 24t33 25.5q15 13 31.5 34t33 47t31.5 54.5t27 57.5h16l-160 -574h-12q3 22 4 51t-0.5 59t-6.5 58t-15 49q-7 14 -18.5 26.5t-29.5 22.5t-44 15.5t-62 5.5h-160l-141 -512q-11 -34 -17 -62t-4 -47q1 -26 12 -41.5t36.5 -23.5
t66 -10.5t100.5 -2.5q51 0 98 2t87.5 8t73 17t55.5 29q35 28 74.5 70.5t76.5 88t68.5 88.5t52.5 74h17l-134 -397h-1194zM1088 1472q-36 28 -71.5 56t-68.5 54.5t-62 49t-52 39.5q-44 31 -69.5 64t-25.5 71q0 19 7 36t19.5 29.5t29.5 19.5t37 7q25 0 44.5 -7.5t35.5 -23.5
t29.5 -40t27.5 -58l129 -287l-10 -10v0z" />
    <glyph glyph-name="Iacute" unicode="&#xcd;" horiz-adv-x="793" 
d="M0 0zM-88 12q14 1 35 3t43 4.5t42 5.5t31 6q41 14 60 41t29 59l313 1124q8 31 4 58.5t-39 44.5q-11 4 -29 9t-38 9t-39 6.5t-31 3.5l4 13h676l-4 -13q-15 -1 -35 -3t-42 -5t-42 -6.5t-35 -7.5q-40 -12 -60.5 -41t-29.5 -61l-313 -1127q-10 -32 -4 -57.5t41 -40.5
q7 -3 24.5 -7t38 -8t42 -6.5t36.5 -3.5l-2 -12h-678zM487 1487q31 37 66 81t68 86.5t61 78.5t45 59q40 52 79 78t87 26q38 0 60 -22.5t22 -51.5q0 -47 -30.5 -79.5t-88.5 -67.5q-28 -17 -72 -40.5t-94 -50t-101.5 -54.5t-93.5 -54z" />
    <glyph glyph-name="Icircumflex" unicode="&#xce;" horiz-adv-x="793" 
d="M0 0zM-88 12q14 1 35 3t43 4.5t42 5.5t31 6q41 14 60 41t29 59l313 1124q8 31 4 58.5t-39 44.5q-11 4 -29 9t-38 9t-39 6.5t-31 3.5l4 13h676l-4 -13q-15 -1 -35 -3t-42 -5t-42 -6.5t-35 -7.5q-40 -12 -60.5 -41t-29.5 -61l-313 -1127q-10 -32 -4 -57.5t41 -40.5
q7 -3 24.5 -7t38 -8t42 -6.5t36.5 -3.5l-2 -12h-678zM328 1491q40 44 83 93t84 97t78 91t64 75q13 16 23.5 25.5t22.5 14t28.5 6t40.5 1.5q21 0 34 -1.5t21.5 -6t14 -13t10.5 -22.5q11 -29 27.5 -74.5t34.5 -96.5l36 -102t33 -91l-12 -7l-236 248l-375 -248z" />
    <glyph glyph-name="Idieresis" unicode="&#xcf;" horiz-adv-x="793" 
d="M0 0zM-88 12q14 1 35 3t43 4.5t42 5.5t31 6q41 14 60 41t29 59l313 1124q8 31 4 58.5t-39 44.5q-11 4 -29 9t-38 9t-39 6.5t-31 3.5l4 13h676l-4 -13q-15 -1 -35 -3t-42 -5t-42 -6.5t-35 -7.5q-40 -12 -60.5 -41t-29.5 -61l-313 -1127q-10 -32 -4 -57.5t41 -40.5
q7 -3 24.5 -7t38 -8t42 -6.5t36.5 -3.5l-2 -12h-678zM479 1560q-27 0 -47.5 9.5t-35 25.5t-21.5 37t-7 43q0 27 10 52t28.5 44.5t45 31t59.5 11.5q22 0 41.5 -9.5t33.5 -25.5t22 -35.5t8 -39.5q0 -28 -9.5 -54t-27.5 -46t-43.5 -32t-56.5 -12zM876 1560q-26 0 -46.5 9.5
t-34.5 25.5t-21 37t-7 43q0 27 10 52t29 44.5t45.5 31t59.5 11.5q23 0 41.5 -9.5t31.5 -25.5t20 -35.5t7 -39.5q0 -28 -9.5 -54t-26.5 -46t-42.5 -32t-56.5 -12z" />
    <glyph glyph-name="Igrave" unicode="&#xcc;" horiz-adv-x="793" 
d="M0 0zM-88 12q14 1 35 3t43 4.5t42 5.5t31 6q41 14 60 41t29 59l313 1124q8 31 4 58.5t-39 44.5q-11 4 -29 9t-38 9t-39 6.5t-31 3.5l4 13h676l-4 -13q-15 -1 -35 -3t-42 -5t-42 -6.5t-35 -7.5q-40 -12 -60.5 -41t-29.5 -61l-313 -1127q-10 -32 -4 -57.5t41 -40.5
q7 -3 24.5 -7t38 -8t42 -6.5t36.5 -3.5l-2 -12h-678zM794 1472q-36 28 -71.5 56t-68.5 54.5t-62 49t-52 39.5q-44 31 -69.5 64t-25.5 71q0 19 7 36t19.5 29.5t29.5 19.5t37 7q25 0 44.5 -7.5t35.5 -23.5t29.5 -40t27.5 -58l129 -287l-10 -10v0z" />
    <glyph glyph-name="Oacute" unicode="&#xd3;" horiz-adv-x="1458" 
d="M88 0zM803 1487q31 37 66 81t68 86.5t61 78.5t45 59q40 52 79 78t87 26q38 0 60 -22.5t22 -51.5q0 -47 -30.5 -79.5t-88.5 -67.5q-28 -17 -72 -40.5t-94 -50t-101.5 -54.5t-93.5 -54zM618 -33q-105 0 -198.5 36t-167.5 106q-77 72 -120.5 178.5t-43.5 240.5
q0 95 19.5 186.5t56 176t88.5 160t117 139.5q56 54 120.5 98.5t133.5 76t141.5 48.5t144.5 17q104 0 194 -31.5t171 -100.5q37 -32 69 -76.5t55.5 -98t36.5 -115.5t13 -129q0 -180 -64 -342.5t-186 -296.5q-52 -59 -117 -108.5t-139.5 -86.5t-156.5 -57.5t-167 -20.5z
M618 -12q61 0 116 22.5t104.5 63.5t93.5 99.5t82 129.5q36 69 66 151.5t52.5 171t35 179.5t14.5 176q1 91 -11 169.5t-42.5 136t-81 90t-125.5 32.5q-102 0 -182.5 -56t-149.5 -153q-50 -71 -92.5 -163.5t-74 -196t-50.5 -212.5t-21 -212q-2 -94 12 -172.5t46 -135.5
t83 -88.5t125 -31.5z" />
    <glyph glyph-name="Ocircumflex" unicode="&#xd4;" horiz-adv-x="1458" 
d="M88 0zM618 1491q40 44 83 93t84 97t78 91t64 75q13 16 23.5 25.5t22.5 14t28.5 6t40.5 1.5q21 0 34 -1.5t21.5 -6t14 -13t10.5 -22.5q11 -29 27.5 -74.5t34.5 -96.5l36 -102t33 -91l-12 -7l-236 248l-375 -248zM618 -33q-105 0 -198.5 36t-167.5 106q-77 72 -120.5 178.5
t-43.5 240.5q0 95 19.5 186.5t56 176t88.5 160t117 139.5q56 54 120.5 98.5t133.5 76t141.5 48.5t144.5 17q104 0 194 -31.5t171 -100.5q37 -32 69 -76.5t55.5 -98t36.5 -115.5t13 -129q0 -180 -64 -342.5t-186 -296.5q-52 -59 -117 -108.5t-139.5 -86.5t-156.5 -57.5
t-167 -20.5zM618 -12q61 0 116 22.5t104.5 63.5t93.5 99.5t82 129.5q36 69 66 151.5t52.5 171t35 179.5t14.5 176q1 91 -11 169.5t-42.5 136t-81 90t-125.5 32.5q-102 0 -182.5 -56t-149.5 -153q-50 -71 -92.5 -163.5t-74 -196t-50.5 -212.5t-21 -212q-2 -94 12 -172.5
t46 -135.5t83 -88.5t125 -31.5z" />
    <glyph glyph-name="apple" unicode="&#xf8ff;" horiz-adv-x="1264" 
 />
    <glyph glyph-name="Ograve" unicode="&#xd2;" horiz-adv-x="1458" 
d="M88 0zM618 -33q-105 0 -198.5 36t-167.5 106q-77 72 -120.5 178.5t-43.5 240.5q0 95 19.5 186.5t56 176t88.5 160t117 139.5q56 54 120.5 98.5t133.5 76t141.5 48.5t144.5 17q104 0 194 -31.5t171 -100.5q37 -32 69 -76.5t55.5 -98t36.5 -115.5t13 -129
q0 -180 -64 -342.5t-186 -296.5q-52 -59 -117 -108.5t-139.5 -86.5t-156.5 -57.5t-167 -20.5zM618 -12q61 0 116 22.5t104.5 63.5t93.5 99.5t82 129.5q36 69 66 151.5t52.5 171t35 179.5t14.5 176q1 91 -11 169.5t-42.5 136t-81 90t-125.5 32.5q-102 0 -182.5 -56
t-149.5 -153q-50 -71 -92.5 -163.5t-74 -196t-50.5 -212.5t-21 -212q-2 -94 12 -172.5t46 -135.5t83 -88.5t125 -31.5zM1084 1472q-36 28 -71.5 56t-68.5 54.5t-62 49t-52 39.5q-44 31 -69.5 64t-25.5 71q0 19 7 36t19.5 29.5t29.5 19.5t37 7q25 0 44.5 -7.5t35.5 -23.5
t29.5 -40t27.5 -58l129 -287l-10 -10v0z" />
    <glyph glyph-name="Uacute" unicode="&#xda;" horiz-adv-x="1556" 
d="M197 0zM907 1487q31 37 66 81t68 86.5t61 78.5t45 59q40 52 79 78t87 26q38 0 60 -22.5t22 -51.5q0 -47 -30.5 -79.5t-88.5 -67.5q-28 -17 -72 -40.5t-94 -50t-101.5 -54.5t-93.5 -54zM678 -33q-116 0 -205.5 22.5t-151 65t-93 103.5t-31.5 139q0 42 6.5 88t21.5 98
l211 768q10 32 5.5 60t-38.5 45q-11 4 -29 9t-38 9.5t-39 7.5t-31 4l4 13h680l-4 -13q-15 -1 -36 -3t-43 -5t-43 -6.5t-36 -7.5q-40 -12 -60 -42t-30 -62l-204 -738q-17 -65 -27 -123.5t-10 -107.5q0 -54 18.5 -100t55 -79t91 -52t126.5 -19q192 0 315.5 109.5t185.5 330.5
l164 580q8 24 18 63.5t14.5 81t0 77t-26.5 52.5q-13 11 -38.5 20t-54.5 15.5t-56.5 10.5t-44.5 5l4 13h561l-4 -13q-14 -1 -40.5 -3.5t-56 -7.5t-57.5 -12t-45 -17q-25 -15 -45 -41t-36.5 -62t-31 -79.5t-28.5 -92.5l-170 -600q-36 -125 -86 -219t-121.5 -157.5
t-167.5 -95.5t-223 -32z" />
    <glyph glyph-name="Ucircumflex" unicode="&#xdb;" horiz-adv-x="1556" 
d="M197 0zM743 1491q40 44 83 93t84 97t78 91t64 75q13 16 23.5 25.5t22.5 14t28.5 6t40.5 1.5q21 0 34 -1.5t21.5 -6t14 -13t10.5 -22.5q11 -29 27.5 -74.5t34.5 -96.5l36 -102t33 -91l-12 -7l-236 248l-375 -248zM678 -33q-116 0 -205.5 22.5t-151 65t-93 103.5t-31.5 139
q0 42 6.5 88t21.5 98l211 768q10 32 5.5 60t-38.5 45q-11 4 -29 9t-38 9.5t-39 7.5t-31 4l4 13h680l-4 -13q-15 -1 -36 -3t-43 -5t-43 -6.5t-36 -7.5q-40 -12 -60 -42t-30 -62l-204 -738q-17 -65 -27 -123.5t-10 -107.5q0 -54 18.5 -100t55 -79t91 -52t126.5 -19
q192 0 315.5 109.5t185.5 330.5l164 580q8 24 18 63.5t14.5 81t0 77t-26.5 52.5q-13 11 -38.5 20t-54.5 15.5t-56.5 10.5t-44.5 5l4 13h561l-4 -13q-14 -1 -40.5 -3.5t-56 -7.5t-57.5 -12t-45 -17q-25 -15 -45 -41t-36.5 -62t-31 -79.5t-28.5 -92.5l-170 -600
q-36 -125 -86 -219t-121.5 -157.5t-167.5 -95.5t-223 -32z" />
    <glyph glyph-name="Ugrave" unicode="&#xd9;" horiz-adv-x="1556" 
d="M197 0zM678 -33q-116 0 -205.5 22.5t-151 65t-93 103.5t-31.5 139q0 42 6.5 88t21.5 98l211 768q10 32 5.5 60t-38.5 45q-11 4 -29 9t-38 9.5t-39 7.5t-31 4l4 13h680l-4 -13q-15 -1 -36 -3t-43 -5t-43 -6.5t-36 -7.5q-40 -12 -60 -42t-30 -62l-204 -738
q-17 -65 -27 -123.5t-10 -107.5q0 -54 18.5 -100t55 -79t91 -52t126.5 -19q192 0 315.5 109.5t185.5 330.5l164 580q8 24 18 63.5t14.5 81t0 77t-26.5 52.5q-13 11 -38.5 20t-54.5 15.5t-56.5 10.5t-44.5 5l4 13h561l-4 -13q-14 -1 -40.5 -3.5t-56 -7.5t-57.5 -12t-45 -17
q-25 -15 -45 -41t-36.5 -62t-31 -79.5t-28.5 -92.5l-170 -600q-36 -125 -86 -219t-121.5 -157.5t-167.5 -95.5t-223 -32zM1217 1472q-36 28 -71.5 56t-68.5 54.5t-62 49t-52 39.5q-44 31 -69.5 64t-25.5 71q0 19 7 36t19.5 29.5t29.5 19.5t37 7q25 0 44.5 -7.5t35.5 -23.5
t29.5 -40t27.5 -58l129 -287l-10 -10v0z" />
    <glyph glyph-name="dotlessi" unicode="&#x131;" horiz-adv-x="676" 
d="M334 -23q-42 0 -81 9.5t-69 30t-48.5 53.5t-18.5 80q0 18 2 35t6.5 35t11.5 39t17 48l143 363q28 74 41.5 122.5t13.5 77.5q0 50 -45 50q-69 0 -129.5 -74t-111.5 -205l-21 6q28 67 57 124.5t64.5 98.5t78.5 64.5t99 23.5q43 0 81 -12t66.5 -35.5t45 -58.5t16.5 -80
q0 -17 -5.5 -41t-14 -50.5t-18 -53.5t-17.5 -49l-121 -312q-31 -78 -46.5 -127t-15.5 -73q0 -26 15.5 -38t40.5 -12q69 0 131.5 73t113.5 204l19 -6q-27 -69 -56.5 -126t-65 -98t-79.5 -63.5t-100 -22.5z" />
    <glyph glyph-name="R.salt" horiz-adv-x="1456" 
 />
    <glyph glyph-name="currency" unicode="&#xa4;" horiz-adv-x="1188" 
d="M602 -29q-112 0 -196 38.5t-138 107.5t-76 164.5t-10 210.5h-139l4 26h139q5 42 16 89t23 87h-127l4 27h134q43 115 115.5 215t166.5 174.5t205.5 117t232.5 42.5q78 0 137.5 -19t99.5 -50.5t60.5 -72.5t20.5 -86q0 -39 -11.5 -72.5t-32 -58.5t-49.5 -39t-63 -14
q-45 0 -68.5 24.5t-23.5 59.5q0 33 15.5 55t35.5 41.5t39 39.5t27 50q3 22 -9 44t-37 39.5t-63 28.5t-86 11q-71 0 -136.5 -40t-123.5 -110.5t-106.5 -168t-85.5 -211.5h471l-6 -27h-474q-6 -20 -12 -43t-11 -46t-10 -45.5t-8 -41.5h398l-2 -26h-400q-13 -90 -10.5 -171.5
t28 -144t78 -99t138.5 -36.5q124 0 227 70t195 190l14 -8q-44 -65 -97 -123t-116.5 -102.5t-137.5 -70.5t-159 -26z" />
    <glyph glyph-name="ampersand" unicode="&#x26;" horiz-adv-x="1698" 
d="M762 -35q-128 0 -239 34.5t-193 95.5t-128.5 145t-45.5 184q0 63 19.5 110.5t51.5 84t72 63.5t82 49q-29 21 -55.5 46.5t-46.5 57t-31.5 69.5t-11.5 83q0 53 22.5 103.5t64.5 90t101.5 63.5t132.5 24q68 0 122.5 -20t95 -55.5t67.5 -83t41 -101.5l-11 -7q-34 62 -98 94.5
t-166 32.5q-63 0 -109.5 -18.5t-77.5 -50t-46 -74.5t-15 -92q-2 -45 11 -83.5t35 -66.5q20 9 45.5 19.5t53.5 20t56.5 16t54.5 6.5q69 0 106.5 -27.5t37.5 -70.5q0 -36 -26 -62.5t-77 -26.5q-42 0 -79 9.5t-68.5 23.5t-58 31.5t-48.5 32.5q-29 -17 -53 -55t-26 -97
q-3 -81 35.5 -153.5t116 -128t192.5 -89t264 -34.5q145 -2 253.5 35.5t181 100t109 144t37.5 168.5q0 72 -24 126t-66 90t-98.5 54.5t-120.5 18.5q-51 0 -93.5 -14.5t-74 -41t-49 -63.5t-18.5 -82q0 -44 14.5 -77.5t39 -56t56 -34.5t66.5 -12q77 0 112 31q-33 5 -61 15
t-48.5 24.5t-32 35t-11.5 46.5q0 32 11 53t27.5 33t34.5 17t33 5q25 0 49 -7t43.5 -22t31.5 -38.5t12 -57.5q0 -32 -11.5 -60.5t-34.5 -51t-56.5 -35.5t-78.5 -13q-50 0 -97 16.5t-83 47.5t-58 75t-22 99q0 88 32.5 148t83 96t112 51.5t120.5 15.5q20 0 50 -1.5t61.5 -3.5
t60 -3.5t45.5 -1.5q45 0 81.5 14.5t61.5 38.5t38.5 56t13.5 67q0 33 -11 62t-31.5 51t-50 34.5t-65.5 12.5q-21 0 -37.5 -5.5t-27 -13.5t-16 -16.5t-5.5 -15.5q16 -6 35 -14t35 -19.5t26.5 -27.5t10.5 -38q0 -26 -8 -44.5t-22 -30.5t-32.5 -17.5t-38.5 -5.5q-23 0 -45.5 7
t-40.5 22t-28.5 39t-9.5 59q0 28 12.5 54t37.5 46t61 31.5t83 11.5q51 0 90.5 -16t65.5 -43.5t39.5 -65.5t13.5 -81q0 -151 -89 -222t-259 -71q43 -17 80 -44.5t64.5 -66t43 -87t15.5 -107.5q-1 -65 -19.5 -136t-58.5 -139.5t-102.5 -130.5t-151 -109t-205 -74.5
t-262.5 -27.5z" />
    <glyph glyph-name="fi" horiz-adv-x="1165" 
 />
    <glyph glyph-name="fl" horiz-adv-x="1190" 
 />
    <glyph glyph-name="J.salt" horiz-adv-x="1102" 
 />
    <glyph glyph-name="Q.salt" horiz-adv-x="1458" 
 />
    <glyph glyph-name="Y.salt" horiz-adv-x="1268" 
 />
    <glyph glyph-name="ampersand.salt" horiz-adv-x="1436" 
 />
    <glyph glyph-name="copyrightsound" unicode="&#x2117;" horiz-adv-x="1931" 
 />
    <glyph glyph-name="exclam" unicode="!" horiz-adv-x="690" 
d="M248 -18q-31 0 -57 11t-45.5 29.5t-30.5 44.5t-11 56t11 56t30.5 45.5t45.5 30.5t57 11q30 0 56 -11t45.5 -30.5t30.5 -45.5t11 -56t-11 -56t-30.5 -44.5t-45.5 -29.5t-56 -11zM317 440q15 86 26 173.5t19 171t14 160.5t11.5 141t10.5 112.5t12 75.5q9 33 24.5 61.5
t37 49.5t49 33t59.5 12q60 0 90.5 -37t27.5 -99q-1 -31 -18.5 -80t-46.5 -112.5t-66 -139.5t-77 -161t-80.5 -176.5t-75.5 -186.5z" />
    <glyph glyph-name="DEL" horiz-adv-x="0" 
 />
    <glyph glyph-name="quotedbl" unicode="&#x22;" horiz-adv-x="807" 
d="M260 963q1 130 -7.5 227.5t-8.5 157.5q2 81 36 121t93 40q60 0 89 -34.5t27 -90.5q-1 -27 -22 -69t-52.5 -96t-69 -118.5t-71.5 -137.5h-14zM666 963q1 65 -1.5 122t-6 105.5t-6.5 88t-1 69.5q2 81 35 121t90 40q62 0 91.5 -34.5t27.5 -90.5q-1 -27 -21.5 -69t-52 -96
t-69.5 -118.5t-72 -137.5h-14z" />
    <glyph glyph-name=".ttfautohint" horiz-adv-x="807" 
d="M0 0z" />
    </font>
</defs>
</svg>
