<?xml version="1.0" encoding="utf-8"?>
<!-- Generator: Adobe Illustrator 24.1.0, SVG Export Plug-In . SVG Version: 6.00 Build 0)  -->
<svg version="1.1" id="Layer_1" xmlns="http://www.w3.org/2000/svg" xmlns:xlink="http://www.w3.org/1999/xlink" x="0px" y="0px"
	 viewBox="0 0 638 350" style="enable-background:new 0 0 638 350;" xml:space="preserve">
<style type="text/css">
	.st0{display:none;opacity:0.1907;}
	.st1{display:inline;}
	.st2{display:none;}
	.st3{display:inline;opacity:0.19;enable-background:new    ;}
	.st4{opacity:0.19;}
	.st5{display:none;opacity:0.18;}
</style>
<desc>Created with Sketch.</desc>
<g id="Clients" class="st0">
	<g id="Clients---Desktop-Copy" transform="translate(-402.000000, -205.000000)" class="st1">
		<g id="Group" transform="translate(398.000000, 183.000000)">
			<g>
				<path id="nousfont" d="M237.8,118c0,1.5-0.8,4.1-2.5,7.9l-7.7,17.4c-0.9,2-1.3,3.4-1.3,4.1c0,1.3,0.7,2,2.2,2
					c1.8,0,4.4-1.5,7.8-4.4c0.3-0.2,0.6-0.3,0.8-0.3c0.4,0,0.6,0.2,0.6,0.5c0,0.8-1,1.9-3.1,3.3c-2.9,2-5.9,2.9-9.1,2.9
					c-2,0-3.6-0.4-4.8-1.3c-1.3-0.9-1.9-1.9-1.9-3.3c0-1.1,0.6-3,1.8-5.7l7.6-17c1.8-4.1,2.8-6.9,2.8-8.4c0-2.2-1.1-3.2-3.3-3.2
					c-2.9,0-6.3,2.1-10.3,6.3c-3,3.2-5.7,7.6-8.2,13.3l-7.8,18.1c-0.3,0.9-0.7,1.4-1.2,1.4c-0.1,0-0.8-0.1-2.1-0.2
					c-0.2-0.1-0.6-0.1-1.1-0.1s-1.4,0.1-2.6,0.2c-0.2,0.1-0.4,0.1-0.7,0.1c-0.4,0-0.7-0.2-0.7-0.5c0-0.1,0.1-0.3,0.3-0.6l0.7-1.4
					l14.5-35c0.2-0.3,0.3-0.6,0.5-0.9c-0.1-0.4-0.9-0.7-2.4-0.8c-1.9-0.1-2.9-0.4-2.9-1c0-0.4,0.3-0.7,1-0.7c0.4,0,1.1,0.1,2.1,0.2
					s1.7,0.2,2.2,0.2c3.4,0,5.7-0.3,6.7-0.8c0.4-0.2,0.7-0.3,0.9-0.3c0.4,0,0.6,0.2,0.6,0.6c0,0.2,0,0.3-0.1,0.5l-3.5,8.9
					c0.5-0.6,1.2-1.4,2.2-2.4c4.7-4.9,9.2-7.4,13.6-7.4c2.5,0,4.6,0.7,6.2,2.1C237,113.9,237.8,115.7,237.8,118z M289.3,125.7
					c0,7.4-3.4,14.1-10.2,20c-5.3,4.7-10.9,7-16.6,7c-3.9,0-7.2-1.4-9.7-4.1s-3.8-6.2-3.8-10.5c0-3.7,1-7.4,3.1-11.3
					c2.1-3.9,4.9-7.2,8.4-9.9c5.4-4.2,10.7-6.4,15.8-6.4c3.9,0,7,1.4,9.4,4.2S289.3,121.2,289.3,125.7z M282,119.6
					c0-4.8-2.2-7.2-6.5-7.2c-5.3,0-9.8,3.8-13.7,11.3c-3.7,7.2-5.5,14-5.5,20.3c0,4.8,2.1,7.1,6.4,7.1c5.3,0,9.8-3.4,13.3-10.3
					C280,133.1,282,126,282,119.6z M345.4,111.6l-0.2,0.5l-0.7,1.5l-10.6,24.8c-2.2,5-3.2,8.1-3.2,9.3c0,1.7,0.8,2.6,2.5,2.6
					c2.3,0,4.9-1.6,7.8-4.9c0.7-0.8,1.2-1.2,1.4-1.2c0.4,0,0.6,0.2,0.6,0.6c0,1.5-1.9,3.4-5.6,5.7c-2.2,1.3-4.5,2-6.8,2
					c-1.8,0-3.5-0.5-4.8-1.5c-1.4-1-2.1-2.2-2.1-3.5c0-0.8,0.3-1.9,0.9-3.5l1.1-3.2c-4.2,4.9-7.5,8-9.6,9.5c-2.2,1.5-4.9,2.2-8,2.2
					c-2.5,0-4.5-0.5-6.1-1.5s-2.4-2.3-2.4-3.8c0-1.7,0.7-4.1,2.1-7.2l9.8-21.9c0.3-0.6,0.8-1.7,1.6-3.3c0.2-0.3,0.3-0.5,0.3-0.7
					c0-0.5-0.8-0.8-2.3-0.8c-2,0-3-0.3-3-1c0-0.4,0.2-0.7,0.7-0.7s1.2,0.1,2.2,0.2s1.7,0.2,2.2,0.2c3.3,0,5.7-0.3,7.3-0.9
					c0.4-0.1,0.6-0.2,0.8-0.2c0.3,0,0.5,0.2,0.5,0.6c0,0.5-0.6,2.1-1.9,4.8s-2.4,5.5-3.5,8.3c-0.3,0.7-1.2,3-2.9,6.9l-3.8,8.7
					c-1.6,3.6-2.4,6.2-2.4,7.7c0,1.8,1.2,2.8,3.5,2.8c2.5,0,5.7-2,9.6-6.1c4.4-4.6,8.1-10.3,11-17.3l6.1-14.4c0.3-0.8,0.7-1.1,1-1.1
					c-0.1,0,0.6,0.1,2,0.2h0.8c1.7,0,2.8-0.1,3.3-0.3c0.3-0.1,0.5-0.2,0.7-0.2C345.2,111.2,345.4,111.3,345.4,111.6z M387.4,117.7
					c0,1.1-0.3,2-1,2.8s-1.5,1.1-2.5,1.1c-1.9,0-2.8-0.9-2.8-2.8c0-1.5,0.6-2.3,1.9-2.3c0.2,0,0.5,0.1,0.9,0.3s0.7,0.3,1,0.3
					c0.4,0,0.6-0.2,0.6-0.7c0-1.1-0.7-2.1-2.2-3.1s-2.9-1.5-4.5-1.5c-2,0-3.7,0.6-5.1,1.9s-2.1,2.9-2.1,4.7c0,1.6,1.5,6,4.5,13.2
					c0.7,1.7,1,3.6,1,5.8c0,4.3-1.5,7.9-4.4,10.8c-2.9,2.9-6.6,4.4-10.9,4.4c-3.8,0-7-1.1-9.5-3.2c-2.6-2.1-3.8-4.7-3.8-7.8
					c0-1.8,0.5-3.2,1.6-4.4c1-1.1,2.4-1.7,3.9-1.7c1.2,0,2.2,0.4,3.1,1.2s1.3,1.8,1.3,2.9c0,1.9-0.9,2.8-2.8,2.8c-2,0-2.9-0.7-2.9-2
					c0-0.4,0.1-0.9,0.2-1.3c0.2-0.4,0.2-0.7,0.2-0.8c0-0.6-0.3-0.9-0.8-0.9c-0.6,0-1.1,0.4-1.6,1.3c-0.5,0.9-0.7,1.8-0.7,2.8
					c0,2.5,1,4.6,3.1,6.5c2.1,1.8,4.5,2.8,7.3,2.8c2.6,0,4.8-0.8,6.5-2.4c1.7-1.6,2.6-3.6,2.6-6c0-1.7-0.7-4.5-2-8.4
					c-1.3-3.7-1.9-6.7-1.9-9.1c0-4.1,1.3-7.6,3.8-10.4s5.6-4.2,9.2-4.2c2.4,0,4.5,0.7,6.3,2.2C386.5,114,387.4,115.7,387.4,117.7z
					 M463.8,90.2c0,2.5-1.2,3.7-3.5,3.7c-0.8,0-1.5-0.3-2.1-0.8s-0.9-1.2-0.9-1.9c0-0.5,0.4-1.2,1.2-2.2c0.3-0.5,0.4-0.9,0.4-1.2
					c0-1.6-1.3-2.4-4-2.4c-2.8,0-5,1.2-6.7,3.6s-3.9,7.2-6.5,14.5l-2.6,7.2h9.8c0.3-0.1,0.7-0.1,1.2-0.1c0.7,0,1,0.3,1,1
					s-0.4,1-1.3,1l-11.1-0.1l-8.3,22.6c-6,16.3-11.7,27.6-17.4,34.1c-2.3,2.6-4.4,4.4-6.3,5.5c-1.9,1-4.2,1.6-6.9,1.6
					c-5.4,0-8.1-1.8-8.1-5.4c0-2.6,1.4-3.9,4.2-3.9c1.9,0,2.9,0.8,2.9,2.4c0,0.5-0.3,1.2-1,2c-0.4,0.4-0.6,0.9-0.6,1.2
					c0,1.4,0.9,2.1,2.8,2.1c3.3,0,6.1-1.6,8.5-4.8c1.8-2.5,4.2-8,7.2-16.4l14.3-40.8h-2.2l-4.8,0.1c-0.5,0.1-1.1,0.1-1.7,0.1
					c-0.8,0-1.1-0.3-1.1-0.8c0-1,0.8-1.5,2.4-1.7c0.1,0,1.3,0,3.4,0.1l3.4,0.1h1.3c3.8-9.1,6.9-15.2,9.3-18.5c4-5.4,9-8.1,15.1-8.1
					c2.5,0,4.6,0.6,6.1,1.7S463.8,88.4,463.8,90.2z M489.9,125.7c0,7.4-3.4,14.1-10.2,20c-5.3,4.7-10.9,7-16.6,7
					c-3.9,0-7.2-1.4-9.7-4.1c-2.5-2.7-3.8-6.2-3.8-10.5c0-3.7,1-7.4,3.1-11.3c2.1-3.9,4.9-7.2,8.4-9.9c5.4-4.2,10.7-6.4,15.8-6.4
					c3.9,0,7,1.4,9.4,4.2S489.9,121.2,489.9,125.7z M482.6,119.6c0-4.8-2.2-7.2-6.5-7.2c-5.3,0-9.8,3.8-13.7,11.3
					c-3.7,7.2-5.5,14-5.5,20.3c0,4.8,2.1,7.1,6.4,7.1c5.3,0,9.8-3.4,13.3-10.3C480.6,133.1,482.6,126,482.6,119.6z M542.7,118
					c0,1.5-0.8,4.1-2.5,7.9l-7.7,17.4c-0.9,2-1.3,3.4-1.3,4.1c0,1.3,0.7,2,2.2,2c1.8,0,4.4-1.5,7.8-4.4c0.3-0.2,0.6-0.3,0.8-0.3
					c0.4,0,0.6,0.2,0.6,0.5c0,0.8-1,1.9-3.1,3.3c-2.9,2-5.9,2.9-9.1,2.9c-2,0-3.6-0.4-4.8-1.3c-1.3-0.9-1.9-1.9-1.9-3.3
					c0-1.1,0.6-3,1.8-5.7l7.6-17c1.8-4.1,2.8-6.9,2.8-8.4c0-2.2-1.1-3.2-3.3-3.2c-2.9,0-6.3,2.1-10.3,6.3c-3,3.2-5.7,7.6-8.2,13.3
					l-7.8,18.1c-0.3,0.9-0.7,1.4-1.2,1.4c-0.1,0-0.8-0.1-2.1-0.2c-0.2-0.1-0.6-0.1-1.1-0.1s-1.4,0.1-2.6,0.2
					c-0.2,0.1-0.4,0.1-0.7,0.1c-0.4,0-0.7-0.2-0.7-0.5c0-0.1,0.1-0.3,0.3-0.6l0.7-1.4l14.5-35c0.2-0.3,0.3-0.6,0.5-0.9
					c-0.1-0.4-0.9-0.7-2.4-0.8c-1.9-0.1-2.9-0.4-2.9-1c0-0.4,0.3-0.7,1-0.7c0.4,0,1.1,0.1,2.1,0.2c1,0.1,1.7,0.2,2.2,0.2
					c3.4,0,5.7-0.3,6.7-0.8c0.4-0.2,0.7-0.3,0.9-0.3c0.4,0,0.6,0.2,0.6,0.6c0,0.2,0,0.3-0.1,0.5l-3.5,8.9c0.5-0.6,1.2-1.4,2.2-2.4
					c4.7-4.9,9.2-7.4,13.6-7.4c2.5,0,4.6,0.7,6.2,2.1C541.9,113.9,542.7,115.7,542.7,118z M584.3,111.5c0,0.9-1.3,1.4-4,1.4
					l-3.6,0.1H575l-12.8,28.8c-1.4,3.1-2.1,5.1-2.1,5.9c0,1.3,1,2,2.9,2c2.9,0,5.4-1.5,7.6-4.6c0.5-0.6,0.9-0.9,1.1-0.9
					c0.5,0,0.8,0.2,0.8,0.7c0,0.8-1,2.2-3.1,4c-2.4,2.1-5.3,3.1-8.6,3.1c-2.3,0-4.1-0.6-5.6-1.7c-1.4-1.1-2.1-2.6-2.1-4.4
					c0-1.1,0.7-3.3,2.2-6.4l12.4-26.7h-3.9c-1.1,0-1.6-0.2-1.6-0.7c0-0.8,0.4-1.2,1.3-1.2h0.9c0.3,0.1,0.8,0.1,1.5,0.1
					c0.9,0,1.7,0,2.6-0.1l1.6-4.1c0.6-1.4,1-2.1,1.3-2.1s0.8,0.1,1.5,0.2s1.2,0.2,1.6,0.2c0.7,0,1.7-0.3,3-0.9
					c0.3-0.1,0.5-0.2,0.7-0.2c0.3,0,0.5,0.1,0.5,0.4l-3.1,6.8l2.3-0.1l3.6-0.2c0.3,0,0.7,0,1.1-0.1c0.4-0.1,0.7-0.1,0.8-0.1
					C584,110.7,584.3,111,584.3,111.5z"/>
				<path id="Ils" d="M119,84.5c0,0.6-0.4,0.9-1.1,0.9c-0.4,0-0.7,0-0.9-0.1h-1.5c-2.7,0-4.4,0.5-5,1.5c-0.9,1.5-2.3,4.5-4.2,9.2
					l-19.1,48.9c-0.1,0.4-0.3,0.8-0.5,1.3c0,1.1,1.3,1.9,3.8,2.2c0.8,0,1.8,0,2.9,0.1c0.8,0.1,1.2,0.3,1.2,0.7s-0.4,0.7-1.3,0.7
					c-4.6-0.1-11.1-0.1-19.7-0.1c-3,0-4.7,0-5.2-0.1s-0.7-0.3-0.7-0.6c0-0.4,0.9-0.7,2.6-0.7c2.3-0.1,3.9-0.2,4.7-0.5
					c1.2-0.4,2.1-1.1,2.7-2.1c0.6-1.4,1.2-3,2-4.9l18.5-46.6c1.8-4.6,2.8-7.2,2.8-7.6c0-1.1-1-1.6-2.9-1.6h-3.8c-0.7,0-1-0.3-1-0.8
					c0-0.4,0.3-0.7,1-0.7h0.9c0.4,0.1,1.9,0.1,4.6,0.1l14.2-0.1c0.4,0.1,0.7,0.1,1,0.1l3.5-0.1C118.7,83.8,119,84,119,84.5z
					 M143,83.2c0,0.1-0.2,0.6-0.5,1.3c-0.2,0.5-0.5,1.3-1,2.3l-21.3,52c-1.6,3.9-2.4,6.4-2.4,7.5c0,1.7,1.1,2.6,3.4,2.6
					s4.6-1.3,6.8-4c1-1.1,1.6-1.7,1.8-1.7c0.4,0,0.7,0.2,0.7,0.7c0,0.8-1,2.2-3.1,4c-2.4,2.2-5.5,3.2-9.3,3.2
					c-5.2,0-7.8-1.9-7.8-5.8c0-1.3,0.8-3.8,2.4-7.7l21.4-51.9c0.2-0.4,0.3-0.6,0.3-0.7c0-0.6-0.6-0.9-1.8-0.9
					c-2.8,0-4.2-0.3-4.2-0.8c0-0.4,0.3-0.6,0.9-0.6s1.4,0,2.6,0.1c1.2,0.1,2,0.1,2.6,0.1c2.7,0,4.8-0.1,6.1-0.4
					c0.7-0.1,1.2-0.2,1.4-0.2C142.7,82.4,143,82.7,143,83.2z M172.9,116.1c0,1.1-0.3,2-1,2.8s-1.5,1.1-2.5,1.1
					c-1.9,0-2.9-0.9-2.9-2.8c0-1.5,0.6-2.3,1.9-2.3c0.2,0,0.5,0.1,0.9,0.3c0.4,0.2,0.7,0.3,1,0.3c0.4,0,0.6-0.2,0.6-0.7
					c0-1.1-0.7-2.1-2.2-3.1s-2.9-1.5-4.5-1.5c-2,0-3.7,0.6-5.1,1.9s-2.1,2.9-2.1,4.7c0,1.6,1.5,6,4.5,13.2c0.7,1.7,1,3.6,1,5.8
					c0,4.3-1.5,7.9-4.4,10.8c-2.9,2.9-6.6,4.4-10.9,4.4c-3.8,0-7-1.1-9.5-3.2c-2.6-2.1-3.8-4.7-3.8-7.8c0-1.8,0.5-3.2,1.6-4.4
					c1-1.1,2.4-1.7,3.9-1.7c1.2,0,2.2,0.4,3.1,1.2c0.9,0.8,1.3,1.8,1.3,2.9c0,1.9-0.9,2.8-2.8,2.8c-2,0-2.9-0.7-2.9-2
					c0-0.4,0.1-0.9,0.2-1.3c0.2-0.4,0.2-0.7,0.2-0.8c0-0.6-0.3-1-0.8-1c-0.6,0-1.1,0.4-1.6,1.3c-0.5,0.9-0.7,1.8-0.7,2.8
					c0,2.5,1,4.6,3.1,6.5c2.1,1.8,4.5,2.8,7.3,2.8c2.6,0,4.8-0.8,6.5-2.4c1.7-1.6,2.6-3.6,2.6-6c0-1.7-0.7-4.5-2-8.4
					c-1.3-3.7-1.9-6.7-1.9-9.1c0-4.1,1.3-7.6,3.8-10.4s5.6-4.2,9.2-4.2c2.4,0,4.5,0.7,6.3,2.2C172,112.4,172.9,114.1,172.9,116.1z"
					/>
			</g>
			<path id="CONFIANCE" class="st2" d="M67.3,366.2c0-0.1-0.1,0.9-0.2,3c-0.3,4.3-0.4,8.4-0.4,12.4c0,0.4,0.1,1.4,0.2,2.7
				c0.1,1.4,0.2,3,0.2,4.9v1c0,1-0.3,1.4-0.9,1.4s-1.1-0.6-1.6-1.7c-1-2.4-2.1-4-3.1-4.8c-5.3,4.7-11.7,7-19.2,7
				c-10.9,0-19.9-3.8-27-11.4S4.6,363.6,4.6,352s3.3-21.1,9.8-28.5s15-11,25.4-11c3.8,0,6.8,0.3,9,0.9s5.1,1.9,8.4,3.8
				c1.6,1,2.8,1.4,3.7,1.4c0.7,0,1.3-0.6,1.9-1.8c1-2.1,1.7-3.1,2.3-3.1s0.9,0.3,0.9,0.9c0,0.3-0.1,0.8-0.2,1.4
				c-0.8,3.6-1.2,10.2-1.2,20c0,1.4-0.1,2.2-0.3,2.4c-0.2,0.2-0.5,0.3-0.9,0.3c-0.7,0-1.2-0.7-1.4-2.1c-1-5.9-2.3-10.3-4.1-13.2
				c-3.6-5.9-9.3-8.9-17.1-8.9c-6,0-10.7,2-14.2,6c-6.3,7.2-9.4,17.7-9.4,31.5c0,12.4,2.6,21.9,7.8,28.7c4.5,5.9,10.5,8.9,18,8.9
				c3.8,0,7.4-0.9,10.5-2.8c3.2-1.9,5.6-4.5,7.3-7.7c1.9-3.8,3.3-7.9,4.1-12.3c0.3-1.8,0.8-2.7,1.4-2.7
				C66.9,364.6,67.3,365.1,67.3,366.2z M153.4,352.9c0,11-3.3,20.3-9.9,28s-14.7,11.4-24.4,11.4c-10.2,0-18.8-3.9-25.8-11.6
				s-10.4-17.3-10.4-28.6c0-11.5,3.3-21,10-28.4s15.3-11,25.7-11c9.8,0,18.1,3.8,24.8,11.5S153.4,341.5,153.4,352.9z M140.9,353.5
				c0-13.5-2.8-24.1-8.3-31.6c-3.5-4.7-8.3-7.1-14.5-7.1c-5.9,0-10.5,1.8-13.8,5.4c-6,6.7-9,17.5-9,32.5c0,11.9,2.1,21.2,6.3,27.8
				c4.2,6.6,10,9.9,17.6,9.9c7,0,12.3-3.1,15.9-9.3C139,374.1,140.9,365,140.9,353.5z M235.1,315c0,0.7-0.9,1.1-2.8,1l-2.4-0.1h-2
				c-1.2,0-1.9,0.2-2.1,0.6s-0.3,1.6-0.3,3.7v63.9c0,3.9,0,6.2-0.1,6.9c-0.1,0.7-0.3,1-0.7,1s-1-0.4-1.6-1.2L208.9,370
				c-8.2-12.1-18.2-27.1-30-45.2l0.1,61.9c0.1,1,0.6,1.6,1.7,1.8s3.5,0.4,7.4,0.5c1,0,1.4,0.3,1.4,0.9c0,0.7-1,1.1-2.9,1.1
				c-0.7,0-2.8-0.1-6.3-0.3c-1.2-0.1-2.3-0.1-3.4-0.1c0.1,0-0.6,0.1-1.9,0.2c-1.4,0.1-3.5,0.2-6.3,0.2h-1.1c-1.7,0-2.6-0.3-2.6-1
				s0.7-1,2.2-1c4.4-0.1,6.9-0.4,7.6-0.8c0.7-0.5,1.1-2.1,1.1-4.7v-54.7c0-6.1-1.3-10-3.8-11.5c-1.2-0.7-3.3-1.1-6.3-1.1
				c-1.9,0-2.9-0.4-2.9-1.1s0.6-1,1.7-1c1.5,0,3.4,0,5.7,0.1s3.5,0.1,3.7,0.1s1.3,0,3.1-0.1c2.4,0,4.8,0,7.1-0.1l38.3,56.9v-49.4
				c0-2.3,0-3.7-0.1-4.2s-0.4-0.9-0.9-1.1s-2.3-0.4-5.3-0.4c-2.7,0-4-0.3-4-1s0.9-1.1,2.7-1.1h7c1.2,0.1,1.9,0.1,2.1,0.1
				c0.1,0,0.7,0,2-0.1h6.8C234.3,313.9,235.1,314.2,235.1,315z M302.8,332.4c0,1-0.4,1.6-1.1,1.6s-1.3-0.9-1.6-2.8
				c-0.9-5.3-2.7-9.2-5.4-11.7c-1.8-1.6-4.5-2.5-8.2-2.9c-1.3-0.1-4.3-0.2-8.9-0.2c-3.4,0-7.5,0.1-12.2,0.3v32.4
				c9.5,0.1,15.3-0.5,17.5-1.8s3.6-4.9,4-10.9c0.1-1.7,0.6-2.6,1.3-2.6c0.7,0,1.1,0.6,1.1,1.7c0,0.7,0,1.2-0.1,1.7
				c-0.2,5.1-0.3,9.8-0.3,14.2c0,5.6,0.1,10.1,0.4,13.3c0.1,0.3,0.1,0.7,0.1,1.3c0,0.9-0.4,1.3-1.1,1.3c-0.6,0-1-0.2-1.1-0.7
				c-0.1-0.4-0.4-2.1-0.8-5.1c-0.6-4.5-1.8-7.3-3.5-8.4s-5.2-1.7-10.4-1.7c-2.7,0-5.1,0.1-7.2,0.2l0.1,11.3l-0.2,21.8
				c0,2.1,0.9,3.5,2.6,4.1c0.8,0.3,2.6,0.4,5.4,0.3c1.2,0,1.8,0.3,1.8,0.9c0,0.7-0.7,1-2.2,1h-1.1c-1,0-2.4,0-4.2-0.1h-3.4
				l-16.5,0.1c-1.4,0-2.1-0.3-2.1-0.9s1.3-1,3.8-1.1c2.6-0.1,4.1-0.5,4.5-1.1s0.7-2.3,0.7-5.2l-0.1-63.7c-0.1-1.3-0.5-2.2-1.2-2.5
				s-2.6-0.5-5.7-0.6c-1.2,0-1.8-0.4-1.8-1.2c0-0.7,0.7-1.1,2-1.1h1.8c-0.1,0,3.4,0,10.7,0.1c7.3,0.1,13.3,0.1,17.9,0.1
				c12.5,0,20.2-0.3,23-0.9c0.1,1,0.3,3.7,0.7,8.3c0.2,3.1,0.5,5.9,0.9,8.3C302.7,330.8,302.8,331.7,302.8,332.4z M340.6,390.1
				c0,0.6-0.4,0.9-1.3,0.9h-1.1c-0.4-0.2-5.5-0.3-15.1-0.3c-1.9,0-3.7,0.1-5.6,0.2c-1,0.1-2.4,0.1-4.4,0.1c-1,0-1.4-0.3-1.4-1
				c0-0.6,1-0.9,2.9-1c3-0.1,4.7-0.4,5.2-1.1s0.8-2.8,0.8-6.4v-58.4c0-3.6-0.2-5.7-0.6-6.1c-0.4-0.7-2.5-1.2-6.1-1.3
				c-1.4-0.1-2.1-0.4-2.1-0.9c0-0.7,0.4-1,1.3-1l15,0.2c1.1,0,3.3,0,6.4-0.1l4.2-0.1c1.2,0,1.8,0.3,1.8,1c0,0.6-1.6,1-4.9,1.1
				c-1.9,0.1-3,0.4-3.4,1s-0.6,2.1-0.6,4.7v59.3c0,4.2,0.2,6.5,0.6,6.9c0.8,0.8,3.2,1.3,7.2,1.4
				C340.2,389.2,340.6,389.5,340.6,390.1z M421.1,390.2c0,0.7-0.6,1-1.7,1c-0.7,0-1.4,0-2-0.1l-14.1-0.2l-14.1,0.2
				c-0.5,0.1-1.1,0.1-1.7,0.1c-1.5,0-2.2-0.4-2.2-1.1c0-0.8,1-1.2,3-1.2c6.5-0.1,9.8-0.7,9.8-2c0-0.1-0.1-0.4-0.2-0.9l-0.9-3
				l-0.6-1.6c-0.7-2.3-2.3-7.4-4.9-15.2h-23.8c-4.4,11.8-6.7,18.6-6.7,20.4c0,1,0.4,1.7,1.3,1.9c0.2,0.1,2.1,0.2,5.5,0.4
				c2.1,0.1,3.2,0.4,3.2,1.1s-1,1.1-2.9,1.1c-3.4,0-7.4-0.1-11.9-0.4c-1.1-0.1-2.3-0.1-3.4-0.1c-1.2,0-2.3,0.1-3.4,0.2
				c-0.6,0.1-1.1,0.1-1.4,0.1c-1,0-1.6-0.3-1.6-1s1.2-1,3.5-1.1s4-0.4,5.1-1.1c1-0.6,1.9-1.8,2.4-3.6c9.5-27.2,17.3-49.1,23.3-65.6
				c0.1-0.9,0.4-1.9,0.9-3l0.6-2c0.2-0.8,0.5-1.2,0.9-1.2c0.2,0,0.4,0.2,0.6,0.7c1,2.9,3.1,8.9,6.5,18.1c2.7,7.2,9.3,25.2,19.9,54.1
				c0.6,1.6,1.4,2.7,2.3,3.1s2.8,0.7,5.7,0.8C420.2,389.2,421.1,389.6,421.1,390.2z M391,363.7c-1.2-3.3-3.1-8.8-5.9-16.5l-5.3-15.2
				c-3.1,8.1-6.8,18.7-11.2,31.7H391z M493.3,315c0,0.7-0.9,1.1-2.8,1l-2.4-0.1h-2c-1.2,0-1.9,0.2-2.1,0.6s-0.3,1.6-0.3,3.7v63.9
				c0,3.9,0,6.2-0.1,6.9s-0.3,1-0.7,1c-0.4,0-1-0.4-1.6-1.2L467.1,370c-8.2-12.1-18.2-27.1-30-45.2l0.1,61.9c0.1,1,0.6,1.6,1.7,1.8
				c1,0.3,3.5,0.4,7.4,0.5c1,0,1.4,0.3,1.4,0.9c0,0.7-1,1.1-2.9,1.1c-0.7,0-2.8-0.1-6.3-0.3c-1.2-0.1-2.3-0.1-3.4-0.1
				c0.1,0-0.6,0.1-1.9,0.2c-1.4,0.1-3.5,0.2-6.3,0.2h-1.1c-1.7,0-2.6-0.3-2.6-1s0.7-1,2.2-1c4.4-0.1,6.9-0.4,7.6-0.8
				c0.7-0.5,1.1-2.1,1.1-4.7v-54.7c0-6.1-1.3-10-3.8-11.5c-1.2-0.7-3.3-1.1-6.3-1.1c-1.9,0-2.9-0.4-2.9-1.1s0.6-1,1.7-1
				c1.5,0,3.4,0,5.7,0.1c2.3,0.1,3.5,0.1,3.7,0.1s1.3,0,3.1-0.1c2.4,0,4.8,0,7.1-0.1l38.2,56.9v-49.4c0-2.3,0-3.7-0.1-4.2
				s-0.4-0.9-0.9-1.1s-2.3-0.4-5.3-0.4c-2.7,0-4-0.3-4-1s0.9-1.1,2.7-1.1h7c1.2,0.1,1.9,0.1,2.1,0.1c0.1,0,0.7,0,2-0.1h6.8
				C492.4,313.9,493.3,314.2,493.3,315z M568.1,366.2c0-0.1-0.1,0.9-0.2,3c-0.3,4.3-0.4,8.4-0.4,12.4c0,0.4,0.1,1.4,0.2,2.7
				c0.1,1.4,0.2,3,0.2,4.9v1c0,1-0.3,1.4-0.9,1.4c-0.6,0-1.1-0.6-1.6-1.7c-1-2.4-2.1-4-3.1-4.8c-5.3,4.7-11.7,7-19.2,7
				c-10.9,0-19.9-3.8-27-11.4c-7.1-7.6-10.7-17.1-10.7-28.7s3.3-21.1,9.8-28.5s15-11,25.4-11c3.8,0,6.8,0.3,9,0.9s5.1,1.9,8.4,3.8
				c1.6,1,2.8,1.4,3.7,1.4c0.7,0,1.3-0.6,1.9-1.8c1-2.1,1.7-3.1,2.3-3.1s0.9,0.3,0.9,0.9c0,0.3-0.1,0.8-0.2,1.4
				c-0.8,3.6-1.2,10.2-1.2,20c0,1.4-0.1,2.2-0.3,2.4c-0.2,0.2-0.5,0.3-0.9,0.3c-0.7,0-1.2-0.7-1.4-2.1c-1-5.9-2.3-10.3-4.1-13.2
				c-3.6-5.9-9.3-8.9-17.1-8.9c-6,0-10.7,2-14.2,6c-6.3,7.2-9.4,17.7-9.4,31.5c0,12.4,2.6,21.9,7.8,28.7c4.5,5.9,10.5,8.9,18,8.9
				c3.8,0,7.4-0.9,10.5-2.8c3.2-1.9,5.6-4.5,7.3-7.7c1.9-3.8,3.3-7.9,4.1-12.3c0.3-1.8,0.8-2.7,1.4-2.7
				C567.8,364.6,568.1,365.1,568.1,366.2z M641.4,373c0,0.3-0.1,2.1-0.2,5.4s-0.2,6.5-0.2,9.5v3.7c-7.3-0.4-21.6-0.6-43.1-0.6
				c-2.6,0-5.1,0-7.7,0.1H584c-1.4,0-2.1-0.3-2.1-1c0-0.4,0.2-0.7,0.7-0.8c0.2,0,1.6-0.1,4.2-0.3c1.9-0.1,3.1-0.6,3.5-1.2
				s0.6-2.4,0.6-5.2v-62.4c0-2.1-0.3-3.4-0.9-3.8c-0.6-0.4-2.6-0.6-6-0.6c-1.2,0-1.8-0.3-1.8-1s0.8-1,2.4-1l19,0.1
				c0.7,0,4.8,0,12.5-0.1h15.5c2.2,0,4.3-0.1,6.1-0.4c0.1,3.2,0.5,7.6,1,13.2l0.4,4.8c0.1,0.4,0.1,0.9,0.1,1.4c0,0.7-0.3,1.1-1,1.1
				c-0.8,0-1.4-0.9-1.8-2.8c-1.4-6.7-3.7-10.9-6.9-12.7c-2.4-1.3-8.6-2-18.6-2h-9.1V349h2.7c8.3,0,13.3-0.6,15.2-1.9
				c1.8-1.3,3.1-4.9,3.7-11c0.1-1.6,0.6-2.3,1.2-2.3c0.8,0,1.2,0.7,1.2,2s-0.1,3.3-0.2,5.9c-0.1,2.6-0.2,4.6-0.2,5.9
				c0,7.9,0.1,13.4,0.4,16.3c0.1,0.7,0.1,1.4,0.1,1.9c0,1-0.4,1.4-1.2,1.4c-0.5,0-0.9-0.3-1.1-0.9s-0.5-2.7-0.9-6.2
				c-0.6-4.4-2.4-7.1-5.4-8.1c-1.3-0.4-4.8-0.7-10.4-0.7h-5v37.3c16.3,0,25.8-0.3,28.6-1c4.9-1.1,7.7-5.8,8.3-14.2
				c0.1-1.9,0.6-2.8,1.4-2.8C641,370.7,641.4,371.5,641.4,373z"/>
		</g>
	</g>
</g>
<g class="st2">
	<path class="st3" d="M56.1,234.9c0,4.4-2.1,6.6-6.4,6.6c-4.2,0-6.3-2-6.3-6c0-1,0.5-2.6,1.4-4.7c0.3-0.7,0.4-1.3,0.4-2
		c0-1.9-1-3.5-2.9-4.7c-2-1.2-4.4-1.9-7.4-1.9c-5.7,0-10.1,2.5-13.3,7.4c-3.1,5-4.7,11.9-4.7,20.9c0,10.1,1.6,17.9,4.9,23.4
		c3.2,5.5,7.8,8.2,13.7,8.2c4,0,7.6-1.2,10.7-3.7c1.4-1.1,3.3-3.3,5.6-6.6c0.5-0.5,0.9-0.7,1.3-0.7c1,0,1.4,0.4,1.4,1.1
		c0,1.2-1.7,3.6-5,7c-4.3,4.5-9.8,6.7-16.4,6.7c-8.4,0-15.3-3-20.8-9s-8.2-13.6-8.2-22.7c0-9.8,2.9-17.9,8.7-24.4
		c5.8-6.4,13.1-9.6,21.9-9.6c5.6,0,10.6,1.5,14.9,4.4C53.9,227.5,56.1,231,56.1,234.9z"/>
	<path class="st3" d="M132.5,253.2c0,9.2-2.8,17-8.4,23.2c-5.6,6.2-12.6,9.4-21,9.4c-8.7,0-15.9-3.1-21.7-9.4
		c-5.8-6.2-8.7-14-8.7-23.2c0-9.5,2.8-17.4,8.5-23.7s12.7-9.4,21.2-9.4c8.6,0,15.7,3.2,21.5,9.5C129.6,236,132.5,243.9,132.5,253.2z
		 M119.5,253.1c0-10.5-1.6-18.6-4.9-24.4c-2.4-4.3-6.4-6.4-12-6.4c-5.3,0-9.5,2.7-12.5,8.2s-4.5,13.1-4.5,22.8
		c0,9.6,1.6,17.1,4.8,22.5c3.2,5.4,7.6,8.1,13.4,8.1c4.4,0,7.6-1.7,9.7-5C117.5,272.5,119.5,264,119.5,253.1z"/>
	<path class="st3" d="M216.2,283.4c0,0.7-0.7,1.1-2.1,1.1h-1.7c-1.7,0-4,0-7,0c-9.3,0-14.9,0-16.6,0h-1c-1.2,0-1.9-0.3-1.9-1
		c0-0.5,0.3-0.8,0.8-0.9s2.4-0.2,5.5-0.3c1.8-0.1,2.9-0.4,3.1-0.8c0.3-0.4,0.4-2,0.4-4.6v-27.4c0-10.4-0.4-16.5-1.1-18.5
		c-1.6-4.3-4.9-6.4-9.7-6.4s-8.8,2.1-12,6.3c-1,1.2-1.4,2.9-1.4,5.1v44.5c0,1.1,1,1.8,3,1.9l4.4,0.1c1,0,1.5,0.3,1.5,1s-0.6,1-1.7,1
		h-2.3c-2.1,0-5.4,0-10,0c-1,0-3.3,0-6.8,0s-5.5,0-6.1,0h-0.9c-1.4,0-2.1-0.3-2.1-0.9s0.9-1,2.6-1.1c1.2,0,2.4,0,3.6,0
		c1.4,0,2.3-0.3,2.6-1l0.4-2.1v-31.1c0-10.8-0.1-16.8-0.3-18c-0.2-1.1-1.4-1.7-3.6-1.7c-0.7,0-1.8,0-3.4,0h-0.7
		c-1.9,0-2.9-0.4-2.9-1.1c0-0.9,1-1.4,3-1.4c2.9-0.1,6-0.6,9.3-1.6s5.7-2,7-3.3c0.9-0.8,1.5-1.1,2-1.1c0.7,0,1,0.9,1,2.7v6.9
		c5-6.4,11.3-9.6,19.1-9.6c6.9,0,11.8,2.5,14.9,7.6c1.7,2.9,2.6,8.3,2.6,16.3v32.6c0,3,0.1,4.7,0.4,5c0.6,0.6,2,0.9,4.1,0.9
		c0.3,0,0.8,0,1.6,0h1C215.7,282.4,216.2,282.6,216.2,283.4z"/>
	<path class="st3" d="M278.5,194.2c0,2-0.6,3.6-1.8,4.9c-1.2,1.3-2.7,1.9-4.6,1.9c-1.8,0-3.3-0.6-4.6-1.7c-1.2-1.1-1.9-2.6-1.9-4.3
		c0-1.4,0.6-3.1,1.9-5c0.3-0.5,0.4-0.9,0.4-1.3c0-2.2-1.6-3.3-4.7-3.3c-5.3,0-8.8,3.4-10.5,10.3c-0.9,3.6-1.3,10-1.3,19v7h9.3
		c1.9,0,2.8,0.4,2.8,1.2s-1.2,1.2-3.7,1.2h-8.5v56c0,1.3,1.3,2,3.9,2c4-0.1,6.2,0.1,6.6,0.6c0.1,0.1,0.1,0.3,0.1,0.6
		c0,0.7-0.6,1-1.7,1c-0.6,0-1,0-1.4-0.1l-11.7,0.1h-15.6c-1.7,0-2.6-0.3-2.6-1c0-0.8,0.7-1.1,2.1-1.1c4.9,0,7.6-0.3,8.1-0.9
		c0.2-0.2,0.3-0.5,0.3-0.9l-0.1-1.9v-54.3c-3.5,0-5.6,0-6.1-0.1c-0.6-0.1-0.9-0.5-0.9-1.1c0-0.9,0.9-1.3,2.6-1.3h4.6
		c0.4-12.1,2-20.8,4.9-26.1c4.4-8.2,10.9-12.3,19.7-12.3c4.2,0,7.6,1,10.3,3C277.1,188.4,278.5,191.1,278.5,194.2z"/>
	<path class="st3" d="M309.3,283.2c0,0.9-0.8,1.3-2.4,1.3c0.1,0-1-0.1-3.4-0.3c-2.9-0.2-5.2-0.3-7.1-0.3h-14.9
		c-0.5,0.4-1,0.6-1.7,0.6c-1,0-1.6-0.4-1.6-1.1c0-1,1-1.5,2.9-1.5c3.6-0.1,5.6-0.4,5.9-0.8s0.5-2.4,0.5-5.9V232
		c-0.1-2.4-0.2-3.8-0.4-4.2c-0.1-0.4-0.7-0.6-1.8-0.6h-4.1c-0.4,0-0.9,0-1.4,0c-1,0-1.6-0.3-1.6-1c0-0.6,0.8-0.9,2.4-1
		c6.3-0.3,11.7-1.8,16.2-4.5l1.4-0.8c0.8,1.4,1.1,4,1.1,7.8c0-0.2,0,0.3,0,1.4s0,3,0,5.6v38.9c0,3.8,0.1,6,0.2,6.7s0.6,1.1,1.5,1.3
		c1.4,0.4,3.5,0.6,6.3,0.6C308.7,282,309.3,282.5,309.3,283.2z M298.6,194.2c0,4.3-2.1,6.4-6.4,6.4c-1.8,0-3.3-0.6-4.6-1.8
		c-1.2-1.2-1.9-2.6-1.9-4.4c0-4.5,2.1-6.7,6.4-6.7C296.5,187.9,298.6,190,298.6,194.2z"/>
	<path class="st3" d="M382,277.6c0,1.6-1.7,3.3-5,5.1c-3.4,1.8-6.6,2.6-9.7,2.6c-6.5,0-10-3.4-10.2-10.1c-3.6,7-9.2,10.6-16.8,10.6
		c-4.1,0-7.4-1.2-10.1-3.6s-4-5.5-4-9.4c0-7.8,4.7-14,14-18.6c3.2-1.5,8.8-3,16.7-4.6V246c0-8.4-0.4-13.9-1.3-16.6
		c-1.5-4.9-5-7.3-10.3-7.3c-3.3,0-6.1,0.9-8.4,2.7c-2.2,1.8-3.4,4.1-3.4,6.9c0,0.8,0.6,1.1,1.7,1.1c1.2,0,2.2,0.6,3.1,1.7
		s1.4,2.4,1.4,3.9c0,4.2-2.1,6.3-6.2,6.3c-2.2,0-4-0.7-5.4-2.2s-2.1-3.4-2.1-5.6c0-4.5,1.8-8.3,5.3-11.6c3.9-3.5,9.3-5.3,16.3-5.3
		c10.5,0,16.9,2.9,19.3,8.6c0.9,2.2,1.3,6.5,1.3,13v26.7c0,4.4,0,7,0.1,7.7c0.5,3.4,1.9,5.1,4.1,5.1c2.7,0,4.9-1,6.6-2.9
		c1-1,1.7-1.6,2.1-1.6C381.8,276.9,382,277,382,277.6z M356.9,262.5v-10.4c-7,1.6-12.1,3.7-15.1,6.4c-3.1,2.6-4.6,6.1-4.6,10.5
		c0,3,0.9,5.5,2.6,7.5s3.9,2.9,6.5,2.9c4,0,7.3-2.3,9.7-6.9C356.6,271.5,356.9,268.1,356.9,262.5z"/>
	<path class="st3" d="M456.9,283.4c0,0.7-0.7,1.1-2.1,1.1h-1.7c-1.7,0-4,0-7,0c-9.3,0-14.9,0-16.6,0h-1c-1.2,0-1.9-0.3-1.9-1
		c0-0.5,0.3-0.8,0.8-0.9s2.4-0.2,5.5-0.3c1.8-0.1,2.9-0.4,3.1-0.8c0.3-0.4,0.4-2,0.4-4.6v-27.4c0-10.4-0.4-16.5-1.1-18.5
		c-1.6-4.3-4.9-6.4-9.7-6.4c-4.8,0-8.8,2.1-12,6.3c-1,1.2-1.4,2.9-1.4,5.1v44.5c0,1.1,1,1.8,3,1.9l4.4,0.1c1,0,1.5,0.3,1.5,1
		s-0.6,1-1.7,1h-2.3c-2.1,0-5.4,0-10,0c-1,0-3.3,0-6.8,0s-5.5,0-6.1,0h-0.9c-1.4,0-2.1-0.3-2.1-0.9s0.9-1,2.6-1.1c1.2,0,2.4,0,3.6,0
		c1.4,0,2.3-0.3,2.6-1l0.4-2.1v-31.1c0-10.8-0.1-16.8-0.3-18c-0.2-1.1-1.4-1.7-3.6-1.7c-0.7,0-1.8,0-3.4,0h-0.7
		c-1.9,0-2.9-0.4-2.9-1.1c0-0.9,1-1.4,3-1.4c2.9-0.1,6-0.6,9.3-1.6s5.7-2,7-3.3c0.9-0.8,1.5-1.1,2-1.1c0.7,0,1,0.9,1,2.7v6.9
		c5-6.4,11.3-9.6,19.1-9.6c6.9,0,11.8,2.5,14.9,7.6c1.7,2.9,2.6,8.3,2.6,16.3v32.6c0,3,0.1,4.7,0.4,5c0.6,0.6,2,0.9,4.1,0.9
		c0.3,0,0.8,0,1.6,0h1C456.4,282.4,456.9,282.6,456.9,283.4z"/>
	<path class="st3" d="M524,234.9c0,4.4-2.1,6.6-6.4,6.6c-4.2,0-6.3-2-6.3-6c0-1,0.5-2.6,1.4-4.7c0.3-0.7,0.4-1.3,0.4-2
		c0-1.9-1-3.5-2.9-4.7c-2-1.2-4.4-1.9-7.4-1.9c-5.7,0-10.1,2.5-13.3,7.4c-3.1,5-4.7,11.9-4.7,20.9c0,10.1,1.6,17.9,4.9,23.4
		c3.2,5.5,7.8,8.2,13.7,8.2c4,0,7.6-1.2,10.7-3.7c1.4-1.1,3.3-3.3,5.6-6.6c0.5-0.5,0.9-0.7,1.3-0.7c1,0,1.4,0.4,1.4,1.1
		c0,1.2-1.7,3.6-5,7c-4.3,4.5-9.8,6.7-16.4,6.7c-8.4,0-15.3-3-20.8-9s-8.2-13.6-8.2-22.7c0-9.8,2.9-17.9,8.7-24.4
		c5.8-6.4,13.1-9.6,21.9-9.6c5.6,0,10.6,1.5,14.9,4.4C521.8,227.5,524,231,524,234.9z"/>
	<path class="st3" d="M593.9,268.5c0,1-0.7,2.6-2.2,5.1c-1.5,2.4-3,4.4-4.5,5.9c-4.1,4.2-9.6,6.3-16.4,6.3c-8.6,0-15.7-3.1-21.5-9.3
		c-5.8-6.2-8.6-13.9-8.6-23c0-9.5,2.7-17.5,8.2-23.9s12.3-9.6,20.5-9.6c6.8,0,12.4,2,17,5.9c4.6,4,7,9,7.3,15.2
		c-3,0.5-7.1,0.7-12.1,0.6h-10c-0.7,0-6.4,0.1-17.1,0.4c-0.5,3.1-0.7,6.1-0.7,9c0,9.6,1.8,17,5.5,22.1c3.7,5.2,8.8,7.8,15.5,7.8
		c3.8,0,6.9-0.9,9.1-2.6c2.3-1.7,4.8-5,7.4-9.9c0.4-0.8,0.9-1.1,1.6-1.1C593.5,267.5,593.9,267.9,593.9,268.5z M581.4,239.4
		c-0.4-11.4-4.5-17.1-12.3-17.1c-7.7,0-12.5,5.7-14.4,17.1H581.4z"/>
	<path class="st3" d="M633.9,277.5c0,2.1-0.7,3.9-2.2,5.4s-3.3,2.2-5.4,2.2c-2.2,0-4-0.7-5.5-2.2s-2.2-3.3-2.2-5.6
		c0-2.1,0.7-3.9,2.2-5.4s3.3-2.2,5.5-2.2c2.1,0,3.9,0.7,5.4,2.2C633.1,273.4,633.9,275.2,633.9,277.5z"/>
</g>
<g class="st4">
	<g>
		<path d="M102.7,128.2c0,0.6-0.4,0.9-1.2,0.9h-1c-0.4-0.2-5.1-0.3-14.1-0.3c-1.7,0-3.5,0.1-5.2,0.2c-0.9,0.1-2.3,0.1-4.2,0.1
			c-0.9,0-1.4-0.3-1.4-0.9c0-0.6,0.9-0.9,2.7-0.9c2.8-0.1,4.4-0.4,4.9-1s0.7-2.6,0.7-6V65.4c0-3.4-0.2-5.3-0.5-5.7
			C83,59,81,58.6,77.6,58.4c-1.3-0.1-2-0.3-2-0.7c0-0.5,0.4-0.8,1.3-0.8H91c1,0,3.1,0,6.1,0.1l4-0.1c1.1,0,1.7,0.3,1.7,0.9
			c0,0.5-1.5,0.9-4.6,1c-1.8,0.1-2.8,0.4-3.2,0.9c-0.4,0.6-0.6,2-0.6,4.4v55.5c0,4,0.2,6.1,0.5,6.4c0.8,0.8,3,1.2,6.8,1.4
			C102.3,127.3,102.7,127.6,102.7,128.2z"/>
		<path d="M128.9,128.4c0,0.6-0.5,0.9-1.4,0.9h-1.2c-0.1,0-2-0.1-5.5-0.2h-3.2c-0.6,0-3.3,0.1-8.3,0.2c-0.4,0-0.8,0.1-1.2,0.1
			c-1,0.1-1.6-0.2-1.6-0.9c0-0.5,0.4-0.7,1.1-0.7h2.7c1.9,0,2.9-0.4,2.9-1.2c0.1-0.4,0.1-3.1,0.1-8.1v-53c0-2.3-0.1-3.5-0.2-3.7
			c-0.2-0.6-0.8-0.8-1.7-0.8h-0.8h-2.9c-1,0-1.5-0.3-1.5-0.9c0-0.5,0.9-0.8,2.6-0.9c3.3-0.2,6.4-1,9.3-2.3l2.2-1l0.8-0.3
			c0.6,2,0.8,5.1,0.7,9.2V72v51c0,2.1,0,3.3,0.1,3.7c0.1,0.4,0.3,0.6,0.7,0.8c0.1,0.1,1.4,0.1,3.8,0.2
			C128.1,127.6,128.9,127.9,128.9,128.4z"/>
		<path d="M164.7,115.9c0,4-1.5,7.5-4.4,10.3c-2.9,2.8-6.4,4.2-10.5,4.2c-2.3,0-5.2-0.8-8.6-2.5c-0.9-0.5-1.7-0.7-2.4-0.7
			c-1,0-1.7,0.7-2.2,2c-0.3,0.8-0.7,1.2-1.1,1.2c-0.5,0-0.7-0.3-0.7-0.8c0-0.3,0-0.8,0-1.2c0-1.4,0-3.4,0-6.1c0-0.2,0-1,0-2.5
			s0-2.4,0-2.9v-1.1c0-0.8,0.2-1.1,0.7-1.1c0.6,0,0.9,0.4,0.9,1.2c0.4,3.2,1.3,5.7,2.7,7.5c2.8,3.6,6.5,5.4,11.1,5.4
			c2.5,0,4.5-0.7,6-2.2s2.3-3.4,2.3-5.8c0-2.7-0.9-4.9-2.6-6.5c-1-0.9-1.9-1.5-2.7-1.9s-3.1-1.3-7-2.8c-7.7-2.9-11.5-7.3-11.5-13.1
			c0-3.9,1.3-7.2,3.9-9.8c2.6-2.6,5.8-4,9.7-4c1.4,0,3.4,0.4,6.2,1.2c0.7,0.2,1.3,0.3,1.9,0.3c1.4,0,2.3-0.7,2.7-2.1
			c0.2-0.7,0.5-1,0.9-1c0.5,0,0.7,0.3,0.7,0.8c0,0.1,0,0.3,0,0.6v4.4c-0.1,1.7,0.1,4.3,0.5,8V95c0,0.6-0.3,0.8-0.8,0.8
			c-0.4,0-0.9-1-1.6-3.1c-0.8-2.5-2.1-4.5-4-6.1c-1.9-1.5-4.1-2.3-6.6-2.3c-2.4,0-4.3,0.7-5.8,2.2s-2.3,3.3-2.3,5.5
			c0,3.5,2.3,6.1,7,7.9c7.2,2.9,11.8,5.2,13.7,7.1C163.5,109.4,164.7,112.4,164.7,115.9z"/>
		<path d="M237.2,128.5c0,0.5-0.5,0.8-1.6,0.8h-1.2c-1.2,0-2.9,0-5.1,0c-6.8,0-10.8,0-12.1,0h-0.7c-0.9,0-1.4-0.2-1.4-0.7
			c0-0.3,0.2-0.6,0.6-0.6c0.4-0.1,1.7-0.1,4-0.2c1.3-0.1,2.1-0.3,2.3-0.6c0.2-0.3,0.3-1.4,0.3-3.4v-19.9c0-7.5-0.3-12-0.8-13.5
			c-1.2-3.1-3.5-4.7-7.1-4.7c-3.5,0-6.4,1.5-8.7,4.6c-0.7,0.9-1,2.1-1,3.7v32.4c0,0.8,0.7,1.3,2.2,1.3l3.2,0.1
			c0.7,0,1.1,0.2,1.1,0.7s-0.4,0.7-1.2,0.7h-1.7c-1.5,0-4,0-7.3,0c-0.8,0-2.4,0-4.9,0s-4,0-4.4,0h-0.6c-1,0-1.6-0.2-1.6-0.6
			c0-0.4,0.6-0.7,1.9-0.8c0.9,0,1.8,0,2.6,0c1,0,1.7-0.2,1.9-0.7l0.3-1.6V103c0-7.9-0.1-12.2-0.2-13.1c-0.1-0.8-1-1.2-2.6-1.2
			c-0.5,0-1.3,0-2.5,0h-0.5c-1.4,0-2.1-0.3-2.1-0.8c0-0.7,0.7-1,2.2-1c2.1-0.1,4.3-0.5,6.8-1.1c2.4-0.7,4.1-1.5,5.1-2.4
			c0.6-0.6,1.1-0.8,1.5-0.8c0.5,0,0.7,0.7,0.7,2v5c3.6-4.6,8.2-7,13.9-7c5,0,8.6,1.8,10.8,5.5c1.2,2.1,1.9,6,1.9,11.9v23.7
			c0,2.2,0.1,3.4,0.3,3.6c0.4,0.4,1.4,0.6,3,0.6c0.2,0,0.6,0,1.1,0h0.7C236.9,127.9,237.2,128.1,237.2,128.5z"/>
		<path d="M284.4,106.6c0,6.7-2,12.4-6.1,16.9s-9.2,6.8-15.3,6.8c-6.3,0-11.6-2.3-15.8-6.8s-6.3-10.2-6.3-16.9
			c0-6.9,2.1-12.7,6.2-17.3c4.1-4.6,9.3-6.9,15.4-6.9c6.2,0,11.5,2.3,15.7,6.9C282.3,94,284.4,99.8,284.4,106.6z M275,106.5
			c0-7.6-1.2-13.6-3.5-17.8c-1.7-3.1-4.6-4.7-8.7-4.7c-3.9,0-6.9,2-9.1,6c-2.2,4-3.3,9.5-3.3,16.6c0,7,1.2,12.5,3.5,16.4
			s5.6,5.9,9.7,5.9c3.2,0,5.5-1.2,7.1-3.6C273.5,120.7,275,114.4,275,106.5z"/>
		<path d="M339.5,125.6c0,0.5-0.8,0.8-2.3,0.8c-5.4,0.3-10.2,1.5-14.2,3.5c-0.3,0.1-0.5,0.2-0.7,0.2c-0.4,0-0.6-0.3-0.6-0.8v-5.8
			c-3.2,4.4-7.6,6.7-13.3,6.7c-5.1,0-8.7-1.5-10.9-4.4c-0.9-1.2-1.4-2.4-1.6-3.4s-0.3-3.8-0.3-8.4V90.3c0-2.4-0.1-3.8-0.4-4.2
			c-0.3-0.4-1.2-0.7-2.8-0.7H291c-1.9,0.1-2.8-0.1-2.8-0.8c0-0.5,0.6-0.7,1.8-0.7c1.2,0,3,0.1,5.4,0.3c1.2,0.1,1.9,0.1,2.1,0.1
			c2.4,0,4.7-0.1,6.8-0.4v28.9c0,5.3,0.3,8.8,1,10.6c1.1,2.7,3.4,4,6.8,4c3.7,0,6.4-1.5,8.1-4.6c1.2-2.2,1.9-5.7,1.9-10.6v-16
			c0-2.3-0.1-4.1-0.3-5.3v-3.4c-0.1-1-0.3-1.6-0.7-1.8c-0.4-0.2-1.2-0.3-2.3-0.3c-2.9,0.1-4.4-0.2-4.4-0.9c0-0.4,0.7-0.6,2.2-0.6
			h0.9c0.6,0,2.4,0,5.5,0c4.2,0,6.7,0,7.7,0v29c0,5,0.1,8.1,0.3,9.5c0.2,1.3,0.7,2.1,1.6,2.3s2.8,0.3,5.8,0.3
			C339,124.8,339.5,125.1,339.5,125.6z"/>
		<path d="M373.5,115.9c0,4-1.5,7.5-4.4,10.3c-2.9,2.8-6.4,4.2-10.5,4.2c-2.3,0-5.2-0.8-8.6-2.5c-0.9-0.5-1.7-0.7-2.4-0.7
			c-1,0-1.7,0.7-2.2,2c-0.3,0.8-0.7,1.2-1.1,1.2c-0.5,0-0.7-0.3-0.7-0.8c0-0.3,0-0.8,0-1.2c0-1.4,0-3.4,0-6.1c0-0.2,0-1,0-2.5
			s0-2.4,0-2.9v-1.1c0-0.8,0.2-1.1,0.7-1.1c0.6,0,0.9,0.4,0.9,1.2c0.4,3.2,1.3,5.7,2.7,7.5c2.8,3.6,6.5,5.4,11.1,5.4
			c2.5,0,4.5-0.7,6-2.2s2.3-3.4,2.3-5.8c0-2.7-0.9-4.9-2.6-6.5c-1-0.9-1.9-1.5-2.7-1.9c-0.8-0.4-3.1-1.3-7-2.8
			c-7.7-2.9-11.5-7.3-11.5-13.1c0-3.9,1.3-7.2,3.9-9.8s5.8-4,9.7-4c1.4,0,3.4,0.4,6.2,1.2c0.7,0.2,1.3,0.3,1.9,0.3
			c1.4,0,2.3-0.7,2.7-2.1c0.2-0.7,0.5-1,0.9-1c0.5,0,0.7,0.3,0.7,0.8c0,0.1,0,0.3,0,0.6v4.4c-0.1,1.7,0.1,4.3,0.5,8V95
			c0,0.6-0.3,0.8-0.8,0.8c-0.4,0-0.9-1-1.6-3.1c-0.8-2.5-2.1-4.5-4-6.1c-1.9-1.5-4.1-2.3-6.6-2.3c-2.4,0-4.3,0.7-5.8,2.2
			s-2.3,3.3-2.3,5.5c0,3.5,2.3,6.1,7,7.9c7.2,2.9,11.8,5.2,13.7,7.1C372.2,109.4,373.5,112.4,373.5,115.9z"/>
		<path d="M433.1,63.7c0,1.5-0.4,2.7-1.3,3.6s-2,1.4-3.4,1.4c-1.3,0-2.4-0.4-3.3-1.2c-0.9-0.8-1.4-1.9-1.4-3.1c0-1,0.5-2.3,1.4-3.6
			c0.2-0.3,0.3-0.7,0.3-0.9c0-1.6-1.1-2.4-3.4-2.4c-3.8,0-6.4,2.5-7.6,7.5c-0.6,2.6-0.9,7.2-0.9,13.8v5.1h6.8c1.4,0,2.1,0.3,2.1,0.9
			s-0.9,0.9-2.7,0.9h-6.2v40.8c0,1,1,1.5,2.9,1.5c2.9-0.1,4.5,0.1,4.8,0.4c0.1,0.1,0.1,0.2,0.1,0.4c0,0.5-0.4,0.7-1.2,0.7
			c-0.4,0-0.8,0-1-0.1l-8.5,0.1H399c-1.2,0-1.9-0.2-1.9-0.7c0-0.6,0.5-0.8,1.5-0.8c3.6,0,5.5-0.2,5.9-0.6c0.1-0.1,0.2-0.3,0.2-0.6
			l-0.1-1.4V85.6c-2.6,0-4.1,0-4.5-0.1s-0.6-0.3-0.6-0.8c0-0.6,0.6-0.9,1.9-0.9h3.3c0.3-8.8,1.5-15.1,3.5-19c3.2-6,8-8.9,14.4-8.9
			c3.1,0,5.5,0.7,7.5,2.2C432.1,59.4,433.1,61.3,433.1,63.7z"/>
		<path d="M469.8,106.6c0,6.7-2,12.4-6.1,16.9s-9.2,6.8-15.3,6.8c-6.3,0-11.6-2.3-15.8-6.8c-4.2-4.5-6.3-10.2-6.3-16.9
			c0-6.9,2.1-12.7,6.2-17.3s9.3-6.9,15.4-6.9c6.2,0,11.5,2.3,15.7,6.9C467.7,94,469.8,99.8,469.8,106.6z M460.3,106.5
			c0-7.6-1.2-13.6-3.5-17.8c-1.7-3.1-4.6-4.7-8.7-4.7c-3.9,0-6.9,2-9.1,6s-3.3,9.5-3.3,16.6c0,7,1.2,12.5,3.5,16.4s5.6,5.9,9.7,5.9
			c3.2,0,5.5-1.2,7.1-3.6C458.8,120.7,460.3,114.4,460.3,106.5z"/>
		<path d="M523.3,128.5c0,0.5-0.5,0.8-1.6,0.8h-1.2c-1.2,0-2.9,0-5.1,0c-6.8,0-10.8,0-12.1,0h-0.7c-0.9,0-1.4-0.2-1.4-0.7
			c0-0.3,0.2-0.6,0.6-0.6c0.4-0.1,1.7-0.1,4-0.2c1.3-0.1,2.1-0.3,2.3-0.6c0.2-0.3,0.3-1.4,0.3-3.4v-19.9c0-7.5-0.3-12-0.8-13.5
			c-1.2-3.1-3.5-4.7-7.1-4.7c-3.5,0-6.4,1.5-8.7,4.6c-0.7,0.9-1,2.1-1,3.7v32.4c0,0.8,0.7,1.3,2.2,1.3l3.2,0.1
			c0.7,0,1.1,0.2,1.1,0.7s-0.4,0.7-1.2,0.7h-1.7c-1.5,0-4,0-7.3,0c-0.8,0-2.4,0-4.9,0s-4,0-4.4,0H477c-1,0-1.6-0.2-1.6-0.6
			c0-0.4,0.6-0.7,1.9-0.8c0.9,0,1.8,0,2.6,0c1,0,1.7-0.2,1.9-0.7l0.3-1.6V103c0-7.9-0.1-12.2-0.2-13.1c-0.1-0.8-1-1.2-2.6-1.2
			c-0.5,0-1.3,0-2.5,0h-0.5c-1.4,0-2.1-0.3-2.1-0.8c0-0.7,0.7-1,2.2-1c2.1-0.1,4.3-0.5,6.8-1.1c2.4-0.7,4.1-1.5,5.1-2.4
			c0.6-0.6,1.1-0.8,1.5-0.8c0.5,0,0.7,0.7,0.7,2v5c3.6-4.6,8.2-7,13.9-7c5,0,8.6,1.8,10.8,5.5c1.2,2.1,1.9,6,1.9,11.9v23.7
			c0,2.2,0.1,3.4,0.3,3.6c0.4,0.4,1.4,0.6,3,0.6c0.2,0,0.6,0,1.1,0h0.7C523,127.9,523.3,128.1,523.3,128.5z"/>
		<path d="M555.3,123c0,0.6-0.9,1.7-2.6,3.3c-3,2.7-6.5,4.1-10.6,4.1c-3.8,0-6.7-1-8.6-2.9c-1.1-1.1-1.7-4.4-1.7-9.8V86.8
			c-0.1-0.7-0.5-1.1-1.1-1.1h-4c-1.5,0-2.3-0.2-2.3-0.7s0.4-0.8,1.1-0.8c5.4-0.5,9.6-3.2,12.6-8c0.4-0.6,0.9-0.9,1.6-0.9
			c0.5,0,0.7,0.2,0.7,0.7v0.4c0,0.3,0,0.9,0,1.8c0,2.9,0.1,4.8,0.4,5.6c0.6,0.1,1.7,0.2,3.1,0.2c3.8,0,6.3-0.2,7.6-0.5
			c0.3-0.1,0.5-0.1,0.7-0.1c0.6,0,0.8,0.3,0.8,0.9c0,1-2.8,1.5-8.4,1.5c-1,0-2.4,0-4.3,0V105c0,9.7,0.2,15.8,0.7,18.3
			s2.1,3.7,4.8,3.7c2.3,0,4.9-1.3,7.7-3.8c0.3-0.3,0.6-0.5,0.9-0.5C555,122.4,555.3,122.6,555.3,123z"/>
	</g>
	<g>
		<path d="M73.6,232.1c0,4.9-2.1,7.4-6.2,7.4c-1.4,0-2.7-0.5-3.8-1.6c-1.1-1.1-1.7-2.2-1.7-3.5c0-2.4,1.4-3.6,4.1-3.6l1.2,0.2
			c0.7,0.3,1.3,0.5,1.8,0.6c0.8,0,1.2-0.6,1.2-1.7c0-1.6-1-3-2.9-4.3c-2-1.3-4.2-1.9-6.6-1.9c-7.5,0-14.6,5.5-21.6,16.6
			C32,251.6,28.4,262.2,28.4,272c0,8.4,3.8,12.7,11.5,12.7c5.7,0,11.5-3.4,17.4-10.3c1-1.2,1.8-1.8,2.4-1.8c0.5,0,0.8,0.3,0.8,0.9
			c0,1.2-1.3,3.1-3.9,5.7c-5.7,5.7-12.2,8.5-19.3,8.5c-6.5,0-11.8-1.9-15.8-5.6c-4-3.8-6-8.8-6-15c0-10.5,5.6-21.3,16.9-32.4
			C41.6,225.5,51.2,221,61,221c3.7,0,6.7,1,9.1,3.1C72.4,226.1,73.6,228.8,73.6,232.1z"/>
		<path d="M140.1,245.3c0,11.8-5.4,22.4-16.2,31.9c-8.5,7.5-17.3,11.2-26.4,11.2c-6.2,0-11.4-2.2-15.4-6.5s-6-9.9-6-16.8
			c0-5.8,1.7-11.8,5-18c3.3-6.1,7.8-11.4,13.3-15.7c8.7-6.7,17-10.1,25.1-10.1c6.1,0,11.1,2.2,14.9,6.6
			C138.2,232.3,140.1,238.1,140.1,245.3z M128.5,235.5c0-7.6-3.4-11.5-10.3-11.5c-8.4,0-15.6,6-21.7,18c-5.8,11.5-8.8,22.2-8.8,32.3
			c0,7.5,3.4,11.3,10.1,11.3c8.5,0,15.5-5.4,21.1-16.3C125.3,257,128.5,245.7,128.5,235.5z"/>
		<path d="M219.7,232.7c0,2.4-1.3,6.6-3.9,12.6L203.6,273c-1.4,3.2-2.1,5.4-2.1,6.5c0,2.1,1.2,3.2,3.5,3.2c2.9,0,7.1-2.3,12.6-6.9
			c0.5-0.3,0.9-0.5,1.2-0.5c0.6,0,0.9,0.3,0.9,0.8c0,1.2-1.7,3-5,5.3c-4.6,3.1-9.5,4.7-14.6,4.7c-3.2,0-5.7-0.7-7.8-2
			c-2-1.4-3.1-3.1-3.1-5.2c0-1.7,1-4.8,2.9-9.1l12.1-27.2c2.9-6.6,4.4-11,4.4-13.4c0-3.4-1.8-5.2-5.3-5.2c-4.6,0-10.1,3.3-16.3,10
			c-4.7,5-9.1,12.1-13,21.1l-12.4,28.7c-0.5,1.5-1.2,2.3-2,2.3c-0.2,0-1.3,0-3.3,0c-0.3,0-0.9,0-1.8,0c-0.8,0-2.2,0-4.1,0
			c-0.3,0-0.7,0-1.1,0c-0.7,0-1.1-0.2-1.1-0.8c0-0.2,0.2-0.5,0.5-0.9l1.1-2.3l23.1-55.3c0.3-0.5,0.6-1,0.8-1.4
			c-0.1-0.7-1.4-1.1-3.8-1.2c-3-0.1-4.5-0.7-4.5-1.7c0-0.7,0.6-1.1,1.7-1.1c0.7,0,1.8,0.1,3.3,0.3s2.7,0.3,3.5,0.3
			c5.4,0,9-0.4,10.7-1.2c0.7-0.3,1.2-0.5,1.4-0.5c0.6,0,0.9,0.3,0.9,0.9c0,0.3-0.1,0.6-0.2,0.8l-5.6,14.2c0.8-0.9,2-2.2,3.5-3.8
			c7.4-8,14.6-12,21.6-12c4,0,7.3,1.1,9.8,3.4C218.5,226.2,219.7,229.1,219.7,232.7z"/>
		<path d="M307.1,188.8c0,3.9-1.9,5.9-5.6,5.9c-1.3,0-2.4-0.4-3.4-1.3c-1-0.9-1.4-1.8-1.4-2.9c0-0.8,0.7-2,2-3.5
			c0.4-0.8,0.6-1.5,0.6-2c0-2.5-2.1-3.8-6.3-3.8c-4.4,0-8,1.9-10.7,5.6c-2.7,3.8-6.1,11.4-10.3,22.9l-4.1,11.4h15.6c0.5,0,1.2,0,2,0
			c1.1,0,1.7,0.5,1.7,1.6s-0.7,1.6-2.1,1.6h-17.7l-13.1,35.9c-9.5,25.9-18.7,43.9-27.6,54.2c-3.6,4.1-7,7-10,8.7
			c-3.1,1.7-6.7,2.5-10.9,2.5c-8.6,0-12.8-2.9-12.8-8.6c0-4.1,2.2-6.2,6.6-6.2c3,0,4.5,1.3,4.5,3.8c0,0.8-0.5,1.9-1.5,3.2
			c-0.6,0.7-0.9,1.4-0.9,2c0,2.2,1.5,3.4,4.5,3.4c5.2,0,9.7-2.5,13.4-7.6c2.9-4,6.7-12.8,11.5-26.2l22.8-65.1h-3.5h-7.5
			c-0.8,0.4-1.7,0.6-2.7,0.6c-1.2,0-1.8-0.4-1.8-1.2c0-1.5,1.3-2.3,3.8-2.6c0.2,0,2,0,5.4,0h5.4h2.1c6-14.3,11-24.1,14.8-29.3
			c6.3-8.5,14.3-12.8,24-12.8c4,0,7.3,0.9,9.7,2.6C305.9,183.5,307.1,185.9,307.1,188.8z"/>
		<path d="M316.1,221.9c0,0.3-0.3,0.9-0.8,1.8c-0.7,1.2-1.9,3.7-3.5,7.4l-17.4,39.6c-2.3,5.3-3.5,8.6-3.5,9.9c0,2.7,1.4,4.1,4.2,4.1
			c1.9,0,4.1-0.7,6.6-2s4.4-2.9,5.7-4.8c0.9-1.2,1.6-1.8,2.1-1.8c0.6,0,0.9,0.3,0.9,0.9c0,1.2-1.4,3-4.2,5.4
			c-4.2,3.6-9,5.4-14.3,5.4c-3.5,0-6.4-0.9-8.7-2.7c-2.3-1.8-3.4-4.1-3.4-6.9c0-2.5,1.3-6.6,3.8-12.2l15.7-34.9
			c0.5-1.7,1.1-3,1.8-3.9c0.3-0.4,0.5-0.8,0.5-1.1c0-0.9-2.2-1.5-6.6-1.8c-0.8-0.2-1.2-0.6-1.2-1.1c0-0.9,0.4-1.4,1.2-1.4
			c0.1,0,0.9,0.1,2.3,0.3s3.7,0.3,6.8,0.3c4.2,0,7.2-0.4,8.9-1.1c1-0.4,1.7-0.6,2.1-0.6C315.7,220.7,316.1,221.1,316.1,221.9z
			 M326.5,193.6c0,4.2-2,6.3-5.9,6.3c-2,0-3.7-0.6-5-1.9c-1.3-1.3-2-2.8-2-4.8c0-4.1,2.3-6.2,6.9-6.2
			C324.5,187.1,326.5,189.3,326.5,193.6z"/>
		<path d="M395.8,221.9c0,0.3-0.4,1.4-1.2,3.2l-19.9,45.1c-1.9,4.3-2.9,7.6-2.9,9.9c0,2.6,1.3,3.9,3.9,3.9c3.9,0,7.9-2.7,11.8-8
			c0.8-1.1,1.4-1.7,1.8-1.7s0.6,0.2,0.6,0.6c0,1.1-1.1,2.9-3.3,5.3c-4.4,4.7-9.7,7.1-15.9,7.1c-3.1,0-5.7-0.8-7.6-2.3
			c-2-1.5-2.9-3.5-2.9-5.9c0-1.5,0.4-3.3,1.1-5.3c-6.3,9.3-13.7,13.9-22,13.9c-5.2,0-9.5-1.7-12.8-5c-3.3-3.4-5-7.7-5-12.9
			c0-5.7,1.9-12,5.7-18.8c3.8-6.8,8.9-13.1,15.3-18.7c8.7-7.6,16.6-11.5,23.9-11.5c7.6,0,11.8,3.6,12.7,10.9l3.8-8
			c0.8-1.6,1.5-2.4,2.1-2.4c0.2,0,0.8,0.1,1.8,0.3s1.7,0.3,2.1,0.3c2.2,0,3.9-0.2,5.1-0.7c0.4-0.2,0.8-0.4,1.1-0.4
			C395.5,220.8,395.8,221.2,395.8,221.9z M376.8,234.4c0-3.1-0.9-5.6-2.8-7.5s-4.3-2.9-7.2-2.9c-5,0-9.9,3-14.5,8.9
			c-5.3,6.7-9.6,13.8-12.8,21.3c-3.2,7.5-4.8,14-4.8,19.6c0,6.8,2.8,10.2,8.5,10.2c3.2,0,6.7-1.8,10.5-5.3s6.9-7.9,9.4-13.2
			l11.8-25.2C376.1,237.4,376.8,235.5,376.8,234.4z"/>
		<path d="M470.4,232.7c0,2.4-1.3,6.6-3.9,12.6L454.2,273c-1.4,3.2-2.1,5.4-2.1,6.5c0,2.1,1.2,3.2,3.5,3.2c2.9,0,7.1-2.3,12.6-6.9
			c0.5-0.3,0.9-0.5,1.2-0.5c0.6,0,0.9,0.3,0.9,0.8c0,1.2-1.7,3-5,5.3c-4.6,3.1-9.5,4.7-14.6,4.7c-3.2,0-5.7-0.7-7.8-2
			s-3.1-3.1-3.1-5.2c0-1.7,1-4.8,2.9-9.1l12.1-27.2c2.9-6.6,4.4-11,4.4-13.4c0-3.4-1.8-5.2-5.3-5.2c-4.6,0-10.1,3.3-16.3,10
			c-4.7,5-9.1,12.1-13,21.1l-12.4,28.7c-0.5,1.5-1.2,2.3-2,2.3c-0.2,0-1.3,0-3.3,0c-0.3,0-0.9,0-1.8,0c-0.8,0-2.2,0-4.1,0
			c-0.3,0-0.7,0-1.1,0c-0.7,0-1.1-0.2-1.1-0.8c0-0.2,0.2-0.5,0.5-0.9l1.1-2.3l23.1-55.3c0.3-0.5,0.6-1,0.8-1.4
			c-0.1-0.7-1.4-1.1-3.8-1.2c-3-0.1-4.5-0.7-4.5-1.7c0-0.7,0.6-1.1,1.7-1.1c0.7,0,1.8,0.1,3.3,0.3s2.7,0.3,3.5,0.3
			c5.4,0,9-0.4,10.7-1.2c0.7-0.3,1.2-0.5,1.4-0.5c0.6,0,0.9,0.3,0.9,0.9c0,0.3-0.1,0.6-0.2,0.8l-5.6,14.2c0.8-0.9,2-2.2,3.5-3.8
			c7.4-8,14.6-12,21.6-12c4,0,7.3,1.1,9.8,3.4C469.1,226.2,470.4,229.1,470.4,232.7z"/>
		<path d="M541.5,232.1c0,4.9-2.1,7.4-6.2,7.4c-1.4,0-2.7-0.5-3.8-1.6s-1.7-2.2-1.7-3.5c0-2.4,1.4-3.6,4.1-3.6l1.2,0.2
			c0.7,0.3,1.3,0.5,1.8,0.6c0.8,0,1.2-0.6,1.2-1.7c0-1.6-1-3-2.9-4.3c-2-1.3-4.2-1.9-6.6-1.9c-7.5,0-14.6,5.5-21.6,16.6
			c-7.1,11.3-10.7,21.9-10.7,31.8c0,8.4,3.8,12.7,11.5,12.7c5.7,0,11.5-3.4,17.4-10.3c1-1.2,1.8-1.8,2.4-1.8c0.5,0,0.8,0.3,0.8,0.9
			c0,1.2-1.3,3.1-3.9,5.7c-5.7,5.7-12.2,8.5-19.3,8.5c-6.5,0-11.8-1.9-15.8-5.6c-4-3.8-6-8.8-6-15c0-10.5,5.6-21.3,16.9-32.4
			c9.3-9.1,18.8-13.7,28.7-13.7c3.7,0,6.7,1,9.1,3.1C540.3,226.1,541.5,228.8,541.5,232.1z"/>
		<path d="M603.9,231.2c0,5.4-2.9,9.9-8.8,13.4c-5.8,3.6-13.2,5.3-22.2,5.3c-3.2,0-6.8-0.2-10.7-0.6c-3.7,7.7-5.6,14.9-5.6,21.5
			c0,8.9,4,13.4,11.9,13.4c6.1,0,12.1-3.2,18-9.5c1.3-1.4,2.2-2.1,2.6-2.1c0.5,0,0.8,0.2,0.8,0.7c0,2.3-2.4,5.1-7.1,8.5
			c-5.4,3.9-11.1,5.8-16.9,5.8c-6.5,0-11.9-1.9-16.2-5.7c-4.2-3.8-6.3-8.6-6.3-14.5c0-11.2,6.1-22.1,18.4-32.7
			c10.8-9.2,20.4-13.9,28.8-13.9C599.4,221,603.9,224.4,603.9,231.2z M593.1,228.7c0-3.1-1.6-4.7-4.7-4.7c-3.2,0-6.4,1.2-9.5,3.6
			c-5.6,4.4-10.8,11-15.6,19.8c1.2,0.1,2.6,0.2,4.1,0.2c5.6,0,11.1-1.7,16.5-5.1C590.1,238.6,593.1,234,593.1,228.7z"/>
		<path d="M622,278.5c0,2.5-0.8,4.6-2.3,6.1c-1.6,1.6-3.6,2.3-6.1,2.3c-4.9,0-7.4-2.4-7.4-7.1c0-2.5,0.8-4.6,2.5-6.3
			c1.7-1.7,3.7-2.5,6.3-2.5C619.6,271.1,622,273.6,622,278.5z"/>
	</g>
</g>
<g class="st5">
	<g class="st1">
		<path d="M103,127c0,0.6-0.4,0.9-1.2,0.9h-1c-0.4-0.2-5-0.3-13.9-0.3c-1.7,0-3.4,0.1-5.1,0.2c-0.9,0.1-2.2,0.1-4.1,0.1
			c-0.9,0-1.3-0.3-1.3-0.9c0-0.5,0.9-0.8,2.7-0.9c2.7-0.1,4.3-0.4,4.8-1s0.7-2.5,0.7-5.9V65.4c0-3.3-0.2-5.2-0.5-5.6
			c-0.4-0.7-2.3-1.1-5.7-1.2c-1.3-0.1-2-0.3-2-0.7c0-0.5,0.4-0.8,1.2-0.8h13.9c1,0,3,0,6,0.1l3.9-0.1c1.1,0,1.6,0.3,1.6,0.9
			c0,0.5-1.5,0.8-4.5,1c-1.7,0.1-2.8,0.4-3.2,0.9c-0.4,0.5-0.6,2-0.6,4.3v54.5c0,3.9,0.2,6,0.5,6.3c0.7,0.7,3,1.2,6.6,1.3
			C102.6,126.2,103,126.5,103,127z"/>
		<path d="M129.3,127.2c0,0.6-0.4,0.9-1.3,0.9h-1.2c-0.1,0-1.9-0.1-5.4-0.2h-3.2c-0.5,0-3.3,0.1-8.2,0.2c-0.4,0-0.8,0.1-1.2,0.1
			c-1,0.1-1.5-0.2-1.5-0.9c0-0.4,0.4-0.7,1.1-0.7h2.7c1.9,0,2.9-0.4,2.9-1.2c0.1-0.4,0.1-3.1,0.1-8V65.5c0-2.2-0.1-3.5-0.2-3.7
			c-0.2-0.5-0.7-0.8-1.6-0.8h-0.8h-2.9c-1,0-1.4-0.3-1.4-0.9c0-0.5,0.8-0.8,2.6-0.9c3.3-0.2,6.3-1,9.1-2.2l2.1-1l0.8-0.3
			c0.5,2,0.8,5,0.7,9v7.2v50c0,2,0,3.2,0.1,3.6s0.3,0.6,0.7,0.8c0.1,0.1,1.3,0.1,3.8,0.2C128.5,126.5,129.3,126.7,129.3,127.2z"/>
		<path d="M165.1,114.9c0,4-1.4,7.3-4.3,10.1c-2.9,2.8-6.3,4.1-10.3,4.1c-2.3,0-5.1-0.8-8.4-2.4c-0.9-0.5-1.7-0.7-2.3-0.7
			c-0.9,0-1.7,0.6-2.1,1.9c-0.3,0.8-0.6,1.2-1.1,1.2s-0.7-0.3-0.7-0.8c0-0.3,0-0.7,0-1.2c0-1.4,0-3.4,0-6c0-0.2,0-1,0-2.4
			s0-2.4,0-2.9v-1.1c0-0.7,0.2-1.1,0.7-1.1s0.8,0.4,0.9,1.1c0.4,3.2,1.3,5.6,2.7,7.4c2.7,3.6,6.4,5.3,10.9,5.3
			c2.4,0,4.4-0.7,5.9-2.1s2.2-3.3,2.2-5.7c0-2.7-0.9-4.8-2.5-6.3c-1-0.9-1.8-1.5-2.6-1.9s-3.1-1.3-6.9-2.7
			c-7.5-2.9-11.3-7.2-11.3-12.9c0-3.8,1.3-7,3.8-9.6c2.6-2.6,5.7-3.9,9.5-3.9c1.3,0,3.4,0.4,6.1,1.2c0.7,0.2,1.3,0.3,1.8,0.3
			c1.4,0,2.3-0.7,2.6-2c0.2-0.7,0.5-1,0.9-1c0.5,0,0.7,0.3,0.7,0.8c0,0.1,0,0.3,0,0.6v4.3c-0.1,1.6,0.1,4.3,0.5,7.9v0.2
			c0,0.5-0.3,0.8-0.8,0.8c-0.4,0-0.9-1-1.5-3.1c-0.7-2.5-2.1-4.5-3.9-6c-1.9-1.5-4-2.3-6.5-2.3c-2.3,0-4.2,0.7-5.7,2.1
			s-2.2,3.2-2.2,5.4c0,3.4,2.3,6,6.8,7.8c7.1,2.8,11.6,5.1,13.5,7C163.9,108.6,165.1,111.5,165.1,114.9z"/>
		<path d="M237.4,127.3c0,0.5-0.5,0.8-1.5,0.8h-1.2c-1.2,0-2.9,0-5,0c-6.7,0-10.6,0-11.8,0h-0.7c-0.9,0-1.3-0.2-1.3-0.7
			c0-0.3,0.2-0.5,0.6-0.6c0.4-0.1,1.7-0.1,3.9-0.2c1.3-0.1,2-0.3,2.2-0.6c0.2-0.3,0.3-1.4,0.3-3.3v-19.5c0-7.4-0.3-11.8-0.8-13.2
			c-1.2-3.1-3.5-4.6-6.9-4.6s-6.3,1.5-8.6,4.5c-0.7,0.9-1,2.1-1,3.7v31.7c0,0.8,0.7,1.3,2.2,1.3l3.1,0.1c0.7,0,1,0.2,1,0.7
			s-0.4,0.7-1.2,0.7H209c-1.5,0-3.9,0-7.1,0c-0.7,0-2.4,0-4.8,0c-2.5,0-3.9,0-4.3,0H192c-1,0-1.5-0.2-1.5-0.6s0.6-0.7,1.8-0.8
			c0.9,0,1.7,0,2.5,0c1,0,1.6-0.2,1.8-0.7l0.3-1.5v-22.2c0-7.7-0.1-12-0.2-12.8c-0.1-0.8-1-1.2-2.5-1.2c-0.5,0-1.3,0-2.4,0h-0.5
			c-1.4,0-2-0.3-2-0.8c0-0.7,0.7-1,2.1-1c2-0.1,4.2-0.4,6.6-1.1c2.4-0.7,4-1.5,5-2.3c0.6-0.5,1.1-0.8,1.4-0.8c0.5,0,0.7,0.6,0.7,1.9
			V89c3.5-4.6,8.1-6.8,13.7-6.8c4.9,0,8.4,1.8,10.6,5.4c1.2,2,1.8,5.9,1.8,11.6v23.3c0,2.2,0.1,3.4,0.3,3.6c0.4,0.4,1.4,0.6,3,0.6
			c0.2,0,0.6,0,1.1,0h0.7C237.1,126.7,237.4,126.9,237.4,127.3z"/>
		<path d="M284.3,105.9c0,6.6-2,12.1-6,16.6s-9,6.7-15,6.7c-6.2,0-11.4-2.2-15.5-6.7s-6.2-10-6.2-16.6c0-6.8,2-12.4,6.1-16.9
			c4-4.5,9.1-6.7,15.1-6.7c6.1,0,11.2,2.3,15.4,6.8C282.3,93.5,284.3,99.1,284.3,105.9z M275,105.8c0-7.5-1.2-13.3-3.5-17.4
			c-1.7-3.1-4.6-4.6-8.6-4.6c-3.8,0-6.8,2-8.9,5.9s-3.2,9.3-3.2,16.3c0,6.9,1.1,12.2,3.4,16.1c2.3,3.8,5.5,5.8,9.5,5.8
			c3.1,0,5.4-1.2,6.9-3.6C273.6,119.6,275,113.5,275,105.8z"/>
		<path d="M338.9,124.4c0,0.5-0.7,0.7-2.2,0.8c-5.3,0.3-10,1.5-14,3.5c-0.3,0.1-0.5,0.2-0.7,0.2c-0.4,0-0.6-0.3-0.6-0.8v-5.7
			c-3.1,4.4-7.5,6.5-13.1,6.5c-5,0-8.6-1.5-10.7-4.4c-0.9-1.2-1.4-2.3-1.6-3.3s-0.3-3.7-0.3-8.2V89.8c0-2.4-0.1-3.7-0.4-4.2
			c-0.3-0.4-1.2-0.6-2.8-0.7h-1.3c-1.8,0.1-2.8-0.1-2.8-0.8c0-0.5,0.6-0.7,1.7-0.7c1.2,0,3,0.1,5.3,0.3c1.2,0.1,1.8,0.1,2,0.1
			c2.4,0,4.6-0.1,6.6-0.4v28.3c0,5.2,0.3,8.7,1,10.4c1.1,2.6,3.3,4,6.6,4c3.6,0,6.3-1.5,8-4.5c1.2-2.2,1.8-5.6,1.8-10.4V95.5
			c0-2.3-0.1-4-0.3-5.2V87c-0.1-1-0.3-1.6-0.7-1.8c-0.4-0.2-1.1-0.3-2.3-0.3c-2.9,0.1-4.3-0.2-4.3-0.9c0-0.4,0.7-0.6,2.1-0.6h0.9
			c0.5,0,2.3,0,5.4,0c4.1,0,6.6,0,7.5,0v28.5c0,4.9,0.1,8,0.3,9.3c0.2,1.3,0.7,2,1.6,2.2c0.8,0.2,2.7,0.3,5.7,0.3
			C338.5,123.7,338.9,124,338.9,124.4z"/>
		<path d="M372.9,114.9c0,4-1.4,7.3-4.3,10.1c-2.9,2.8-6.3,4.1-10.3,4.1c-2.3,0-5.1-0.8-8.4-2.4c-0.9-0.5-1.7-0.7-2.3-0.7
			c-0.9,0-1.7,0.6-2.1,1.9c-0.3,0.8-0.6,1.2-1.1,1.2s-0.7-0.3-0.7-0.8c0-0.3,0-0.7,0-1.2c0-1.4,0-3.4,0-6c0-0.2,0-1,0-2.4
			s0-2.4,0-2.9v-1.1c0-0.7,0.2-1.1,0.7-1.1s0.8,0.4,0.9,1.1c0.4,3.2,1.3,5.6,2.7,7.4c2.7,3.6,6.4,5.3,10.9,5.3
			c2.4,0,4.4-0.7,5.9-2.1s2.2-3.3,2.2-5.7c0-2.7-0.9-4.8-2.6-6.3c-1-0.9-1.8-1.5-2.6-1.9c-0.8-0.4-3.1-1.3-6.9-2.7
			c-7.5-2.9-11.3-7.2-11.3-12.9c0-3.8,1.3-7,3.8-9.6c2.6-2.6,5.7-3.9,9.5-3.9c1.3,0,3.4,0.4,6.1,1.2c0.7,0.2,1.3,0.3,1.8,0.3
			c1.4,0,2.3-0.7,2.6-2c0.2-0.7,0.5-1,0.9-1c0.5,0,0.7,0.3,0.7,0.8c0,0.1,0,0.3,0,0.6v4.3c-0.1,1.6,0.1,4.3,0.5,7.9v0.2
			c0,0.5-0.3,0.8-0.8,0.8c-0.4,0-0.9-1-1.5-3.1c-0.7-2.5-2.1-4.5-3.9-6c-1.9-1.5-4-2.3-6.5-2.3c-2.3,0-4.2,0.7-5.7,2.1
			s-2.2,3.2-2.2,5.4c0,3.4,2.3,6,6.8,7.8c7.1,2.8,11.6,5.1,13.5,7C371.6,108.6,372.9,111.5,372.9,114.9z"/>
		<path d="M432.5,63.7c0,1.4-0.4,2.6-1.3,3.5c-0.9,0.9-2,1.4-3.3,1.4s-2.4-0.4-3.3-1.2c-0.9-0.8-1.3-1.8-1.3-3.1
			c0-1,0.4-2.2,1.3-3.6c0.2-0.3,0.3-0.6,0.3-0.9c0-1.6-1.1-2.3-3.3-2.3c-3.8,0-6.3,2.4-7.5,7.3c-0.6,2.6-0.9,7.1-0.9,13.6v5h6.7
			c1.3,0,2,0.3,2,0.9s-0.9,0.9-2.6,0.9h-6v40c0,1,0.9,1.4,2.8,1.4c2.9-0.1,4.5,0.1,4.7,0.4c0.1,0.1,0.1,0.2,0.1,0.4
			c0,0.5-0.4,0.7-1.2,0.7c-0.4,0-0.7,0-1-0.1l-8.4,0.1h-11.1c-1.2,0-1.8-0.2-1.8-0.7s0.5-0.8,1.5-0.8c3.5,0,5.4-0.2,5.8-0.6
			c0.1-0.1,0.2-0.3,0.2-0.6l-0.1-1.3V85.3c-2.5,0-4,0-4.4-0.1s-0.6-0.3-0.6-0.8c0-0.6,0.6-0.9,1.8-0.9h3.3
			c0.3-8.6,1.4-14.9,3.5-18.7c3.1-5.8,7.8-8.8,14.1-8.8c3,0,5.4,0.7,7.3,2.1C431.6,59.6,432.5,61.4,432.5,63.7z"/>
		<path d="M469.1,105.9c0,6.6-2,12.1-6,16.6s-9,6.7-15,6.7c-6.2,0-11.4-2.2-15.5-6.7s-6.2-10-6.2-16.6c0-6.8,2-12.4,6.1-16.9
			c4-4.5,9.1-6.7,15.1-6.7c6.1,0,11.2,2.3,15.4,6.8C467.1,93.5,469.1,99.1,469.1,105.9z M459.9,105.8c0-7.5-1.2-13.3-3.5-17.4
			c-1.7-3.1-4.6-4.6-8.6-4.6c-3.8,0-6.8,2-8.9,5.9s-3.2,9.3-3.2,16.3c0,6.9,1.1,12.2,3.4,16.1c2.3,3.8,5.5,5.8,9.5,5.8
			c3.1,0,5.4-1.2,6.9-3.6C458.4,119.6,459.9,113.5,459.9,105.8z"/>
		<path d="M522.3,127.3c0,0.5-0.5,0.8-1.5,0.8h-1.2c-1.2,0-2.9,0-5,0c-6.7,0-10.6,0-11.8,0H502c-0.9,0-1.3-0.2-1.3-0.7
			c0-0.3,0.2-0.5,0.6-0.6s1.7-0.1,3.9-0.2c1.3-0.1,2-0.3,2.2-0.6c0.2-0.3,0.3-1.4,0.3-3.3v-19.5c0-7.4-0.3-11.8-0.8-13.2
			c-1.2-3.1-3.5-4.6-6.9-4.6s-6.3,1.5-8.6,4.5c-0.7,0.9-1,2.1-1,3.7v31.7c0,0.8,0.7,1.3,2.2,1.3l3.1,0.1c0.7,0,1,0.2,1,0.7
			s-0.4,0.7-1.2,0.7h-1.6c-1.5,0-3.9,0-7.1,0c-0.7,0-2.4,0-4.8,0c-2.5,0-3.9,0-4.3,0h-0.6c-1,0-1.5-0.2-1.5-0.6s0.6-0.7,1.8-0.8
			c0.9,0,1.7,0,2.5,0c1,0,1.6-0.2,1.8-0.7l0.3-1.5v-22.2c0-7.7-0.1-12-0.2-12.8s-1-1.2-2.5-1.2c-0.5,0-1.3,0-2.4,0h-0.5
			c-1.4,0-2-0.3-2-0.8c0-0.7,0.7-1,2.1-1c2-0.1,4.2-0.4,6.6-1.1s4-1.5,5-2.3c0.6-0.5,1.1-0.8,1.4-0.8c0.5,0,0.7,0.6,0.7,1.9V89
			c3.5-4.6,8.1-6.8,13.7-6.8c4.9,0,8.4,1.8,10.6,5.4c1.2,2,1.8,5.9,1.8,11.6v23.3c0,2.2,0.1,3.4,0.3,3.6c0.4,0.4,1.4,0.6,3,0.6
			c0.2,0,0.6,0,1.1,0h0.7C521.9,126.7,522.3,126.9,522.3,127.3z"/>
		<path d="M554.2,121.9c0,0.6-0.9,1.7-2.5,3.3c-2.9,2.7-6.4,4-10.4,4c-3.7,0-6.6-1-8.5-2.8c-1.1-1.1-1.6-4.3-1.6-9.6V86.4
			c-0.1-0.7-0.4-1.1-1.1-1.1h-3.9c-1.5,0-2.2-0.2-2.2-0.7s0.4-0.7,1.1-0.8c5.3-0.5,9.4-3.1,12.4-7.8c0.4-0.6,0.9-0.9,1.5-0.9
			c0.5,0,0.7,0.2,0.7,0.7v0.4c0,0.3,0,0.9,0,1.7c0,2.9,0.1,4.7,0.4,5.5c0.6,0.1,1.6,0.2,3.1,0.2c3.7,0,6.2-0.2,7.4-0.5
			c0.3-0.1,0.5-0.1,0.7-0.1c0.5,0,0.8,0.3,0.8,0.9c0,1-2.8,1.5-8.3,1.5c-1,0-2.3,0-4.2,0v18.9c0,9.5,0.2,15.5,0.7,17.9
			s2,3.6,4.7,3.6c2.2,0,4.8-1.3,7.5-3.8c0.3-0.3,0.6-0.5,0.9-0.5C554,121.4,554.2,121.5,554.2,121.9z"/>
	</g>
	<g class="st1">
		<path d="M177.6,235.4c0,3.3-1.4,4.9-4.1,4.9c-0.9,0-1.8-0.3-2.5-1s-1.1-1.5-1.1-2.4c0-1.6,0.9-2.4,2.7-2.4l0.8,0.1
			c0.5,0.2,0.9,0.3,1.2,0.4c0.5,0,0.8-0.4,0.8-1.1c0-1.1-0.6-2-1.9-2.8c-1.3-0.8-2.8-1.2-4.4-1.2c-4.9,0-9.7,3.7-14.3,11
			c-4.7,7.5-7.1,14.5-7.1,21c0,5.6,2.5,8.4,7.6,8.4c3.8,0,7.6-2.3,11.5-6.8c0.7-0.8,1.2-1.2,1.6-1.2c0.3,0,0.5,0.2,0.5,0.6
			c0,0.8-0.9,2-2.6,3.8c-3.8,3.8-8.1,5.6-12.8,5.6c-4.3,0-7.8-1.2-10.5-3.7c-2.6-2.5-3.9-5.8-3.9-9.9c0-7,3.7-14.1,11.2-21.5
			c6.1-6.1,12.5-9.1,19-9.1c2.5,0,4.5,0.7,6,2C176.8,231.4,177.6,233.2,177.6,235.4z"/>
		<path d="M217.4,244.1c0,7.8-3.6,14.8-10.7,21.1c-5.6,4.9-11.4,7.4-17.5,7.4c-4.1,0-7.5-1.4-10.2-4.3s-4-6.6-4-11.1
			c0-3.9,1.1-7.8,3.3-11.9c2.2-4.1,5.1-7.5,8.8-10.4c5.7-4.5,11.3-6.7,16.6-6.7c4.1,0,7.4,1.5,9.9,4.4
			C216.1,235.5,217.4,239.4,217.4,244.1z M209.7,237.6c0-5.1-2.3-7.6-6.8-7.6c-5.5,0-10.3,4-14.4,11.9c-3.9,7.6-5.8,14.7-5.8,21.4
			c0,5,2.2,7.5,6.7,7.5c5.6,0,10.3-3.6,14-10.8C207.6,251.9,209.7,244.4,209.7,237.6z"/>
		<path d="M265.8,235.7c0,1.6-0.9,4.4-2.6,8.3l-8.1,18.4c-0.9,2.1-1.4,3.6-1.4,4.3c0,1.4,0.8,2.1,2.3,2.1c1.9,0,4.7-1.5,8.3-4.6
			c0.3-0.2,0.6-0.3,0.8-0.3c0.4,0,0.6,0.2,0.6,0.5c0,0.8-1.1,2-3.3,3.5c-3,2.1-6.3,3.1-9.7,3.1c-2.1,0-3.8-0.5-5.1-1.4s-2-2.1-2-3.5
			c0-1.1,0.6-3.1,1.9-6l8-18c1.9-4.4,2.9-7.3,2.9-8.8c0-2.3-1.2-3.4-3.5-3.4c-3.1,0-6.7,2.2-10.8,6.6c-3.1,3.3-6,8-8.6,14l-8.2,19
			c-0.3,1-0.8,1.5-1.3,1.5c-0.1,0-0.9,0-2.2,0c-0.2,0-0.6,0-1.2,0c-0.5,0-1.4,0-2.7,0c-0.2,0-0.4,0-0.7,0c-0.5,0-0.7-0.2-0.7-0.5
			c0-0.1,0.1-0.3,0.3-0.6l0.7-1.5l15.3-36.6c0.2-0.3,0.4-0.6,0.5-0.9c-0.1-0.5-0.9-0.7-2.5-0.8c-2-0.1-3-0.4-3-1.1
			c0-0.5,0.4-0.7,1.1-0.7c0.5,0,1.2,0.1,2.2,0.2c1,0.1,1.8,0.2,2.3,0.2c3.6,0,6-0.3,7.1-0.8c0.5-0.2,0.8-0.3,0.9-0.3
			c0.4,0,0.6,0.2,0.6,0.6c0,0.2,0,0.4-0.1,0.5l-3.7,9.4c0.5-0.6,1.3-1.5,2.3-2.5c4.9-5.3,9.7-8,14.3-8c2.7,0,4.8,0.8,6.5,2.3
			C265,231.5,265.8,233.4,265.8,235.7z"/>
		<path d="M319.4,206.7c0,2.6-1.2,3.9-3.7,3.9c-0.9,0-1.6-0.3-2.2-0.8c-0.6-0.6-1-1.2-1-2c0-0.5,0.4-1.3,1.3-2.3
			c0.3-0.5,0.4-1,0.4-1.3c0-1.7-1.4-2.5-4.2-2.5c-2.9,0-5.3,1.2-7.1,3.7c-1.8,2.5-4.1,7.6-6.8,15.2l-2.7,7.6h10.3c0.3,0,0.8,0,1.3,0
			c0.7,0,1.1,0.3,1.1,1s-0.5,1-1.4,1H293l-8.7,23.8c-6.3,17.1-12.4,29.1-18.3,35.9c-2.4,2.7-4.6,4.7-6.6,5.8c-2,1.1-4.5,1.7-7.2,1.7
			c-5.7,0-8.5-1.9-8.5-5.7c0-2.7,1.5-4.1,4.4-4.1c2,0,3,0.8,3,2.5c0,0.5-0.3,1.2-1,2.1c-0.4,0.5-0.6,0.9-0.6,1.3c0,1.5,1,2.2,3,2.2
			c3.5,0,6.4-1.7,8.9-5c1.9-2.7,4.5-8.5,7.6-17.4l15.1-43.1h-2.3h-5c-0.5,0.3-1.1,0.4-1.8,0.4c-0.8,0-1.2-0.3-1.2-0.8
			c0-1,0.8-1.5,2.5-1.7c0.1,0,1.3,0,3.6,0h3.6h1.4c4-9.5,7.3-16,9.8-19.4c4.2-5.6,9.5-8.5,15.9-8.5c2.7,0,4.8,0.6,6.5,1.8
			C318.6,203.2,319.4,204.8,319.4,206.7z"/>
		<path d="M321,228.6c0,0.2-0.2,0.6-0.5,1.2c-0.5,0.8-1.2,2.4-2.3,4.9l-11.5,26.2c-1.5,3.5-2.3,5.7-2.3,6.6c0,1.8,0.9,2.7,2.8,2.7
			c1.3,0,2.7-0.4,4.4-1.3c1.6-0.9,2.9-1.9,3.8-3.2c0.6-0.8,1.1-1.2,1.4-1.2c0.4,0,0.6,0.2,0.6,0.6c0,0.8-0.9,2-2.8,3.6
			c-2.8,2.4-6,3.6-9.5,3.6c-2.3,0-4.2-0.6-5.8-1.8c-1.5-1.2-2.2-2.7-2.2-4.6c0-1.7,0.8-4.4,2.5-8.1l10.4-23.1c0.3-1.1,0.7-2,1.2-2.6
			c0.2-0.3,0.3-0.5,0.3-0.7c0-0.6-1.5-1-4.4-1.2c-0.5-0.1-0.8-0.4-0.8-0.7c0-0.6,0.3-0.9,0.8-0.9c0.1,0,0.6,0.1,1.5,0.2
			c0.9,0.1,2.4,0.2,4.5,0.2c2.8,0,4.8-0.2,5.9-0.7c0.7-0.3,1.1-0.4,1.4-0.4C320.8,227.8,321,228.1,321,228.6z M327.9,209.9
			c0,2.8-1.3,4.2-3.9,4.2c-1.3,0-2.4-0.4-3.3-1.2s-1.3-1.9-1.3-3.1c0-2.7,1.5-4.1,4.6-4.1C326.6,205.6,327.9,207,327.9,209.9z"/>
		<path d="M369.5,228.6c0,0.2-0.3,0.9-0.8,2.1l-13.2,29.9c-1.3,2.9-1.9,5-1.9,6.6c0,1.7,0.9,2.6,2.6,2.6c2.6,0,5.2-1.8,7.8-5.3
			c0.5-0.7,0.9-1.1,1.2-1.1c0.3,0,0.4,0.1,0.4,0.4c0,0.7-0.7,1.9-2.2,3.5c-2.9,3.1-6.4,4.7-10.5,4.7c-2.1,0-3.8-0.5-5-1.5
			c-1.3-1-2-2.3-2-3.9c0-1,0.2-2.2,0.7-3.5c-4.2,6.1-9.1,9.2-14.6,9.2c-3.5,0-6.3-1.1-8.5-3.3c-2.2-2.2-3.3-5.1-3.3-8.5
			c0-3.8,1.3-7.9,3.8-12.5c2.5-4.5,5.9-8.6,10.1-12.4c5.7-5.1,11-7.6,15.8-7.6c5,0,7.8,2.4,8.4,7.2l2.5-5.3c0.5-1.1,1-1.6,1.4-1.6
			c0.1,0,0.5,0.1,1.2,0.2c0.7,0.1,1.1,0.2,1.4,0.2c1.5,0,2.6-0.2,3.4-0.5c0.3-0.2,0.5-0.2,0.7-0.2
			C369.3,227.9,369.5,228.1,369.5,228.6z M356.9,236.9c0-2.1-0.6-3.7-1.9-5c-1.2-1.3-2.8-1.9-4.8-1.9c-3.3,0-6.5,2-9.6,5.9
			c-3.5,4.4-6.4,9.1-8.5,14.1c-2.1,4.9-3.2,9.3-3.2,13c0,4.5,1.9,6.8,5.6,6.8c2.1,0,4.4-1.2,6.9-3.5s4.6-5.2,6.2-8.8l7.8-16.7
			C356.5,238.9,356.9,237.6,356.9,236.9z"/>
		<path d="M414.6,235.7c0,1.6-0.9,4.4-2.6,8.3l-8.1,18.4c-0.9,2.1-1.4,3.6-1.4,4.3c0,1.4,0.8,2.1,2.3,2.1c1.9,0,4.7-1.5,8.3-4.6
			c0.3-0.2,0.6-0.3,0.8-0.3c0.4,0,0.6,0.2,0.6,0.5c0,0.8-1.1,2-3.3,3.5c-3,2.1-6.3,3.1-9.7,3.1c-2.1,0-3.8-0.5-5.2-1.4
			c-1.3-0.9-2-2.1-2-3.5c0-1.1,0.6-3.1,1.9-6l8-18c1.9-4.4,2.9-7.3,2.9-8.8c0-2.3-1.2-3.4-3.5-3.4c-3.1,0-6.7,2.2-10.8,6.6
			c-3.1,3.3-6,8-8.6,14l-8.2,19c-0.3,1-0.8,1.5-1.3,1.5c-0.1,0-0.9,0-2.2,0c-0.2,0-0.6,0-1.2,0c-0.5,0-1.4,0-2.7,0
			c-0.2,0-0.4,0-0.7,0c-0.5,0-0.7-0.2-0.7-0.5c0-0.1,0.1-0.3,0.3-0.6l0.7-1.5l15.3-36.6c0.2-0.3,0.4-0.6,0.5-0.9
			c-0.1-0.5-0.9-0.7-2.5-0.8c-2-0.1-3-0.4-3-1.1c0-0.5,0.4-0.7,1.1-0.7c0.5,0,1.2,0.1,2.2,0.2c1,0.1,1.8,0.2,2.3,0.2
			c3.6,0,6-0.3,7.1-0.8c0.5-0.2,0.8-0.3,0.9-0.3c0.4,0,0.6,0.2,0.6,0.6c0,0.2,0,0.4-0.1,0.5l-3.7,9.4c0.5-0.6,1.3-1.5,2.3-2.5
			c4.9-5.3,9.7-8,14.3-8c2.7,0,4.8,0.8,6.5,2.3C413.8,231.5,414.6,233.4,414.6,235.7z"/>
		<path d="M457.4,235.4c0,3.3-1.4,4.9-4.1,4.9c-0.9,0-1.8-0.3-2.5-1s-1.1-1.5-1.1-2.4c0-1.6,0.9-2.4,2.7-2.4l0.8,0.1
			c0.5,0.2,0.9,0.3,1.2,0.4c0.5,0,0.8-0.4,0.8-1.1c0-1.1-0.7-2-2-2.8s-2.8-1.2-4.4-1.2c-4.9,0-9.7,3.7-14.3,11
			c-4.7,7.5-7.1,14.5-7.1,21c0,5.6,2.5,8.4,7.6,8.4c3.8,0,7.6-2.3,11.5-6.8c0.7-0.8,1.2-1.2,1.6-1.2c0.3,0,0.5,0.2,0.5,0.6
			c0,0.8-0.9,2-2.6,3.8c-3.8,3.8-8.1,5.6-12.8,5.6c-4.3,0-7.8-1.2-10.5-3.7c-2.6-2.5-4-5.8-4-9.9c0-7,3.7-14.1,11.2-21.5
			c6.1-6.1,12.5-9.1,19-9.1c2.5,0,4.5,0.7,6,2C456.6,231.4,457.4,233.2,457.4,235.4z"/>
		<path d="M494.4,234.8c0,3.6-1.9,6.6-5.8,8.9c-3.9,2.4-8.8,3.5-14.7,3.5c-2.1,0-4.5-0.1-7.1-0.4c-2.5,5.1-3.7,9.9-3.7,14.2
			c0,5.9,2.6,8.9,7.9,8.9c4.1,0,8-2.1,11.9-6.3c0.9-0.9,1.4-1.4,1.7-1.4c0.3,0,0.5,0.2,0.5,0.5c0,1.5-1.6,3.4-4.7,5.6
			c-3.6,2.6-7.3,3.9-11.2,3.9c-4.3,0-7.9-1.3-10.7-3.8c-2.8-2.5-4.2-5.7-4.2-9.6c0-7.4,4.1-14.7,12.2-21.7
			c7.1-6.1,13.5-9.2,19.1-9.2C491.5,228,494.4,230.3,494.4,234.8z M487.3,233.1c0-2.1-1-3.1-3.1-3.1s-4.2,0.8-6.3,2.4
			c-3.7,2.9-7.2,7.3-10.3,13.1c0.8,0.1,1.7,0.1,2.7,0.1c3.7,0,7.4-1.1,10.9-3.4C485.3,239.7,487.3,236.6,487.3,233.1z"/>
	</g>
</g>
</svg>
