<?xml version="1.0" encoding="UTF-8"?>
<svg width="354px" height="320px" viewBox="0 0 354 320" version="1.1" xmlns="http://www.w3.org/2000/svg" xmlns:xlink="http://www.w3.org/1999/xlink">
    <!-- Generator: Sketch 53.2 (72643) - https://sketchapp.com -->
    <title>Group</title>
    <desc>Created with Sketch.</desc>
    <g id="Clients" stroke="none" stroke-width="1" fill="none" fill-rule="evenodd" opacity="0.190662202">
        <g id="Clients---Desktop" transform="translate(-542.000000, -205.000000)" fill="#000000" fill-rule="nonzero">
            <g id="Group" transform="translate(542.000000, 205.000000)">
                <path d="M61.599,150.613 C61.599,151.575005 61.1550044,152.056 60.267,152.056 C59.3789956,152.056 58.7500019,151.09401 58.38,149.17 L57.936,145.174 C57.4179974,142.509987 56.5670059,140.253009 55.383,138.403 C53.8289922,135.960988 51.2760178,134.407003 47.724,133.741 C45.4299885,133.296998 43.580007,133.112 42.174,133.186 C38.6959826,133.334001 36.5870037,133.445 35.847,133.519 L35.847,200.452 C35.847,203.116013 36.549993,204.780997 37.956,205.447 C38.6960037,205.817002 40.767983,206.039 44.172,206.113 C45.0600044,206.187 45.504,206.519997 45.504,207.112 C45.504,207.778003 44.9120059,208.111 43.728,208.111 C43.135997,208.111 42.6180022,208.074 42.174,208 C37.7339778,207.851999 34.5890093,207.778 32.739,207.778 C30.2969878,207.778 28.0030107,207.815 25.857,207.889 C23.7109893,207.963 20.9730167,208 17.643,208 C15.9409915,208 15.09,207.704003 15.09,207.112 C15.09,206.445997 16.6809841,206.076 19.863,206.002 C22.1570115,206.002 23.6369967,205.521005 24.303,204.559 C24.6730019,203.966997 24.858,202.450012 24.858,200.008 L24.858,133.519 C17.5319634,133.593 12.9810089,133.962997 11.205,134.629 C6.54297669,136.331009 3.80500407,140.881963 2.991,148.282 C2.76899889,150.502011 2.25100407,151.612 1.437,151.612 C0.54899556,151.612 0.105,150.835008 0.105,149.281 C0.105,148.466996 0.14199963,147.653004 0.216,146.839 L0.438,144.286 C0.66000111,140.881983 0.99299778,136.405028 1.437,130.855 L6.432,130.855 L29.076,131.188 C31.7400133,131.262 35.8839719,131.225001 41.508,131.077 L59.934,130.744 C60.0820007,134.888021 60.5629959,141.029959 61.377,149.17 C61.377,149.392001 61.4139996,149.669498 61.488,150.0025 C61.5620004,150.335502 61.599,150.539 61.599,150.613 Z M137.198,204.67 C137.198,207.778016 134.608026,209.332 129.428,209.332 C123.655971,209.332 119.142016,206.927024 115.886,202.117 C114.479993,200.04499 113.573502,198.04701 113.1665,196.123 C112.759498,194.19899 112.149004,189.315039 111.335,181.471 C110.890998,176.734976 109.374013,173.38651 106.784,171.4255 C104.193987,169.46449 99.9760292,168.410001 94.13,168.262 L94.13,203.227 C94.13,204.707007 95.3139882,205.631998 97.682,206.002 C98.3480033,206.076 100.049986,206.15 102.788,206.224 C103.750005,206.224 104.231,206.519997 104.231,207.112 C104.231,207.778003 103.602006,208.111 102.344,208.111 L101.012,208.111 C100.345997,208.037 97.1270289,208 91.355,208 C90.2449945,208 88.3580133,208.037 85.694,208.111 L76.259,208.111 C74.6309919,208.111 73.817,207.778003 73.817,207.112 C73.817,206.593997 74.8899893,206.298 77.036,206.224 C80.5140174,206.15 82.4009985,205.706004 82.697,204.892 C82.9930015,204.521998 83.141,203.079013 83.141,200.563 L83.141,139.291 C83.141,136.330985 82.8265031,134.555003 82.1975,133.963 C81.5684969,133.370997 79.6630159,133.038 76.481,132.964 C74.6309908,132.964 73.706,132.631003 73.706,131.965 C73.706,131.224996 74.2979941,130.855 75.482,130.855 C75.7040011,130.855 76.0369978,130.892 76.481,130.966 L91.244,131.299 C92.7240074,131.299 94.7959867,131.262 97.46,131.188 C100.420015,131.039999 102.491994,130.966 103.676,130.966 C110.558034,130.966 116.01548,132.501485 120.0485,135.5725 C124.08152,138.643515 126.098,142.805974 126.098,148.06 C126.098,153.240026 124.026021,157.513483 119.882,160.8805 C115.737979,164.247517 110.114036,166.226997 103.01,166.819 C102.343997,166.893 101.974,167.003999 101.9,167.152 C101.9,167.448001 102.269996,167.596 103.01,167.596 C110.780039,168.928007 116.126485,171.647479 119.0495,175.7545 C121.972515,179.861521 123.914995,187.279946 124.877,198.01 C125.469003,204.07803 127.540982,207.112 131.093,207.112 C132.203006,207.112 132.758,206.890002 132.758,206.446 C132.758,206.372 132.721,206.298 132.647,206.224 C132.276998,205.409996 132.092,204.744003 132.092,204.226 C132.092,202.671992 132.905992,201.895 134.534,201.895 C136.310009,201.895 137.198,202.819991 137.198,204.67 Z M114.221,149.059 C114.221,138.476947 109.633046,133.186 100.457,133.186 C98.0149878,133.186 96.3500044,133.518997 95.462,134.185 C94.5739956,134.851003 94.13,136.034991 94.13,137.737 L94.13,165.931 C101.234036,166.005 106.358484,164.710013 109.5035,162.046 C112.648516,159.381987 114.221,155.05303 114.221,149.059 Z M217.459,131.965 C217.459,132.631003 216.793007,132.964 215.461,132.964 C215.238999,132.964 214.499006,132.927 213.241,132.853 C212.870998,132.779 212.353003,132.742 211.687,132.742 C209.836991,132.742 208.727002,133.222995 208.357,134.185 C208.208999,134.703003 208.135,135.553994 208.135,136.738 L208.135,178.363 C208.135,189.167054 206.11852,197.029475 202.0855,201.9505 C198.05248,206.871525 191.559045,209.332 182.605,209.332 C171.874946,209.332 164.327022,206.29803 159.961,200.23 C157.074986,196.15998 155.632,189.463047 155.632,180.139 L155.521,135.628 C155.298999,134.295993 154.411008,133.482001 152.857,133.186 C152.412998,133.112 151.044011,133.075 148.75,133.075 C147.491994,132.926999 146.863,132.557003 146.863,131.965 C146.863,131.298997 147.380995,130.966 148.417,130.966 L150.415,130.966 C150.785002,130.966 151.635993,131.003 152.968,131.077 L156.187,131.077 L172.06,130.966 C172.430002,130.892 172.873997,130.855 173.392,130.855 C174.650006,130.855 175.279,131.261996 175.279,132.076 C175.279,132.594003 175.057002,132.89 174.613,132.964 C174.168998,133.038 172.689013,133.112 170.173,133.186 C169.136995,133.186 168.434002,133.259999 168.064,133.408 C167.323996,133.704001 166.917,134.221996 166.843,134.962 C166.769,135.258001 166.732,137.36698 166.732,141.289 L166.732,181.027 C166.732,190.795049 168.285984,197.454982 171.394,201.007 C174.502016,204.559018 179.126969,206.335 185.269,206.335 C196.517056,206.335 202.880993,199.934064 204.361,187.132 C204.583001,185.20799 204.694,177.068072 204.694,162.712 L204.694,156.385 L204.805,147.505 L204.694,139.846 L204.694,137.404 C204.768,136.441995 204.805,136.034999 204.805,136.183 C204.805,134.554992 204.028008,133.556002 202.474,133.186 C201.955997,133.037999 200.439013,132.964 197.923,132.964 C196.442993,132.964 195.703,132.557004 195.703,131.743 C195.703,131.076997 196.220995,130.744 197.257,130.744 C197.849003,130.744 198.329998,130.781 198.7,130.855 C199.588004,130.929 202.806972,130.966 208.357,130.966 C209.171004,130.966 210.095995,130.929 211.132,130.855 L214.906,130.855 C216.608009,130.855 217.459,131.224996 217.459,131.965 Z M278.517,186.355 C278.517,192.719032 276.093524,198.139478 271.2465,202.6165 C266.399476,207.093522 260.572034,209.332 253.764,209.332 C249.76798,209.332 244.995028,208.111012 239.445,205.669 C237.964993,205.002997 236.855004,204.67 236.115,204.67 C235.226996,204.67 234.672001,205.742989 234.45,207.889 C234.376,208.999006 233.895004,209.554 233.007,209.554 C232.266996,209.554 231.897,209.110004 231.897,208.222 C231.897,207.629997 231.934,207.186001 232.008,206.89 C232.600003,202.375977 232.896,198.195019 232.896,194.347 C232.896,193.606996 232.822001,191.535017 232.674,188.131 C232.6,187.686998 232.563,187.095004 232.563,186.355 C232.563,185.244994 233.006996,184.69 233.895,184.69 C234.635004,184.69 235.152999,185.577991 235.449,187.354 C237.37301,200.526066 243.625947,207.112 254.208,207.112 C258.722023,207.112 262.218488,205.835513 264.6975,203.2825 C267.176512,200.729487 268.416,197.122023 268.416,192.46 C268.416,188.315979 267.213512,184.782515 264.8085,181.8595 C262.403488,178.936485 258.278029,176.032014 252.432,173.146 C245.401965,169.667983 240.518014,166.301016 237.78,163.045 C235.041986,159.788984 233.673,155.756024 233.673,150.946 C233.673,144.803969 235.65248,139.73502 239.6115,135.739 C243.57052,131.74298 248.58397,129.745 254.652,129.745 C257.168013,129.745 260.645978,130.595991 265.086,132.298 C266.640008,132.890003 267.786996,133.186 268.527,133.186 C269.341004,133.186 269.877499,133.038001 270.1365,132.742 C270.395501,132.445999 270.635999,131.669006 270.858,130.411 C271.006001,129.670996 271.412997,129.301 272.079,129.301 C272.819004,129.301 273.189,129.744996 273.189,130.633 C273.189,131.225003 273.152,131.668999 273.078,131.965 C272.855999,133.741009 272.745,135.886987 272.745,138.403 C272.745,141.955018 272.929998,144.76699 273.3,146.839 L273.411,148.615 C273.485,149.429004 273.152004,149.836 272.412,149.836 C271.597996,149.836 271.043001,148.985009 270.747,147.283 C269.932996,142.916978 268.009015,139.272515 264.975,136.3495 C261.940985,133.426485 258.537019,131.965 254.763,131.965 C251.062982,131.965 248.121511,133.148988 245.9385,135.517 C243.755489,137.885012 242.664,141.10398 242.664,145.174 C242.664,149.910024 244.254984,153.720986 247.437,156.607 C249.213009,158.235008 253.06097,160.528985 258.981,163.489 C265.937035,166.967017 270.931985,170.500482 273.966,174.0895 C277.000015,177.678518 278.517,181.766977 278.517,186.355 Z M353.117,150.613 C353.117,151.575005 352.673004,152.056 351.785,152.056 C350.896996,152.056 350.268002,151.09401 349.898,149.17 L349.454,145.174 C348.935997,142.509987 348.085006,140.253009 346.901,138.403 C345.346992,135.960988 342.794018,134.407003 339.242,133.741 C336.947989,133.296998 335.098007,133.112 333.692,133.186 C330.213983,133.334001 328.105004,133.445 327.365,133.519 L327.365,200.452 C327.365,203.116013 328.067993,204.780997 329.474,205.447 C330.214004,205.817002 332.285983,206.039 335.69,206.113 C336.578004,206.187 337.022,206.519997 337.022,207.112 C337.022,207.778003 336.430006,208.111 335.246,208.111 C334.653997,208.111 334.136002,208.074 333.692,208 C329.251978,207.851999 326.107009,207.778 324.257,207.778 C321.814988,207.778 319.521011,207.815 317.375,207.889 C315.228989,207.963 312.491017,208 309.161,208 C307.458991,208 306.608,207.704003 306.608,207.112 C306.608,206.445997 308.198984,206.076 311.381,206.002 C313.675011,206.002 315.154997,205.521005 315.821,204.559 C316.191002,203.966997 316.376,202.450012 316.376,200.008 L316.376,133.519 C309.049963,133.593 304.499009,133.962997 302.723,134.629 C298.060977,136.331009 295.323004,140.881963 294.509,148.282 C294.286999,150.502011 293.769004,151.612 292.955,151.612 C292.066996,151.612 291.623,150.835008 291.623,149.281 C291.623,148.466996 291.66,147.653004 291.734,146.839 L291.956,144.286 C292.178001,140.881983 292.510998,136.405028 292.955,130.855 L297.95,130.855 L320.594,131.188 C323.258013,131.262 327.401972,131.225001 333.026,131.077 L351.452,130.744 C351.600001,134.888021 352.080996,141.029959 352.895,149.17 C352.895,149.392001 352.932,149.669498 353.006,150.0025 C353.08,150.335502 353.117,150.539 353.117,150.613 Z" id="TRUST"></path>
                <path d="M148.3425,2.07 C146.379157,7.5166939 144.859172,12.1716474 143.7825,16.035 C143.022496,18.6950133 142.357503,20.025 141.7875,20.025 C141.280831,20.025 141.0275,19.7716692 141.0275,19.265 C141.0275,19.0116654 141.296664,17.88751 141.835,15.8925 C142.373336,13.89749 142.6425,12.0766749 142.6425,10.43 C142.6425,7.19998385 141.154182,5.2050038 138.1775,4.445 C136.974161,4.12833175 134.915848,3.97 132.0025,3.97 C130.229158,3.97 128.582508,4.0333327 127.0625,4.16 L105.0225,59.165 C104.515831,60.431673 104.056669,61.5399953 103.645,62.49 C103.233331,63.4400048 103.0275,64.0416654 103.0275,64.295 C103.0275,65.751674 105.054146,66.48 109.1075,66.48 C109.677503,66.48 109.9625,66.6699981 109.9625,67.05 C109.9625,67.7466702 109.424172,68.095 108.3475,68.095 C108.030832,68.095 107.207507,68.0633337 105.8775,68 C103.217487,67.8733327 100.082518,67.81 96.4725,67.81 C94.129155,67.81 91.6275133,67.8733327 88.9675,68 C88.0808289,68.1266673 86.9725067,68.19 85.6425,68.19 C84.9458299,68.19 84.5975,68.0000019 84.5975,67.62 C84.5975,66.8599962 85.230827,66.48 86.4975,66.48 C86.687501,66.48 86.9724981,66.5116664 87.3525,66.575 L88.3025,66.575 C90.6458451,66.575 92.2449957,66.1633375 93.1,65.34 C93.9550043,64.5166626 95.1424924,62.1733527 96.6625,58.31 L118.1325,4.065 L114.3325,4.065 C107.809134,4.065 102.964183,5.55331845 99.7975,8.53 C97.9608242,10.2400086 95.7441797,13.5649753 93.1475,18.505 C92.7674981,19.2650038 92.3241692,19.645 91.8175,19.645 C91.5008318,19.645 91.3425,19.4550019 91.3425,19.075 C91.3425,18.8849991 91.4374991,18.5683356 91.6275,18.125 L93.0525,14.895 C93.7491702,13.3749924 94.7941597,11.0633489 96.1875,7.96 C97.0108375,6.37665875 97.9291616,4.4450114 98.9425,2.165 C101.095844,2.2916673 109.012432,2.355 122.6925,2.355 C130.292538,2.355 138.842453,2.26000095 148.3425,2.07 Z M183.7425,60.97 C183.7425,61.4133356 183.140839,62.1416616 181.9375,63.155 C177.440811,66.955019 173.355852,68.855 169.6825,68.855 C167.909158,68.855 166.484172,68.3641716 165.4075,67.3825 C164.330828,66.4008284 163.7925,65.1183413 163.7925,63.535 C163.7925,62.2049934 164.552492,59.8300171 166.0725,56.41 L174.4325,37.695 C175.82584,34.5916512 176.5225,32.6600038 176.5225,31.9 C176.5225,29.9366569 175.47751,28.955 173.3875,28.955 C170.79082,28.955 167.624185,30.7283156 163.8875,34.275 C161.037486,36.998347 158.868341,39.4683223 157.38,41.685 C155.891659,43.9016778 154.134177,47.3216436 152.1075,51.945 L145.9325,65.815 C145.425831,67.0183394 145.077501,67.7149991 144.8875,67.905 C144.697499,68.095001 144.317503,68.19 143.7475,68.19 C143.494165,68.19 142.639174,68.1266673 141.1825,68 C139.219157,68.1266673 138.126668,68.2216664 137.905,68.285 C137.683332,68.3483337 137.445835,68.38 137.1925,68.38 C136.939165,68.38 136.8125,68.285001 136.8125,68.095 C136.8125,67.8416654 137.034164,67.2083384 137.4775,66.195 L163.6025,6.725 C164.552505,4.5716559 165.0275,3.33666825 165.0275,3.02 C165.0275,2.5133308 164.885001,2.22833365 164.6,2.165 C164.314999,2.10166635 163.285842,2.07 161.5125,2.07 C159.992492,2.07 159.2325,1.7533365 159.2325,1.12 C159.2325,0.80333175 159.454164,0.645 159.8975,0.645 C160.340836,0.645 160.689165,0.67666635 160.9425,0.74 L167.9725,0.835 C169.36584,0.835 170.695827,0.74000095 171.9625,0.55 C172.722504,0.4233327 173.229165,0.36 173.4825,0.36 C174.052503,0.36 174.3375,0.58166445 174.3375,1.025 C174.3375,1.46833555 174.210835,1.84833175 173.9575,2.165 C173.514164,3.24167205 173.102502,4.0966635 172.7225,4.73 L157.3325,38.835 C161.32252,34.3383109 164.647487,31.2191754 167.3075,29.4775 C169.967513,27.7358246 172.754152,26.865 175.6675,26.865 C178.010845,26.865 179.926659,27.4191611 181.415,28.5275 C182.903341,29.6358389 183.6475,31.0449915 183.6475,32.755 C183.6475,34.6550095 182.919174,37.2833166 181.4625,40.64 L172.8175,60.495 C171.740828,62.9650124 171.2025,64.4533308 171.2025,64.96 C171.2025,65.9100048 171.677495,66.385 172.6275,66.385 C174.71751,66.385 177.630815,64.8016825 181.3675,61.635 C182.317505,60.8116626 182.950832,60.4 183.2675,60.4 C183.584168,60.4 183.7425,60.5899981 183.7425,60.97 Z M230.2575,33.61 C230.2575,37.0300171 228.420852,39.8641554 224.7475,42.1125 C221.074148,44.3608446 216.419195,45.485 210.7825,45.485 C208.755823,45.485 206.507512,45.3266683 204.0375,45.01 C201.694155,49.8866911 200.5225,54.4149791 200.5225,58.595 C200.5225,64.2316949 203.024142,67.05 208.0275,67.05 C211.890853,67.05 215.659148,65.0233536 219.3325,60.97 C220.155837,60.0833289 220.694165,59.64 220.9475,59.64 C221.264168,59.64 221.4225,59.7983318 221.4225,60.115 C221.4225,61.571674 219.934182,63.3766559 216.9575,65.53 C213.537483,68.0000124 209.990852,69.235 206.3175,69.235 C202.200813,69.235 198.812513,68.0316787 196.1525,65.625 C193.492487,63.2183213 192.1625,60.1783517 192.1625,56.505 C192.1625,49.4116312 196.025795,42.5400333 203.7525,35.89 C210.529201,30.0633042 216.577473,27.15 221.8975,27.15 C227.470861,27.15 230.2575,29.3033118 230.2575,33.61 Z M223.5125,31.995 C223.5125,30.0316569 222.530843,29.05 220.5675,29.05 C218.540823,29.05 216.545843,29.8099924 214.5825,31.33 C211.035816,34.1166806 207.774182,38.2649725 204.7975,43.775 C205.557504,43.8383337 206.412495,43.87 207.3625,43.87 C210.909184,43.87 214.360817,42.7933441 217.7175,40.64 C221.580853,38.2333213 223.5125,35.3516835 223.5125,31.995 Z M283.6125,30.19 C283.6125,32.4066778 282.535844,33.515 280.3825,33.515 C279.369162,33.515 278.640836,32.9133394 278.1975,31.71 C278.070833,31.4566654 277.912501,31.33 277.7225,31.33 C277.089164,31.33 275.72751,33.0399829 273.6375,36.46 L263.8525,52.42 C263.472498,53.1166702 259.007543,59.9566018 250.4575,72.94 C246.024145,79.7167006 241.432524,85.0366474 236.6825,88.9 C233.895819,91.1800114 231.140847,92.32 228.4175,92.32 C225.567486,92.32 224.1425,91.2750105 224.1425,89.185 C224.1425,88.108328 224.522496,87.2216702 225.2825,86.525 C226.042504,85.8283299 226.992494,85.48 228.1325,85.48 C228.955837,85.48 229.478332,85.6066654 229.7,85.86 C229.921668,86.1133346 230.064166,86.873327 230.1275,88.14 C230.190834,89.0900048 230.634163,89.565 231.4575,89.565 C232.597506,89.565 234.354988,88.5516768 236.73,86.525 C239.105012,84.4983232 241.33749,82.123347 243.4275,79.4 C246.594183,75.2833128 248.1775,71.7050152 248.1775,68.665 C248.1775,67.7783289 248.145834,66.9866702 248.0825,66.29 L248.0825,64.01 L247.8925,36.65 C247.8925,32.2799782 246.94251,30.095 245.0425,30.095 C242.762489,30.095 240.57751,32.533309 238.4875,37.41 C237.727496,39.1833422 237.094169,40.07 236.5875,40.07 C236.080831,40.07 235.8275,39.7850029 235.8275,39.215 C235.8275,37.948327 236.777491,35.8900143 238.6775,33.04 C241.527514,28.7966455 244.884147,26.675 248.7475,26.675 C251.597514,26.675 253.402496,27.6249905 254.1625,29.525 C254.732503,30.981674 255.0175,33.4199829 255.0175,36.84 L255.0175,39.405 L254.7325,56.315 C254.7325,58.6583451 254.795833,61.001655 254.9225,63.345 L256.4425,61.065 C257.075837,59.9249943 258.08916,58.2150114 259.4825,55.935 L262.5225,51.28 L270.6925,37.79 C273.795849,32.723308 275.806662,29.6516721 276.725,28.575 C277.643338,27.498328 278.830826,26.96 280.2875,26.96 C282.504178,26.96 283.6125,28.0366559 283.6125,30.19 Z" id="They"></path>
                <path d="M183.695,278.29 L183.505,278.765 L182.84,280.285 L172.2,305.08 C170.046656,310.083358 168.97,313.186661 168.97,314.39 C168.97,316.100009 169.793325,316.955 171.44,316.955 C173.783345,316.955 176.379986,315.30835 179.23,312.015 C179.92667,311.191663 180.401665,310.78 180.655,310.78 C181.035002,310.78 181.225,310.969998 181.225,311.35 C181.225,312.870008 179.356685,314.769989 175.62,317.05 C173.403322,318.380007 171.123345,319.045 168.78,319.045 C166.943324,319.045 165.32834,318.538338 163.935,317.525 C162.54166,316.511662 161.845,315.340007 161.845,314.01 C161.845,313.249996 162.129997,312.078341 162.7,310.495 L163.84,307.265 C159.596645,312.141691 156.382511,315.308326 154.1975,316.765 C152.012489,318.221674 149.336682,318.95 146.17,318.95 C143.699988,318.95 141.673341,318.459172 140.09,317.4775 C138.506659,316.495828 137.715,315.213341 137.715,313.63 C137.715,311.919991 138.41166,309.513349 139.805,306.41 L149.59,284.465 C149.843335,283.894997 150.381663,282.786675 151.205,281.14 C151.395001,280.823332 151.49,280.601667 151.49,280.475 C151.49,279.968331 150.730008,279.715 149.21,279.715 C147.183323,279.715 146.17,279.36667 146.17,278.67 C146.17,278.226664 146.391664,278.005 146.835,278.005 C147.341669,278.005 148.069995,278.068333 149.02,278.195 C149.970005,278.321667 150.698331,278.385 151.205,278.385 C154.49835,278.385 156.936659,278.100003 158.52,277.53 C158.900002,277.403333 159.153333,277.34 159.28,277.34 C159.596668,277.34 159.755,277.529998 159.755,277.91 C159.755,278.416669 159.121673,280.01582 157.855,282.7075 C156.588327,285.39918 155.416672,288.169986 154.34,291.02 C154.086665,291.71667 153.105009,294.028314 151.395,297.955 L147.595,306.695 C146.011659,310.305018 145.22,312.869992 145.22,314.39 C145.22,316.226676 146.391655,317.145 148.735,317.145 C151.205012,317.145 154.403314,315.118354 158.33,311.065 C162.763355,306.504977 166.436652,300.741702 169.35,293.775 L175.43,279.335 C175.746668,278.574996 176.094998,278.195 176.475,278.195 C176.411666,278.195 177.07666,278.258333 178.47,278.385 L179.23,278.385 C180.940009,278.385 182.048331,278.290001 182.555,278.1 C182.871668,277.973333 183.093333,277.91 183.22,277.91 C183.536668,277.91 183.695,278.036665 183.695,278.29 Z M223.845,284.37 C223.845,285.446672 223.49667,286.364996 222.8,287.125 C222.10333,287.885004 221.280005,288.265 220.33,288.265 C218.42999,288.265 217.48,287.346676 217.48,285.51 C217.48,283.989992 218.113327,283.23 219.38,283.23 C219.570001,283.23 219.870831,283.324999 220.2825,283.515 C220.694169,283.705001 221.026665,283.8 221.28,283.8 C221.660002,283.8 221.85,283.578336 221.85,283.135 C221.85,282.058328 221.121674,281.013338 219.665,280 C218.208326,278.986662 216.720008,278.48 215.2,278.48 C213.173323,278.48 211.46334,279.12916 210.07,280.4275 C208.67666,281.72584 207.98,283.293324 207.98,285.13 C207.98,286.713341 209.468318,291.114964 212.445,298.335 C213.14167,300.045009 213.49,301.976656 213.49,304.13 C213.49,308.436688 212.033348,312.046652 209.12,314.96 C206.206652,317.873348 202.565022,319.33 198.195,319.33 C194.394981,319.33 191.212513,318.269177 188.6475,316.1475 C186.082487,314.025823 184.8,311.413349 184.8,308.31 C184.8,306.536658 185.322495,305.080006 186.3675,303.94 C187.412505,302.799994 188.726659,302.23 190.31,302.23 C191.513339,302.23 192.542496,302.641663 193.3975,303.465 C194.252504,304.288337 194.68,305.269994 194.68,306.41 C194.68,308.31001 193.761676,309.26 191.925,309.26 C189.961657,309.26 188.98,308.595007 188.98,307.265 C188.98,306.821664 189.059166,306.378336 189.2175,305.935 C189.375834,305.491664 189.455,305.238334 189.455,305.175 C189.455,304.541664 189.201669,304.225 188.695,304.225 C188.124997,304.225 187.602502,304.652496 187.1275,305.5075 C186.652498,306.362504 186.415,307.296662 186.415,308.31 C186.415,310.780012 187.444156,312.933324 189.5025,314.77 C191.560844,316.606676 193.983319,317.525 196.77,317.525 C199.36668,317.525 201.535825,316.733341 203.2775,315.15 C205.019175,313.566659 205.89,311.571679 205.89,309.165 C205.89,307.454991 205.225007,304.668353 203.895,300.805 C202.628327,297.131648 201.995,294.091679 201.995,291.685 C201.995,287.568313 203.245821,284.100847 205.7475,281.2825 C208.249179,278.464153 211.304982,277.055 214.915,277.055 C217.321679,277.055 219.411658,277.783326 221.185,279.24 C222.958342,280.696674 223.845,282.406657 223.845,284.37 Z" id="us"></path>
            </g>
        </g>
    </g>
</svg>