<?xml version="1.0" encoding="UTF-8"?>
<svg width="76px" height="49px" viewBox="0 0 76 49" version="1.1" xmlns="http://www.w3.org/2000/svg" xmlns:xlink="http://www.w3.org/1999/xlink">
    <!-- Generator: Sketch 53.2 (72643) - https://sketchapp.com -->
    <title>Group 7 Copy 2</title>
    <desc>Created with Sketch.</desc>
    <defs>
        <polygon id="path-1" points="0.135228649 0.0820211538 75.1474751 0.0820211538 75.1474751 24.9739148 0.135228649 24.9739148"></polygon>
    </defs>
    <g id="Contact" stroke="none" stroke-width="1" fill="none" fill-rule="evenodd">
        <g id="Contact-Brand---Desktop" transform="translate(-62.000000, -15.000000)">
            <g id="Header">
                <g id="Group-7-Copy-2" transform="translate(62.000000, 15.000000)">
                    <g id="Group-3">
                        <mask id="mask-2" fill="white">
                            <use xlink:href="#path-1"></use>
                        </mask>
                        <g id="Clip-2"></g>
                        <path d="M72.4964514,24.9405975 C71.0011411,24.9405975 69.8108578,23.77116 69.8108578,22.3345177 C69.8108578,21.6328552 70.0826708,20.96451 70.5924049,20.496735 C71.1028168,19.9956427 71.7820103,19.7284379 72.4964514,19.7284379 C73.9578697,19.7284379 75.1474751,20.8978754 75.1474751,22.3345177 C75.1474751,23.77116 73.9578697,24.9405975 72.4964514,24.9405975 L72.4964514,24.9405975 Z M60.0906632,12.4446081 C58.7648124,12.4446081 57.4396395,13.3468408 56.7251984,14.7501658 L56.5896308,15.0173706 L63.6255876,15.0173706 L63.4893422,14.7501658 C62.7077951,13.3135235 61.4158362,12.4446081 60.0906632,12.4446081 L60.0906632,12.4446081 Z M60.0906632,24.9739148 L60.0560935,24.9739148 C59.0705173,24.9739148 58.0510492,24.7400273 57.0993649,24.306236 C56.2154643,23.9384129 55.4000254,23.3373687 54.6523703,22.5684052 C53.4627649,21.2990158 52.7490016,19.6278196 52.5788643,17.8906552 C52.5449724,17.5901331 52.5110805,17.289611 52.5110805,16.9551052 C52.5110805,16.28676 52.6134341,15.5850975 52.7828935,14.883435 C53.0885984,13.547411 53.7345778,12.3106725 54.6523703,11.3757888 C55.3322416,10.6401427 56.1137886,10.0724158 57.0993649,9.60464077 C58.0171573,9.17018308 59.0373032,8.96961288 60.0906632,8.96961288 C61.178593,8.96961288 62.1641692,9.17018308 63.0812838,9.60464077 C64.1007519,10.0724158 64.9168686,10.67346 65.5289562,11.3757888 C66.4121789,12.3106725 67.0920503,13.5140937 67.431647,14.883435 C67.6017843,15.5184629 67.6702459,16.1868081 67.6702459,16.9551052 L67.6702459,17.7234023 L56.2500341,17.7234023 L56.2839259,17.9579562 C56.7251984,20.02896 58.32354,21.5329033 60.0906632,21.5329033 L60.1245551,21.5329033 C61.1101314,21.4656023 62.1980611,20.8645581 62.8440405,20.3301485 L63.2175292,20.02896 L66.0386903,22.4344696 L65.5289562,22.8695937 C65.1547897,23.2034331 64.6789476,23.6039071 64.1692135,23.8717783 L64.1353216,23.8717783 C62.9111465,24.5727744 61.5859735,24.9405975 60.0906632,24.9739148 L60.0906632,24.9739148 Z M50.5060362,24.6067581 L38.2019238,24.6067581 L38.2019238,21.0984456 L45.4758016,12.8117648 L38.1680319,12.8117648 L38.1680319,9.30411865 L50.4721443,9.30411865 L50.4721443,12.8117648 L43.3684038,20.9978273 L50.5060362,20.9978273 L50.5060362,24.6067581 Z M27.4276914,12.9123831 C25.2525097,12.9123831 23.4169249,14.7834831 23.4169249,16.9551052 C23.4169249,19.160711 25.2525097,20.9978273 27.4276914,20.9978273 C29.602873,20.9978273 31.4384578,19.160711 31.4384578,16.9551052 C31.4384578,14.7834831 29.602873,12.9123831 27.4276914,12.9123831 L27.4276914,12.9123831 Z M27.4276914,24.9072802 C25.2864016,24.9072802 23.2474654,24.1056658 21.6836935,22.6017225 C20.1544914,21.0651283 19.3044827,19.0600927 19.3044827,16.9551052 C19.3044827,14.8501177 20.1544914,12.8457485 21.6836935,11.3084879 C23.2128957,9.80521096 25.2525097,9.00359654 27.4276914,9.00359654 C28.8552178,9.00359654 30.1464989,9.5040225 31.2683205,10.5068735 L31.4384578,10.6401427 L31.4384578,9.30411865 L35.5509,9.30411865 L35.5509,24.6067581 L31.4384578,24.6067581 L31.4384578,23.4033369 L31.2683205,23.5705898 C30.0448232,24.7400273 28.6511886,24.9072802 27.4276914,24.9072802 L27.4276914,24.9072802 Z M8.2584373,12.9123831 C6.08325568,12.9123831 4.24767081,14.7834831 4.24767081,16.9551052 C4.24767081,19.160711 6.08325568,20.9978273 8.2584373,20.9978273 C10.4336189,20.9978273 12.2692038,19.160711 12.2692038,16.9551052 C12.2692038,14.7834831 10.4336189,12.9123831 8.2584373,12.9123831 L8.2584373,12.9123831 Z M8.2584373,24.9072802 C6.11714757,24.9072802 4.07753351,24.1056658 2.51443946,22.6017225 C0.984559459,21.0651283 0.135228649,19.0600927 0.135228649,16.9551052 C0.135228649,14.8501177 0.984559459,12.8457485 2.51443946,11.3084879 C4.04364162,9.80521096 6.08325568,9.00359654 8.2584373,9.00359654 C9.68596378,9.00359654 10.9772449,9.5040225 12.0990665,10.5068735 L12.2692038,10.6401427 L12.2692038,0.0818878846 L16.3816459,0.0818878846 L16.3816459,24.6067581 L12.2692038,24.6067581 L12.2692038,23.4033369 L12.0990665,23.5705898 C10.8755692,24.7400273 9.48193459,24.9072802 8.2584373,24.9072802 L8.2584373,24.9072802 Z" id="Fill-1" fill="#010202" mask="url(#mask-2)"></path>
                    </g>
                    <path d="M75.2044813,37.1272969 L75.0201094,37.1901142 C74.9102997,36.939535 74.7801548,36.6779109 74.6296748,36.4059323 C74.4791948,36.134644 74.3253256,35.8792326 74.1680672,35.6431497 C74.010131,35.4056862 73.8562618,35.1854801 73.7057818,34.9846025 C73.554624,34.7823443 73.425157,34.6318587 73.3153472,34.5345263 C73.027944,34.2556447 72.7168164,34.070644 72.3812867,33.9802146 C72.045757,33.8897852 71.6180413,33.8373223 71.0974618,33.8235163 C70.8378499,33.8235163 70.6121299,33.8200647 70.419624,33.8124714 C70.2284737,33.8055684 70.0366456,33.8028072 69.8454954,33.8028072 L68.4898197,33.8028072 C68.4898197,34.1507189 68.4864305,34.6249557 68.4796521,35.224137 C68.4721959,35.8240086 68.4688067,36.4514922 68.4688067,37.1065878 L68.4688067,45.2832032 C68.4688067,45.6870293 68.4796521,46.0742882 68.4999872,46.4435992 C68.5210002,46.8129102 68.5853948,47.0745343 68.6952045,47.2284714 C68.9005894,47.5349651 69.1913818,47.7441263 69.5682597,47.8552647 C69.9444597,47.9670935 70.2833786,48.0506199 70.5850164,48.105844 L70.5850164,48.3156955 L63.9110251,48.3156955 L63.9110251,48.105844 C64.2662121,48.064426 64.6085202,47.9947056 64.9379494,47.8973731 C65.2660229,47.7993504 65.5873181,47.5694801 65.9025126,47.2077624 C65.9709743,47.1373517 66.0224899,47.0227617 66.0563818,46.8626119 C66.0909516,46.7017718 66.1180651,46.5202226 66.1384002,46.3179644 C66.1587354,46.1157062 66.1729699,45.8968808 66.1797483,45.6594173 C66.1865267,45.422644 66.1899159,45.1927738 66.1899159,44.9691163 C66.1899159,44.7744514 66.1933051,44.5162788 66.2000835,44.1952888 C66.2075397,43.8749892 66.2136402,43.5194841 66.2204186,43.1287738 C66.2278748,42.7387537 66.231264,42.3349276 66.231264,41.9159149 L66.231264,33.8028072 L64.8762662,33.8028072 C64.6979948,33.8028072 64.5095559,33.8055684 64.3116272,33.8124714 C64.1130208,33.8200647 63.8832337,33.8235163 63.622944,33.8235163 C63.1023645,33.8373223 62.6753267,33.9001397 62.339797,34.0112781 C62.0042672,34.1231069 61.6924618,34.3184621 61.4057364,34.5973437 C61.2959267,34.6946761 61.169171,34.8410199 61.0254694,35.0363751 C60.8817678,35.2317303 60.7306099,35.444343 60.5740294,35.6742132 C60.416771,35.9047738 60.2656132,36.1519015 60.1219116,36.4169771 C59.9782099,36.6813624 59.865011,36.939535 59.7829926,37.1901142 L59.5986208,37.1272969 L60.2147754,33.1539243 C60.5292921,33.224335 60.8200845,33.2795591 61.0871526,33.3209771 C61.3535429,33.3630855 61.7412662,33.3913878 62.247611,33.4045035 C62.7675126,33.4189999 63.2331872,33.4300447 63.6432791,33.4362574 C64.0547267,33.4431604 64.4512618,33.4473022 64.8349181,33.4473022 L68.7365526,33.4473022 C69.1466445,33.4473022 69.5438575,33.4431604 69.9275137,33.4362574 C70.3104921,33.4300447 70.7077051,33.4224514 71.1184748,33.4155484 C71.5292445,33.4086454 71.9949191,33.4045035 72.5148208,33.4045035 C72.9662608,33.3913878 73.3397494,33.352731 73.633931,33.2899136 C73.9281126,33.2277865 74.2324618,33.1470213 74.5476564,33.0496888 L75.2044813,37.1272969 Z M58.2544683,48.3156955 L51.2117332,48.3156955 L51.2117332,48.085135 C51.8000964,48.0575229 52.2922067,47.9318882 52.6894197,47.7089209 C53.0866326,47.4859537 53.3537008,47.2284714 53.490624,46.9350935 C53.5726424,46.7535443 53.6343256,46.5271256 53.6749959,46.2558373 C53.716344,45.9838587 53.7434575,45.7084286 53.7570143,45.429547 C53.7848056,44.5093758 53.7983624,43.6313129 53.7983624,42.7946681 L53.7983624,34.2832567 C53.3469224,35.3152567 52.9327635,36.26304 52.5558856,37.1272969 C52.1796856,37.9915537 51.806197,38.8357918 51.4374532,39.6579403 C51.0673537,40.4800888 50.6945429,41.3201852 50.3176651,42.177539 C49.9407872,43.0355831 49.5273062,43.9799149 49.0751883,45.0112246 C49.0074045,45.1506654 48.9111516,45.3701811 48.7877851,45.6697718 C48.6650964,45.9700527 48.5417299,46.2765464 48.4183635,46.589943 C48.294997,46.90403 48.1790867,47.1898146 48.069277,47.4472969 C47.9601451,47.7054694 47.8910056,47.8759738 47.8638921,47.9595002 L47.7405256,47.9595002 C47.3026424,46.9281905 46.8681483,45.9037838 46.4370435,44.8855898 C46.0059386,43.8680862 45.5850013,42.8892393 45.1735537,41.9476688 C44.7634618,41.0067885 44.3798056,40.1252741 44.0239408,39.301745 C43.6680759,38.4795965 43.3461029,37.7478775 43.0586997,37.1065878 C42.7712964,36.4652982 42.5354089,35.9289343 42.3503591,35.4968059 C42.1659872,35.0639872 42.0385537,34.7712995 41.9707699,34.6180527 C41.9707699,35.5382239 41.9673808,36.3500179 41.9599245,37.0548153 C41.9531462,37.758232 41.9470456,38.455436 41.9395894,39.145737 C41.932811,39.836038 41.9294218,40.5643056 41.9294218,41.33123 L41.9294218,44.007527 C41.9294218,44.6626226 41.949757,45.2307403 41.9911051,45.7125704 C42.0324532,46.1930199 42.1348067,46.5975363 42.2988435,46.924739 C42.4628802,47.252632 42.7130024,47.5101142 43.0492099,47.6985664 C43.3840618,47.8870186 43.8456694,48.0223176 44.4340326,48.105844 L44.4340326,48.3156955 L39.0750467,48.3156955 L39.0750467,48.105844 C39.5542781,48.0092019 39.9440348,47.8663096 40.2456726,47.6778574 C40.5466326,47.4894052 40.7865872,47.2284714 40.9641808,46.8929852 C41.1424521,46.5588795 41.2719191,46.1446989 41.3546154,45.6490627 C41.4366337,45.1541169 41.4847602,44.5514841 41.4976391,43.8404741 C41.5254305,43.2406025 41.5464435,42.533044 41.5600002,41.7171082 C41.573557,40.902553 41.5810132,40.0272514 41.5810132,39.0932741 L41.5810132,36.4583952 C41.5810132,36.1795136 41.573557,35.8378146 41.5600002,35.4339885 C41.5464435,35.0425878 41.4644251,34.7257397 41.3132672,34.4820634 C41.1627872,34.2376969 40.9851937,34.0464835 40.7798089,33.9070427 C40.5737462,33.7676019 40.3554824,33.6661276 40.1223062,33.6040005 C39.8891299,33.5411831 39.6912013,33.4956233 39.5264867,33.4680112 L39.5264867,33.25885 L43.9005743,33.25885 L48.8087981,44.6350106 C49.4107181,43.3103229 49.9990813,41.9932286 50.5745656,40.682347 C51.1493721,39.3721557 51.6658845,38.1869089 52.1247808,37.1272969 C52.583677,36.0683751 52.9605548,35.1854801 53.2540586,34.4820634 C53.5489181,33.7779564 53.716344,33.3706788 53.7570143,33.25885 L58.1317797,33.25885 L58.1317797,33.4680112 C57.5698521,33.4818173 57.1428143,33.600549 56.8479548,33.8235163 C56.5530954,34.0464835 56.3517775,34.3115591 56.2419678,34.6180527 C56.1599494,34.854826 56.1050445,35.224137 56.077931,35.7266761 C56.0501397,36.2278346 56.0298045,36.7234708 56.0162478,37.2108233 C56.002691,37.8804153 55.9952348,38.5286079 55.9952348,39.1554012 L55.9952348,43.3179163 C55.9952348,44.0565383 56.002691,44.8372688 56.0162478,45.6594173 C56.0162478,45.9244928 56.0331937,46.1930199 56.0677635,46.4643082 C56.1016554,46.7369771 56.1599494,46.9495898 56.2419678,47.1021464 C56.2555245,47.1304487 56.3070402,47.1967176 56.395837,47.300953 C56.4853116,47.4058788 56.6113894,47.5177076 56.776104,47.635749 C56.9401408,47.7544808 57.1455256,47.8587163 57.3922586,47.949836 C57.6383137,48.0402654 57.925717,48.0927283 58.2544683,48.105844 L58.2544683,48.3156955 Z M36.9717159,41.351939 C36.7385397,41.379551 36.4850283,41.4389169 36.2118597,41.5293464 C35.9380132,41.6204661 35.7394067,41.7633584 35.6160402,41.9580233 C35.5204651,42.1119604 35.4655602,42.3480433 35.4520035,42.6690333 C35.4377689,42.9900233 35.4316683,43.3103229 35.4316683,43.6313129 L35.4316683,46.6845142 C35.3354154,46.7680407 35.0995278,46.9074815 34.7226499,47.1021464 C34.3464499,47.2975015 33.8875537,47.4963082 33.347317,47.6985664 C32.8064024,47.9001343 32.2071937,48.071329 31.5503689,48.2114601 C30.8928662,48.3502106 30.2360413,48.419931 29.5785386,48.419931 C28.2784456,48.419931 27.1145981,48.2487363 26.0883516,47.9077276 C25.0614272,47.5660286 24.1958283,47.0648701 23.490877,46.4021811 C22.7852478,45.7401825 22.245011,44.9311497 21.8681332,43.9764634 C21.4919332,43.0210868 21.3034943,41.9511203 21.3034943,40.7658734 C21.3034943,40.4179617 21.338064,40.0168969 21.4058478,39.5633691 C21.4743094,39.1105316 21.5942867,38.6335336 21.7657797,38.1309945 C21.9365948,37.629836 22.1765494,37.1203938 22.4842878,36.604739 C22.7920262,36.0890841 23.1790716,35.6010413 23.6447462,35.1406106 C24.301571,34.4855149 25.1095537,33.9595056 26.0673386,33.5618922 C27.0258013,33.1649691 28.1896489,32.9661624 29.5582035,32.9661624 C30.3797429,32.9661624 31.1050294,33.0393343 31.7354186,33.1856781 C32.3651299,33.3320219 32.8951991,33.4921718 33.326304,33.6661276 C33.7574089,33.8407738 34.0895494,34.0016139 34.3220478,34.1479577 C34.555224,34.2943015 34.6853689,34.3667831 34.7124824,34.3667831 C34.7402737,34.3667831 34.8155137,34.2832567 34.9388802,34.1162039 C35.0615689,33.949151 35.2120489,33.7468928 35.3903202,33.5101196 L35.5753699,33.5101196 L35.5753699,38.0681771 L35.328637,38.0681771 C35.178157,37.4413838 34.952437,36.8491056 34.6507991,36.290652 C34.3498391,35.7328888 34.0278662,35.2731484 33.6862359,34.9107403 C33.2476748,34.4371938 32.6864251,34.0533865 32.0018089,33.7606989 C31.3171926,33.4680112 30.5512359,33.3209771 29.7025829,33.3209771 C28.7990251,33.3209771 27.984264,33.5266868 27.2589775,33.9387965 C26.5330132,34.3502159 25.9168586,34.8996955 25.4105137,35.5899965 C24.903491,36.2802975 24.5137343,37.0755243 24.2398878,37.9749865 C23.9660413,38.8737584 23.8291181,39.8180902 23.8291181,40.8079818 C23.8291181,41.8952059 23.9592629,42.8892393 24.2195526,43.7880112 C24.4798424,44.6867831 24.8560424,45.4571591 25.3488305,46.0984487 C25.8416186,46.7404286 26.4442164,47.2381357 27.1559462,47.5936407 C27.8676759,47.949836 28.682437,48.1272433 29.5995516,48.1272433 C30.2563764,48.1272433 30.8691418,48.0126534 31.4371699,47.7827831 C32.0058759,47.5522226 32.4539267,47.1794601 32.7826781,46.6631149 C32.8918099,46.4822561 32.9738283,46.1612661 33.0287332,45.7015256 C33.0836381,45.2417852 33.1107516,44.7668581 33.1107516,44.2795056 C33.1107516,43.7914627 33.0870272,43.3524313 33.0389008,42.9617209 C32.9914521,42.5717009 32.8511397,42.2507109 32.6179635,42.0001316 C32.3027689,41.6377236 31.7489754,41.4216594 30.9545494,41.351939 L30.9545494,41.1420875 L36.9717159,41.1420875 L36.9717159,41.351939 Z M19.1791505,48.3156955 L12.1357375,48.3156955 L12.1357375,48.085135 C12.7247786,48.0575229 13.2175667,47.9318882 13.6141018,47.7089209 C14.0113148,47.4859537 14.2783829,47.2284714 14.4153062,46.9350935 C14.4973245,46.7535443 14.5590078,46.5271256 14.6003559,46.2558373 C14.6410262,45.9838587 14.6681397,45.7084286 14.6823743,45.429547 C14.7094878,44.5093758 14.7230445,43.6313129 14.7230445,42.7946681 L14.7230445,34.2832567 C14.2716045,35.3152567 13.8574456,36.26304 13.4805678,37.1272969 C13.1043678,37.9915537 12.731557,38.8357918 12.3621354,39.6579403 C11.9920359,40.4800888 11.6192251,41.3201852 11.2430251,42.177539 C10.8661472,43.0355831 10.4519883,43.9799149 10.0005483,45.0112246 C9.9320867,45.1506654 9.83583373,45.3701811 9.71246724,45.6697718 C9.58977859,45.9700527 9.46641211,46.2765464 9.34304562,46.589943 C9.21967914,46.90403 9.10376886,47.1898146 8.99395914,47.4472969 C8.88482724,47.7054694 8.81636562,47.8759738 8.78857427,47.9595002 L8.66520778,47.9595002 C8.22732454,46.9281905 7.79283049,45.9037838 7.36172562,44.8855898 C6.93062076,43.8680862 6.50968346,42.8892393 6.09891373,41.9476688 C5.688144,41.0067885 5.30448778,40.1252741 4.94862292,39.301745 C4.59275805,38.4795965 4.27146292,37.7478775 3.98338184,37.1065878 C3.69597859,36.4652982 3.46009103,35.9289343 3.2750413,35.4968059 C3.09066941,35.0639872 2.96391373,34.7712995 2.89545211,34.6180527 C2.89545211,35.5382239 2.89206292,36.3500179 2.88528454,37.0548153 C2.87850616,37.758232 2.87172778,38.455436 2.86427157,39.145737 C2.85749319,39.836038 2.854104,40.5643056 2.854104,41.33123 L2.854104,44.007527 C2.854104,44.6626226 2.87443914,45.2307403 2.91578724,45.7125704 C2.95713535,46.1930199 3.05948886,46.5975363 3.22420346,46.924739 C3.38824022,47.252632 3.63768454,47.5101142 3.97321427,47.6985664 C4.308744,47.8870186 4.77102941,48.0223176 5.35939265,48.105844 L5.35939265,48.3156955 L-0.000271135135,48.3156955 L-0.000271135135,48.105844 C0.478960216,48.0092019 0.869394811,47.8663096 1.17035481,47.6778574 C1.47199265,47.4894052 1.71126941,47.2284714 1.88886292,46.8929852 C2.06713427,46.5588795 2.19727914,46.1446989 2.27929751,45.6490627 C2.36131589,45.1541169 2.40944238,44.5514841 2.42299914,43.8404741 C2.45011265,43.2406025 2.47112562,42.533044 2.48468238,41.7171082 C2.49823914,40.902553 2.50501751,40.0272514 2.50501751,39.0932741 L2.50501751,36.4583952 C2.50501751,36.1795136 2.49823914,35.8378146 2.48468238,35.4339885 C2.47112562,35.0425878 2.38910724,34.7257397 2.23794941,34.4820634 C2.08746941,34.2376969 1.90987589,34.0464835 1.70449103,33.9070427 C1.49910616,33.7676019 1.28016454,33.6661276 1.04698832,33.6040005 C0.814489946,33.5411831 0.615883459,33.4956233 0.451846703,33.4680112 L0.451846703,33.25885 L4.82525643,33.25885 L9.73348022,44.6350106 C10.3354002,43.3103229 10.9244413,41.9932286 11.4992478,40.682347 C12.0740543,39.3721557 12.5912445,38.1869089 13.0494629,37.1272969 C13.5083591,36.0683751 13.8845591,35.1854801 14.1794186,34.4820634 C14.4736002,33.7779564 14.6410262,33.3706788 14.6823743,33.25885 L19.0564618,33.25885 L19.0564618,33.4680112 C18.4945343,33.4818173 18.0668186,33.600549 17.772637,33.8235163 C17.4784554,34.0464835 17.2764597,34.3115591 17.1666499,34.6180527 C17.0846316,34.854826 17.0297267,35.224137 17.0026132,35.7266761 C16.9754997,36.2278346 16.9544867,36.7234708 16.9409299,37.2108233 C16.9273732,37.8804153 16.9205948,38.5286079 16.9205948,39.1554012 L16.9205948,43.3179163 C16.9205948,44.0565383 16.9273732,44.8372688 16.9409299,45.6594173 C16.9409299,45.9244928 16.9578759,46.1930199 16.9924456,46.4643082 C17.0263375,46.7369771 17.0846316,46.9495898 17.1666499,47.1021464 C17.1802067,47.1304487 17.2317224,47.1967176 17.3205191,47.300953 C17.4099937,47.4058788 17.5367494,47.5177076 17.7007862,47.635749 C17.8648229,47.7544808 18.0702078,47.8587163 18.3169408,47.949836 C18.5629959,48.0402654 18.8503991,48.0927283 19.1791505,48.105844 L19.1791505,48.3156955 Z" id="Fill-4" fill="#010202"></path>
                </g>
            </g>
        </g>
    </g>
</svg>