<?xml version="1.0" encoding="UTF-8"?>
<svg width="19px" height="19px" viewBox="0 0 19 19" version="1.1" xmlns="http://www.w3.org/2000/svg" xmlns:xlink="http://www.w3.org/1999/xlink">
    <!-- Generator: Sketch 53.2 (72643) - https://sketchapp.com -->
    <title>linkedin-logo</title>
    <desc>Created with Sketch.</desc>
    <g id="Contact" stroke="none" stroke-width="1" fill="none" fill-rule="evenodd">
        <g id="Contact-Talent---Desktop" transform="translate(-654.000000, -2262.000000)" fill="#959595" fill-rule="nonzero">
            <g id="Footer" transform="translate(0.000000, 2014.000000)">
                <g id="linkedin-logo" transform="translate(654.000000, 248.000000)">
                    <path d="M17.1,0 L1.9,0 C0.855,0 0,0.855 0,1.9 L0,17.1 C0,18.145 0.855,19 1.9,19 L17.1,19 C18.145,19 19,18.145 19,17.1 L19,1.9 C19,0.855 18.145,0 17.1,0 Z M5.7,16.15 L2.85,16.15 L2.85,7.6 L5.7,7.6 L5.7,16.15 Z M4.275,5.985 C3.325,5.985 2.565,5.225 2.565,4.275 C2.565,3.325 3.325,2.565 4.275,2.565 C5.225,2.565 5.985,3.325 5.985,4.275 C5.985,5.225 5.225,5.985 4.275,5.985 Z M16.15,16.15 L13.3,16.15 L13.3,11.115 C13.3,10.3550373 12.635,9.69 11.875,9.69 C11.115,9.69 10.45,10.3550373 10.45,11.115 L10.45,16.15 L7.6,16.15 L7.6,7.6 L10.45,7.6 L10.45,8.74 C10.925,7.98 11.97,7.41 12.825,7.41 C14.63,7.41 16.15,8.93 16.15,10.735 L16.15,16.15 Z" id="Shape"></path>
                </g>
            </g>
        </g>
    </g>
</svg>